{"asset":{"version":"2.0","generator":"Jarvis Cartoon City sectorizer v1"},"extensionsUsed":["KHR_materials_specular","KHR_materials_ior","KHR_materials_emissive_strength"],"scenes":[{"name":"Cartoon City Free — north-central-east","nodes":[0,5,10,11,12,13,14,15,16,17,18,19,20,21,22,23,24,25,26,27,28,29,30,31,32,33,34,35,36,37,38]}],"scene":0,"nodes":[{"mesh":4,"name":"Van.002","rotation":[0,0.7071067094802856,0,0.7071068286895752],"translation":[36.675743103027344,-0.09999964386224747,24.04762840270996],"children":[1,2,3,4]},{"mesh":0,"name":"Van_Wheel_Front_Left.002","translation":[0.9228734970092773,0.39999985694885254,1.4014681577682495]},{"mesh":1,"name":"Van_Wheel_Front_Right.002","translation":[-0.9228296279907227,0.39999985694885254,1.401468276977539]},{"mesh":2,"name":"Van_Wheel_Rear_Left.002","translation":[0.922873318195343,0.39999985694885254,-1.4014722108840942]},{"mesh":3,"name":"Van_Wheel_Rear_Right.002","translation":[-0.922829806804657,0.39999985694885254,-1.4014720916748047]},{"mesh":9,"name":"Car_19.002","translation":[50.34005355834961,-0.10000000149011612,7.429872989654541],"children":[6,7,8,9]},{"mesh":5,"name":"Car_19_Wheel_Front_Left.002","translation":[0.7395362854003906,0.4000002145767212,1.106320858001709]},{"mesh":6,"name":"Car_19_Wheel_Front_Right.002","translation":[-0.7384910583496094,0.4000002145767212,1.106320858001709]},{"mesh":7,"name":"Car_19_Wheel_Rear_Left.002","translation":[0.7395362854003906,0.4000002145767212,-1.106325626373291]},{"mesh":8,"name":"Car_19_Wheel_Rear_Right.002","translation":[-0.7384910583496094,0.4000002145767212,-1.106325626373291]},{"mesh":10,"name":"road_020.085","rotation":[0,-0.7071065902709961,0,0.7071070671081543],"translation":[22.5,0,22.5]},{"mesh":11,"name":"road_022.127","translation":[52.5,0,7.5]},{"mesh":12,"name":"road_019.004","translation":[52.5,0,22.5]},{"mesh":10,"name":"road_020.001","rotation":[0,0.7071069478988647,0,0.7071065902709961],"translation":[37.5,0,22.5]},{"mesh":13,"name":"Set_B_Tiles_01.062","translation":[22.5,0,7.5]},{"mesh":14,"name":"Set_B_Tiles_05.116","rotation":[0,0.7071066498756409,0,0.70710688829422],"translation":[37.5,0,7.5]},{"mesh":17,"name":"Spotlight_01.112","rotation":[0,-1,0,0.000002936520786533947],"translation":[25.381072998046875,0,29.254043579101562]},{"mesh":18,"name":"Trash_Can_04.040","rotation":[0,0.011858056299388409,0,0.9999297857284546],"translation":[32.535308837890625,0,7.725860595703125]},{"mesh":20,"name":"Graffiti_03.002","translation":[27.397308349609375,2.55696964263916,8.647079467773438]},{"mesh":15,"name":"traffic_light_002.063","rotation":[0,-0.70710688829422,0,0.7071066498756409],"translation":[40.45916748046875,0,29.55890655517578]},{"mesh":15,"name":"traffic_light_002.064","translation":[57.02789306640625,0,34.96137237548828]},{"mesh":15,"name":"traffic_light_002.065","rotation":[0,-1,0,3.1391647326017846e-7],"translation":[48.27154541015625,0,10.266311645507812]},{"mesh":16,"name":"traffic_light_001.015","rotation":[0,-0.70710688829422,0,0.7071066498756409],"translation":[56.76971435546875,0,15.050491333007812]},{"mesh":17,"name":"Spotlight_01.093","rotation":[0,-0.7070499062538147,0,0.7071637511253357],"translation":[57.2706298828125,0,27.532211303710938]},{"mesh":19,"name":"traffic_light_003.063","translation":[40.45916748046875,0,15.725784301757812]},{"mesh":19,"name":"traffic_light_003.064","rotation":[0,0.7071071863174438,0,0.7071064710617065],"translation":[48.32855224609375,0,34.96137237548828]},{"mesh":19,"name":"traffic_light_003.065","rotation":[0,-0.7071062922477722,0,0.7071073651313782],"translation":[56.97088623046875,0,10.266311645507812]},{"mesh":21,"name":"Bush_10.180","rotation":[0,-1,0,9.099629210140847e-7],"translation":[38.022430419921875,0,30.858253479003906]},{"mesh":21,"name":"Bush_10.182","rotation":[0,-1,0,9.099629210140847e-7],"translation":[42.311279296875,0,30.858253479003906]},{"mesh":21,"name":"Bush_10.183","rotation":[0,-1,0,9.099629210140847e-7],"translation":[24.861572265625,0,30.858253479003906]},{"mesh":21,"name":"Bush_10.184","rotation":[0,-1,0,9.099629210140847e-7],"translation":[33.362396240234375,0,30.85828399658203]},{"mesh":21,"name":"Bush_10.185","rotation":[0,-1,0,9.099629210140847e-7],"translation":[29.150421142578125,0,30.858253479003906]},{"mesh":21,"name":"Bush_10.186","rotation":[0,-1,0,9.099629210140847e-7],"translation":[35.61785888671875,0,14.065521240234375]},{"mesh":21,"name":"Bush_10.189","rotation":[0,-1,0,9.099629210140847e-7],"translation":[39.906707763671875,0,14.065521240234375]},{"mesh":21,"name":"Bush_10.190","rotation":[0,-1,0,9.099629210140847e-7],"translation":[22.457000732421875,0,14.065521240234375]},{"mesh":21,"name":"Bush_10.191","rotation":[0,-1,0,9.099629210140847e-7],"translation":[30.95782470703125,0,14.0655517578125]},{"mesh":21,"name":"Bush_10.192","rotation":[0,-1,0,9.099629210140847e-7],"translation":[26.745849609375,0,14.065521240234375]},{"mesh":22,"name":"Billboard_2x1_03.002","translation":[41.837615966796875,23.123210906982422,7.8553924560546875]},{"mesh":23,"name":"Billboard_2x1_05.002","translation":[41.837615966796875,34.369972229003906,7.8553924560546875]}],"meshes":[{"name":"Mesh.139","primitives":[{"attributes":{"COLOR_0":0,"POSITION":1,"NORMAL":2,"TEXCOORD_0":3},"indices":4,"material":0},{"attributes":{"COLOR_0":5,"POSITION":6,"NORMAL":7,"TEXCOORD_0":8},"indices":9,"material":1}]},{"name":"Mesh.138","primitives":[{"attributes":{"COLOR_0":10,"POSITION":11,"NORMAL":12,"TEXCOORD_0":13},"indices":4,"material":0},{"attributes":{"COLOR_0":14,"POSITION":15,"NORMAL":16,"TEXCOORD_0":17},"indices":9,"material":1}]},{"name":"Mesh.141","primitives":[{"attributes":{"COLOR_0":18,"POSITION":19,"NORMAL":20,"TEXCOORD_0":21},"indices":4,"material":0},{"attributes":{"COLOR_0":22,"POSITION":23,"NORMAL":24,"TEXCOORD_0":25},"indices":9,"material":1}]},{"name":"Mesh.140","primitives":[{"attributes":{"COLOR_0":26,"POSITION":27,"NORMAL":28,"TEXCOORD_0":29},"indices":4,"material":0},{"attributes":{"COLOR_0":30,"POSITION":31,"NORMAL":32,"TEXCOORD_0":33},"indices":9,"material":1}]},{"name":"Mesh.142","primitives":[{"attributes":{"COLOR_0":34,"POSITION":35,"NORMAL":36,"TEXCOORD_0":37},"indices":38,"material":0},{"attributes":{"COLOR_0":39,"POSITION":40,"NORMAL":41,"TEXCOORD_0":42},"indices":43,"material":1},{"attributes":{"COLOR_0":44,"POSITION":45,"NORMAL":46,"TEXCOORD_0":47},"indices":48,"material":2},{"attributes":{"COLOR_0":49,"POSITION":50,"NORMAL":51,"TEXCOORD_0":52},"indices":53,"material":3},{"attributes":{"COLOR_0":54,"POSITION":55,"NORMAL":56,"TEXCOORD_0":57},"indices":58,"material":4}]},{"name":"Mesh.074","primitives":[{"attributes":{"COLOR_0":59,"POSITION":60,"NORMAL":61,"TEXCOORD_0":62},"indices":4,"material":0},{"attributes":{"COLOR_0":63,"POSITION":64,"NORMAL":65,"TEXCOORD_0":66},"indices":9,"material":1}]},{"name":"Mesh.068","primitives":[{"attributes":{"COLOR_0":67,"POSITION":68,"NORMAL":69,"TEXCOORD_0":70},"indices":71,"material":0},{"attributes":{"COLOR_0":72,"POSITION":73,"NORMAL":74,"TEXCOORD_0":75},"indices":76,"material":1}]},{"name":"Mesh.073","primitives":[{"attributes":{"COLOR_0":77,"POSITION":78,"NORMAL":79,"TEXCOORD_0":80},"indices":4,"material":0},{"attributes":{"COLOR_0":81,"POSITION":82,"NORMAL":83,"TEXCOORD_0":84},"indices":9,"material":1}]},{"name":"Mesh.069","primitives":[{"attributes":{"COLOR_0":85,"POSITION":86,"NORMAL":87,"TEXCOORD_0":88},"indices":71,"material":0},{"attributes":{"COLOR_0":89,"POSITION":90,"NORMAL":91,"TEXCOORD_0":92},"indices":76,"material":1}]},{"name":"beetle.004_baseGradient.007_0.001","primitives":[{"attributes":{"COLOR_0":93,"POSITION":94,"NORMAL":95,"TEXCOORD_0":96},"indices":97,"material":0},{"attributes":{"COLOR_0":98,"POSITION":99,"NORMAL":100,"TEXCOORD_0":101},"indices":102,"material":5},{"attributes":{"COLOR_0":103,"POSITION":104,"NORMAL":105,"TEXCOORD_0":106},"indices":107,"material":2},{"attributes":{"COLOR_0":108,"POSITION":109,"NORMAL":110,"TEXCOORD_0":111},"indices":112,"material":1},{"attributes":{"COLOR_0":113,"POSITION":114,"NORMAL":115,"TEXCOORD_0":116},"indices":117,"material":3},{"attributes":{"COLOR_0":118,"POSITION":119,"NORMAL":120,"TEXCOORD_0":121},"indices":122,"material":6},{"attributes":{"COLOR_0":123,"POSITION":124,"NORMAL":125,"TEXCOORD_0":126},"indices":127,"material":4}]},{"name":"Cube.190","primitives":[{"attributes":{"POSITION":129,"NORMAL":130,"TEXCOORD_0":131},"indices":132,"material":0},{"attributes":{"POSITION":133,"NORMAL":134,"TEXCOORD_0":135},"indices":128,"material":8}]},{"name":"Cube.188","primitives":[{"attributes":{"POSITION":136,"NORMAL":137,"TEXCOORD_0":138},"indices":132,"material":0},{"attributes":{"POSITION":139,"NORMAL":140,"TEXCOORD_0":141},"indices":128,"material":8}]},{"name":"Cube.191","primitives":[{"attributes":{"POSITION":142,"NORMAL":143,"TEXCOORD_0":144},"indices":145,"material":0},{"attributes":{"POSITION":146,"NORMAL":147,"TEXCOORD_0":148},"indices":149,"material":8}]},{"name":"Plane.272","primitives":[{"attributes":{"POSITION":150,"NORMAL":151,"TEXCOORD_0":152},"indices":153,"material":0},{"attributes":{"POSITION":154,"NORMAL":155,"TEXCOORD_0":156},"indices":157,"material":9},{"attributes":{"POSITION":158,"NORMAL":159,"TEXCOORD_0":160},"indices":161,"material":10},{"attributes":{"POSITION":162,"NORMAL":163,"TEXCOORD_0":164},"indices":165,"material":11}]},{"name":"Plane.271","primitives":[{"attributes":{"POSITION":166,"NORMAL":167,"TEXCOORD_0":168},"indices":169,"material":0},{"attributes":{"POSITION":170,"NORMAL":171,"TEXCOORD_0":172},"indices":173,"material":9},{"attributes":{"POSITION":174,"NORMAL":175,"TEXCOORD_0":176},"indices":177,"material":10},{"attributes":{"POSITION":178,"NORMAL":179,"TEXCOORD_0":180},"indices":149,"material":11}]},{"name":"Cube.111","primitives":[{"attributes":{"POSITION":181,"NORMAL":182,"TEXCOORD_0":183},"indices":184,"material":0},{"attributes":{"POSITION":185,"NORMAL":186,"TEXCOORD_0":187},"indices":188,"material":7},{"attributes":{"POSITION":189,"NORMAL":190,"TEXCOORD_0":191},"indices":192,"material":12}]},{"name":"Cube.124","primitives":[{"attributes":{"POSITION":193,"NORMAL":194,"TEXCOORD_0":195},"indices":196,"material":0},{"attributes":{"POSITION":197,"NORMAL":198,"TEXCOORD_0":199},"indices":200,"material":7}]},{"name":"Cube.184","primitives":[{"attributes":{"POSITION":201,"NORMAL":202,"TEXCOORD_0":203},"indices":204,"material":0},{"attributes":{"POSITION":205,"NORMAL":206,"TEXCOORD_0":207},"indices":208,"material":7}]},{"name":"Cube.068","primitives":[{"attributes":{"POSITION":210,"NORMAL":211,"TEXCOORD_0":212},"indices":209,"material":0}]},{"name":"Cube.107","primitives":[{"attributes":{"POSITION":213,"NORMAL":214,"TEXCOORD_0":215},"indices":216,"material":0},{"attributes":{"POSITION":217,"NORMAL":218,"TEXCOORD_0":219},"indices":220,"material":7},{"attributes":{"POSITION":221,"NORMAL":222,"TEXCOORD_0":223},"indices":192,"material":12}]},{"name":"Plane.129","primitives":[{"attributes":{"POSITION":224,"NORMAL":225,"TEXCOORD_0":226},"indices":227,"material":13}]},{"name":"Cube.083","primitives":[{"attributes":{"POSITION":228,"NORMAL":229,"TEXCOORD_0":230},"indices":231,"material":0}]},{"name":"Cube.286","primitives":[{"attributes":{"POSITION":232,"NORMAL":233,"TEXCOORD_0":234},"indices":235,"material":0},{"attributes":{"POSITION":236,"NORMAL":237,"TEXCOORD_0":238},"indices":239,"material":14}]},{"name":"Cube.373","primitives":[{"attributes":{"POSITION":240,"NORMAL":241,"TEXCOORD_0":242},"indices":235,"material":0},{"attributes":{"POSITION":243,"NORMAL":244,"TEXCOORD_0":245},"indices":239,"material":14}]}],"materials":[{"doubleSided":true,"name":"Color","pbrMetallicRoughness":{"baseColorTexture":{"index":0},"metallicFactor":0,"roughnessFactor":0.699999988079071}},{"doubleSided":true,"name":"Metal","pbrMetallicRoughness":{"baseColorTexture":{"index":1},"roughnessFactor":0.3316831588745117}},{"doubleSided":true,"name":"Color_Glossy","pbrMetallicRoughness":{"baseColorTexture":{"index":2},"metallicFactor":0,"roughnessFactor":0.20000000298023224}},{"doubleSided":true,"emissiveFactor":[1,1,1],"emissiveTexture":{"index":3},"name":"Car_Taillights","pbrMetallicRoughness":{"baseColorTexture":{"index":4},"metallicFactor":0,"roughnessFactor":0.5}},{"alphaMode":"BLEND","doubleSided":true,"extensions":{"KHR_materials_specular":{"specularColorFactor":[2.371357614441398,2.371357614441398,2.371357614441398]},"KHR_materials_ior":{"ior":1.4500000476837158}},"name":"Glass","pbrMetallicRoughness":{"baseColorFactor":[1,1,1,0.5],"baseColorTexture":{"index":5},"metallicFactor":0.20000000298023224,"roughnessFactor":0.05000000074505806}},{"doubleSided":true,"emissiveFactor":[0.10000000149011612,0.10000000149011612,0.10000000149011612],"emissiveTexture":{"index":6},"name":"Car_Color","pbrMetallicRoughness":{"baseColorTexture":{"index":7},"metallicFactor":0.20000000298023224,"roughnessFactor":0.10000000149011612}},{"doubleSided":true,"emissiveFactor":[1,1,1],"emissiveTexture":{"index":8},"name":"Car_Headlights","pbrMetallicRoughness":{"baseColorTexture":{"index":9},"metallicFactor":0,"roughnessFactor":0.5}},{"doubleSided":true,"emissiveFactor":[1,1,1],"emissiveTexture":{"index":10},"extensions":{"KHR_materials_emissive_strength":{"emissiveStrength":3}},"name":"Emissive","pbrMetallicRoughness":{"baseColorTexture":{"index":11},"metallicFactor":0,"roughnessFactor":0.5}},{"doubleSided":true,"emissiveFactor":[0.10000000149011612,0.10000000149011612,0.10000000149011612],"emissiveTexture":{"index":12},"extensions":{"KHR_materials_specular":{"specularColorFactor":[0.711407312601205,0.711407312601205,0.711407312601205]},"KHR_materials_ior":{"ior":1.4500000476837158}},"name":"Roads","pbrMetallicRoughness":{"baseColorTexture":{"index":13},"metallicFactor":0,"roughnessFactor":0.75}},{"doubleSided":true,"name":"Asphalt_Dark_Gray","pbrMetallicRoughness":{"baseColorFactor":[0.13853572309017181,0.13853572309017181,0.13853572309017181,1],"metallicFactor":0,"roughnessFactor":0.5}},{"doubleSided":true,"name":"Tile_1","normalTexture":{"index":14,"scale":5},"pbrMetallicRoughness":{"baseColorTexture":{"index":15},"metallicFactor":0,"metallicRoughnessTexture":{"index":16}}},{"doubleSided":true,"name":"Grass","pbrMetallicRoughness":{"baseColorFactor":[0.25015830993652344,0.44520121812820435,0.13013650476932526,1],"metallicFactor":0,"roughnessFactor":0.7598187327384949}},{"doubleSided":true,"name":"Road_Signs","pbrMetallicRoughness":{"baseColorTexture":{"index":17},"metallicFactor":0,"roughnessFactor":0.5}},{"alphaCutoff":0.5,"alphaMode":"MASK","doubleSided":true,"name":"Graffiti","pbrMetallicRoughness":{"baseColorTexture":{"index":18},"metallicFactor":0,"roughnessFactor":0.5}},{"doubleSided":true,"emissiveFactor":[1,1,1],"emissiveTexture":{"index":19},"name":"Billboard","pbrMetallicRoughness":{"baseColorTexture":{"index":20},"metallicFactor":0,"roughnessFactor":0.5}}],"textures":[{"sampler":0,"source":0},{"sampler":0,"source":1},{"sampler":0,"source":0},{"sampler":0,"source":1},{"sampler":0,"source":1},{"sampler":0,"source":0},{"sampler":0,"source":0},{"sampler":0,"source":0},{"sampler":0,"source":1},{"sampler":0,"source":1},{"sampler":0,"source":1},{"sampler":0,"source":1},{"sampler":0,"source":2},{"sampler":0,"source":2},{"sampler":0,"source":3},{"sampler":0,"source":4},{"sampler":0,"source":5},{"sampler":0,"source":6},{"sampler":0,"source":7},{"sampler":0,"source":8},{"sampler":0,"source":8}],"images":[{"uri":"shared/486c6d61063241d5.webp","mimeType":"image/webp"},{"uri":"shared/486c6d61063241d5.webp","mimeType":"image/webp"},{"uri":"shared/cd11a20db95ff60c.webp","mimeType":"image/webp"},{"uri":"shared/28470d0f5c64a9e9.png","mimeType":"image/png"},{"uri":"shared/d686ec6d73243cad.webp","mimeType":"image/webp"},{"uri":"shared/0dd4c9f67e03b0dc.png","mimeType":"image/png"},{"uri":"shared/2cccaa2f16cfd5f2.webp","mimeType":"image/webp"},{"uri":"shared/e5b3c37a88b83cd5.webp","mimeType":"image/webp"},{"uri":"shared/6b5f60a1524e8f02.webp","mimeType":"image/webp"}],"samplers":[{"magFilter":9729,"minFilter":9987}],"accessors":[{"bufferView":0,"componentType":5123,"count":120,"normalized":true,"type":"VEC4"},{"bufferView":1,"componentType":5126,"count":120,"max":[0.1618468463420868,0.3999999165534973,0.3999944031238556],"min":[-0.1623368263244629,-0.4000000059604645,-0.40000560879707336],"type":"VEC3"},{"bufferView":2,"componentType":5126,"count":120,"type":"VEC3"},{"bufferView":3,"componentType":5126,"count":120,"type":"VEC2"},{"bufferView":4,"componentType":5123,"count":594,"type":"SCALAR"},{"bufferView":5,"componentType":5123,"count":34,"normalized":true,"type":"VEC4"},{"bufferView":6,"componentType":5126,"count":34,"max":[0.16150975227355957,0.25954538583755493,0.2595387101173401],"min":[0.03218558430671692,-0.2595454156398773,-0.2595521807670593],"type":"VEC3"},{"bufferView":7,"componentType":5126,"count":34,"type":"VEC3"},{"bufferView":8,"componentType":5126,"count":34,"type":"VEC2"},{"bufferView":9,"componentType":5123,"count":96,"type":"SCALAR"},{"bufferView":10,"componentType":5123,"count":120,"normalized":true,"type":"VEC4"},{"bufferView":11,"componentType":5126,"count":120,"max":[0.16233696043491364,0.3999999165534973,0.40000560879707336],"min":[-0.16184698045253754,-0.4000000059604645,-0.3999944031238556],"type":"VEC3"},{"bufferView":12,"componentType":5126,"count":120,"type":"VEC3"},{"bufferView":13,"componentType":5126,"count":120,"type":"VEC2"},{"bufferView":14,"componentType":5123,"count":34,"normalized":true,"type":"VEC4"},{"bufferView":15,"componentType":5126,"count":34,"max":[-0.03218558430671692,0.25954538583755493,0.2595522999763489],"min":[-0.16150975227355957,-0.2595454156398773,-0.25953859090805054],"type":"VEC3"},{"bufferView":16,"componentType":5126,"count":34,"type":"VEC3"},{"bufferView":17,"componentType":5126,"count":34,"type":"VEC2"},{"bufferView":18,"componentType":5123,"count":120,"normalized":true,"type":"VEC4"},{"bufferView":19,"componentType":5126,"count":120,"max":[0.1618468463420868,0.3999999165534973,0.3999944031238556],"min":[-0.1623368263244629,-0.4000000059604645,-0.40000560879707336],"type":"VEC3"},{"bufferView":20,"componentType":5126,"count":120,"type":"VEC3"},{"bufferView":21,"componentType":5126,"count":120,"type":"VEC2"},{"bufferView":22,"componentType":5123,"count":34,"normalized":true,"type":"VEC4"},{"bufferView":23,"componentType":5126,"count":34,"max":[0.16150975227355957,0.25954538583755493,0.2595387101173401],"min":[0.03218558430671692,-0.2595454156398773,-0.2595521807670593],"type":"VEC3"},{"bufferView":24,"componentType":5126,"count":34,"type":"VEC3"},{"bufferView":25,"componentType":5126,"count":34,"type":"VEC2"},{"bufferView":26,"componentType":5123,"count":120,"normalized":true,"type":"VEC4"},{"bufferView":27,"componentType":5126,"count":120,"max":[0.16233696043491364,0.3999999165534973,0.40000560879707336],"min":[-0.16184698045253754,-0.4000000059604645,-0.3999944031238556],"type":"VEC3"},{"bufferView":28,"componentType":5126,"count":120,"type":"VEC3"},{"bufferView":29,"componentType":5126,"count":120,"type":"VEC2"},{"bufferView":30,"componentType":5123,"count":34,"normalized":true,"type":"VEC4"},{"bufferView":31,"componentType":5126,"count":34,"max":[-0.03218558430671692,0.25954538583755493,0.2595522999763489],"min":[-0.16150975227355957,-0.2595454156398773,-0.25953859090805054],"type":"VEC3"},{"bufferView":32,"componentType":5126,"count":34,"type":"VEC3"},{"bufferView":33,"componentType":5126,"count":34,"type":"VEC2"},{"bufferView":34,"componentType":5123,"count":1524,"normalized":true,"type":"VEC4"},{"bufferView":35,"componentType":5126,"count":1524,"max":[1.1476143598556519,2.9508824348449707,2.242865562438965],"min":[-1.1473641395568848,0.2360285520553589,-2.785670757293701],"type":"VEC3"},{"bufferView":36,"componentType":5126,"count":1524,"type":"VEC3"},{"bufferView":37,"componentType":5126,"count":1524,"type":"VEC2"},{"bufferView":38,"componentType":5123,"count":5235,"type":"SCALAR"},{"bufferView":39,"componentType":5123,"count":132,"normalized":true,"type":"VEC4"},{"bufferView":40,"componentType":5126,"count":132,"max":[0.9670319557189941,1.0786514282226562,2.2174072265625],"min":[-0.9667816758155823,0.5249274373054504,-2.762026309967041],"type":"VEC3"},{"bufferView":41,"componentType":5126,"count":132,"type":"VEC3"},{"bufferView":42,"componentType":5126,"count":132,"type":"VEC2"},{"bufferView":43,"componentType":5123,"count":372,"type":"SCALAR"},{"bufferView":44,"componentType":5123,"count":105,"normalized":true,"type":"VEC4"},{"bufferView":45,"componentType":5126,"count":105,"max":[1.0450634956359863,2.4341421127319336,1.4451169967651367],"min":[-1.0448132753372192,1.2491238117218018,-2.6542718410491943],"type":"VEC3"},{"bufferView":46,"componentType":5126,"count":105,"type":"VEC3"},{"bufferView":47,"componentType":5126,"count":105,"type":"VEC2"},{"bufferView":48,"componentType":5123,"count":261,"type":"SCALAR"},{"bufferView":49,"componentType":5123,"count":60,"normalized":true,"type":"VEC4"},{"bufferView":50,"componentType":5126,"count":60,"max":[0.9583225250244141,1.0662018060684204,-2.7283101081848145],"min":[-0.9580722451210022,0.7614828944206238,-2.8064112663269043],"type":"VEC3"},{"bufferView":51,"componentType":5126,"count":60,"type":"VEC3"},{"bufferView":52,"componentType":5126,"count":60,"type":"VEC2"},{"bufferView":53,"componentType":5123,"count":288,"type":"SCALAR"},{"bufferView":54,"componentType":5123,"count":96,"normalized":true,"type":"VEC4"},{"bufferView":55,"componentType":5126,"count":96,"max":[0.8955180644989014,0.9167686104774475,2.2615208625793457],"min":[-0.8896902799606323,0.5387100577354431,2.194962978363037],"type":"VEC3"},{"bufferView":56,"componentType":5126,"count":96,"type":"VEC3"},{"bufferView":57,"componentType":5126,"count":96,"type":"VEC2"},{"bufferView":58,"componentType":5123,"count":408,"type":"SCALAR"},{"bufferView":59,"componentType":5123,"count":120,"normalized":true,"type":"VEC4"},{"bufferView":60,"componentType":5126,"count":120,"max":[0.16160275042057037,0.3999999463558197,0.39999446272850037],"min":[-0.16258098185062408,-0.4000001847743988,-0.40000566840171814],"type":"VEC3"},{"bufferView":61,"componentType":5126,"count":120,"type":"VEC3"},{"bufferView":62,"componentType":5126,"count":120,"type":"VEC2"},{"bufferView":63,"componentType":5123,"count":34,"normalized":true,"type":"VEC4"},{"bufferView":64,"componentType":5126,"count":34,"max":[0.16126562654972076,0.25954538583755493,0.2595387101173401],"min":[0.03194141760468483,-0.25954556465148926,-0.2595522999763489],"type":"VEC3"},{"bufferView":65,"componentType":5126,"count":34,"type":"VEC3"},{"bufferView":66,"componentType":5126,"count":34,"type":"VEC2"},{"bufferView":67,"componentType":5123,"count":120,"normalized":true,"type":"VEC4"},{"bufferView":68,"componentType":5126,"count":120,"max":[0.16184855997562408,0.3999999463558197,0.39999446272850037],"min":[-0.16233517229557037,-0.4000001847743988,-0.40000566840171814],"type":"VEC3"},{"bufferView":69,"componentType":5126,"count":120,"type":"VEC3"},{"bufferView":70,"componentType":5126,"count":120,"type":"VEC2"},{"bufferView":71,"componentType":5123,"count":594,"type":"SCALAR"},{"bufferView":72,"componentType":5123,"count":34,"normalized":true,"type":"VEC4"},{"bufferView":73,"componentType":5126,"count":34,"max":[-0.03267383947968483,0.25954538583755493,0.2595387101173401],"min":[-0.16199804842472076,-0.25954556465148926,-0.2595522999763489],"type":"VEC3"},{"bufferView":74,"componentType":5126,"count":34,"type":"VEC3"},{"bufferView":75,"componentType":5126,"count":34,"type":"VEC2"},{"bufferView":76,"componentType":5123,"count":96,"type":"SCALAR"},{"bufferView":77,"componentType":5123,"count":120,"normalized":true,"type":"VEC4"},{"bufferView":78,"componentType":5126,"count":120,"max":[0.16160275042057037,0.3999999463558197,0.39999446272850037],"min":[-0.16258098185062408,-0.4000001847743988,-0.40000566840171814],"type":"VEC3"},{"bufferView":79,"componentType":5126,"count":120,"type":"VEC3"},{"bufferView":80,"componentType":5126,"count":120,"type":"VEC2"},{"bufferView":81,"componentType":5123,"count":34,"normalized":true,"type":"VEC4"},{"bufferView":82,"componentType":5126,"count":34,"max":[0.16126562654972076,0.25954538583755493,0.2595387101173401],"min":[0.03194141760468483,-0.25954556465148926,-0.2595522999763489],"type":"VEC3"},{"bufferView":83,"componentType":5126,"count":34,"type":"VEC3"},{"bufferView":84,"componentType":5126,"count":34,"type":"VEC2"},{"bufferView":85,"componentType":5123,"count":120,"normalized":true,"type":"VEC4"},{"bufferView":86,"componentType":5126,"count":120,"max":[0.16184855997562408,0.3999999463558197,0.39999446272850037],"min":[-0.16233517229557037,-0.4000001847743988,-0.40000566840171814],"type":"VEC3"},{"bufferView":87,"componentType":5126,"count":120,"type":"VEC3"},{"bufferView":88,"componentType":5126,"count":120,"type":"VEC2"},{"bufferView":89,"componentType":5123,"count":34,"normalized":true,"type":"VEC4"},{"bufferView":90,"componentType":5126,"count":34,"max":[-0.03267383947968483,0.25954538583755493,0.2595387101173401],"min":[-0.16199804842472076,-0.25954556465148926,-0.2595522999763489],"type":"VEC3"},{"bufferView":91,"componentType":5126,"count":34,"type":"VEC3"},{"bufferView":92,"componentType":5126,"count":34,"type":"VEC2"},{"bufferView":93,"componentType":5123,"count":348,"normalized":true,"type":"VEC4"},{"bufferView":94,"componentType":5126,"count":348,"max":[0.890807032585144,1.4882900714874268,1.5474961996078491],"min":[-0.8905633687973022,0.26076531410217285,-1.5428946018218994],"type":"VEC3"},{"bufferView":95,"componentType":5126,"count":348,"type":"VEC3"},{"bufferView":96,"componentType":5126,"count":348,"type":"VEC2"},{"bufferView":97,"componentType":5123,"count":918,"type":"SCALAR"},{"bufferView":98,"componentType":5123,"count":547,"normalized":true,"type":"VEC4"},{"bufferView":99,"componentType":5126,"count":547,"max":[0.890807032585144,1.6471302509307861,1.7249062061309814],"min":[-0.8905634880065918,0.19979190826416016,-1.9050875902175903],"type":"VEC3"},{"bufferView":100,"componentType":5126,"count":547,"type":"VEC3"},{"bufferView":101,"componentType":5126,"count":547,"type":"VEC2"},{"bufferView":102,"componentType":5123,"count":2100,"type":"SCALAR"},{"bufferView":103,"componentType":5123,"count":85,"normalized":true,"type":"VEC4"},{"bufferView":104,"componentType":5126,"count":85,"max":[0.7060546875,1.4570825099945068,0.5437366962432861],"min":[-0.705810546875,1.0568881034851074,-1.357279658317566],"type":"VEC3"},{"bufferView":105,"componentType":5126,"count":85,"type":"VEC3"},{"bufferView":106,"componentType":5126,"count":85,"type":"VEC2"},{"bufferView":107,"componentType":5123,"count":240,"type":"SCALAR"},{"bufferView":108,"componentType":5123,"count":516,"normalized":true,"type":"VEC4"},{"bufferView":109,"componentType":5126,"count":516,"max":[0.8514214158058167,1.2386927604675293,1.7686084508895874],"min":[-0.8515722751617432,0.2570513188838959,-1.8987914323806763],"type":"VEC3"},{"bufferView":110,"componentType":5126,"count":516,"type":"VEC3"},{"bufferView":111,"componentType":5126,"count":516,"type":"VEC2"},{"bufferView":112,"componentType":5123,"count":2280,"type":"SCALAR"},{"bufferView":113,"componentType":5123,"count":72,"normalized":true,"type":"VEC4"},{"bufferView":114,"componentType":5126,"count":72,"max":[0.7107113599777222,0.6922472715377808,-1.7011644840240479],"min":[-0.7104676961898804,0.49643173813819885,-1.761592984199524],"type":"VEC3"},{"bufferView":115,"componentType":5126,"count":72,"type":"VEC3"},{"bufferView":116,"componentType":5126,"count":72,"type":"VEC2"},{"bufferView":117,"componentType":5123,"count":408,"type":"SCALAR"},{"bufferView":118,"componentType":5123,"count":24,"normalized":true,"type":"VEC4"},{"bufferView":119,"componentType":5126,"count":24,"max":[0.6814594864845276,0.8091983795166016,1.5876168012619019],"min":[-0.6812148690223694,0.5367419123649597,1.5300167798995972],"type":"VEC3"},{"bufferView":120,"componentType":5126,"count":24,"type":"VEC3"},{"bufferView":121,"componentType":5126,"count":24,"type":"VEC2"},{"bufferView":122,"componentType":5123,"count":60,"type":"SCALAR"},{"bufferView":123,"componentType":5123,"count":38,"normalized":true,"type":"VEC4"},{"bufferView":124,"componentType":5126,"count":38,"max":[0.707402229309082,0.8360848426818848,1.6608446836471558],"min":[-0.7071576118469238,0.5093737244606018,1.5742207765579224],"type":"VEC3"},{"bufferView":125,"componentType":5126,"count":38,"type":"VEC3"},{"bufferView":126,"componentType":5126,"count":38,"type":"VEC2"},{"bufferView":127,"componentType":5123,"count":144,"type":"SCALAR"},{"bufferView":128,"componentType":5123,"count":6,"type":"SCALAR"},{"bufferView":129,"componentType":5126,"count":48,"max":[7.500000953674316,0.09999997913837433,7.499996662139893],"min":[-7.500000953674316,-0.10000001639127731,-7.499996662139893],"type":"VEC3"},{"bufferView":130,"componentType":5126,"count":48,"type":"VEC3"},{"bufferView":131,"componentType":5126,"count":48,"type":"VEC2"},{"bufferView":132,"componentType":5123,"count":72,"type":"SCALAR"},{"bufferView":133,"componentType":5126,"count":4,"max":[7.499879837036133,-0.10000000894069672,7.499996662139893],"min":[-7.500123977661133,-0.10000000894069672,-7.499996662139893],"type":"VEC3"},{"bufferView":134,"componentType":5126,"count":4,"type":"VEC3"},{"bufferView":135,"componentType":5126,"count":4,"type":"VEC2"},{"bufferView":136,"componentType":5126,"count":48,"max":[7.500000953674316,0.09999997913837433,7.500000953674316],"min":[-7.500000953674316,-0.10000001639127731,-7.500000953674316],"type":"VEC3"},{"bufferView":137,"componentType":5126,"count":48,"type":"VEC3"},{"bufferView":138,"componentType":5126,"count":48,"type":"VEC2"},{"bufferView":139,"componentType":5126,"count":4,"max":[3.7500016689300537,-0.10000000894069672,7.500000476837158],"min":[-3.7500016689300537,-0.10000000894069672,-7.500000476837158],"type":"VEC3"},{"bufferView":140,"componentType":5126,"count":4,"type":"VEC3"},{"bufferView":141,"componentType":5126,"count":4,"type":"VEC2"},{"bufferView":142,"componentType":5126,"count":136,"max":[7.500000476837158,0.10000002384185791,7.5],"min":[-7.500001430511475,-0.10000002384185791,-7.5],"type":"VEC3"},{"bufferView":143,"componentType":5126,"count":136,"type":"VEC3"},{"bufferView":144,"componentType":5126,"count":136,"type":"VEC2"},{"bufferView":145,"componentType":5123,"count":258,"type":"SCALAR"},{"bufferView":146,"componentType":5126,"count":4,"max":[7.500000953674316,-0.10000000894069672,7.499995231628418],"min":[-7.500096321105957,-0.10000000894069672,-7.499995231628418],"type":"VEC3"},{"bufferView":147,"componentType":5126,"count":4,"type":"VEC3"},{"bufferView":148,"componentType":5126,"count":4,"type":"VEC2"},{"bufferView":149,"componentType":5123,"count":6,"type":"SCALAR"},{"bufferView":150,"componentType":5126,"count":160,"max":[7.5,0.10000000149011612,5.705989837646484],"min":[-5.705223083496094,-0.10000000149011612,-7.499998569488525],"type":"VEC3"},{"bufferView":151,"componentType":5126,"count":160,"type":"VEC3"},{"bufferView":152,"componentType":5126,"count":160,"type":"VEC2"},{"bufferView":153,"componentType":5123,"count":276,"type":"SCALAR"},{"bufferView":154,"componentType":5126,"count":10,"max":[7.5,0,5.606975078582764],"min":[-5.604776382446289,-9.5367431640625e-7,-7.499980926513672],"type":"VEC3"},{"bufferView":155,"componentType":5126,"count":10,"type":"VEC3"},{"bufferView":156,"componentType":5126,"count":10,"type":"VEC2"},{"bufferView":157,"componentType":5123,"count":24,"type":"SCALAR"},{"bufferView":158,"componentType":5126,"count":6,"max":[7.5,0,1.8790885210037231],"min":[-1.8768863677978516,-9.5367431640625e-7,-7.49998140335083],"type":"VEC3"},{"bufferView":159,"componentType":5126,"count":6,"type":"VEC3"},{"bufferView":160,"componentType":5126,"count":6,"type":"VEC2"},{"bufferView":161,"componentType":5123,"count":12,"type":"SCALAR"},{"bufferView":162,"componentType":5126,"count":8,"max":[7.5,0,7.500000476837158],"min":[-7.5,-9.5367431640625e-7,-7.499974727630615],"type":"VEC3"},{"bufferView":163,"componentType":5126,"count":8,"type":"VEC3"},{"bufferView":164,"componentType":5126,"count":8,"type":"VEC2"},{"bufferView":165,"componentType":5123,"count":18,"type":"SCALAR"},{"bufferView":166,"componentType":5126,"count":40,"max":[-1.776357650756836,0.10000000149011612,7.499995231628418],"min":[-5.706169128417969,-0.10000000149011612,-7.500004768371582],"type":"VEC3"},{"bufferView":167,"componentType":5126,"count":40,"type":"VEC3"},{"bufferView":168,"componentType":5126,"count":40,"type":"VEC2"},{"bufferView":169,"componentType":5123,"count":60,"type":"SCALAR"},{"bufferView":170,"componentType":5126,"count":4,"max":[-1.8790836334228516,-9.5367431640625e-7,7.499995231628418],"min":[-5.606972694396973,-9.5367431640625e-7,-7.500004768371582],"type":"VEC3"},{"bufferView":171,"componentType":5126,"count":4,"type":"VEC3"},{"bufferView":172,"componentType":5126,"count":4,"type":"VEC2"},{"bufferView":173,"componentType":5123,"count":6,"type":"SCALAR"},{"bufferView":174,"componentType":5126,"count":4,"max":[7.5,0,7.499995231628418],"min":[-1.8790836334228516,-9.5367431640625e-7,-7.500004768371582],"type":"VEC3"},{"bufferView":175,"componentType":5126,"count":4,"type":"VEC3"},{"bufferView":176,"componentType":5126,"count":4,"type":"VEC2"},{"bufferView":177,"componentType":5123,"count":6,"type":"SCALAR"},{"bufferView":178,"componentType":5126,"count":4,"max":[-5.606972694396973,0,7.499995231628418],"min":[-7.5,-9.5367431640625e-7,-7.500004768371582],"type":"VEC3"},{"bufferView":179,"componentType":5126,"count":4,"type":"VEC3"},{"bufferView":180,"componentType":5126,"count":4,"type":"VEC2"},{"bufferView":181,"componentType":5126,"count":250,"max":[0.8402214050292969,5.875692367553711,0.2000018209218979],"min":[-3.8944287300109863,0,-0.534691333770752],"type":"VEC3"},{"bufferView":182,"componentType":5126,"count":250,"type":"VEC3"},{"bufferView":183,"componentType":5126,"count":250,"type":"VEC2"},{"bufferView":184,"componentType":5123,"count":690,"type":"SCALAR"},{"bufferView":185,"componentType":5126,"count":104,"max":[0.05109861120581627,5.80059814453125,0.20468004047870636],"min":[-3.8028550148010254,2.0637972354888916,-0.44432735443115234],"type":"VEC3"},{"bufferView":186,"componentType":5126,"count":104,"type":"VEC3"},{"bufferView":187,"componentType":5126,"count":104,"type":"VEC2"},{"bufferView":188,"componentType":5123,"count":234,"type":"SCALAR"},{"bufferView":189,"componentType":5126,"count":8,"max":[0.8402214050292969,3.674964427947998,0.05142209678888321],"min":[0.14022113382816315,2.9749643802642822,0.05142199248075485],"type":"VEC3"},{"bufferView":190,"componentType":5126,"count":8,"type":"VEC3"},{"bufferView":191,"componentType":5126,"count":8,"type":"VEC2"},{"bufferView":192,"componentType":5123,"count":18,"type":"SCALAR"},{"bufferView":193,"componentType":5126,"count":79,"max":[3.8942618370056152,5.875692367553711,0.20000438392162323],"min":[-0.09761166572570801,0,-0.1999952495098114],"type":"VEC3"},{"bufferView":194,"componentType":5126,"count":79,"type":"VEC3"},{"bufferView":195,"componentType":5126,"count":79,"type":"VEC2"},{"bufferView":196,"componentType":5123,"count":312,"type":"SCALAR"},{"bufferView":197,"componentType":5126,"count":24,"max":[3.8026881217956543,5.80059814453125,0.2025989294052124],"min":[3.5812008380889893,4.953180313110352,0.20259889960289001],"type":"VEC3"},{"bufferView":198,"componentType":5126,"count":24,"type":"VEC3"},{"bufferView":199,"componentType":5126,"count":24,"type":"VEC2"},{"bufferView":200,"componentType":5123,"count":54,"type":"SCALAR"},{"bufferView":201,"componentType":5126,"count":106,"max":[0.22128364443778992,8.304719924926758,3.0710415840148926],"min":[-0.2213037759065628,0,-0.11709251999855042],"type":"VEC3"},{"bufferView":202,"componentType":5126,"count":106,"type":"VEC3"},{"bufferView":203,"componentType":5126,"count":106,"type":"VEC2"},{"bufferView":204,"componentType":5123,"count":336,"type":"SCALAR"},{"bufferView":205,"componentType":5126,"count":10,"max":[0.13364164531230927,7.941127300262451,3.0237202644348145],"min":[-0.13366179168224335,7.70126485824585,2.2360119819641113],"type":"VEC3"},{"bufferView":206,"componentType":5126,"count":10,"type":"VEC3"},{"bufferView":207,"componentType":5126,"count":10,"type":"VEC2"},{"bufferView":208,"componentType":5123,"count":24,"type":"SCALAR"},{"bufferView":209,"componentType":5123,"count":132,"type":"SCALAR"},{"bufferView":210,"componentType":5126,"count":76,"max":[1.0424615144729614,1.639740228652954,0.5986649990081787],"min":[-1.0424615144729614,-0.00527788233011961,-0.5966669321060181],"type":"VEC3"},{"bufferView":211,"componentType":5126,"count":76,"type":"VEC3"},{"bufferView":212,"componentType":5126,"count":76,"type":"VEC2"},{"bufferView":213,"componentType":5126,"count":130,"max":[0.5346779823303223,3.6833977699279785,0.09750127792358398],"min":[-0.35001420974731445,0,-0.09750032424926758],"type":"VEC3"},{"bufferView":214,"componentType":5126,"count":130,"type":"VEC3"},{"bufferView":215,"componentType":5126,"count":130,"type":"VEC2"},{"bufferView":216,"componentType":5123,"count":270,"type":"SCALAR"},{"bufferView":217,"componentType":5126,"count":32,"max":[0.44431400299072266,2.5615642070770264,0.051464855670928955],"min":[0.22252750396728516,2.0637972354888916,-0.059887468814849854],"type":"VEC3"},{"bufferView":218,"componentType":5126,"count":32,"type":"VEC3"},{"bufferView":219,"componentType":5126,"count":32,"type":"VEC2"},{"bufferView":220,"componentType":5123,"count":72,"type":"SCALAR"},{"bufferView":221,"componentType":5126,"count":8,"max":[0.34998607635498047,3.6833977699279785,0.04463052749633789],"min":[-0.35001420974731445,2.983397960662842,0.04463052749633789],"type":"VEC3"},{"bufferView":222,"componentType":5126,"count":8,"type":"VEC3"},{"bufferView":223,"componentType":5126,"count":8,"type":"VEC2"},{"bufferView":224,"componentType":5126,"count":4,"max":[2.1039116382598877,1.9870131015777588,1.5001531039615656e-7],"min":[-2.1039116382598877,-1.9870129823684692,-1.5001531039615656e-7],"type":"VEC3"},{"bufferView":225,"componentType":5126,"count":4,"type":"VEC3"},{"bufferView":226,"componentType":5126,"count":4,"type":"VEC2"},{"bufferView":227,"componentType":5123,"count":6,"type":"SCALAR"},{"bufferView":228,"componentType":5126,"count":20,"max":[0.9925661087036133,1,0.49380436539649963],"min":[-0.9925661087036133,0,-0.49380436539649963],"type":"VEC3"},{"bufferView":229,"componentType":5126,"count":20,"type":"VEC3"},{"bufferView":230,"componentType":5126,"count":20,"type":"VEC2"},{"bufferView":231,"componentType":5123,"count":90,"type":"SCALAR"},{"bufferView":232,"componentType":5126,"count":110,"max":[0.8724861145019531,7.956271648406982,0.8724099397659302],"min":[-8.225666046142578,4.76837158203125e-7,-6.286985874176025],"type":"VEC3"},{"bufferView":233,"componentType":5126,"count":110,"type":"VEC3"},{"bufferView":234,"componentType":5126,"count":110,"type":"VEC2"},{"bufferView":235,"componentType":5123,"count":324,"type":"SCALAR"},{"bufferView":236,"componentType":5126,"count":22,"max":[0.8724861145019531,7.770144462585449,0.8724099397659302],"min":[-8.03953742980957,0.1861279010772705,-6.100858211517334],"type":"VEC3"},{"bufferView":237,"componentType":5126,"count":22,"type":"VEC3"},{"bufferView":238,"componentType":5126,"count":22,"type":"VEC2"},{"bufferView":239,"componentType":5123,"count":60,"type":"SCALAR"},{"bufferView":240,"componentType":5126,"count":110,"max":[0.8724861145019531,7.956271648406982,0.8724099397659302],"min":[-8.225666046142578,4.76837158203125e-7,-6.286985874176025],"type":"VEC3"},{"bufferView":241,"componentType":5126,"count":110,"type":"VEC3"},{"bufferView":242,"componentType":5126,"count":110,"type":"VEC2"},{"bufferView":243,"componentType":5126,"count":22,"max":[0.8724861145019531,7.770144462585449,0.8724099397659302],"min":[-8.03953742980957,0.1861279010772705,-6.100858211517334],"type":"VEC3"},{"bufferView":244,"componentType":5126,"count":22,"type":"VEC3"},{"bufferView":245,"componentType":5126,"count":22,"type":"VEC2"}],"bufferViews":[{"buffer":0,"byteLength":960,"byteOffset":0,"target":34962},{"buffer":0,"byteLength":1440,"byteOffset":960,"target":34962},{"buffer":0,"byteLength":1440,"byteOffset":2400,"target":34962},{"buffer":0,"byteLength":960,"byteOffset":3840,"target":34962},{"buffer":0,"byteLength":1188,"byteOffset":4800,"target":34963},{"buffer":0,"byteLength":272,"byteOffset":5988,"target":34962},{"buffer":0,"byteLength":408,"byteOffset":6260,"target":34962},{"buffer":0,"byteLength":408,"byteOffset":6668,"target":34962},{"buffer":0,"byteLength":272,"byteOffset":7076,"target":34962},{"buffer":0,"byteLength":192,"byteOffset":7348,"target":34963},{"buffer":0,"byteLength":960,"byteOffset":7540,"target":34962},{"buffer":0,"byteLength":1440,"byteOffset":8500,"target":34962},{"buffer":0,"byteLength":1440,"byteOffset":9940,"target":34962},{"buffer":0,"byteLength":960,"byteOffset":11380,"target":34962},{"buffer":0,"byteLength":272,"byteOffset":12340,"target":34962},{"buffer":0,"byteLength":408,"byteOffset":12612,"target":34962},{"buffer":0,"byteLength":408,"byteOffset":13020,"target":34962},{"buffer":0,"byteLength":272,"byteOffset":13428,"target":34962},{"buffer":0,"byteLength":960,"byteOffset":13700,"target":34962},{"buffer":0,"byteLength":1440,"byteOffset":14660,"target":34962},{"buffer":0,"byteLength":1440,"byteOffset":16100,"target":34962},{"buffer":0,"byteLength":960,"byteOffset":17540,"target":34962},{"buffer":0,"byteLength":272,"byteOffset":18500,"target":34962},{"buffer":0,"byteLength":408,"byteOffset":18772,"target":34962},{"buffer":0,"byteLength":408,"byteOffset":19180,"target":34962},{"buffer":0,"byteLength":272,"byteOffset":19588,"target":34962},{"buffer":0,"byteLength":960,"byteOffset":19860,"target":34962},{"buffer":0,"byteLength":1440,"byteOffset":20820,"target":34962},{"buffer":0,"byteLength":1440,"byteOffset":22260,"target":34962},{"buffer":0,"byteLength":960,"byteOffset":23700,"target":34962},{"buffer":0,"byteLength":272,"byteOffset":24660,"target":34962},{"buffer":0,"byteLength":408,"byteOffset":24932,"target":34962},{"buffer":0,"byteLength":408,"byteOffset":25340,"target":34962},{"buffer":0,"byteLength":272,"byteOffset":25748,"target":34962},{"buffer":0,"byteLength":12192,"byteOffset":26020,"target":34962},{"buffer":0,"byteLength":18288,"byteOffset":38212,"target":34962},{"buffer":0,"byteLength":18288,"byteOffset":56500,"target":34962},{"buffer":0,"byteLength":12192,"byteOffset":74788,"target":34962},{"buffer":0,"byteLength":10470,"byteOffset":86980,"target":34963},{"buffer":0,"byteLength":1056,"byteOffset":97452,"target":34962},{"buffer":0,"byteLength":1584,"byteOffset":98508,"target":34962},{"buffer":0,"byteLength":1584,"byteOffset":100092,"target":34962},{"buffer":0,"byteLength":1056,"byteOffset":101676,"target":34962},{"buffer":0,"byteLength":744,"byteOffset":102732,"target":34963},{"buffer":0,"byteLength":840,"byteOffset":103476,"target":34962},{"buffer":0,"byteLength":1260,"byteOffset":104316,"target":34962},{"buffer":0,"byteLength":1260,"byteOffset":105576,"target":34962},{"buffer":0,"byteLength":840,"byteOffset":106836,"target":34962},{"buffer":0,"byteLength":522,"byteOffset":107676,"target":34963},{"buffer":0,"byteLength":480,"byteOffset":108200,"target":34962},{"buffer":0,"byteLength":720,"byteOffset":108680,"target":34962},{"buffer":0,"byteLength":720,"byteOffset":109400,"target":34962},{"buffer":0,"byteLength":480,"byteOffset":110120,"target":34962},{"buffer":0,"byteLength":576,"byteOffset":110600,"target":34963},{"buffer":0,"byteLength":768,"byteOffset":111176,"target":34962},{"buffer":0,"byteLength":1152,"byteOffset":111944,"target":34962},{"buffer":0,"byteLength":1152,"byteOffset":113096,"target":34962},{"buffer":0,"byteLength":768,"byteOffset":114248,"target":34962},{"buffer":0,"byteLength":816,"byteOffset":115016,"target":34963},{"buffer":0,"byteLength":960,"byteOffset":115832,"target":34962},{"buffer":0,"byteLength":1440,"byteOffset":116792,"target":34962},{"buffer":0,"byteLength":1440,"byteOffset":118232,"target":34962},{"buffer":0,"byteLength":960,"byteOffset":119672,"target":34962},{"buffer":0,"byteLength":272,"byteOffset":120632,"target":34962},{"buffer":0,"byteLength":408,"byteOffset":120904,"target":34962},{"buffer":0,"byteLength":408,"byteOffset":121312,"target":34962},{"buffer":0,"byteLength":272,"byteOffset":121720,"target":34962},{"buffer":0,"byteLength":960,"byteOffset":121992,"target":34962},{"buffer":0,"byteLength":1440,"byteOffset":122952,"target":34962},{"buffer":0,"byteLength":1440,"byteOffset":124392,"target":34962},{"buffer":0,"byteLength":960,"byteOffset":125832,"target":34962},{"buffer":0,"byteLength":1188,"byteOffset":126792,"target":34963},{"buffer":0,"byteLength":272,"byteOffset":127980,"target":34962},{"buffer":0,"byteLength":408,"byteOffset":128252,"target":34962},{"buffer":0,"byteLength":408,"byteOffset":128660,"target":34962},{"buffer":0,"byteLength":272,"byteOffset":129068,"target":34962},{"buffer":0,"byteLength":192,"byteOffset":129340,"target":34963},{"buffer":0,"byteLength":960,"byteOffset":129532,"target":34962},{"buffer":0,"byteLength":1440,"byteOffset":130492,"target":34962},{"buffer":0,"byteLength":1440,"byteOffset":131932,"target":34962},{"buffer":0,"byteLength":960,"byteOffset":133372,"target":34962},{"buffer":0,"byteLength":272,"byteOffset":134332,"target":34962},{"buffer":0,"byteLength":408,"byteOffset":134604,"target":34962},{"buffer":0,"byteLength":408,"byteOffset":135012,"target":34962},{"buffer":0,"byteLength":272,"byteOffset":135420,"target":34962},{"buffer":0,"byteLength":960,"byteOffset":135692,"target":34962},{"buffer":0,"byteLength":1440,"byteOffset":136652,"target":34962},{"buffer":0,"byteLength":1440,"byteOffset":138092,"target":34962},{"buffer":0,"byteLength":960,"byteOffset":139532,"target":34962},{"buffer":0,"byteLength":272,"byteOffset":140492,"target":34962},{"buffer":0,"byteLength":408,"byteOffset":140764,"target":34962},{"buffer":0,"byteLength":408,"byteOffset":141172,"target":34962},{"buffer":0,"byteLength":272,"byteOffset":141580,"target":34962},{"buffer":0,"byteLength":2784,"byteOffset":141852,"target":34962},{"buffer":0,"byteLength":4176,"byteOffset":144636,"target":34962},{"buffer":0,"byteLength":4176,"byteOffset":148812,"target":34962},{"buffer":0,"byteLength":2784,"byteOffset":152988,"target":34962},{"buffer":0,"byteLength":1836,"byteOffset":155772,"target":34963},{"buffer":0,"byteLength":4376,"byteOffset":157608,"target":34962},{"buffer":0,"byteLength":6564,"byteOffset":161984,"target":34962},{"buffer":0,"byteLength":6564,"byteOffset":168548,"target":34962},{"buffer":0,"byteLength":4376,"byteOffset":175112,"target":34962},{"buffer":0,"byteLength":4200,"byteOffset":179488,"target":34963},{"buffer":0,"byteLength":680,"byteOffset":183688,"target":34962},{"buffer":0,"byteLength":1020,"byteOffset":184368,"target":34962},{"buffer":0,"byteLength":1020,"byteOffset":185388,"target":34962},{"buffer":0,"byteLength":680,"byteOffset":186408,"target":34962},{"buffer":0,"byteLength":480,"byteOffset":187088,"target":34963},{"buffer":0,"byteLength":4128,"byteOffset":187568,"target":34962},{"buffer":0,"byteLength":6192,"byteOffset":191696,"target":34962},{"buffer":0,"byteLength":6192,"byteOffset":197888,"target":34962},{"buffer":0,"byteLength":4128,"byteOffset":204080,"target":34962},{"buffer":0,"byteLength":4560,"byteOffset":208208,"target":34963},{"buffer":0,"byteLength":576,"byteOffset":212768,"target":34962},{"buffer":0,"byteLength":864,"byteOffset":213344,"target":34962},{"buffer":0,"byteLength":864,"byteOffset":214208,"target":34962},{"buffer":0,"byteLength":576,"byteOffset":215072,"target":34962},{"buffer":0,"byteLength":816,"byteOffset":215648,"target":34963},{"buffer":0,"byteLength":192,"byteOffset":216464,"target":34962},{"buffer":0,"byteLength":288,"byteOffset":216656,"target":34962},{"buffer":0,"byteLength":288,"byteOffset":216944,"target":34962},{"buffer":0,"byteLength":192,"byteOffset":217232,"target":34962},{"buffer":0,"byteLength":120,"byteOffset":217424,"target":34963},{"buffer":0,"byteLength":304,"byteOffset":217544,"target":34962},{"buffer":0,"byteLength":456,"byteOffset":217848,"target":34962},{"buffer":0,"byteLength":456,"byteOffset":218304,"target":34962},{"buffer":0,"byteLength":304,"byteOffset":218760,"target":34962},{"buffer":0,"byteLength":288,"byteOffset":219064,"target":34963},{"buffer":0,"byteLength":12,"byteOffset":219352,"target":34963},{"buffer":0,"byteLength":576,"byteOffset":219364,"target":34962},{"buffer":0,"byteLength":576,"byteOffset":219940,"target":34962},{"buffer":0,"byteLength":384,"byteOffset":220516,"target":34962},{"buffer":0,"byteLength":144,"byteOffset":220900,"target":34963},{"buffer":0,"byteLength":48,"byteOffset":221044,"target":34962},{"buffer":0,"byteLength":48,"byteOffset":221092,"target":34962},{"buffer":0,"byteLength":32,"byteOffset":221140,"target":34962},{"buffer":0,"byteLength":576,"byteOffset":221172,"target":34962},{"buffer":0,"byteLength":576,"byteOffset":221748,"target":34962},{"buffer":0,"byteLength":384,"byteOffset":222324,"target":34962},{"buffer":0,"byteLength":48,"byteOffset":222708,"target":34962},{"buffer":0,"byteLength":48,"byteOffset":222756,"target":34962},{"buffer":0,"byteLength":32,"byteOffset":222804,"target":34962},{"buffer":0,"byteLength":1632,"byteOffset":222836,"target":34962},{"buffer":0,"byteLength":1632,"byteOffset":224468,"target":34962},{"buffer":0,"byteLength":1088,"byteOffset":226100,"target":34962},{"buffer":0,"byteLength":516,"byteOffset":227188,"target":34963},{"buffer":0,"byteLength":48,"byteOffset":227704,"target":34962},{"buffer":0,"byteLength":48,"byteOffset":227752,"target":34962},{"buffer":0,"byteLength":32,"byteOffset":227800,"target":34962},{"buffer":0,"byteLength":12,"byteOffset":227832,"target":34963},{"buffer":0,"byteLength":1920,"byteOffset":227844,"target":34962},{"buffer":0,"byteLength":1920,"byteOffset":229764,"target":34962},{"buffer":0,"byteLength":1280,"byteOffset":231684,"target":34962},{"buffer":0,"byteLength":552,"byteOffset":232964,"target":34963},{"buffer":0,"byteLength":120,"byteOffset":233516,"target":34962},{"buffer":0,"byteLength":120,"byteOffset":233636,"target":34962},{"buffer":0,"byteLength":80,"byteOffset":233756,"target":34962},{"buffer":0,"byteLength":48,"byteOffset":233836,"target":34963},{"buffer":0,"byteLength":72,"byteOffset":233884,"target":34962},{"buffer":0,"byteLength":72,"byteOffset":233956,"target":34962},{"buffer":0,"byteLength":48,"byteOffset":234028,"target":34962},{"buffer":0,"byteLength":24,"byteOffset":234076,"target":34963},{"buffer":0,"byteLength":96,"byteOffset":234100,"target":34962},{"buffer":0,"byteLength":96,"byteOffset":234196,"target":34962},{"buffer":0,"byteLength":64,"byteOffset":234292,"target":34962},{"buffer":0,"byteLength":36,"byteOffset":234356,"target":34963},{"buffer":0,"byteLength":480,"byteOffset":234392,"target":34962},{"buffer":0,"byteLength":480,"byteOffset":234872,"target":34962},{"buffer":0,"byteLength":320,"byteOffset":235352,"target":34962},{"buffer":0,"byteLength":120,"byteOffset":235672,"target":34963},{"buffer":0,"byteLength":48,"byteOffset":235792,"target":34962},{"buffer":0,"byteLength":48,"byteOffset":235840,"target":34962},{"buffer":0,"byteLength":32,"byteOffset":235888,"target":34962},{"buffer":0,"byteLength":12,"byteOffset":235920,"target":34963},{"buffer":0,"byteLength":48,"byteOffset":235932,"target":34962},{"buffer":0,"byteLength":48,"byteOffset":235980,"target":34962},{"buffer":0,"byteLength":32,"byteOffset":236028,"target":34962},{"buffer":0,"byteLength":12,"byteOffset":236060,"target":34963},{"buffer":0,"byteLength":48,"byteOffset":236072,"target":34962},{"buffer":0,"byteLength":48,"byteOffset":236120,"target":34962},{"buffer":0,"byteLength":32,"byteOffset":236168,"target":34962},{"buffer":0,"byteLength":3000,"byteOffset":236200,"target":34962},{"buffer":0,"byteLength":3000,"byteOffset":239200,"target":34962},{"buffer":0,"byteLength":2000,"byteOffset":242200,"target":34962},{"buffer":0,"byteLength":1380,"byteOffset":244200,"target":34963},{"buffer":0,"byteLength":1248,"byteOffset":245580,"target":34962},{"buffer":0,"byteLength":1248,"byteOffset":246828,"target":34962},{"buffer":0,"byteLength":832,"byteOffset":248076,"target":34962},{"buffer":0,"byteLength":468,"byteOffset":248908,"target":34963},{"buffer":0,"byteLength":96,"byteOffset":249376,"target":34962},{"buffer":0,"byteLength":96,"byteOffset":249472,"target":34962},{"buffer":0,"byteLength":64,"byteOffset":249568,"target":34962},{"buffer":0,"byteLength":36,"byteOffset":249632,"target":34963},{"buffer":0,"byteLength":948,"byteOffset":249668,"target":34962},{"buffer":0,"byteLength":948,"byteOffset":250616,"target":34962},{"buffer":0,"byteLength":632,"byteOffset":251564,"target":34962},{"buffer":0,"byteLength":624,"byteOffset":252196,"target":34963},{"buffer":0,"byteLength":288,"byteOffset":252820,"target":34962},{"buffer":0,"byteLength":288,"byteOffset":253108,"target":34962},{"buffer":0,"byteLength":192,"byteOffset":253396,"target":34962},{"buffer":0,"byteLength":108,"byteOffset":253588,"target":34963},{"buffer":0,"byteLength":1272,"byteOffset":253696,"target":34962},{"buffer":0,"byteLength":1272,"byteOffset":254968,"target":34962},{"buffer":0,"byteLength":848,"byteOffset":256240,"target":34962},{"buffer":0,"byteLength":672,"byteOffset":257088,"target":34963},{"buffer":0,"byteLength":120,"byteOffset":257760,"target":34962},{"buffer":0,"byteLength":120,"byteOffset":257880,"target":34962},{"buffer":0,"byteLength":80,"byteOffset":258000,"target":34962},{"buffer":0,"byteLength":48,"byteOffset":258080,"target":34963},{"buffer":0,"byteLength":264,"byteOffset":258128,"target":34963},{"buffer":0,"byteLength":912,"byteOffset":258392,"target":34962},{"buffer":0,"byteLength":912,"byteOffset":259304,"target":34962},{"buffer":0,"byteLength":608,"byteOffset":260216,"target":34962},{"buffer":0,"byteLength":1560,"byteOffset":260824,"target":34962},{"buffer":0,"byteLength":1560,"byteOffset":262384,"target":34962},{"buffer":0,"byteLength":1040,"byteOffset":263944,"target":34962},{"buffer":0,"byteLength":540,"byteOffset":264984,"target":34963},{"buffer":0,"byteLength":384,"byteOffset":265524,"target":34962},{"buffer":0,"byteLength":384,"byteOffset":265908,"target":34962},{"buffer":0,"byteLength":256,"byteOffset":266292,"target":34962},{"buffer":0,"byteLength":144,"byteOffset":266548,"target":34963},{"buffer":0,"byteLength":96,"byteOffset":266692,"target":34962},{"buffer":0,"byteLength":96,"byteOffset":266788,"target":34962},{"buffer":0,"byteLength":64,"byteOffset":266884,"target":34962},{"buffer":0,"byteLength":48,"byteOffset":266948,"target":34962},{"buffer":0,"byteLength":48,"byteOffset":266996,"target":34962},{"buffer":0,"byteLength":32,"byteOffset":267044,"target":34962},{"buffer":0,"byteLength":12,"byteOffset":267076,"target":34963},{"buffer":0,"byteLength":240,"byteOffset":267088,"target":34962},{"buffer":0,"byteLength":240,"byteOffset":267328,"target":34962},{"buffer":0,"byteLength":160,"byteOffset":267568,"target":34962},{"buffer":0,"byteLength":180,"byteOffset":267728,"target":34963},{"buffer":0,"byteLength":1320,"byteOffset":267908,"target":34962},{"buffer":0,"byteLength":1320,"byteOffset":269228,"target":34962},{"buffer":0,"byteLength":880,"byteOffset":270548,"target":34962},{"buffer":0,"byteLength":648,"byteOffset":271428,"target":34963},{"buffer":0,"byteLength":264,"byteOffset":272076,"target":34962},{"buffer":0,"byteLength":264,"byteOffset":272340,"target":34962},{"buffer":0,"byteLength":176,"byteOffset":272604,"target":34962},{"buffer":0,"byteLength":120,"byteOffset":272780,"target":34963},{"buffer":0,"byteLength":1320,"byteOffset":272900,"target":34962},{"buffer":0,"byteLength":1320,"byteOffset":274220,"target":34962},{"buffer":0,"byteLength":880,"byteOffset":275540,"target":34962},{"buffer":0,"byteLength":264,"byteOffset":276420,"target":34962},{"buffer":0,"byteLength":264,"byteOffset":276684,"target":34962},{"buffer":0,"byteLength":176,"byteOffset":276948,"target":34962}],"buffers":[{"uri":"north-central-east.bin","byteLength":277124}]}