{"asset":{"version":"2.0","generator":"Jarvis Cartoon City sectorizer v1"},"extensionsUsed":["KHR_materials_specular","KHR_materials_ior","KHR_materials_emissive_strength"],"scenes":[{"name":"Cartoon City Free — north-central-west","nodes":[0,5,10,15,16,17,18,19,20,21,22,23,24,25,26,27,28]}],"scene":0,"nodes":[{"mesh":4,"name":"Car_19.001","translation":[-54.24317932128906,-0.10000000149011612,15.79931354522705],"children":[1,2,3,4]},{"mesh":0,"name":"Car_19_Wheel_Front_Left.001","translation":[0.7395172119140625,0.4000002145767212,1.1063222885131836]},{"mesh":1,"name":"Car_19_Wheel_Front_Right.001","translation":[-0.7385101318359375,0.4000002145767212,1.1063222885131836]},{"mesh":2,"name":"Car_19_Wheel_Rear_Left.001","translation":[0.7395172119140625,0.4000002145767212,-1.1063241958618164]},{"mesh":3,"name":"Car_19_Wheel_Rear_Right.001","translation":[-0.7385101318359375,0.4000002145767212,-1.1063241958618164]},{"mesh":9,"name":"Car_16.003","rotation":[0,1,0,7.549790126404332e-8],"translation":[-50.25271987915039,0,35.205116271972656],"children":[6,7,8,9]},{"mesh":5,"name":"Car_16_Wheel_Front_Left.003","translation":[0.8459116220474243,0.40000006556510925,1.223953127861023]},{"mesh":6,"name":"Car_16_Wheel_Front_Right.003","translation":[-0.8457387685775757,0.40000006556510925,1.223953366279602]},{"mesh":7,"name":"Car_16_Wheel_Rear_Left.003","translation":[0.8459112644195557,0.40000006556510925,-1.2239457368850708]},{"mesh":8,"name":"Car_16_Wheel_Rear_Right.003","translation":[-0.8457391262054443,0.40000006556510925,-1.2239454984664917]},{"mesh":14,"name":"Futuristic_Car_1.003","rotation":[0,1,0,7.549790126404332e-8],"translation":[-50.59836959838867,0,2.6895275115966797],"children":[11,12,13,14]},{"mesh":10,"name":"Futuristic_Car_1_Wheel_Front_Left.003","translation":[1.031757116317749,0.40000003576278687,1.4104441404342651]},{"mesh":11,"name":"Futuristic_Car_1_Wheel_Front_Right.003","translation":[-1.031475305557251,0.40000003576278687,1.4104443788528442]},{"mesh":12,"name":"Futuristic_Car_1_Wheel_Rear_Left.003","translation":[1.0317567586898804,0.40000003576278687,-1.4104329347610474]},{"mesh":13,"name":"Futuristic_Car_1_Wheel_Rear_Right.003","translation":[-1.0314756631851196,0.40000003576278687,-1.4104326963424683]},{"mesh":15,"name":"Eco_Building_Slope.001","rotation":[0,0.7071066498756409,0,0.70710688829422],"translation":[-28.739013671875,0,8.030975341796875]},{"mesh":16,"name":"road_009.233","translation":[-52.5,0,22.5]},{"mesh":16,"name":"road_009.234","translation":[-52.5,0,7.5]},{"mesh":17,"name":"Set_B_Tiles_09.013","translation":[-22.5,0,7.5]},{"mesh":17,"name":"Set_B_Tiles_09.020","translation":[-37.5,0,7.5]},{"mesh":18,"name":"Set_B_Tiles_05.012","rotation":[0,0.7071066498756409,0,0.70710688829422],"translation":[-37.5,0,22.5]},{"mesh":19,"name":"Set_B_Tiles_06.006","rotation":[0,-0.7071066498756409,0,0.70710688829422],"translation":[-22.5,0,22.5]},{"mesh":20,"name":"Spotlight_01.103","rotation":[0,0.7071070671081543,0,0.7071065902709961],"translation":[-57.987091064453125,0,7.6214599609375]},{"mesh":21,"name":"Trash_Can_07.035","rotation":[0,0.03182576596736908,0,0.9994934797286987],"translation":[-32.564605712890625,0.000003814697265625,17.621658325195312]},{"mesh":22,"name":"Trash_Can_05.035","rotation":[0,-0.9999376535415649,0,0.011170231737196445],"translation":[-35.54791259765625,-0.00002288818359375,17.877716064453125]},{"mesh":23,"name":"Palm_03.068","rotation":[0,-0.6427856683731079,0,0.7660460472106934],"translation":[-30.76373291015625,0.15000015497207642,30.05388641357422]},{"mesh":24,"name":"Bush_10.210","translation":[-34.447998046875,0,29.86847686767578]},{"mesh":24,"name":"Bush_10.211","translation":[-42.94879150390625,0,29.86841583251953]},{"mesh":24,"name":"Bush_10.212","translation":[-38.73681640625,0,29.868446350097656]}],"meshes":[{"name":"Mesh.074","primitives":[{"attributes":{"COLOR_0":4,"POSITION":5,"NORMAL":6,"TEXCOORD_0":7},"indices":0,"material":0},{"attributes":{"COLOR_0":8,"POSITION":9,"NORMAL":10,"TEXCOORD_0":11},"indices":1,"material":1}]},{"name":"Mesh.068","primitives":[{"attributes":{"COLOR_0":12,"POSITION":13,"NORMAL":14,"TEXCOORD_0":15},"indices":16,"material":0},{"attributes":{"COLOR_0":17,"POSITION":18,"NORMAL":19,"TEXCOORD_0":20},"indices":21,"material":1}]},{"name":"Mesh.073","primitives":[{"attributes":{"COLOR_0":22,"POSITION":23,"NORMAL":24,"TEXCOORD_0":25},"indices":0,"material":0},{"attributes":{"COLOR_0":26,"POSITION":27,"NORMAL":28,"TEXCOORD_0":29},"indices":1,"material":1}]},{"name":"Mesh.069","primitives":[{"attributes":{"COLOR_0":30,"POSITION":31,"NORMAL":32,"TEXCOORD_0":33},"indices":16,"material":0},{"attributes":{"COLOR_0":34,"POSITION":35,"NORMAL":36,"TEXCOORD_0":37},"indices":21,"material":1}]},{"name":"beetle.004_baseGradient.007_0.001","primitives":[{"attributes":{"COLOR_0":38,"POSITION":39,"NORMAL":40,"TEXCOORD_0":41},"indices":42,"material":0},{"attributes":{"COLOR_0":43,"POSITION":44,"NORMAL":45,"TEXCOORD_0":46},"indices":47,"material":5},{"attributes":{"COLOR_0":48,"POSITION":49,"NORMAL":50,"TEXCOORD_0":51},"indices":52,"material":2},{"attributes":{"COLOR_0":53,"POSITION":54,"NORMAL":55,"TEXCOORD_0":56},"indices":57,"material":1},{"attributes":{"COLOR_0":58,"POSITION":59,"NORMAL":60,"TEXCOORD_0":61},"indices":62,"material":3},{"attributes":{"COLOR_0":63,"POSITION":64,"NORMAL":65,"TEXCOORD_0":66},"indices":67,"material":6},{"attributes":{"COLOR_0":68,"POSITION":69,"NORMAL":70,"TEXCOORD_0":71},"indices":72,"material":4}]},{"name":"Mesh.136","primitives":[{"attributes":{"COLOR_0":73,"POSITION":74,"NORMAL":75,"TEXCOORD_0":76},"indices":2,"material":0},{"attributes":{"COLOR_0":77,"POSITION":78,"NORMAL":79,"TEXCOORD_0":80},"indices":81,"material":1}]},{"name":"Mesh.133","primitives":[{"attributes":{"COLOR_0":82,"POSITION":83,"NORMAL":84,"TEXCOORD_0":85},"indices":3,"material":0},{"attributes":{"COLOR_0":86,"POSITION":87,"NORMAL":88,"TEXCOORD_0":89},"indices":81,"material":1}]},{"name":"Mesh.135","primitives":[{"attributes":{"COLOR_0":90,"POSITION":91,"NORMAL":92,"TEXCOORD_0":93},"indices":2,"material":0},{"attributes":{"COLOR_0":94,"POSITION":95,"NORMAL":96,"TEXCOORD_0":97},"indices":81,"material":1}]},{"name":"Mesh.134","primitives":[{"attributes":{"COLOR_0":98,"POSITION":99,"NORMAL":100,"TEXCOORD_0":101},"indices":3,"material":0},{"attributes":{"COLOR_0":102,"POSITION":103,"NORMAL":104,"TEXCOORD_0":105},"indices":81,"material":1}]},{"name":"Plane.019","primitives":[{"attributes":{"COLOR_0":106,"POSITION":107,"NORMAL":108,"TEXCOORD_0":109},"indices":110,"material":0},{"attributes":{"COLOR_0":111,"POSITION":112,"NORMAL":113,"TEXCOORD_0":114},"indices":115,"material":5},{"attributes":{"COLOR_0":116,"POSITION":117,"NORMAL":118,"TEXCOORD_0":119},"indices":120,"material":2},{"attributes":{"COLOR_0":121,"POSITION":122,"NORMAL":123,"TEXCOORD_0":124},"indices":125,"material":6},{"attributes":{"COLOR_0":126,"POSITION":127,"NORMAL":128,"TEXCOORD_0":129},"indices":130,"material":3},{"attributes":{"COLOR_0":131,"POSITION":132,"NORMAL":133,"TEXCOORD_0":134},"indices":135,"material":4}]},{"name":"Mesh.176","primitives":[{"attributes":{"COLOR_0":136,"POSITION":137,"NORMAL":138,"TEXCOORD_0":139},"indices":140,"material":0},{"attributes":{"COLOR_0":141,"POSITION":142,"NORMAL":143,"TEXCOORD_0":144},"indices":145,"material":7}]},{"name":"Mesh.173","primitives":[{"attributes":{"COLOR_0":146,"POSITION":147,"NORMAL":148,"TEXCOORD_0":149},"indices":150,"material":0},{"attributes":{"COLOR_0":151,"POSITION":152,"NORMAL":153,"TEXCOORD_0":154},"indices":155,"material":7}]},{"name":"Mesh.175","primitives":[{"attributes":{"COLOR_0":156,"POSITION":157,"NORMAL":158,"TEXCOORD_0":159},"indices":140,"material":0},{"attributes":{"COLOR_0":160,"POSITION":161,"NORMAL":162,"TEXCOORD_0":163},"indices":145,"material":7}]},{"name":"Mesh.174","primitives":[{"attributes":{"COLOR_0":164,"POSITION":165,"NORMAL":166,"TEXCOORD_0":167},"indices":150,"material":0},{"attributes":{"COLOR_0":168,"POSITION":169,"NORMAL":170,"TEXCOORD_0":171},"indices":155,"material":7}]},{"name":"Plane.034","primitives":[{"attributes":{"POSITION":172,"NORMAL":173,"TEXCOORD_0":174},"indices":175,"material":0},{"attributes":{"POSITION":176,"NORMAL":177,"TEXCOORD_0":178},"indices":179,"material":5},{"attributes":{"POSITION":180,"NORMAL":181,"TEXCOORD_0":182},"indices":183,"material":2},{"attributes":{"POSITION":184,"NORMAL":185,"TEXCOORD_0":186},"indices":187,"material":3},{"attributes":{"POSITION":188,"NORMAL":189,"TEXCOORD_0":190},"indices":191,"material":6}]},{"name":"Cube.165","primitives":[{"attributes":{"POSITION":192,"NORMAL":193,"TEXCOORD_0":194},"indices":195,"material":0},{"attributes":{"POSITION":196,"NORMAL":197,"TEXCOORD_0":198},"indices":199,"material":4},{"attributes":{"POSITION":200,"NORMAL":201,"TEXCOORD_0":202},"indices":203,"material":2}]},{"name":"Cube.206","primitives":[{"attributes":{"POSITION":206,"NORMAL":207,"TEXCOORD_0":208},"indices":204,"material":0},{"attributes":{"POSITION":209,"NORMAL":210,"TEXCOORD_0":211},"indices":205,"material":8}]},{"name":"Plane.276","primitives":[{"attributes":{"POSITION":213,"NORMAL":214,"TEXCOORD_0":215},"indices":216,"material":10}]},{"name":"Plane.271","primitives":[{"attributes":{"POSITION":217,"NORMAL":218,"TEXCOORD_0":219},"indices":220,"material":0},{"attributes":{"POSITION":221,"NORMAL":222,"TEXCOORD_0":223},"indices":224,"material":9},{"attributes":{"POSITION":225,"NORMAL":226,"TEXCOORD_0":227},"indices":228,"material":10},{"attributes":{"POSITION":229,"NORMAL":230,"TEXCOORD_0":231},"indices":212,"material":11}]},{"name":"Plane.274","primitives":[{"attributes":{"POSITION":232,"NORMAL":233,"TEXCOORD_0":234},"indices":235,"material":0},{"attributes":{"POSITION":236,"NORMAL":237,"TEXCOORD_0":238},"indices":239,"material":9},{"attributes":{"POSITION":240,"NORMAL":241,"TEXCOORD_0":242},"indices":243,"material":10},{"attributes":{"POSITION":244,"NORMAL":245,"TEXCOORD_0":246},"indices":247,"material":11}]},{"name":"Cube.184","primitives":[{"attributes":{"POSITION":248,"NORMAL":249,"TEXCOORD_0":250},"indices":251,"material":0},{"attributes":{"POSITION":252,"NORMAL":253,"TEXCOORD_0":254},"indices":255,"material":7}]},{"name":"Cube.080","primitives":[{"attributes":{"POSITION":256,"NORMAL":257,"TEXCOORD_0":258},"indices":259,"material":0}]},{"name":"Cube.076","primitives":[{"attributes":{"POSITION":260,"NORMAL":261,"TEXCOORD_0":262},"indices":259,"material":0}]},{"name":"Cylinder.086","primitives":[{"attributes":{"POSITION":263,"NORMAL":264,"TEXCOORD_0":265},"indices":266,"material":0}]},{"name":"Cube.083","primitives":[{"attributes":{"POSITION":267,"NORMAL":268,"TEXCOORD_0":269},"indices":270,"material":0}]}],"materials":[{"doubleSided":true,"name":"Color","pbrMetallicRoughness":{"baseColorTexture":{"index":0},"metallicFactor":0,"roughnessFactor":0.699999988079071}},{"doubleSided":true,"name":"Metal","pbrMetallicRoughness":{"baseColorTexture":{"index":1},"roughnessFactor":0.3316831588745117}},{"doubleSided":true,"name":"Color_Glossy","pbrMetallicRoughness":{"baseColorTexture":{"index":2},"metallicFactor":0,"roughnessFactor":0.20000000298023224}},{"doubleSided":true,"emissiveFactor":[1,1,1],"emissiveTexture":{"index":3},"name":"Car_Taillights","pbrMetallicRoughness":{"baseColorTexture":{"index":4},"metallicFactor":0,"roughnessFactor":0.5}},{"alphaMode":"BLEND","doubleSided":true,"extensions":{"KHR_materials_specular":{"specularColorFactor":[2.371357614441398,2.371357614441398,2.371357614441398]},"KHR_materials_ior":{"ior":1.4500000476837158}},"name":"Glass","pbrMetallicRoughness":{"baseColorFactor":[1,1,1,0.5],"baseColorTexture":{"index":5},"metallicFactor":0.20000000298023224,"roughnessFactor":0.05000000074505806}},{"doubleSided":true,"emissiveFactor":[0.10000000149011612,0.10000000149011612,0.10000000149011612],"emissiveTexture":{"index":6},"name":"Car_Color","pbrMetallicRoughness":{"baseColorTexture":{"index":7},"metallicFactor":0.20000000298023224,"roughnessFactor":0.10000000149011612}},{"doubleSided":true,"emissiveFactor":[1,1,1],"emissiveTexture":{"index":8},"name":"Car_Headlights","pbrMetallicRoughness":{"baseColorTexture":{"index":9},"metallicFactor":0,"roughnessFactor":0.5}},{"doubleSided":true,"emissiveFactor":[1,1,1],"emissiveTexture":{"index":10},"extensions":{"KHR_materials_emissive_strength":{"emissiveStrength":3}},"name":"Emissive","pbrMetallicRoughness":{"baseColorTexture":{"index":11},"metallicFactor":0,"roughnessFactor":0.5}},{"doubleSided":true,"emissiveFactor":[0.10000000149011612,0.10000000149011612,0.10000000149011612],"emissiveTexture":{"index":12},"extensions":{"KHR_materials_specular":{"specularColorFactor":[0.711407312601205,0.711407312601205,0.711407312601205]},"KHR_materials_ior":{"ior":1.4500000476837158}},"name":"Roads","pbrMetallicRoughness":{"baseColorTexture":{"index":13},"metallicFactor":0,"roughnessFactor":0.75}},{"doubleSided":true,"name":"Asphalt_Dark_Gray","pbrMetallicRoughness":{"baseColorFactor":[0.13853572309017181,0.13853572309017181,0.13853572309017181,1],"metallicFactor":0,"roughnessFactor":0.5}},{"doubleSided":true,"name":"Tile_1","normalTexture":{"index":14,"scale":5},"pbrMetallicRoughness":{"baseColorTexture":{"index":15},"metallicFactor":0,"metallicRoughnessTexture":{"index":16}}},{"doubleSided":true,"name":"Grass","pbrMetallicRoughness":{"baseColorFactor":[0.25015830993652344,0.44520121812820435,0.13013650476932526,1],"metallicFactor":0,"roughnessFactor":0.7598187327384949}}],"textures":[{"sampler":0,"source":0},{"sampler":0,"source":1},{"sampler":0,"source":0},{"sampler":0,"source":1},{"sampler":0,"source":1},{"sampler":0,"source":0},{"sampler":0,"source":0},{"sampler":0,"source":0},{"sampler":0,"source":1},{"sampler":0,"source":1},{"sampler":0,"source":1},{"sampler":0,"source":1},{"sampler":0,"source":2},{"sampler":0,"source":2},{"sampler":0,"source":3},{"sampler":0,"source":4},{"sampler":0,"source":5}],"images":[{"uri":"shared/486c6d61063241d5.webp","mimeType":"image/webp"},{"uri":"shared/486c6d61063241d5.webp","mimeType":"image/webp"},{"uri":"shared/cd11a20db95ff60c.webp","mimeType":"image/webp"},{"uri":"shared/28470d0f5c64a9e9.png","mimeType":"image/png"},{"uri":"shared/d686ec6d73243cad.webp","mimeType":"image/webp"},{"uri":"shared/0dd4c9f67e03b0dc.png","mimeType":"image/png"}],"samplers":[{"magFilter":9729,"minFilter":9987}],"accessors":[{"bufferView":0,"componentType":5123,"count":594,"type":"SCALAR"},{"bufferView":1,"componentType":5123,"count":96,"type":"SCALAR"},{"bufferView":2,"componentType":5123,"count":1014,"type":"SCALAR"},{"bufferView":3,"componentType":5123,"count":1014,"type":"SCALAR"},{"bufferView":4,"componentType":5123,"count":120,"normalized":true,"type":"VEC4"},{"bufferView":5,"componentType":5126,"count":120,"max":[0.16160275042057037,0.3999999463558197,0.39999446272850037],"min":[-0.16258098185062408,-0.4000001847743988,-0.40000566840171814],"type":"VEC3"},{"bufferView":6,"componentType":5126,"count":120,"type":"VEC3"},{"bufferView":7,"componentType":5126,"count":120,"type":"VEC2"},{"bufferView":8,"componentType":5123,"count":34,"normalized":true,"type":"VEC4"},{"bufferView":9,"componentType":5126,"count":34,"max":[0.16126562654972076,0.25954538583755493,0.2595387101173401],"min":[0.03194141760468483,-0.25954556465148926,-0.2595522999763489],"type":"VEC3"},{"bufferView":10,"componentType":5126,"count":34,"type":"VEC3"},{"bufferView":11,"componentType":5126,"count":34,"type":"VEC2"},{"bufferView":12,"componentType":5123,"count":120,"normalized":true,"type":"VEC4"},{"bufferView":13,"componentType":5126,"count":120,"max":[0.16184855997562408,0.3999999463558197,0.39999446272850037],"min":[-0.16233517229557037,-0.4000001847743988,-0.40000566840171814],"type":"VEC3"},{"bufferView":14,"componentType":5126,"count":120,"type":"VEC3"},{"bufferView":15,"componentType":5126,"count":120,"type":"VEC2"},{"bufferView":16,"componentType":5123,"count":594,"type":"SCALAR"},{"bufferView":17,"componentType":5123,"count":34,"normalized":true,"type":"VEC4"},{"bufferView":18,"componentType":5126,"count":34,"max":[-0.03267383947968483,0.25954538583755493,0.2595387101173401],"min":[-0.16199804842472076,-0.25954556465148926,-0.2595522999763489],"type":"VEC3"},{"bufferView":19,"componentType":5126,"count":34,"type":"VEC3"},{"bufferView":20,"componentType":5126,"count":34,"type":"VEC2"},{"bufferView":21,"componentType":5123,"count":96,"type":"SCALAR"},{"bufferView":22,"componentType":5123,"count":120,"normalized":true,"type":"VEC4"},{"bufferView":23,"componentType":5126,"count":120,"max":[0.16160275042057037,0.3999999463558197,0.39999446272850037],"min":[-0.16258098185062408,-0.4000001847743988,-0.40000566840171814],"type":"VEC3"},{"bufferView":24,"componentType":5126,"count":120,"type":"VEC3"},{"bufferView":25,"componentType":5126,"count":120,"type":"VEC2"},{"bufferView":26,"componentType":5123,"count":34,"normalized":true,"type":"VEC4"},{"bufferView":27,"componentType":5126,"count":34,"max":[0.16126562654972076,0.25954538583755493,0.2595387101173401],"min":[0.03194141760468483,-0.25954556465148926,-0.2595522999763489],"type":"VEC3"},{"bufferView":28,"componentType":5126,"count":34,"type":"VEC3"},{"bufferView":29,"componentType":5126,"count":34,"type":"VEC2"},{"bufferView":30,"componentType":5123,"count":120,"normalized":true,"type":"VEC4"},{"bufferView":31,"componentType":5126,"count":120,"max":[0.16184855997562408,0.3999999463558197,0.39999446272850037],"min":[-0.16233517229557037,-0.4000001847743988,-0.40000566840171814],"type":"VEC3"},{"bufferView":32,"componentType":5126,"count":120,"type":"VEC3"},{"bufferView":33,"componentType":5126,"count":120,"type":"VEC2"},{"bufferView":34,"componentType":5123,"count":34,"normalized":true,"type":"VEC4"},{"bufferView":35,"componentType":5126,"count":34,"max":[-0.03267383947968483,0.25954538583755493,0.2595387101173401],"min":[-0.16199804842472076,-0.25954556465148926,-0.2595522999763489],"type":"VEC3"},{"bufferView":36,"componentType":5126,"count":34,"type":"VEC3"},{"bufferView":37,"componentType":5126,"count":34,"type":"VEC2"},{"bufferView":38,"componentType":5123,"count":348,"normalized":true,"type":"VEC4"},{"bufferView":39,"componentType":5126,"count":348,"max":[0.890807032585144,1.4882900714874268,1.5474961996078491],"min":[-0.8905633687973022,0.26076531410217285,-1.5428946018218994],"type":"VEC3"},{"bufferView":40,"componentType":5126,"count":348,"type":"VEC3"},{"bufferView":41,"componentType":5126,"count":348,"type":"VEC2"},{"bufferView":42,"componentType":5123,"count":918,"type":"SCALAR"},{"bufferView":43,"componentType":5123,"count":547,"normalized":true,"type":"VEC4"},{"bufferView":44,"componentType":5126,"count":547,"max":[0.890807032585144,1.6471302509307861,1.7249062061309814],"min":[-0.8905634880065918,0.19979190826416016,-1.9050875902175903],"type":"VEC3"},{"bufferView":45,"componentType":5126,"count":547,"type":"VEC3"},{"bufferView":46,"componentType":5126,"count":547,"type":"VEC2"},{"bufferView":47,"componentType":5123,"count":2100,"type":"SCALAR"},{"bufferView":48,"componentType":5123,"count":85,"normalized":true,"type":"VEC4"},{"bufferView":49,"componentType":5126,"count":85,"max":[0.7060546875,1.4570825099945068,0.5437366962432861],"min":[-0.705810546875,1.0568881034851074,-1.357279658317566],"type":"VEC3"},{"bufferView":50,"componentType":5126,"count":85,"type":"VEC3"},{"bufferView":51,"componentType":5126,"count":85,"type":"VEC2"},{"bufferView":52,"componentType":5123,"count":240,"type":"SCALAR"},{"bufferView":53,"componentType":5123,"count":516,"normalized":true,"type":"VEC4"},{"bufferView":54,"componentType":5126,"count":516,"max":[0.8514214158058167,1.2386927604675293,1.7686084508895874],"min":[-0.8515722751617432,0.2570513188838959,-1.8987914323806763],"type":"VEC3"},{"bufferView":55,"componentType":5126,"count":516,"type":"VEC3"},{"bufferView":56,"componentType":5126,"count":516,"type":"VEC2"},{"bufferView":57,"componentType":5123,"count":2280,"type":"SCALAR"},{"bufferView":58,"componentType":5123,"count":72,"normalized":true,"type":"VEC4"},{"bufferView":59,"componentType":5126,"count":72,"max":[0.7107113599777222,0.6922472715377808,-1.7011644840240479],"min":[-0.7104676961898804,0.49643173813819885,-1.761592984199524],"type":"VEC3"},{"bufferView":60,"componentType":5126,"count":72,"type":"VEC3"},{"bufferView":61,"componentType":5126,"count":72,"type":"VEC2"},{"bufferView":62,"componentType":5123,"count":408,"type":"SCALAR"},{"bufferView":63,"componentType":5123,"count":24,"normalized":true,"type":"VEC4"},{"bufferView":64,"componentType":5126,"count":24,"max":[0.6814594864845276,0.8091983795166016,1.5876168012619019],"min":[-0.6812148690223694,0.5367419123649597,1.5300167798995972],"type":"VEC3"},{"bufferView":65,"componentType":5126,"count":24,"type":"VEC3"},{"bufferView":66,"componentType":5126,"count":24,"type":"VEC2"},{"bufferView":67,"componentType":5123,"count":60,"type":"SCALAR"},{"bufferView":68,"componentType":5123,"count":38,"normalized":true,"type":"VEC4"},{"bufferView":69,"componentType":5126,"count":38,"max":[0.707402229309082,0.8360848426818848,1.6608446836471558],"min":[-0.7071576118469238,0.5093737244606018,1.5742207765579224],"type":"VEC3"},{"bufferView":70,"componentType":5126,"count":38,"type":"VEC3"},{"bufferView":71,"componentType":5126,"count":38,"type":"VEC2"},{"bufferView":72,"componentType":5123,"count":144,"type":"SCALAR"},{"bufferView":73,"componentType":5123,"count":285,"normalized":true,"type":"VEC4"},{"bufferView":74,"componentType":5126,"count":285,"max":[0.16213113069534302,0.3999999165534973,0.3998884856700897],"min":[-0.1620960682630539,-0.40000006556510925,-0.4001115560531616],"type":"VEC3"},{"bufferView":75,"componentType":5126,"count":285,"type":"VEC3"},{"bufferView":76,"componentType":5126,"count":285,"type":"VEC2"},{"bufferView":77,"componentType":5123,"count":54,"normalized":true,"type":"VEC4"},{"bufferView":78,"componentType":5126,"count":54,"max":[0.1361139863729477,0.2748536467552185,0.29106059670448303],"min":[0.04467451199889183,-0.27894407510757446,-0.29114869236946106],"type":"VEC3"},{"bufferView":79,"componentType":5126,"count":54,"type":"VEC3"},{"bufferView":80,"componentType":5126,"count":54,"type":"VEC2"},{"bufferView":81,"componentType":5123,"count":120,"type":"SCALAR"},{"bufferView":82,"componentType":5123,"count":285,"normalized":true,"type":"VEC4"},{"bufferView":83,"componentType":5126,"count":285,"max":[0.16209617257118225,0.3999999165534973,0.4001115560531616],"min":[-0.16213126480579376,-0.40000006556510925,-0.3998884856700897],"type":"VEC3"},{"bufferView":84,"componentType":5126,"count":285,"type":"VEC3"},{"bufferView":85,"componentType":5126,"count":285,"type":"VEC2"},{"bufferView":86,"componentType":5123,"count":54,"normalized":true,"type":"VEC4"},{"bufferView":87,"componentType":5126,"count":54,"max":[-0.044674504548311234,0.2748536467552185,0.2911487817764282],"min":[-0.13611413538455963,-0.27894407510757446,-0.29106050729751587],"type":"VEC3"},{"bufferView":88,"componentType":5126,"count":54,"type":"VEC3"},{"bufferView":89,"componentType":5126,"count":54,"type":"VEC2"},{"bufferView":90,"componentType":5123,"count":285,"normalized":true,"type":"VEC4"},{"bufferView":91,"componentType":5126,"count":285,"max":[0.16213113069534302,0.3999999165534973,0.3998884856700897],"min":[-0.1620960682630539,-0.40000006556510925,-0.4001115560531616],"type":"VEC3"},{"bufferView":92,"componentType":5126,"count":285,"type":"VEC3"},{"bufferView":93,"componentType":5126,"count":285,"type":"VEC2"},{"bufferView":94,"componentType":5123,"count":54,"normalized":true,"type":"VEC4"},{"bufferView":95,"componentType":5126,"count":54,"max":[0.1361139863729477,0.2748536467552185,0.29106059670448303],"min":[0.04467451199889183,-0.27894407510757446,-0.29114869236946106],"type":"VEC3"},{"bufferView":96,"componentType":5126,"count":54,"type":"VEC3"},{"bufferView":97,"componentType":5126,"count":54,"type":"VEC2"},{"bufferView":98,"componentType":5123,"count":285,"normalized":true,"type":"VEC4"},{"bufferView":99,"componentType":5126,"count":285,"max":[0.16209617257118225,0.3999999165534973,0.4001115560531616],"min":[-0.16213126480579376,-0.40000006556510925,-0.3998884856700897],"type":"VEC3"},{"bufferView":100,"componentType":5126,"count":285,"type":"VEC3"},{"bufferView":101,"componentType":5126,"count":285,"type":"VEC2"},{"bufferView":102,"componentType":5123,"count":54,"normalized":true,"type":"VEC4"},{"bufferView":103,"componentType":5126,"count":54,"max":[-0.044674504548311234,0.2748536467552185,0.2911487817764282],"min":[-0.13611413538455963,-0.27894407510757446,-0.29106050729751587],"type":"VEC3"},{"bufferView":104,"componentType":5126,"count":54,"type":"VEC3"},{"bufferView":105,"componentType":5126,"count":54,"type":"VEC2"},{"bufferView":106,"componentType":5123,"count":457,"normalized":true,"type":"VEC4"},{"bufferView":107,"componentType":5126,"count":457,"max":[1.0036572217941284,1.4339401721954346,2.003713607788086],"min":[-1.0033501386642456,0.152602419257164,-1.9192681312561035],"type":"VEC3"},{"bufferView":108,"componentType":5126,"count":457,"type":"VEC3"},{"bufferView":109,"componentType":5126,"count":457,"type":"VEC2"},{"bufferView":110,"componentType":5123,"count":1248,"type":"SCALAR"},{"bufferView":111,"componentType":5123,"count":906,"normalized":true,"type":"VEC4"},{"bufferView":112,"componentType":5126,"count":906,"max":[1.0876888036727905,1.4782252311706543,2.109272003173828],"min":[-1.0879329442977905,0.152602419257164,-2.0220673084259033],"type":"VEC3"},{"bufferView":113,"componentType":5126,"count":906,"type":"VEC3"},{"bufferView":114,"componentType":5126,"count":906,"type":"VEC2"},{"bufferView":115,"componentType":5123,"count":2886,"type":"SCALAR"},{"bufferView":116,"componentType":5123,"count":70,"normalized":true,"type":"VEC4"},{"bufferView":117,"componentType":5126,"count":70,"max":[1.0586886405944824,1.3958861827850342,0.9936060905456543],"min":[-1.0589327812194824,0.9292917251586914,-0.7287842631340027],"type":"VEC3"},{"bufferView":118,"componentType":5126,"count":70,"type":"VEC3"},{"bufferView":119,"componentType":5126,"count":70,"type":"VEC2"},{"bufferView":120,"componentType":5123,"count":174,"type":"SCALAR"},{"bufferView":121,"componentType":5123,"count":24,"normalized":true,"type":"VEC4"},{"bufferView":122,"componentType":5126,"count":24,"max":[0.8564546704292297,0.789059579372406,1.8919814825057983],"min":[-0.8561476469039917,0.5867435932159424,1.604676604270935],"type":"VEC3"},{"bufferView":123,"componentType":5126,"count":24,"type":"VEC3"},{"bufferView":124,"componentType":5126,"count":24,"type":"VEC2"},{"bufferView":125,"componentType":5123,"count":60,"type":"SCALAR"},{"bufferView":126,"componentType":5123,"count":40,"normalized":true,"type":"VEC4"},{"bufferView":127,"componentType":5126,"count":40,"max":[0.8895073533058167,1.0314717292785645,-1.5483675003051758],"min":[-0.8892002701759338,0.8576816320419312,-1.8893619775772095],"type":"VEC3"},{"bufferView":128,"componentType":5126,"count":40,"type":"VEC3"},{"bufferView":129,"componentType":5126,"count":40,"type":"VEC2"},{"bufferView":130,"componentType":5123,"count":60,"type":"SCALAR"},{"bufferView":131,"componentType":5123,"count":33,"normalized":true,"type":"VEC4"},{"bufferView":132,"componentType":5126,"count":33,"max":[0.902402400970459,0.8276004791259766,2.003713607788086],"min":[-0.902095377445221,0.5534816980361938,1.6144428253173828],"type":"VEC3"},{"bufferView":133,"componentType":5126,"count":33,"type":"VEC3"},{"bufferView":134,"componentType":5126,"count":33,"type":"VEC2"},{"bufferView":135,"componentType":5123,"count":108,"type":"SCALAR"},{"bufferView":136,"componentType":5123,"count":469,"normalized":true,"type":"VEC4"},{"bufferView":137,"componentType":5126,"count":469,"max":[0.16205310821533203,0.3999999165534973,0.400002121925354],"min":[-0.15183639526367188,-0.40000003576278687,-0.3999979496002197],"type":"VEC3"},{"bufferView":138,"componentType":5126,"count":469,"type":"VEC3"},{"bufferView":139,"componentType":5126,"count":469,"type":"VEC2"},{"bufferView":140,"componentType":5123,"count":1254,"type":"SCALAR"},{"bufferView":141,"componentType":5123,"count":29,"normalized":true,"type":"VEC4"},{"bufferView":142,"componentType":5126,"count":29,"max":[0.14051616191864014,0.3499906063079834,0.3499901294708252],"min":[-0.08493578433990479,-0.34999075531959534,-0.3499915599822998],"type":"VEC3"},{"bufferView":143,"componentType":5126,"count":29,"type":"VEC3"},{"bufferView":144,"componentType":5126,"count":29,"type":"VEC2"},{"bufferView":145,"componentType":5123,"count":120,"type":"SCALAR"},{"bufferView":146,"componentType":5123,"count":469,"normalized":true,"type":"VEC4"},{"bufferView":147,"componentType":5126,"count":469,"max":[0.15183639526367188,0.3999999165534973,0.400002121925354],"min":[-0.16205310821533203,-0.40000003576278687,-0.3999979496002197],"type":"VEC3"},{"bufferView":148,"componentType":5126,"count":469,"type":"VEC3"},{"bufferView":149,"componentType":5126,"count":469,"type":"VEC2"},{"bufferView":150,"componentType":5123,"count":1254,"type":"SCALAR"},{"bufferView":151,"componentType":5123,"count":29,"normalized":true,"type":"VEC4"},{"bufferView":152,"componentType":5126,"count":29,"max":[0.08493578433990479,0.3499906063079834,0.3499901294708252],"min":[-0.14051616191864014,-0.34999075531959534,-0.3499915599822998],"type":"VEC3"},{"bufferView":153,"componentType":5126,"count":29,"type":"VEC3"},{"bufferView":154,"componentType":5126,"count":29,"type":"VEC2"},{"bufferView":155,"componentType":5123,"count":120,"type":"SCALAR"},{"bufferView":156,"componentType":5123,"count":469,"normalized":true,"type":"VEC4"},{"bufferView":157,"componentType":5126,"count":469,"max":[0.1620950698852539,0.3999999165534973,0.39999866485595703],"min":[-0.15179443359375,-0.40000003576278687,-0.40000152587890625],"type":"VEC3"},{"bufferView":158,"componentType":5126,"count":469,"type":"VEC3"},{"bufferView":159,"componentType":5126,"count":469,"type":"VEC2"},{"bufferView":160,"componentType":5123,"count":29,"normalized":true,"type":"VEC4"},{"bufferView":161,"componentType":5126,"count":29,"max":[0.140558123588562,0.3499906063079834,0.3499866724014282],"min":[-0.08489382266998291,-0.34999075531959534,-0.34999513626098633],"type":"VEC3"},{"bufferView":162,"componentType":5126,"count":29,"type":"VEC3"},{"bufferView":163,"componentType":5126,"count":29,"type":"VEC2"},{"bufferView":164,"componentType":5123,"count":469,"normalized":true,"type":"VEC4"},{"bufferView":165,"componentType":5126,"count":469,"max":[0.15179443359375,0.3999999165534973,0.39999866485595703],"min":[-0.1620950698852539,-0.40000003576278687,-0.40000152587890625],"type":"VEC3"},{"bufferView":166,"componentType":5126,"count":469,"type":"VEC3"},{"bufferView":167,"componentType":5126,"count":469,"type":"VEC2"},{"bufferView":168,"componentType":5123,"count":29,"normalized":true,"type":"VEC4"},{"bufferView":169,"componentType":5126,"count":29,"max":[0.08489382266998291,0.3499906063079834,0.3499866724014282],"min":[-0.140558123588562,-0.34999075531959534,-0.34999513626098633],"type":"VEC3"},{"bufferView":170,"componentType":5126,"count":29,"type":"VEC3"},{"bufferView":171,"componentType":5126,"count":29,"type":"VEC2"},{"bufferView":172,"componentType":5126,"count":423,"max":[1.159838318824768,0.9393682479858398,2.1145858764648438],"min":[-1.159838318824768,0.0979103147983551,-2.4136924743652344],"type":"VEC3"},{"bufferView":173,"componentType":5126,"count":423,"type":"VEC3"},{"bufferView":174,"componentType":5126,"count":423,"type":"VEC2"},{"bufferView":175,"componentType":5123,"count":1056,"type":"SCALAR"},{"bufferView":176,"componentType":5126,"count":981,"max":[1.159838318824768,1.6010316610336304,2.1568636894226074],"min":[-1.159838318824768,0.0979103147983551,-2.466376543045044],"type":"VEC3"},{"bufferView":177,"componentType":5126,"count":981,"type":"VEC3"},{"bufferView":178,"componentType":5126,"count":981,"type":"VEC2"},{"bufferView":179,"componentType":5123,"count":2640,"type":"SCALAR"},{"bufferView":180,"componentType":5126,"count":117,"max":[0.878553569316864,1.6627556085586548,0.8064371943473816],"min":[-0.878553569316864,1.1895794868469238,-1.7644941806793213],"type":"VEC3"},{"bufferView":181,"componentType":5126,"count":117,"type":"VEC3"},{"bufferView":182,"componentType":5126,"count":117,"type":"VEC2"},{"bufferView":183,"componentType":5123,"count":510,"type":"SCALAR"},{"bufferView":184,"componentType":5126,"count":36,"max":[0.9339809417724609,0.9156706929206848,-2.2200303077697754],"min":[-0.9339809417724609,0.8091177940368652,-2.3525173664093018],"type":"VEC3"},{"bufferView":185,"componentType":5126,"count":36,"type":"VEC3"},{"bufferView":186,"componentType":5126,"count":36,"type":"VEC2"},{"bufferView":187,"componentType":5123,"count":96,"type":"SCALAR"},{"bufferView":188,"componentType":5126,"count":16,"max":[0.9986385107040405,0.552859902381897,2.0164148807525635],"min":[-0.9986385107040405,0.42792966961860657,1.8628937005996704],"type":"VEC3"},{"bufferView":189,"componentType":5126,"count":16,"type":"VEC3"},{"bufferView":190,"componentType":5126,"count":16,"type":"VEC2"},{"bufferView":191,"componentType":5123,"count":36,"type":"SCALAR"},{"bufferView":192,"componentType":5126,"count":6950,"max":[9.693767547607422,57.38644027709961,22.701290130615234],"min":[-9.544054985046387,0,-15.795122146606445],"type":"VEC3"},{"bufferView":193,"componentType":5126,"count":6950,"type":"VEC3"},{"bufferView":194,"componentType":5126,"count":6950,"type":"VEC2"},{"bufferView":195,"componentType":5123,"count":24702,"type":"SCALAR"},{"bufferView":196,"componentType":5126,"count":324,"max":[8.423206329345703,15.75301742553711,20.707826614379883],"min":[-8.425782203674316,4.858661651611328,-5.130716323852539],"type":"VEC3"},{"bufferView":197,"componentType":5126,"count":324,"type":"VEC3"},{"bufferView":198,"componentType":5126,"count":324,"type":"VEC2"},{"bufferView":199,"componentType":5123,"count":918,"type":"SCALAR"},{"bufferView":200,"componentType":5126,"count":70,"max":[6.516058921813965,57.1202507019043,-10.345864295959473],"min":[-3.292659282684326,53.97251892089844,-14.800835609436035],"type":"VEC3"},{"bufferView":201,"componentType":5126,"count":70,"type":"VEC3"},{"bufferView":202,"componentType":5126,"count":70,"type":"VEC2"},{"bufferView":203,"componentType":5123,"count":114,"type":"SCALAR"},{"bufferView":204,"componentType":5123,"count":72,"type":"SCALAR"},{"bufferView":205,"componentType":5123,"count":6,"type":"SCALAR"},{"bufferView":206,"componentType":5126,"count":48,"max":[7.5,0.09999997913837433,7.5],"min":[-7.5,-0.10000001639127731,-7.5],"type":"VEC3"},{"bufferView":207,"componentType":5126,"count":48,"type":"VEC3"},{"bufferView":208,"componentType":5126,"count":48,"type":"VEC2"},{"bufferView":209,"componentType":5126,"count":4,"max":[3.750000476837158,-0.10000000894069672,7.5],"min":[-3.750000476837158,-0.10000000894069672,-7.5],"type":"VEC3"},{"bufferView":210,"componentType":5126,"count":4,"type":"VEC3"},{"bufferView":211,"componentType":5126,"count":4,"type":"VEC2"},{"bufferView":212,"componentType":5123,"count":6,"type":"SCALAR"},{"bufferView":213,"componentType":5126,"count":4,"max":[7.49993896484375,0,7.5],"min":[-7.500061511993408,0,-7.5],"type":"VEC3"},{"bufferView":214,"componentType":5126,"count":4,"type":"VEC3"},{"bufferView":215,"componentType":5126,"count":4,"type":"VEC2"},{"bufferView":216,"componentType":5123,"count":6,"type":"SCALAR"},{"bufferView":217,"componentType":5126,"count":40,"max":[-1.776357650756836,0.10000000149011612,7.499995231628418],"min":[-5.706169128417969,-0.10000000149011612,-7.500004768371582],"type":"VEC3"},{"bufferView":218,"componentType":5126,"count":40,"type":"VEC3"},{"bufferView":219,"componentType":5126,"count":40,"type":"VEC2"},{"bufferView":220,"componentType":5123,"count":60,"type":"SCALAR"},{"bufferView":221,"componentType":5126,"count":4,"max":[-1.8790836334228516,-9.5367431640625e-7,7.499995231628418],"min":[-5.606972694396973,-9.5367431640625e-7,-7.500004768371582],"type":"VEC3"},{"bufferView":222,"componentType":5126,"count":4,"type":"VEC3"},{"bufferView":223,"componentType":5126,"count":4,"type":"VEC2"},{"bufferView":224,"componentType":5123,"count":6,"type":"SCALAR"},{"bufferView":225,"componentType":5126,"count":4,"max":[7.5,0,7.499995231628418],"min":[-1.8790836334228516,-9.5367431640625e-7,-7.500004768371582],"type":"VEC3"},{"bufferView":226,"componentType":5126,"count":4,"type":"VEC3"},{"bufferView":227,"componentType":5126,"count":4,"type":"VEC2"},{"bufferView":228,"componentType":5123,"count":6,"type":"SCALAR"},{"bufferView":229,"componentType":5126,"count":4,"max":[-5.606972694396973,0,7.499995231628418],"min":[-7.5,-9.5367431640625e-7,-7.500004768371582],"type":"VEC3"},{"bufferView":230,"componentType":5126,"count":4,"type":"VEC3"},{"bufferView":231,"componentType":5126,"count":4,"type":"VEC2"},{"bufferView":232,"componentType":5126,"count":160,"max":[7.499998569488525,0.10000000149011612,7.5],"min":[1.7770425081253052,-0.10000000149011612,1.7706679105758667],"type":"VEC3"},{"bufferView":233,"componentType":5126,"count":160,"type":"VEC3"},{"bufferView":234,"componentType":5126,"count":160,"type":"VEC2"},{"bufferView":235,"componentType":5123,"count":276,"type":"SCALAR"},{"bufferView":236,"componentType":5126,"count":10,"max":[7.499980926513672,0,7.5],"min":[1.8760571479797363,-9.5367431640625e-7,1.8711148500442505],"type":"VEC3"},{"bufferView":237,"componentType":5126,"count":10,"type":"VEC3"},{"bufferView":238,"componentType":5126,"count":10,"type":"VEC2"},{"bufferView":239,"componentType":5123,"count":24,"type":"SCALAR"},{"bufferView":240,"componentType":5126,"count":8,"max":[7.499974727630615,0,7.5],"min":[-7.500000476837158,-9.5367431640625e-7,-7.5],"type":"VEC3"},{"bufferView":241,"componentType":5126,"count":8,"type":"VEC3"},{"bufferView":242,"componentType":5126,"count":8,"type":"VEC2"},{"bufferView":243,"componentType":5123,"count":18,"type":"SCALAR"},{"bufferView":244,"componentType":5126,"count":6,"max":[7.49998140335083,0,7.5],"min":[5.603943824768066,-9.5367431640625e-7,5.599004745483398],"type":"VEC3"},{"bufferView":245,"componentType":5126,"count":6,"type":"VEC3"},{"bufferView":246,"componentType":5126,"count":6,"type":"VEC2"},{"bufferView":247,"componentType":5123,"count":12,"type":"SCALAR"},{"bufferView":248,"componentType":5126,"count":106,"max":[0.22128364443778992,8.304719924926758,3.0710415840148926],"min":[-0.2213037759065628,0,-0.11709251999855042],"type":"VEC3"},{"bufferView":249,"componentType":5126,"count":106,"type":"VEC3"},{"bufferView":250,"componentType":5126,"count":106,"type":"VEC2"},{"bufferView":251,"componentType":5123,"count":336,"type":"SCALAR"},{"bufferView":252,"componentType":5126,"count":10,"max":[0.13364164531230927,7.941127300262451,3.0237202644348145],"min":[-0.13366179168224335,7.70126485824585,2.2360119819641113],"type":"VEC3"},{"bufferView":253,"componentType":5126,"count":10,"type":"VEC3"},{"bufferView":254,"componentType":5126,"count":10,"type":"VEC2"},{"bufferView":255,"componentType":5123,"count":24,"type":"SCALAR"},{"bufferView":256,"componentType":5126,"count":76,"max":[1.0479520559310913,1.639740228652954,0.5603969097137451],"min":[-1.0479520559310913,-0.00527788233011961,-0.5600626468658447],"type":"VEC3"},{"bufferView":257,"componentType":5126,"count":76,"type":"VEC3"},{"bufferView":258,"componentType":5126,"count":76,"type":"VEC2"},{"bufferView":259,"componentType":5123,"count":132,"type":"SCALAR"},{"bufferView":260,"componentType":5126,"count":76,"max":[1.0424615144729614,1.639740228652954,0.5986649990081787],"min":[-1.0424615144729614,-0.00527788233011961,-0.5966669321060181],"type":"VEC3"},{"bufferView":261,"componentType":5126,"count":76,"type":"VEC3"},{"bufferView":262,"componentType":5126,"count":76,"type":"VEC2"},{"bufferView":263,"componentType":5126,"count":1662,"max":[3.8045547008514404,22.508602142333984,3.6199774742126465],"min":[-3.976882219314575,-0.16390419006347656,-4.198368549346924],"type":"VEC3"},{"bufferView":264,"componentType":5126,"count":1662,"type":"VEC3"},{"bufferView":265,"componentType":5126,"count":1662,"type":"VEC2"},{"bufferView":266,"componentType":5123,"count":3630,"type":"SCALAR"},{"bufferView":267,"componentType":5126,"count":20,"max":[0.9925661087036133,1,0.49380436539649963],"min":[-0.9925661087036133,0,-0.49380436539649963],"type":"VEC3"},{"bufferView":268,"componentType":5126,"count":20,"type":"VEC3"},{"bufferView":269,"componentType":5126,"count":20,"type":"VEC2"},{"bufferView":270,"componentType":5123,"count":90,"type":"SCALAR"}],"bufferViews":[{"buffer":0,"byteLength":1188,"byteOffset":0,"target":34963},{"buffer":0,"byteLength":192,"byteOffset":1188,"target":34963},{"buffer":0,"byteLength":2028,"byteOffset":1380,"target":34963},{"buffer":0,"byteLength":2028,"byteOffset":3408,"target":34963},{"buffer":0,"byteLength":960,"byteOffset":5436,"target":34962},{"buffer":0,"byteLength":1440,"byteOffset":6396,"target":34962},{"buffer":0,"byteLength":1440,"byteOffset":7836,"target":34962},{"buffer":0,"byteLength":960,"byteOffset":9276,"target":34962},{"buffer":0,"byteLength":272,"byteOffset":10236,"target":34962},{"buffer":0,"byteLength":408,"byteOffset":10508,"target":34962},{"buffer":0,"byteLength":408,"byteOffset":10916,"target":34962},{"buffer":0,"byteLength":272,"byteOffset":11324,"target":34962},{"buffer":0,"byteLength":960,"byteOffset":11596,"target":34962},{"buffer":0,"byteLength":1440,"byteOffset":12556,"target":34962},{"buffer":0,"byteLength":1440,"byteOffset":13996,"target":34962},{"buffer":0,"byteLength":960,"byteOffset":15436,"target":34962},{"buffer":0,"byteLength":1188,"byteOffset":16396,"target":34963},{"buffer":0,"byteLength":272,"byteOffset":17584,"target":34962},{"buffer":0,"byteLength":408,"byteOffset":17856,"target":34962},{"buffer":0,"byteLength":408,"byteOffset":18264,"target":34962},{"buffer":0,"byteLength":272,"byteOffset":18672,"target":34962},{"buffer":0,"byteLength":192,"byteOffset":18944,"target":34963},{"buffer":0,"byteLength":960,"byteOffset":19136,"target":34962},{"buffer":0,"byteLength":1440,"byteOffset":20096,"target":34962},{"buffer":0,"byteLength":1440,"byteOffset":21536,"target":34962},{"buffer":0,"byteLength":960,"byteOffset":22976,"target":34962},{"buffer":0,"byteLength":272,"byteOffset":23936,"target":34962},{"buffer":0,"byteLength":408,"byteOffset":24208,"target":34962},{"buffer":0,"byteLength":408,"byteOffset":24616,"target":34962},{"buffer":0,"byteLength":272,"byteOffset":25024,"target":34962},{"buffer":0,"byteLength":960,"byteOffset":25296,"target":34962},{"buffer":0,"byteLength":1440,"byteOffset":26256,"target":34962},{"buffer":0,"byteLength":1440,"byteOffset":27696,"target":34962},{"buffer":0,"byteLength":960,"byteOffset":29136,"target":34962},{"buffer":0,"byteLength":272,"byteOffset":30096,"target":34962},{"buffer":0,"byteLength":408,"byteOffset":30368,"target":34962},{"buffer":0,"byteLength":408,"byteOffset":30776,"target":34962},{"buffer":0,"byteLength":272,"byteOffset":31184,"target":34962},{"buffer":0,"byteLength":2784,"byteOffset":31456,"target":34962},{"buffer":0,"byteLength":4176,"byteOffset":34240,"target":34962},{"buffer":0,"byteLength":4176,"byteOffset":38416,"target":34962},{"buffer":0,"byteLength":2784,"byteOffset":42592,"target":34962},{"buffer":0,"byteLength":1836,"byteOffset":45376,"target":34963},{"buffer":0,"byteLength":4376,"byteOffset":47212,"target":34962},{"buffer":0,"byteLength":6564,"byteOffset":51588,"target":34962},{"buffer":0,"byteLength":6564,"byteOffset":58152,"target":34962},{"buffer":0,"byteLength":4376,"byteOffset":64716,"target":34962},{"buffer":0,"byteLength":4200,"byteOffset":69092,"target":34963},{"buffer":0,"byteLength":680,"byteOffset":73292,"target":34962},{"buffer":0,"byteLength":1020,"byteOffset":73972,"target":34962},{"buffer":0,"byteLength":1020,"byteOffset":74992,"target":34962},{"buffer":0,"byteLength":680,"byteOffset":76012,"target":34962},{"buffer":0,"byteLength":480,"byteOffset":76692,"target":34963},{"buffer":0,"byteLength":4128,"byteOffset":77172,"target":34962},{"buffer":0,"byteLength":6192,"byteOffset":81300,"target":34962},{"buffer":0,"byteLength":6192,"byteOffset":87492,"target":34962},{"buffer":0,"byteLength":4128,"byteOffset":93684,"target":34962},{"buffer":0,"byteLength":4560,"byteOffset":97812,"target":34963},{"buffer":0,"byteLength":576,"byteOffset":102372,"target":34962},{"buffer":0,"byteLength":864,"byteOffset":102948,"target":34962},{"buffer":0,"byteLength":864,"byteOffset":103812,"target":34962},{"buffer":0,"byteLength":576,"byteOffset":104676,"target":34962},{"buffer":0,"byteLength":816,"byteOffset":105252,"target":34963},{"buffer":0,"byteLength":192,"byteOffset":106068,"target":34962},{"buffer":0,"byteLength":288,"byteOffset":106260,"target":34962},{"buffer":0,"byteLength":288,"byteOffset":106548,"target":34962},{"buffer":0,"byteLength":192,"byteOffset":106836,"target":34962},{"buffer":0,"byteLength":120,"byteOffset":107028,"target":34963},{"buffer":0,"byteLength":304,"byteOffset":107148,"target":34962},{"buffer":0,"byteLength":456,"byteOffset":107452,"target":34962},{"buffer":0,"byteLength":456,"byteOffset":107908,"target":34962},{"buffer":0,"byteLength":304,"byteOffset":108364,"target":34962},{"buffer":0,"byteLength":288,"byteOffset":108668,"target":34963},{"buffer":0,"byteLength":2280,"byteOffset":108956,"target":34962},{"buffer":0,"byteLength":3420,"byteOffset":111236,"target":34962},{"buffer":0,"byteLength":3420,"byteOffset":114656,"target":34962},{"buffer":0,"byteLength":2280,"byteOffset":118076,"target":34962},{"buffer":0,"byteLength":432,"byteOffset":120356,"target":34962},{"buffer":0,"byteLength":648,"byteOffset":120788,"target":34962},{"buffer":0,"byteLength":648,"byteOffset":121436,"target":34962},{"buffer":0,"byteLength":432,"byteOffset":122084,"target":34962},{"buffer":0,"byteLength":240,"byteOffset":122516,"target":34963},{"buffer":0,"byteLength":2280,"byteOffset":122756,"target":34962},{"buffer":0,"byteLength":3420,"byteOffset":125036,"target":34962},{"buffer":0,"byteLength":3420,"byteOffset":128456,"target":34962},{"buffer":0,"byteLength":2280,"byteOffset":131876,"target":34962},{"buffer":0,"byteLength":432,"byteOffset":134156,"target":34962},{"buffer":0,"byteLength":648,"byteOffset":134588,"target":34962},{"buffer":0,"byteLength":648,"byteOffset":135236,"target":34962},{"buffer":0,"byteLength":432,"byteOffset":135884,"target":34962},{"buffer":0,"byteLength":2280,"byteOffset":136316,"target":34962},{"buffer":0,"byteLength":3420,"byteOffset":138596,"target":34962},{"buffer":0,"byteLength":3420,"byteOffset":142016,"target":34962},{"buffer":0,"byteLength":2280,"byteOffset":145436,"target":34962},{"buffer":0,"byteLength":432,"byteOffset":147716,"target":34962},{"buffer":0,"byteLength":648,"byteOffset":148148,"target":34962},{"buffer":0,"byteLength":648,"byteOffset":148796,"target":34962},{"buffer":0,"byteLength":432,"byteOffset":149444,"target":34962},{"buffer":0,"byteLength":2280,"byteOffset":149876,"target":34962},{"buffer":0,"byteLength":3420,"byteOffset":152156,"target":34962},{"buffer":0,"byteLength":3420,"byteOffset":155576,"target":34962},{"buffer":0,"byteLength":2280,"byteOffset":158996,"target":34962},{"buffer":0,"byteLength":432,"byteOffset":161276,"target":34962},{"buffer":0,"byteLength":648,"byteOffset":161708,"target":34962},{"buffer":0,"byteLength":648,"byteOffset":162356,"target":34962},{"buffer":0,"byteLength":432,"byteOffset":163004,"target":34962},{"buffer":0,"byteLength":3656,"byteOffset":163436,"target":34962},{"buffer":0,"byteLength":5484,"byteOffset":167092,"target":34962},{"buffer":0,"byteLength":5484,"byteOffset":172576,"target":34962},{"buffer":0,"byteLength":3656,"byteOffset":178060,"target":34962},{"buffer":0,"byteLength":2496,"byteOffset":181716,"target":34963},{"buffer":0,"byteLength":7248,"byteOffset":184212,"target":34962},{"buffer":0,"byteLength":10872,"byteOffset":191460,"target":34962},{"buffer":0,"byteLength":10872,"byteOffset":202332,"target":34962},{"buffer":0,"byteLength":7248,"byteOffset":213204,"target":34962},{"buffer":0,"byteLength":5772,"byteOffset":220452,"target":34963},{"buffer":0,"byteLength":560,"byteOffset":226224,"target":34962},{"buffer":0,"byteLength":840,"byteOffset":226784,"target":34962},{"buffer":0,"byteLength":840,"byteOffset":227624,"target":34962},{"buffer":0,"byteLength":560,"byteOffset":228464,"target":34962},{"buffer":0,"byteLength":348,"byteOffset":229024,"target":34963},{"buffer":0,"byteLength":192,"byteOffset":229372,"target":34962},{"buffer":0,"byteLength":288,"byteOffset":229564,"target":34962},{"buffer":0,"byteLength":288,"byteOffset":229852,"target":34962},{"buffer":0,"byteLength":192,"byteOffset":230140,"target":34962},{"buffer":0,"byteLength":120,"byteOffset":230332,"target":34963},{"buffer":0,"byteLength":320,"byteOffset":230452,"target":34962},{"buffer":0,"byteLength":480,"byteOffset":230772,"target":34962},{"buffer":0,"byteLength":480,"byteOffset":231252,"target":34962},{"buffer":0,"byteLength":320,"byteOffset":231732,"target":34962},{"buffer":0,"byteLength":120,"byteOffset":232052,"target":34963},{"buffer":0,"byteLength":264,"byteOffset":232172,"target":34962},{"buffer":0,"byteLength":396,"byteOffset":232436,"target":34962},{"buffer":0,"byteLength":396,"byteOffset":232832,"target":34962},{"buffer":0,"byteLength":264,"byteOffset":233228,"target":34962},{"buffer":0,"byteLength":216,"byteOffset":233492,"target":34963},{"buffer":0,"byteLength":3752,"byteOffset":233708,"target":34962},{"buffer":0,"byteLength":5628,"byteOffset":237460,"target":34962},{"buffer":0,"byteLength":5628,"byteOffset":243088,"target":34962},{"buffer":0,"byteLength":3752,"byteOffset":248716,"target":34962},{"buffer":0,"byteLength":2508,"byteOffset":252468,"target":34963},{"buffer":0,"byteLength":232,"byteOffset":254976,"target":34962},{"buffer":0,"byteLength":348,"byteOffset":255208,"target":34962},{"buffer":0,"byteLength":348,"byteOffset":255556,"target":34962},{"buffer":0,"byteLength":232,"byteOffset":255904,"target":34962},{"buffer":0,"byteLength":240,"byteOffset":256136,"target":34963},{"buffer":0,"byteLength":3752,"byteOffset":256376,"target":34962},{"buffer":0,"byteLength":5628,"byteOffset":260128,"target":34962},{"buffer":0,"byteLength":5628,"byteOffset":265756,"target":34962},{"buffer":0,"byteLength":3752,"byteOffset":271384,"target":34962},{"buffer":0,"byteLength":2508,"byteOffset":275136,"target":34963},{"buffer":0,"byteLength":232,"byteOffset":277644,"target":34962},{"buffer":0,"byteLength":348,"byteOffset":277876,"target":34962},{"buffer":0,"byteLength":348,"byteOffset":278224,"target":34962},{"buffer":0,"byteLength":232,"byteOffset":278572,"target":34962},{"buffer":0,"byteLength":240,"byteOffset":278804,"target":34963},{"buffer":0,"byteLength":3752,"byteOffset":279044,"target":34962},{"buffer":0,"byteLength":5628,"byteOffset":282796,"target":34962},{"buffer":0,"byteLength":5628,"byteOffset":288424,"target":34962},{"buffer":0,"byteLength":3752,"byteOffset":294052,"target":34962},{"buffer":0,"byteLength":232,"byteOffset":297804,"target":34962},{"buffer":0,"byteLength":348,"byteOffset":298036,"target":34962},{"buffer":0,"byteLength":348,"byteOffset":298384,"target":34962},{"buffer":0,"byteLength":232,"byteOffset":298732,"target":34962},{"buffer":0,"byteLength":3752,"byteOffset":298964,"target":34962},{"buffer":0,"byteLength":5628,"byteOffset":302716,"target":34962},{"buffer":0,"byteLength":5628,"byteOffset":308344,"target":34962},{"buffer":0,"byteLength":3752,"byteOffset":313972,"target":34962},{"buffer":0,"byteLength":232,"byteOffset":317724,"target":34962},{"buffer":0,"byteLength":348,"byteOffset":317956,"target":34962},{"buffer":0,"byteLength":348,"byteOffset":318304,"target":34962},{"buffer":0,"byteLength":232,"byteOffset":318652,"target":34962},{"buffer":0,"byteLength":5076,"byteOffset":318884,"target":34962},{"buffer":0,"byteLength":5076,"byteOffset":323960,"target":34962},{"buffer":0,"byteLength":3384,"byteOffset":329036,"target":34962},{"buffer":0,"byteLength":2112,"byteOffset":332420,"target":34963},{"buffer":0,"byteLength":11772,"byteOffset":334532,"target":34962},{"buffer":0,"byteLength":11772,"byteOffset":346304,"target":34962},{"buffer":0,"byteLength":7848,"byteOffset":358076,"target":34962},{"buffer":0,"byteLength":5280,"byteOffset":365924,"target":34963},{"buffer":0,"byteLength":1404,"byteOffset":371204,"target":34962},{"buffer":0,"byteLength":1404,"byteOffset":372608,"target":34962},{"buffer":0,"byteLength":936,"byteOffset":374012,"target":34962},{"buffer":0,"byteLength":1020,"byteOffset":374948,"target":34963},{"buffer":0,"byteLength":432,"byteOffset":375968,"target":34962},{"buffer":0,"byteLength":432,"byteOffset":376400,"target":34962},{"buffer":0,"byteLength":288,"byteOffset":376832,"target":34962},{"buffer":0,"byteLength":192,"byteOffset":377120,"target":34963},{"buffer":0,"byteLength":192,"byteOffset":377312,"target":34962},{"buffer":0,"byteLength":192,"byteOffset":377504,"target":34962},{"buffer":0,"byteLength":128,"byteOffset":377696,"target":34962},{"buffer":0,"byteLength":72,"byteOffset":377824,"target":34963},{"buffer":0,"byteLength":83400,"byteOffset":377896,"target":34962},{"buffer":0,"byteLength":83400,"byteOffset":461296,"target":34962},{"buffer":0,"byteLength":55600,"byteOffset":544696,"target":34962},{"buffer":0,"byteLength":49404,"byteOffset":600296,"target":34963},{"buffer":0,"byteLength":3888,"byteOffset":649700,"target":34962},{"buffer":0,"byteLength":3888,"byteOffset":653588,"target":34962},{"buffer":0,"byteLength":2592,"byteOffset":657476,"target":34962},{"buffer":0,"byteLength":1836,"byteOffset":660068,"target":34963},{"buffer":0,"byteLength":840,"byteOffset":661904,"target":34962},{"buffer":0,"byteLength":840,"byteOffset":662744,"target":34962},{"buffer":0,"byteLength":560,"byteOffset":663584,"target":34962},{"buffer":0,"byteLength":228,"byteOffset":664144,"target":34963},{"buffer":0,"byteLength":144,"byteOffset":664372,"target":34963},{"buffer":0,"byteLength":12,"byteOffset":664516,"target":34963},{"buffer":0,"byteLength":576,"byteOffset":664528,"target":34962},{"buffer":0,"byteLength":576,"byteOffset":665104,"target":34962},{"buffer":0,"byteLength":384,"byteOffset":665680,"target":34962},{"buffer":0,"byteLength":48,"byteOffset":666064,"target":34962},{"buffer":0,"byteLength":48,"byteOffset":666112,"target":34962},{"buffer":0,"byteLength":32,"byteOffset":666160,"target":34962},{"buffer":0,"byteLength":12,"byteOffset":666192,"target":34963},{"buffer":0,"byteLength":48,"byteOffset":666204,"target":34962},{"buffer":0,"byteLength":48,"byteOffset":666252,"target":34962},{"buffer":0,"byteLength":32,"byteOffset":666300,"target":34962},{"buffer":0,"byteLength":12,"byteOffset":666332,"target":34963},{"buffer":0,"byteLength":480,"byteOffset":666344,"target":34962},{"buffer":0,"byteLength":480,"byteOffset":666824,"target":34962},{"buffer":0,"byteLength":320,"byteOffset":667304,"target":34962},{"buffer":0,"byteLength":120,"byteOffset":667624,"target":34963},{"buffer":0,"byteLength":48,"byteOffset":667744,"target":34962},{"buffer":0,"byteLength":48,"byteOffset":667792,"target":34962},{"buffer":0,"byteLength":32,"byteOffset":667840,"target":34962},{"buffer":0,"byteLength":12,"byteOffset":667872,"target":34963},{"buffer":0,"byteLength":48,"byteOffset":667884,"target":34962},{"buffer":0,"byteLength":48,"byteOffset":667932,"target":34962},{"buffer":0,"byteLength":32,"byteOffset":667980,"target":34962},{"buffer":0,"byteLength":12,"byteOffset":668012,"target":34963},{"buffer":0,"byteLength":48,"byteOffset":668024,"target":34962},{"buffer":0,"byteLength":48,"byteOffset":668072,"target":34962},{"buffer":0,"byteLength":32,"byteOffset":668120,"target":34962},{"buffer":0,"byteLength":1920,"byteOffset":668152,"target":34962},{"buffer":0,"byteLength":1920,"byteOffset":670072,"target":34962},{"buffer":0,"byteLength":1280,"byteOffset":671992,"target":34962},{"buffer":0,"byteLength":552,"byteOffset":673272,"target":34963},{"buffer":0,"byteLength":120,"byteOffset":673824,"target":34962},{"buffer":0,"byteLength":120,"byteOffset":673944,"target":34962},{"buffer":0,"byteLength":80,"byteOffset":674064,"target":34962},{"buffer":0,"byteLength":48,"byteOffset":674144,"target":34963},{"buffer":0,"byteLength":96,"byteOffset":674192,"target":34962},{"buffer":0,"byteLength":96,"byteOffset":674288,"target":34962},{"buffer":0,"byteLength":64,"byteOffset":674384,"target":34962},{"buffer":0,"byteLength":36,"byteOffset":674448,"target":34963},{"buffer":0,"byteLength":72,"byteOffset":674484,"target":34962},{"buffer":0,"byteLength":72,"byteOffset":674556,"target":34962},{"buffer":0,"byteLength":48,"byteOffset":674628,"target":34962},{"buffer":0,"byteLength":24,"byteOffset":674676,"target":34963},{"buffer":0,"byteLength":1272,"byteOffset":674700,"target":34962},{"buffer":0,"byteLength":1272,"byteOffset":675972,"target":34962},{"buffer":0,"byteLength":848,"byteOffset":677244,"target":34962},{"buffer":0,"byteLength":672,"byteOffset":678092,"target":34963},{"buffer":0,"byteLength":120,"byteOffset":678764,"target":34962},{"buffer":0,"byteLength":120,"byteOffset":678884,"target":34962},{"buffer":0,"byteLength":80,"byteOffset":679004,"target":34962},{"buffer":0,"byteLength":48,"byteOffset":679084,"target":34963},{"buffer":0,"byteLength":912,"byteOffset":679132,"target":34962},{"buffer":0,"byteLength":912,"byteOffset":680044,"target":34962},{"buffer":0,"byteLength":608,"byteOffset":680956,"target":34962},{"buffer":0,"byteLength":264,"byteOffset":681564,"target":34963},{"buffer":0,"byteLength":912,"byteOffset":681828,"target":34962},{"buffer":0,"byteLength":912,"byteOffset":682740,"target":34962},{"buffer":0,"byteLength":608,"byteOffset":683652,"target":34962},{"buffer":0,"byteLength":19944,"byteOffset":684260,"target":34962},{"buffer":0,"byteLength":19944,"byteOffset":704204,"target":34962},{"buffer":0,"byteLength":13296,"byteOffset":724148,"target":34962},{"buffer":0,"byteLength":7260,"byteOffset":737444,"target":34963},{"buffer":0,"byteLength":240,"byteOffset":744704,"target":34962},{"buffer":0,"byteLength":240,"byteOffset":744944,"target":34962},{"buffer":0,"byteLength":160,"byteOffset":745184,"target":34962},{"buffer":0,"byteLength":180,"byteOffset":745344,"target":34963}],"buffers":[{"uri":"north-central-west.bin","byteLength":745524}]}