{"asset":{"version":"2.0","generator":"Jarvis Cartoon City sectorizer v1"},"extensionsUsed":["KHR_materials_specular","KHR_materials_ior","KHR_materials_emissive_strength"],"scenes":[{"name":"Cartoon City Free — north-central-center","nodes":[0,5,6,7,8,9,10,11,12,13,14,15,16,17,18,19,20,21,22,23,24]}],"scene":0,"nodes":[{"mesh":4,"name":"Futuristic_Car_1.001","translation":[5.866022109985352,0,6.991944313049316],"children":[1,2,3,4]},{"mesh":0,"name":"Futuristic_Car_1_Wheel_Front_Left.001","translation":[1.0316829681396484,0.40000003576278687,1.410445213317871]},{"mesh":1,"name":"Futuristic_Car_1_Wheel_Front_Right.001","translation":[-1.0315494537353516,0.40000003576278687,1.410445213317871]},{"mesh":2,"name":"Futuristic_Car_1_Wheel_Rear_Left.001","translation":[1.0316829681396484,0.40000003576278687,-1.4104318618774414]},{"mesh":3,"name":"Futuristic_Car_1_Wheel_Rear_Right.001","translation":[-1.0315494537353516,0.40000003576278687,-1.4104318618774414]},{"mesh":5,"name":"road_003.008","rotation":[0,1,0,1.6292068494294654e-7],"translation":[7.5,0,22.5]},{"mesh":6,"name":"road_020.083","translation":[7.5,0,7.5]},{"mesh":7,"name":"Set_B_Tiles_04.030","rotation":[0,1,0,1.6292068494294654e-7],"translation":[-7.5,0,7.5]},{"mesh":8,"name":"Set_B_Tiles_06.003","rotation":[0,0.7071066498756409,0,0.70710688829422],"translation":[-7.5,0,22.5]},{"mesh":9,"name":"traffic_light_002.563","rotation":[0,1,0,7.549790126404332e-8],"translation":[0.5345458984375,0,10.084671020507812]},{"mesh":9,"name":"traffic_light_002.564","translation":[14.42462158203125,0,34.77980041503906]},{"mesh":9,"name":"traffic_light_002.565","rotation":[0,0.7071066498756409,0,0.70710688829422],"translation":[19.8271484375,0,15.487167358398438]},{"mesh":10,"name":"traffic_light_001.115","rotation":[0,0.7071074843406677,0,0.7071060538291931],"translation":[0.76739501953125,0,29.936416625976562]},{"mesh":11,"name":"Spotlight_01.096","rotation":[0,0.7071077823638916,0,0.7071058750152588],"translation":[0.54754638671875,0,20.641021728515625]},{"mesh":12,"name":"traffic_light_003.558","rotation":[0,-0.7071066498756409,0,0.70710688829422],"translation":[14.36761474609375,0,10.084671020507812]},{"mesh":12,"name":"traffic_light_003.559","rotation":[0,0.7071066498756409,0,0.70710688829422],"translation":[0.591552734375,0,34.77973937988281]},{"mesh":12,"name":"traffic_light_003.560","rotation":[0,-1,0,4.331257628109597e-7],"translation":[19.8271484375,0,29.320266723632812]},{"mesh":13,"name":"Fountain_03.002","translation":[-12.56341552734375,0,30.18292236328125]},{"mesh":14,"name":"Palm_03.062","rotation":[0,-1,0,0.0000012675908465098473],"translation":[16.5191650390625,0.15000015497207642,31.272178649902344]},{"mesh":14,"name":"Palm_03.064","rotation":[0,-0.7071055769920349,0,0.7071080803871155],"translation":[16.5191650390625,0.15000015497207642,13.956710815429688]},{"mesh":15,"name":"Bush_10.204","rotation":[0,-0.7071058750152588,0,0.7071077823638916],"translation":[15.88397216796875,0,5.8694610595703125]},{"mesh":15,"name":"Bush_10.206","rotation":[0,-0.7071058750152588,0,0.7071077823638916],"translation":[15.884002685546875,0,1.5806121826171875]},{"mesh":16,"name":"Bush_07.023","translation":[-0.8388671875,0,15.164108276367188]},{"mesh":16,"name":"Bush_07.024","translation":[-0.8388671875,0,11.697998046875]},{"mesh":16,"name":"Bush_07.025","translation":[-0.8388671875,0,3.275726318359375]}],"meshes":[{"name":"Mesh.176","primitives":[{"attributes":{"COLOR_0":0,"POSITION":1,"NORMAL":2,"TEXCOORD_0":3},"indices":4,"material":0},{"attributes":{"COLOR_0":5,"POSITION":6,"NORMAL":7,"TEXCOORD_0":8},"indices":9,"material":5}]},{"name":"Mesh.173","primitives":[{"attributes":{"COLOR_0":10,"POSITION":11,"NORMAL":12,"TEXCOORD_0":13},"indices":14,"material":0},{"attributes":{"COLOR_0":15,"POSITION":16,"NORMAL":17,"TEXCOORD_0":18},"indices":19,"material":5}]},{"name":"Mesh.175","primitives":[{"attributes":{"COLOR_0":20,"POSITION":21,"NORMAL":22,"TEXCOORD_0":23},"indices":4,"material":0},{"attributes":{"COLOR_0":24,"POSITION":25,"NORMAL":26,"TEXCOORD_0":27},"indices":9,"material":5}]},{"name":"Mesh.174","primitives":[{"attributes":{"COLOR_0":28,"POSITION":29,"NORMAL":30,"TEXCOORD_0":31},"indices":14,"material":0},{"attributes":{"COLOR_0":32,"POSITION":33,"NORMAL":34,"TEXCOORD_0":35},"indices":19,"material":5}]},{"name":"Plane.034","primitives":[{"attributes":{"POSITION":36,"NORMAL":37,"TEXCOORD_0":38},"indices":39,"material":0},{"attributes":{"POSITION":40,"NORMAL":41,"TEXCOORD_0":42},"indices":43,"material":3},{"attributes":{"POSITION":44,"NORMAL":45,"TEXCOORD_0":46},"indices":47,"material":1},{"attributes":{"POSITION":48,"NORMAL":49,"TEXCOORD_0":50},"indices":51,"material":2},{"attributes":{"POSITION":52,"NORMAL":53,"TEXCOORD_0":54},"indices":55,"material":4}]},{"name":"Cube.221","primitives":[{"attributes":{"POSITION":57,"NORMAL":58,"TEXCOORD_0":59},"indices":60,"material":0},{"attributes":{"POSITION":61,"NORMAL":62,"TEXCOORD_0":63},"indices":64,"material":6}]},{"name":"Cube.190","primitives":[{"attributes":{"POSITION":65,"NORMAL":66,"TEXCOORD_0":67},"indices":68,"material":0},{"attributes":{"POSITION":69,"NORMAL":70,"TEXCOORD_0":71},"indices":56,"material":6}]},{"name":"Plane.268","primitives":[{"attributes":{"POSITION":73,"NORMAL":74,"TEXCOORD_0":75},"indices":76,"material":0},{"attributes":{"POSITION":77,"NORMAL":78,"TEXCOORD_0":79},"indices":80,"material":7},{"attributes":{"POSITION":81,"NORMAL":82,"TEXCOORD_0":83},"indices":72,"material":8},{"attributes":{"POSITION":84,"NORMAL":85,"TEXCOORD_0":86},"indices":87,"material":9}]},{"name":"Plane.274","primitives":[{"attributes":{"POSITION":88,"NORMAL":89,"TEXCOORD_0":90},"indices":91,"material":0},{"attributes":{"POSITION":92,"NORMAL":93,"TEXCOORD_0":94},"indices":95,"material":7},{"attributes":{"POSITION":96,"NORMAL":97,"TEXCOORD_0":98},"indices":99,"material":8},{"attributes":{"POSITION":100,"NORMAL":101,"TEXCOORD_0":102},"indices":103,"material":9}]},{"name":"Cube.111","primitives":[{"attributes":{"POSITION":104,"NORMAL":105,"TEXCOORD_0":106},"indices":107,"material":0},{"attributes":{"POSITION":108,"NORMAL":109,"TEXCOORD_0":110},"indices":111,"material":5},{"attributes":{"POSITION":112,"NORMAL":113,"TEXCOORD_0":114},"indices":115,"material":10}]},{"name":"Cube.124","primitives":[{"attributes":{"POSITION":116,"NORMAL":117,"TEXCOORD_0":118},"indices":119,"material":0},{"attributes":{"POSITION":120,"NORMAL":121,"TEXCOORD_0":122},"indices":123,"material":5}]},{"name":"Cube.184","primitives":[{"attributes":{"POSITION":124,"NORMAL":125,"TEXCOORD_0":126},"indices":127,"material":0},{"attributes":{"POSITION":128,"NORMAL":129,"TEXCOORD_0":130},"indices":131,"material":5}]},{"name":"Cube.107","primitives":[{"attributes":{"POSITION":132,"NORMAL":133,"TEXCOORD_0":134},"indices":135,"material":0},{"attributes":{"POSITION":136,"NORMAL":137,"TEXCOORD_0":138},"indices":139,"material":5},{"attributes":{"POSITION":140,"NORMAL":141,"TEXCOORD_0":142},"indices":115,"material":10}]},{"name":"Cylinder.013","primitives":[{"attributes":{"POSITION":143,"NORMAL":144,"TEXCOORD_0":145},"indices":146,"material":0},{"attributes":{"POSITION":147,"NORMAL":148,"TEXCOORD_0":149},"indices":150,"material":1}]},{"name":"Cylinder.086","primitives":[{"attributes":{"POSITION":151,"NORMAL":152,"TEXCOORD_0":153},"indices":154,"material":0}]},{"name":"Cube.083","primitives":[{"attributes":{"POSITION":155,"NORMAL":156,"TEXCOORD_0":157},"indices":158,"material":0}]},{"name":"Cube.041","primitives":[{"attributes":{"POSITION":160,"NORMAL":161,"TEXCOORD_0":162},"indices":159,"material":0}]}],"materials":[{"doubleSided":true,"name":"Color","pbrMetallicRoughness":{"baseColorTexture":{"index":0},"metallicFactor":0,"roughnessFactor":0.699999988079071}},{"doubleSided":true,"name":"Color_Glossy","pbrMetallicRoughness":{"baseColorTexture":{"index":1},"metallicFactor":0,"roughnessFactor":0.20000000298023224}},{"doubleSided":true,"emissiveFactor":[1,1,1],"emissiveTexture":{"index":2},"name":"Car_Taillights","pbrMetallicRoughness":{"baseColorTexture":{"index":3},"metallicFactor":0,"roughnessFactor":0.5}},{"doubleSided":true,"emissiveFactor":[0.10000000149011612,0.10000000149011612,0.10000000149011612],"emissiveTexture":{"index":4},"name":"Car_Color","pbrMetallicRoughness":{"baseColorTexture":{"index":5},"metallicFactor":0.20000000298023224,"roughnessFactor":0.10000000149011612}},{"doubleSided":true,"emissiveFactor":[1,1,1],"emissiveTexture":{"index":6},"name":"Car_Headlights","pbrMetallicRoughness":{"baseColorTexture":{"index":7},"metallicFactor":0,"roughnessFactor":0.5}},{"doubleSided":true,"emissiveFactor":[1,1,1],"emissiveTexture":{"index":8},"extensions":{"KHR_materials_emissive_strength":{"emissiveStrength":3}},"name":"Emissive","pbrMetallicRoughness":{"baseColorTexture":{"index":9},"metallicFactor":0,"roughnessFactor":0.5}},{"doubleSided":true,"emissiveFactor":[0.10000000149011612,0.10000000149011612,0.10000000149011612],"emissiveTexture":{"index":10},"extensions":{"KHR_materials_specular":{"specularColorFactor":[0.711407312601205,0.711407312601205,0.711407312601205]},"KHR_materials_ior":{"ior":1.4500000476837158}},"name":"Roads","pbrMetallicRoughness":{"baseColorTexture":{"index":11},"metallicFactor":0,"roughnessFactor":0.75}},{"doubleSided":true,"name":"Asphalt_Dark_Gray","pbrMetallicRoughness":{"baseColorFactor":[0.13853572309017181,0.13853572309017181,0.13853572309017181,1],"metallicFactor":0,"roughnessFactor":0.5}},{"doubleSided":true,"name":"Tile_1","normalTexture":{"index":12,"scale":5},"pbrMetallicRoughness":{"baseColorTexture":{"index":13},"metallicFactor":0,"metallicRoughnessTexture":{"index":14}}},{"doubleSided":true,"name":"Grass","pbrMetallicRoughness":{"baseColorFactor":[0.25015830993652344,0.44520121812820435,0.13013650476932526,1],"metallicFactor":0,"roughnessFactor":0.7598187327384949}},{"doubleSided":true,"name":"Road_Signs","pbrMetallicRoughness":{"baseColorTexture":{"index":15},"metallicFactor":0,"roughnessFactor":0.5}}],"textures":[{"sampler":0,"source":0},{"sampler":0,"source":0},{"sampler":0,"source":1},{"sampler":0,"source":1},{"sampler":0,"source":0},{"sampler":0,"source":0},{"sampler":0,"source":1},{"sampler":0,"source":1},{"sampler":0,"source":1},{"sampler":0,"source":1},{"sampler":0,"source":2},{"sampler":0,"source":2},{"sampler":0,"source":3},{"sampler":0,"source":4},{"sampler":0,"source":5},{"sampler":0,"source":6}],"images":[{"uri":"shared/486c6d61063241d5.webp","mimeType":"image/webp"},{"uri":"shared/486c6d61063241d5.webp","mimeType":"image/webp"},{"uri":"shared/cd11a20db95ff60c.webp","mimeType":"image/webp"},{"uri":"shared/28470d0f5c64a9e9.png","mimeType":"image/png"},{"uri":"shared/d686ec6d73243cad.webp","mimeType":"image/webp"},{"uri":"shared/0dd4c9f67e03b0dc.png","mimeType":"image/png"},{"uri":"shared/2cccaa2f16cfd5f2.webp","mimeType":"image/webp"}],"samplers":[{"magFilter":9729,"minFilter":9987}],"accessors":[{"bufferView":0,"componentType":5123,"count":469,"normalized":true,"type":"VEC4"},{"bufferView":1,"componentType":5126,"count":469,"max":[0.16205310821533203,0.3999999165534973,0.400002121925354],"min":[-0.15183639526367188,-0.40000003576278687,-0.3999979496002197],"type":"VEC3"},{"bufferView":2,"componentType":5126,"count":469,"type":"VEC3"},{"bufferView":3,"componentType":5126,"count":469,"type":"VEC2"},{"bufferView":4,"componentType":5123,"count":1254,"type":"SCALAR"},{"bufferView":5,"componentType":5123,"count":29,"normalized":true,"type":"VEC4"},{"bufferView":6,"componentType":5126,"count":29,"max":[0.14051616191864014,0.3499906063079834,0.3499901294708252],"min":[-0.08493578433990479,-0.34999075531959534,-0.3499915599822998],"type":"VEC3"},{"bufferView":7,"componentType":5126,"count":29,"type":"VEC3"},{"bufferView":8,"componentType":5126,"count":29,"type":"VEC2"},{"bufferView":9,"componentType":5123,"count":120,"type":"SCALAR"},{"bufferView":10,"componentType":5123,"count":469,"normalized":true,"type":"VEC4"},{"bufferView":11,"componentType":5126,"count":469,"max":[0.15183639526367188,0.3999999165534973,0.400002121925354],"min":[-0.16205310821533203,-0.40000003576278687,-0.3999979496002197],"type":"VEC3"},{"bufferView":12,"componentType":5126,"count":469,"type":"VEC3"},{"bufferView":13,"componentType":5126,"count":469,"type":"VEC2"},{"bufferView":14,"componentType":5123,"count":1254,"type":"SCALAR"},{"bufferView":15,"componentType":5123,"count":29,"normalized":true,"type":"VEC4"},{"bufferView":16,"componentType":5126,"count":29,"max":[0.08493578433990479,0.3499906063079834,0.3499901294708252],"min":[-0.14051616191864014,-0.34999075531959534,-0.3499915599822998],"type":"VEC3"},{"bufferView":17,"componentType":5126,"count":29,"type":"VEC3"},{"bufferView":18,"componentType":5126,"count":29,"type":"VEC2"},{"bufferView":19,"componentType":5123,"count":120,"type":"SCALAR"},{"bufferView":20,"componentType":5123,"count":469,"normalized":true,"type":"VEC4"},{"bufferView":21,"componentType":5126,"count":469,"max":[0.1620950698852539,0.3999999165534973,0.39999866485595703],"min":[-0.15179443359375,-0.40000003576278687,-0.40000152587890625],"type":"VEC3"},{"bufferView":22,"componentType":5126,"count":469,"type":"VEC3"},{"bufferView":23,"componentType":5126,"count":469,"type":"VEC2"},{"bufferView":24,"componentType":5123,"count":29,"normalized":true,"type":"VEC4"},{"bufferView":25,"componentType":5126,"count":29,"max":[0.140558123588562,0.3499906063079834,0.3499866724014282],"min":[-0.08489382266998291,-0.34999075531959534,-0.34999513626098633],"type":"VEC3"},{"bufferView":26,"componentType":5126,"count":29,"type":"VEC3"},{"bufferView":27,"componentType":5126,"count":29,"type":"VEC2"},{"bufferView":28,"componentType":5123,"count":469,"normalized":true,"type":"VEC4"},{"bufferView":29,"componentType":5126,"count":469,"max":[0.15179443359375,0.3999999165534973,0.39999866485595703],"min":[-0.1620950698852539,-0.40000003576278687,-0.40000152587890625],"type":"VEC3"},{"bufferView":30,"componentType":5126,"count":469,"type":"VEC3"},{"bufferView":31,"componentType":5126,"count":469,"type":"VEC2"},{"bufferView":32,"componentType":5123,"count":29,"normalized":true,"type":"VEC4"},{"bufferView":33,"componentType":5126,"count":29,"max":[0.08489382266998291,0.3499906063079834,0.3499866724014282],"min":[-0.140558123588562,-0.34999075531959534,-0.34999513626098633],"type":"VEC3"},{"bufferView":34,"componentType":5126,"count":29,"type":"VEC3"},{"bufferView":35,"componentType":5126,"count":29,"type":"VEC2"},{"bufferView":36,"componentType":5126,"count":423,"max":[1.159838318824768,0.9393682479858398,2.1145858764648438],"min":[-1.159838318824768,0.0979103147983551,-2.4136924743652344],"type":"VEC3"},{"bufferView":37,"componentType":5126,"count":423,"type":"VEC3"},{"bufferView":38,"componentType":5126,"count":423,"type":"VEC2"},{"bufferView":39,"componentType":5123,"count":1056,"type":"SCALAR"},{"bufferView":40,"componentType":5126,"count":981,"max":[1.159838318824768,1.6010316610336304,2.1568636894226074],"min":[-1.159838318824768,0.0979103147983551,-2.466376543045044],"type":"VEC3"},{"bufferView":41,"componentType":5126,"count":981,"type":"VEC3"},{"bufferView":42,"componentType":5126,"count":981,"type":"VEC2"},{"bufferView":43,"componentType":5123,"count":2640,"type":"SCALAR"},{"bufferView":44,"componentType":5126,"count":117,"max":[0.878553569316864,1.6627556085586548,0.8064371943473816],"min":[-0.878553569316864,1.1895794868469238,-1.7644941806793213],"type":"VEC3"},{"bufferView":45,"componentType":5126,"count":117,"type":"VEC3"},{"bufferView":46,"componentType":5126,"count":117,"type":"VEC2"},{"bufferView":47,"componentType":5123,"count":510,"type":"SCALAR"},{"bufferView":48,"componentType":5126,"count":36,"max":[0.9339809417724609,0.9156706929206848,-2.2200303077697754],"min":[-0.9339809417724609,0.8091177940368652,-2.3525173664093018],"type":"VEC3"},{"bufferView":49,"componentType":5126,"count":36,"type":"VEC3"},{"bufferView":50,"componentType":5126,"count":36,"type":"VEC2"},{"bufferView":51,"componentType":5123,"count":96,"type":"SCALAR"},{"bufferView":52,"componentType":5126,"count":16,"max":[0.9986385107040405,0.552859902381897,2.0164148807525635],"min":[-0.9986385107040405,0.42792966961860657,1.8628937005996704],"type":"VEC3"},{"bufferView":53,"componentType":5126,"count":16,"type":"VEC3"},{"bufferView":54,"componentType":5126,"count":16,"type":"VEC2"},{"bufferView":55,"componentType":5123,"count":36,"type":"SCALAR"},{"bufferView":56,"componentType":5123,"count":6,"type":"SCALAR"},{"bufferView":57,"componentType":5126,"count":110,"max":[7.500000476837158,0.10000002384185791,7.5],"min":[-7.500000953674316,-0.10000002384185791,-7.5],"type":"VEC3"},{"bufferView":58,"componentType":5126,"count":110,"type":"VEC3"},{"bufferView":59,"componentType":5126,"count":110,"type":"VEC2"},{"bufferView":60,"componentType":5123,"count":222,"type":"SCALAR"},{"bufferView":61,"componentType":5126,"count":4,"max":[7.500367164611816,-0.10000000894069672,7.499996662139893],"min":[-7.500082015991211,-0.10000000894069672,-7.500004291534424],"type":"VEC3"},{"bufferView":62,"componentType":5126,"count":4,"type":"VEC3"},{"bufferView":63,"componentType":5126,"count":4,"type":"VEC2"},{"bufferView":64,"componentType":5123,"count":6,"type":"SCALAR"},{"bufferView":65,"componentType":5126,"count":48,"max":[7.500000953674316,0.09999997913837433,7.499996662139893],"min":[-7.500000953674316,-0.10000001639127731,-7.499996662139893],"type":"VEC3"},{"bufferView":66,"componentType":5126,"count":48,"type":"VEC3"},{"bufferView":67,"componentType":5126,"count":48,"type":"VEC2"},{"bufferView":68,"componentType":5123,"count":72,"type":"SCALAR"},{"bufferView":69,"componentType":5126,"count":4,"max":[7.499879837036133,-0.10000000894069672,7.499996662139893],"min":[-7.500123977661133,-0.10000000894069672,-7.499996662139893],"type":"VEC3"},{"bufferView":70,"componentType":5126,"count":4,"type":"VEC3"},{"bufferView":71,"componentType":5126,"count":4,"type":"VEC2"},{"bufferView":72,"componentType":5123,"count":6,"type":"SCALAR"},{"bufferView":73,"componentType":5126,"count":82,"max":[-1.7728652954101562,0.10000000149011612,7.500003814697266],"min":[-7.5,-0.10000000149011612,-7.499988555908203],"type":"VEC3"},{"bufferView":74,"componentType":5126,"count":82,"type":"VEC3"},{"bufferView":75,"componentType":5126,"count":82,"type":"VEC2"},{"bufferView":76,"componentType":5123,"count":126,"type":"SCALAR"},{"bufferView":77,"componentType":5126,"count":8,"max":[-1.8790836334228516,0,7.5000104904174805],"min":[-7.5,-9.5367431640625e-7,-7.499988555908203],"type":"VEC3"},{"bufferView":78,"componentType":5126,"count":8,"type":"VEC3"},{"bufferView":79,"componentType":5126,"count":8,"type":"VEC2"},{"bufferView":80,"componentType":5123,"count":18,"type":"SCALAR"},{"bufferView":81,"componentType":5126,"count":4,"max":[7.5,0,7.500003814697266],"min":[-1.8790836334228516,-9.5367431640625e-7,-7.499988555908203],"type":"VEC3"},{"bufferView":82,"componentType":5126,"count":4,"type":"VEC3"},{"bufferView":83,"componentType":5126,"count":4,"type":"VEC2"},{"bufferView":84,"componentType":5126,"count":8,"max":[-5.606972694396973,0,7.5000104904174805],"min":[-7.5,-9.5367431640625e-7,-7.499988555908203],"type":"VEC3"},{"bufferView":85,"componentType":5126,"count":8,"type":"VEC3"},{"bufferView":86,"componentType":5126,"count":8,"type":"VEC2"},{"bufferView":87,"componentType":5123,"count":12,"type":"SCALAR"},{"bufferView":88,"componentType":5126,"count":160,"max":[7.499998569488525,0.10000000149011612,7.5],"min":[1.7770425081253052,-0.10000000149011612,1.7706679105758667],"type":"VEC3"},{"bufferView":89,"componentType":5126,"count":160,"type":"VEC3"},{"bufferView":90,"componentType":5126,"count":160,"type":"VEC2"},{"bufferView":91,"componentType":5123,"count":276,"type":"SCALAR"},{"bufferView":92,"componentType":5126,"count":10,"max":[7.499980926513672,0,7.5],"min":[1.8760571479797363,-9.5367431640625e-7,1.8711148500442505],"type":"VEC3"},{"bufferView":93,"componentType":5126,"count":10,"type":"VEC3"},{"bufferView":94,"componentType":5126,"count":10,"type":"VEC2"},{"bufferView":95,"componentType":5123,"count":24,"type":"SCALAR"},{"bufferView":96,"componentType":5126,"count":8,"max":[7.499974727630615,0,7.5],"min":[-7.500000476837158,-9.5367431640625e-7,-7.5],"type":"VEC3"},{"bufferView":97,"componentType":5126,"count":8,"type":"VEC3"},{"bufferView":98,"componentType":5126,"count":8,"type":"VEC2"},{"bufferView":99,"componentType":5123,"count":18,"type":"SCALAR"},{"bufferView":100,"componentType":5126,"count":6,"max":[7.49998140335083,0,7.5],"min":[5.603943824768066,-9.5367431640625e-7,5.599004745483398],"type":"VEC3"},{"bufferView":101,"componentType":5126,"count":6,"type":"VEC3"},{"bufferView":102,"componentType":5126,"count":6,"type":"VEC2"},{"bufferView":103,"componentType":5123,"count":12,"type":"SCALAR"},{"bufferView":104,"componentType":5126,"count":250,"max":[0.8402214050292969,5.875692367553711,0.2000018209218979],"min":[-3.8944287300109863,0,-0.534691333770752],"type":"VEC3"},{"bufferView":105,"componentType":5126,"count":250,"type":"VEC3"},{"bufferView":106,"componentType":5126,"count":250,"type":"VEC2"},{"bufferView":107,"componentType":5123,"count":690,"type":"SCALAR"},{"bufferView":108,"componentType":5126,"count":104,"max":[0.05109861120581627,5.80059814453125,0.20468004047870636],"min":[-3.8028550148010254,2.0637972354888916,-0.44432735443115234],"type":"VEC3"},{"bufferView":109,"componentType":5126,"count":104,"type":"VEC3"},{"bufferView":110,"componentType":5126,"count":104,"type":"VEC2"},{"bufferView":111,"componentType":5123,"count":234,"type":"SCALAR"},{"bufferView":112,"componentType":5126,"count":8,"max":[0.8402214050292969,3.674964427947998,0.05142209678888321],"min":[0.14022113382816315,2.9749643802642822,0.05142199248075485],"type":"VEC3"},{"bufferView":113,"componentType":5126,"count":8,"type":"VEC3"},{"bufferView":114,"componentType":5126,"count":8,"type":"VEC2"},{"bufferView":115,"componentType":5123,"count":18,"type":"SCALAR"},{"bufferView":116,"componentType":5126,"count":79,"max":[3.8942618370056152,5.875692367553711,0.20000438392162323],"min":[-0.09761166572570801,0,-0.1999952495098114],"type":"VEC3"},{"bufferView":117,"componentType":5126,"count":79,"type":"VEC3"},{"bufferView":118,"componentType":5126,"count":79,"type":"VEC2"},{"bufferView":119,"componentType":5123,"count":312,"type":"SCALAR"},{"bufferView":120,"componentType":5126,"count":24,"max":[3.8026881217956543,5.80059814453125,0.2025989294052124],"min":[3.5812008380889893,4.953180313110352,0.20259889960289001],"type":"VEC3"},{"bufferView":121,"componentType":5126,"count":24,"type":"VEC3"},{"bufferView":122,"componentType":5126,"count":24,"type":"VEC2"},{"bufferView":123,"componentType":5123,"count":54,"type":"SCALAR"},{"bufferView":124,"componentType":5126,"count":106,"max":[0.22128364443778992,8.304719924926758,3.0710415840148926],"min":[-0.2213037759065628,0,-0.11709251999855042],"type":"VEC3"},{"bufferView":125,"componentType":5126,"count":106,"type":"VEC3"},{"bufferView":126,"componentType":5126,"count":106,"type":"VEC2"},{"bufferView":127,"componentType":5123,"count":336,"type":"SCALAR"},{"bufferView":128,"componentType":5126,"count":10,"max":[0.13364164531230927,7.941127300262451,3.0237202644348145],"min":[-0.13366179168224335,7.70126485824585,2.2360119819641113],"type":"VEC3"},{"bufferView":129,"componentType":5126,"count":10,"type":"VEC3"},{"bufferView":130,"componentType":5126,"count":10,"type":"VEC2"},{"bufferView":131,"componentType":5123,"count":24,"type":"SCALAR"},{"bufferView":132,"componentType":5126,"count":130,"max":[0.5346779823303223,3.6833977699279785,0.09750127792358398],"min":[-0.35001420974731445,0,-0.09750032424926758],"type":"VEC3"},{"bufferView":133,"componentType":5126,"count":130,"type":"VEC3"},{"bufferView":134,"componentType":5126,"count":130,"type":"VEC2"},{"bufferView":135,"componentType":5123,"count":270,"type":"SCALAR"},{"bufferView":136,"componentType":5126,"count":32,"max":[0.44431400299072266,2.5615642070770264,0.051464855670928955],"min":[0.22252750396728516,2.0637972354888916,-0.059887468814849854],"type":"VEC3"},{"bufferView":137,"componentType":5126,"count":32,"type":"VEC3"},{"bufferView":138,"componentType":5126,"count":32,"type":"VEC2"},{"bufferView":139,"componentType":5123,"count":72,"type":"SCALAR"},{"bufferView":140,"componentType":5126,"count":8,"max":[0.34998607635498047,3.6833977699279785,0.04463052749633789],"min":[-0.35001420974731445,2.983397960662842,0.04463052749633789],"type":"VEC3"},{"bufferView":141,"componentType":5126,"count":8,"type":"VEC3"},{"bufferView":142,"componentType":5126,"count":8,"type":"VEC2"},{"bufferView":143,"componentType":5126,"count":900,"max":[2.9428482055664062,4.208548545837402,3.024319648742676],"min":[-2.94284725189209,-0.026309873908758163,-3.0243191719055176],"type":"VEC3"},{"bufferView":144,"componentType":5126,"count":900,"type":"VEC3"},{"bufferView":145,"componentType":5126,"count":900,"type":"VEC2"},{"bufferView":146,"componentType":5123,"count":2304,"type":"SCALAR"},{"bufferView":147,"componentType":5126,"count":47,"max":[2.5089735984802246,3.02961802482605,2.508979320526123],"min":[-2.5089845657348633,0.5343243479728699,-2.508978843688965],"type":"VEC3"},{"bufferView":148,"componentType":5126,"count":47,"type":"VEC3"},{"bufferView":149,"componentType":5126,"count":47,"type":"VEC2"},{"bufferView":150,"componentType":5123,"count":132,"type":"SCALAR"},{"bufferView":151,"componentType":5126,"count":1662,"max":[3.8045547008514404,22.508602142333984,3.6199774742126465],"min":[-3.976882219314575,-0.16390419006347656,-4.198368549346924],"type":"VEC3"},{"bufferView":152,"componentType":5126,"count":1662,"type":"VEC3"},{"bufferView":153,"componentType":5126,"count":1662,"type":"VEC2"},{"bufferView":154,"componentType":5123,"count":3630,"type":"SCALAR"},{"bufferView":155,"componentType":5126,"count":20,"max":[0.9925661087036133,1,0.49380436539649963],"min":[-0.9925661087036133,0,-0.49380436539649963],"type":"VEC3"},{"bufferView":156,"componentType":5126,"count":20,"type":"VEC3"},{"bufferView":157,"componentType":5126,"count":20,"type":"VEC2"},{"bufferView":158,"componentType":5123,"count":90,"type":"SCALAR"},{"bufferView":159,"componentType":5123,"count":678,"type":"SCALAR"},{"bufferView":160,"componentType":5126,"count":457,"max":[0.7749559879302979,1.9806106090545654,0.8062148690223694],"min":[-0.8049391508102417,-3.166496753692627e-8,-0.8004156351089478],"type":"VEC3"},{"bufferView":161,"componentType":5126,"count":457,"type":"VEC3"},{"bufferView":162,"componentType":5126,"count":457,"type":"VEC2"}],"bufferViews":[{"buffer":0,"byteLength":3752,"byteOffset":0,"target":34962},{"buffer":0,"byteLength":5628,"byteOffset":3752,"target":34962},{"buffer":0,"byteLength":5628,"byteOffset":9380,"target":34962},{"buffer":0,"byteLength":3752,"byteOffset":15008,"target":34962},{"buffer":0,"byteLength":2508,"byteOffset":18760,"target":34963},{"buffer":0,"byteLength":232,"byteOffset":21268,"target":34962},{"buffer":0,"byteLength":348,"byteOffset":21500,"target":34962},{"buffer":0,"byteLength":348,"byteOffset":21848,"target":34962},{"buffer":0,"byteLength":232,"byteOffset":22196,"target":34962},{"buffer":0,"byteLength":240,"byteOffset":22428,"target":34963},{"buffer":0,"byteLength":3752,"byteOffset":22668,"target":34962},{"buffer":0,"byteLength":5628,"byteOffset":26420,"target":34962},{"buffer":0,"byteLength":5628,"byteOffset":32048,"target":34962},{"buffer":0,"byteLength":3752,"byteOffset":37676,"target":34962},{"buffer":0,"byteLength":2508,"byteOffset":41428,"target":34963},{"buffer":0,"byteLength":232,"byteOffset":43936,"target":34962},{"buffer":0,"byteLength":348,"byteOffset":44168,"target":34962},{"buffer":0,"byteLength":348,"byteOffset":44516,"target":34962},{"buffer":0,"byteLength":232,"byteOffset":44864,"target":34962},{"buffer":0,"byteLength":240,"byteOffset":45096,"target":34963},{"buffer":0,"byteLength":3752,"byteOffset":45336,"target":34962},{"buffer":0,"byteLength":5628,"byteOffset":49088,"target":34962},{"buffer":0,"byteLength":5628,"byteOffset":54716,"target":34962},{"buffer":0,"byteLength":3752,"byteOffset":60344,"target":34962},{"buffer":0,"byteLength":232,"byteOffset":64096,"target":34962},{"buffer":0,"byteLength":348,"byteOffset":64328,"target":34962},{"buffer":0,"byteLength":348,"byteOffset":64676,"target":34962},{"buffer":0,"byteLength":232,"byteOffset":65024,"target":34962},{"buffer":0,"byteLength":3752,"byteOffset":65256,"target":34962},{"buffer":0,"byteLength":5628,"byteOffset":69008,"target":34962},{"buffer":0,"byteLength":5628,"byteOffset":74636,"target":34962},{"buffer":0,"byteLength":3752,"byteOffset":80264,"target":34962},{"buffer":0,"byteLength":232,"byteOffset":84016,"target":34962},{"buffer":0,"byteLength":348,"byteOffset":84248,"target":34962},{"buffer":0,"byteLength":348,"byteOffset":84596,"target":34962},{"buffer":0,"byteLength":232,"byteOffset":84944,"target":34962},{"buffer":0,"byteLength":5076,"byteOffset":85176,"target":34962},{"buffer":0,"byteLength":5076,"byteOffset":90252,"target":34962},{"buffer":0,"byteLength":3384,"byteOffset":95328,"target":34962},{"buffer":0,"byteLength":2112,"byteOffset":98712,"target":34963},{"buffer":0,"byteLength":11772,"byteOffset":100824,"target":34962},{"buffer":0,"byteLength":11772,"byteOffset":112596,"target":34962},{"buffer":0,"byteLength":7848,"byteOffset":124368,"target":34962},{"buffer":0,"byteLength":5280,"byteOffset":132216,"target":34963},{"buffer":0,"byteLength":1404,"byteOffset":137496,"target":34962},{"buffer":0,"byteLength":1404,"byteOffset":138900,"target":34962},{"buffer":0,"byteLength":936,"byteOffset":140304,"target":34962},{"buffer":0,"byteLength":1020,"byteOffset":141240,"target":34963},{"buffer":0,"byteLength":432,"byteOffset":142260,"target":34962},{"buffer":0,"byteLength":432,"byteOffset":142692,"target":34962},{"buffer":0,"byteLength":288,"byteOffset":143124,"target":34962},{"buffer":0,"byteLength":192,"byteOffset":143412,"target":34963},{"buffer":0,"byteLength":192,"byteOffset":143604,"target":34962},{"buffer":0,"byteLength":192,"byteOffset":143796,"target":34962},{"buffer":0,"byteLength":128,"byteOffset":143988,"target":34962},{"buffer":0,"byteLength":72,"byteOffset":144116,"target":34963},{"buffer":0,"byteLength":12,"byteOffset":144188,"target":34963},{"buffer":0,"byteLength":1320,"byteOffset":144200,"target":34962},{"buffer":0,"byteLength":1320,"byteOffset":145520,"target":34962},{"buffer":0,"byteLength":880,"byteOffset":146840,"target":34962},{"buffer":0,"byteLength":444,"byteOffset":147720,"target":34963},{"buffer":0,"byteLength":48,"byteOffset":148164,"target":34962},{"buffer":0,"byteLength":48,"byteOffset":148212,"target":34962},{"buffer":0,"byteLength":32,"byteOffset":148260,"target":34962},{"buffer":0,"byteLength":12,"byteOffset":148292,"target":34963},{"buffer":0,"byteLength":576,"byteOffset":148304,"target":34962},{"buffer":0,"byteLength":576,"byteOffset":148880,"target":34962},{"buffer":0,"byteLength":384,"byteOffset":149456,"target":34962},{"buffer":0,"byteLength":144,"byteOffset":149840,"target":34963},{"buffer":0,"byteLength":48,"byteOffset":149984,"target":34962},{"buffer":0,"byteLength":48,"byteOffset":150032,"target":34962},{"buffer":0,"byteLength":32,"byteOffset":150080,"target":34962},{"buffer":0,"byteLength":12,"byteOffset":150112,"target":34963},{"buffer":0,"byteLength":984,"byteOffset":150124,"target":34962},{"buffer":0,"byteLength":984,"byteOffset":151108,"target":34962},{"buffer":0,"byteLength":656,"byteOffset":152092,"target":34962},{"buffer":0,"byteLength":252,"byteOffset":152748,"target":34963},{"buffer":0,"byteLength":96,"byteOffset":153000,"target":34962},{"buffer":0,"byteLength":96,"byteOffset":153096,"target":34962},{"buffer":0,"byteLength":64,"byteOffset":153192,"target":34962},{"buffer":0,"byteLength":36,"byteOffset":153256,"target":34963},{"buffer":0,"byteLength":48,"byteOffset":153292,"target":34962},{"buffer":0,"byteLength":48,"byteOffset":153340,"target":34962},{"buffer":0,"byteLength":32,"byteOffset":153388,"target":34962},{"buffer":0,"byteLength":96,"byteOffset":153420,"target":34962},{"buffer":0,"byteLength":96,"byteOffset":153516,"target":34962},{"buffer":0,"byteLength":64,"byteOffset":153612,"target":34962},{"buffer":0,"byteLength":24,"byteOffset":153676,"target":34963},{"buffer":0,"byteLength":1920,"byteOffset":153700,"target":34962},{"buffer":0,"byteLength":1920,"byteOffset":155620,"target":34962},{"buffer":0,"byteLength":1280,"byteOffset":157540,"target":34962},{"buffer":0,"byteLength":552,"byteOffset":158820,"target":34963},{"buffer":0,"byteLength":120,"byteOffset":159372,"target":34962},{"buffer":0,"byteLength":120,"byteOffset":159492,"target":34962},{"buffer":0,"byteLength":80,"byteOffset":159612,"target":34962},{"buffer":0,"byteLength":48,"byteOffset":159692,"target":34963},{"buffer":0,"byteLength":96,"byteOffset":159740,"target":34962},{"buffer":0,"byteLength":96,"byteOffset":159836,"target":34962},{"buffer":0,"byteLength":64,"byteOffset":159932,"target":34962},{"buffer":0,"byteLength":36,"byteOffset":159996,"target":34963},{"buffer":0,"byteLength":72,"byteOffset":160032,"target":34962},{"buffer":0,"byteLength":72,"byteOffset":160104,"target":34962},{"buffer":0,"byteLength":48,"byteOffset":160176,"target":34962},{"buffer":0,"byteLength":24,"byteOffset":160224,"target":34963},{"buffer":0,"byteLength":3000,"byteOffset":160248,"target":34962},{"buffer":0,"byteLength":3000,"byteOffset":163248,"target":34962},{"buffer":0,"byteLength":2000,"byteOffset":166248,"target":34962},{"buffer":0,"byteLength":1380,"byteOffset":168248,"target":34963},{"buffer":0,"byteLength":1248,"byteOffset":169628,"target":34962},{"buffer":0,"byteLength":1248,"byteOffset":170876,"target":34962},{"buffer":0,"byteLength":832,"byteOffset":172124,"target":34962},{"buffer":0,"byteLength":468,"byteOffset":172956,"target":34963},{"buffer":0,"byteLength":96,"byteOffset":173424,"target":34962},{"buffer":0,"byteLength":96,"byteOffset":173520,"target":34962},{"buffer":0,"byteLength":64,"byteOffset":173616,"target":34962},{"buffer":0,"byteLength":36,"byteOffset":173680,"target":34963},{"buffer":0,"byteLength":948,"byteOffset":173716,"target":34962},{"buffer":0,"byteLength":948,"byteOffset":174664,"target":34962},{"buffer":0,"byteLength":632,"byteOffset":175612,"target":34962},{"buffer":0,"byteLength":624,"byteOffset":176244,"target":34963},{"buffer":0,"byteLength":288,"byteOffset":176868,"target":34962},{"buffer":0,"byteLength":288,"byteOffset":177156,"target":34962},{"buffer":0,"byteLength":192,"byteOffset":177444,"target":34962},{"buffer":0,"byteLength":108,"byteOffset":177636,"target":34963},{"buffer":0,"byteLength":1272,"byteOffset":177744,"target":34962},{"buffer":0,"byteLength":1272,"byteOffset":179016,"target":34962},{"buffer":0,"byteLength":848,"byteOffset":180288,"target":34962},{"buffer":0,"byteLength":672,"byteOffset":181136,"target":34963},{"buffer":0,"byteLength":120,"byteOffset":181808,"target":34962},{"buffer":0,"byteLength":120,"byteOffset":181928,"target":34962},{"buffer":0,"byteLength":80,"byteOffset":182048,"target":34962},{"buffer":0,"byteLength":48,"byteOffset":182128,"target":34963},{"buffer":0,"byteLength":1560,"byteOffset":182176,"target":34962},{"buffer":0,"byteLength":1560,"byteOffset":183736,"target":34962},{"buffer":0,"byteLength":1040,"byteOffset":185296,"target":34962},{"buffer":0,"byteLength":540,"byteOffset":186336,"target":34963},{"buffer":0,"byteLength":384,"byteOffset":186876,"target":34962},{"buffer":0,"byteLength":384,"byteOffset":187260,"target":34962},{"buffer":0,"byteLength":256,"byteOffset":187644,"target":34962},{"buffer":0,"byteLength":144,"byteOffset":187900,"target":34963},{"buffer":0,"byteLength":96,"byteOffset":188044,"target":34962},{"buffer":0,"byteLength":96,"byteOffset":188140,"target":34962},{"buffer":0,"byteLength":64,"byteOffset":188236,"target":34962},{"buffer":0,"byteLength":10800,"byteOffset":188300,"target":34962},{"buffer":0,"byteLength":10800,"byteOffset":199100,"target":34962},{"buffer":0,"byteLength":7200,"byteOffset":209900,"target":34962},{"buffer":0,"byteLength":4608,"byteOffset":217100,"target":34963},{"buffer":0,"byteLength":564,"byteOffset":221708,"target":34962},{"buffer":0,"byteLength":564,"byteOffset":222272,"target":34962},{"buffer":0,"byteLength":376,"byteOffset":222836,"target":34962},{"buffer":0,"byteLength":264,"byteOffset":223212,"target":34963},{"buffer":0,"byteLength":19944,"byteOffset":223476,"target":34962},{"buffer":0,"byteLength":19944,"byteOffset":243420,"target":34962},{"buffer":0,"byteLength":13296,"byteOffset":263364,"target":34962},{"buffer":0,"byteLength":7260,"byteOffset":276660,"target":34963},{"buffer":0,"byteLength":240,"byteOffset":283920,"target":34962},{"buffer":0,"byteLength":240,"byteOffset":284160,"target":34962},{"buffer":0,"byteLength":160,"byteOffset":284400,"target":34962},{"buffer":0,"byteLength":180,"byteOffset":284560,"target":34963},{"buffer":0,"byteLength":1356,"byteOffset":284740,"target":34963},{"buffer":0,"byteLength":5484,"byteOffset":286096,"target":34962},{"buffer":0,"byteLength":5484,"byteOffset":291580,"target":34962},{"buffer":0,"byteLength":3656,"byteOffset":297064,"target":34962}],"buffers":[{"uri":"north-central-center.bin","byteLength":300720}]}