{"asset":{"version":"2.0","generator":"Jarvis Cartoon City sectorizer v1"},"extensionsUsed":["KHR_materials_specular","KHR_materials_ior","KHR_materials_emissive_strength"],"scenes":[{"name":"Cartoon City Free — north-west","nodes":[0,5,6,7,8,9,10,11,12,13,14,15,16,17]}],"scene":0,"nodes":[{"mesh":4,"name":"Car_06.003","rotation":[0,-0.7071068286895752,0,0.7071068286895752],"translation":[-30.04103660583496,-0.09999997168779373,65.58261108398438],"children":[1,2,3,4]},{"mesh":0,"name":"Car_06_Wheel_Front_Left.003","translation":[0.8458553552627563,0.40000006556510925,1.100596308708191]},{"mesh":1,"name":"Car_06_Wheel_Front_Right.003","translation":[-0.8457950353622437,0.40000006556510925,1.1005961894989014]},{"mesh":2,"name":"Car_06_Wheel_Rear_Left.003","translation":[0.8458553552627563,0.40000006556510925,-1.1005908250808716]},{"mesh":3,"name":"Car_06_Wheel_Rear_Right.003","translation":[-0.8457950353622437,0.40000006556510925,-1.1005909442901611]},{"mesh":5,"name":"Eco_Building_Slope.004","rotation":[0,0.7071066498756409,0,0.70710688829422],"translation":[-29.010772705078125,0,52.46831512451172]},{"mesh":6,"name":"road_009.231","translation":[-52.5,0,52.5]},{"mesh":6,"name":"road_009.232","translation":[-52.5,0,37.5]},{"mesh":7,"name":"road_013.036","rotation":[0,-0.7071066498756409,0,0.70710688829422],"translation":[-52.5,0,67.5]},{"mesh":6,"name":"road_009.010","rotation":[0,0.7071066498756409,0,0.70710688829422],"translation":[-37.5,0,67.5]},{"mesh":6,"name":"road_009.011","rotation":[0,0.7071066498756409,0,0.70710688829422],"translation":[-22.5,0,67.5]},{"mesh":8,"name":"Set_B_Tiles_09.005","translation":[-22.5,0,52.5]},{"mesh":8,"name":"Set_B_Tiles_09.017","translation":[-37.5,0,52.5]},{"mesh":9,"name":"Set_B_Tiles_05.014","rotation":[0,-0.7071066498756409,0,0.70710688829422],"translation":[-37.5,0,37.5]},{"mesh":10,"name":"Set_B_Tiles_06.005","rotation":[0,1,0,7.549790126404332e-8],"translation":[-22.5,0,37.5]},{"mesh":11,"name":"Spotlight_01.102","rotation":[0,-0.7071059346199036,0,0.7071076035499573],"translation":[-46.798828125,0,38.52821350097656]},{"mesh":12,"name":"Trash_Can_06.047","rotation":[0,0.8585742115974426,0,0.5126893520355225],"translation":[-30.23675537109375,0,42.63169860839844]},{"mesh":13,"name":"Trash_Can_08.052","rotation":[0,0.5143240690231323,0,0.8575959205627441],"translation":[-28.61029052734375,0,42.53788757324219]}],"meshes":[{"name":"Mesh.097","primitives":[{"attributes":{"COLOR_0":0,"POSITION":1,"NORMAL":2,"TEXCOORD_0":3},"indices":4,"material":0}]},{"name":"Mesh.094","primitives":[{"attributes":{"COLOR_0":5,"POSITION":6,"NORMAL":7,"TEXCOORD_0":8},"indices":9,"material":0}]},{"name":"Mesh.096","primitives":[{"attributes":{"COLOR_0":10,"POSITION":11,"NORMAL":12,"TEXCOORD_0":13},"indices":4,"material":0}]},{"name":"Mesh.095","primitives":[{"attributes":{"COLOR_0":14,"POSITION":15,"NORMAL":16,"TEXCOORD_0":17},"indices":9,"material":0}]},{"name":"Cube.266","primitives":[{"attributes":{"COLOR_0":18,"POSITION":19,"NORMAL":20,"TEXCOORD_0":21},"indices":22,"material":0},{"attributes":{"COLOR_0":23,"POSITION":24,"NORMAL":25,"TEXCOORD_0":26},"indices":27,"material":4},{"attributes":{"COLOR_0":28,"POSITION":29,"NORMAL":30,"TEXCOORD_0":31},"indices":32,"material":1},{"attributes":{"COLOR_0":33,"POSITION":34,"NORMAL":35,"TEXCOORD_0":36},"indices":37,"material":5},{"attributes":{"COLOR_0":38,"POSITION":39,"NORMAL":40,"TEXCOORD_0":41},"indices":42,"material":2},{"attributes":{"COLOR_0":43,"POSITION":44,"NORMAL":45,"TEXCOORD_0":46},"indices":47,"material":3}]},{"name":"Cube.165","primitives":[{"attributes":{"POSITION":48,"NORMAL":49,"TEXCOORD_0":50},"indices":51,"material":0},{"attributes":{"POSITION":52,"NORMAL":53,"TEXCOORD_0":54},"indices":55,"material":3},{"attributes":{"POSITION":56,"NORMAL":57,"TEXCOORD_0":58},"indices":59,"material":1}]},{"name":"Cube.206","primitives":[{"attributes":{"POSITION":62,"NORMAL":63,"TEXCOORD_0":64},"indices":60,"material":0},{"attributes":{"POSITION":65,"NORMAL":66,"TEXCOORD_0":67},"indices":61,"material":7}]},{"name":"Plane.079","primitives":[{"attributes":{"POSITION":68,"NORMAL":69,"TEXCOORD_0":70},"indices":71,"material":0},{"attributes":{"POSITION":72,"NORMAL":73,"TEXCOORD_0":74},"indices":75,"material":7}]},{"name":"Plane.276","primitives":[{"attributes":{"POSITION":77,"NORMAL":78,"TEXCOORD_0":79},"indices":80,"material":9}]},{"name":"Plane.271","primitives":[{"attributes":{"POSITION":81,"NORMAL":82,"TEXCOORD_0":83},"indices":84,"material":0},{"attributes":{"POSITION":85,"NORMAL":86,"TEXCOORD_0":87},"indices":88,"material":8},{"attributes":{"POSITION":89,"NORMAL":90,"TEXCOORD_0":91},"indices":92,"material":9},{"attributes":{"POSITION":93,"NORMAL":94,"TEXCOORD_0":95},"indices":76,"material":10}]},{"name":"Plane.274","primitives":[{"attributes":{"POSITION":96,"NORMAL":97,"TEXCOORD_0":98},"indices":99,"material":0},{"attributes":{"POSITION":100,"NORMAL":101,"TEXCOORD_0":102},"indices":103,"material":8},{"attributes":{"POSITION":104,"NORMAL":105,"TEXCOORD_0":106},"indices":107,"material":9},{"attributes":{"POSITION":108,"NORMAL":109,"TEXCOORD_0":110},"indices":111,"material":10}]},{"name":"Cube.184","primitives":[{"attributes":{"POSITION":112,"NORMAL":113,"TEXCOORD_0":114},"indices":115,"material":0},{"attributes":{"POSITION":116,"NORMAL":117,"TEXCOORD_0":118},"indices":119,"material":6}]},{"name":"Cylinder.045","primitives":[{"attributes":{"POSITION":120,"NORMAL":121,"TEXCOORD_0":122},"indices":123,"material":0}]},{"name":"Cylinder.033","primitives":[{"attributes":{"POSITION":124,"NORMAL":125,"TEXCOORD_0":126},"indices":127,"material":0}]}],"materials":[{"doubleSided":true,"name":"Color","pbrMetallicRoughness":{"baseColorTexture":{"index":0},"metallicFactor":0,"roughnessFactor":0.699999988079071}},{"doubleSided":true,"name":"Color_Glossy","pbrMetallicRoughness":{"baseColorTexture":{"index":1},"metallicFactor":0,"roughnessFactor":0.20000000298023224}},{"doubleSided":true,"emissiveFactor":[1,1,1],"emissiveTexture":{"index":2},"name":"Car_Taillights","pbrMetallicRoughness":{"baseColorTexture":{"index":3},"metallicFactor":0,"roughnessFactor":0.5}},{"alphaMode":"BLEND","doubleSided":true,"extensions":{"KHR_materials_specular":{"specularColorFactor":[2.371357614441398,2.371357614441398,2.371357614441398]},"KHR_materials_ior":{"ior":1.4500000476837158}},"name":"Glass","pbrMetallicRoughness":{"baseColorFactor":[1,1,1,0.5],"baseColorTexture":{"index":4},"metallicFactor":0.20000000298023224,"roughnessFactor":0.05000000074505806}},{"doubleSided":true,"emissiveFactor":[0.10000000149011612,0.10000000149011612,0.10000000149011612],"emissiveTexture":{"index":5},"name":"Car_Color","pbrMetallicRoughness":{"baseColorTexture":{"index":6},"metallicFactor":0.20000000298023224,"roughnessFactor":0.10000000149011612}},{"doubleSided":true,"emissiveFactor":[1,1,1],"emissiveTexture":{"index":7},"name":"Car_Headlights","pbrMetallicRoughness":{"baseColorTexture":{"index":8},"metallicFactor":0,"roughnessFactor":0.5}},{"doubleSided":true,"emissiveFactor":[1,1,1],"emissiveTexture":{"index":9},"extensions":{"KHR_materials_emissive_strength":{"emissiveStrength":3}},"name":"Emissive","pbrMetallicRoughness":{"baseColorTexture":{"index":10},"metallicFactor":0,"roughnessFactor":0.5}},{"doubleSided":true,"emissiveFactor":[0.10000000149011612,0.10000000149011612,0.10000000149011612],"emissiveTexture":{"index":11},"extensions":{"KHR_materials_specular":{"specularColorFactor":[0.711407312601205,0.711407312601205,0.711407312601205]},"KHR_materials_ior":{"ior":1.4500000476837158}},"name":"Roads","pbrMetallicRoughness":{"baseColorTexture":{"index":12},"metallicFactor":0,"roughnessFactor":0.75}},{"doubleSided":true,"name":"Asphalt_Dark_Gray","pbrMetallicRoughness":{"baseColorFactor":[0.13853572309017181,0.13853572309017181,0.13853572309017181,1],"metallicFactor":0,"roughnessFactor":0.5}},{"doubleSided":true,"name":"Tile_1","normalTexture":{"index":13,"scale":5},"pbrMetallicRoughness":{"baseColorTexture":{"index":14},"metallicFactor":0,"metallicRoughnessTexture":{"index":15}}},{"doubleSided":true,"name":"Grass","pbrMetallicRoughness":{"baseColorFactor":[0.25015830993652344,0.44520121812820435,0.13013650476932526,1],"metallicFactor":0,"roughnessFactor":0.7598187327384949}}],"textures":[{"sampler":0,"source":0},{"sampler":0,"source":0},{"sampler":0,"source":1},{"sampler":0,"source":1},{"sampler":0,"source":0},{"sampler":0,"source":0},{"sampler":0,"source":0},{"sampler":0,"source":1},{"sampler":0,"source":1},{"sampler":0,"source":1},{"sampler":0,"source":1},{"sampler":0,"source":2},{"sampler":0,"source":2},{"sampler":0,"source":3},{"sampler":0,"source":4},{"sampler":0,"source":5}],"images":[{"uri":"shared/486c6d61063241d5.webp","mimeType":"image/webp"},{"uri":"shared/486c6d61063241d5.webp","mimeType":"image/webp"},{"uri":"shared/cd11a20db95ff60c.webp","mimeType":"image/webp"},{"uri":"shared/28470d0f5c64a9e9.png","mimeType":"image/png"},{"uri":"shared/d686ec6d73243cad.webp","mimeType":"image/webp"},{"uri":"shared/0dd4c9f67e03b0dc.png","mimeType":"image/png"}],"samplers":[{"magFilter":9729,"minFilter":9987}],"accessors":[{"bufferView":0,"componentType":5123,"count":273,"normalized":true,"type":"VEC4"},{"bufferView":1,"componentType":5126,"count":273,"max":[0.16213111579418182,0.3999999165534973,0.3998884856700897],"min":[-0.1620960682630539,-0.40000006556510925,-0.4001115560531616],"type":"VEC3"},{"bufferView":2,"componentType":5126,"count":273,"type":"VEC3"},{"bufferView":3,"componentType":5126,"count":273,"type":"VEC2"},{"bufferView":4,"componentType":5123,"count":900,"type":"SCALAR"},{"bufferView":5,"componentType":5123,"count":273,"normalized":true,"type":"VEC4"},{"bufferView":6,"componentType":5126,"count":273,"max":[0.16209618747234344,0.3999999165534973,0.4001115560531616],"min":[-0.16213122010231018,-0.40000006556510925,-0.3998884856700897],"type":"VEC3"},{"bufferView":7,"componentType":5126,"count":273,"type":"VEC3"},{"bufferView":8,"componentType":5126,"count":273,"type":"VEC2"},{"bufferView":9,"componentType":5123,"count":900,"type":"SCALAR"},{"bufferView":10,"componentType":5123,"count":273,"normalized":true,"type":"VEC4"},{"bufferView":11,"componentType":5126,"count":273,"max":[0.16213111579418182,0.3999999165534973,0.3998884856700897],"min":[-0.1620960682630539,-0.40000006556510925,-0.4001115560531616],"type":"VEC3"},{"bufferView":12,"componentType":5126,"count":273,"type":"VEC3"},{"bufferView":13,"componentType":5126,"count":273,"type":"VEC2"},{"bufferView":14,"componentType":5123,"count":273,"normalized":true,"type":"VEC4"},{"bufferView":15,"componentType":5126,"count":273,"max":[0.16209618747234344,0.3999999165534973,0.4001115560531616],"min":[-0.16213122010231018,-0.40000006556510925,-0.3998884856700897],"type":"VEC3"},{"bufferView":16,"componentType":5126,"count":273,"type":"VEC3"},{"bufferView":17,"componentType":5126,"count":273,"type":"VEC2"},{"bufferView":18,"componentType":5123,"count":562,"normalized":true,"type":"VEC4"},{"bufferView":19,"componentType":5126,"count":562,"max":[0.9821081161499023,1.671571135520935,1.8693079948425293],"min":[-0.9818639755249023,0.23435990512371063,-1.7959847450256348],"type":"VEC3"},{"bufferView":20,"componentType":5126,"count":562,"type":"VEC3"},{"bufferView":21,"componentType":5126,"count":562,"type":"VEC2"},{"bufferView":22,"componentType":5123,"count":1470,"type":"SCALAR"},{"bufferView":23,"componentType":5123,"count":561,"normalized":true,"type":"VEC4"},{"bufferView":24,"componentType":5126,"count":561,"max":[1.2657324075698853,1.731117844581604,1.8522025346755981],"min":[-1.2654882669448853,0.39693567156791687,-1.8221327066421509],"type":"VEC3"},{"bufferView":25,"componentType":5126,"count":561,"type":"VEC3"},{"bufferView":26,"componentType":5126,"count":561,"type":"VEC2"},{"bufferView":27,"componentType":5123,"count":1950,"type":"SCALAR"},{"bufferView":28,"componentType":5123,"count":97,"normalized":true,"type":"VEC4"},{"bufferView":29,"componentType":5126,"count":97,"max":[1.233822226524353,1.6194183826446533,0.819335401058197],"min":[-1.233578085899353,1.026626706123352,-1.6400434970855713],"type":"VEC3"},{"bufferView":30,"componentType":5126,"count":97,"type":"VEC3"},{"bufferView":31,"componentType":5126,"count":97,"type":"VEC2"},{"bufferView":32,"componentType":5123,"count":270,"type":"SCALAR"},{"bufferView":33,"componentType":5123,"count":24,"normalized":true,"type":"VEC4"},{"bufferView":34,"componentType":5126,"count":24,"max":[0.8786246180534363,0.8859658241271973,1.682948112487793],"min":[-0.8783804774284363,0.6795313358306885,1.5460014343261719],"type":"VEC3"},{"bufferView":35,"componentType":5126,"count":24,"type":"VEC3"},{"bufferView":36,"componentType":5126,"count":24,"type":"VEC2"},{"bufferView":37,"componentType":5123,"count":60,"type":"SCALAR"},{"bufferView":38,"componentType":5123,"count":26,"normalized":true,"type":"VEC4"},{"bufferView":39,"componentType":5126,"count":26,"max":[0.8376821279525757,0.8246886730194092,-1.690671443939209],"min":[-0.8374379873275757,0.6238102912902832,-1.7328327894210815],"type":"VEC3"},{"bufferView":40,"componentType":5126,"count":26,"type":"VEC3"},{"bufferView":41,"componentType":5126,"count":26,"type":"VEC2"},{"bufferView":42,"componentType":5123,"count":72,"type":"SCALAR"},{"bufferView":43,"componentType":5123,"count":72,"normalized":true,"type":"VEC4"},{"bufferView":44,"componentType":5126,"count":72,"max":[0.901957094669342,0.9081380367279053,1.7461631298065186],"min":[-0.901712954044342,0.6566294431686401,1.5785361528396606],"type":"VEC3"},{"bufferView":45,"componentType":5126,"count":72,"type":"VEC3"},{"bufferView":46,"componentType":5126,"count":72,"type":"VEC2"},{"bufferView":47,"componentType":5123,"count":204,"type":"SCALAR"},{"bufferView":48,"componentType":5126,"count":6950,"max":[9.693767547607422,57.38644027709961,22.701290130615234],"min":[-9.544054985046387,0,-15.795122146606445],"type":"VEC3"},{"bufferView":49,"componentType":5126,"count":6950,"type":"VEC3"},{"bufferView":50,"componentType":5126,"count":6950,"type":"VEC2"},{"bufferView":51,"componentType":5123,"count":24702,"type":"SCALAR"},{"bufferView":52,"componentType":5126,"count":324,"max":[8.423206329345703,15.75301742553711,20.707826614379883],"min":[-8.425782203674316,4.858661651611328,-5.130716323852539],"type":"VEC3"},{"bufferView":53,"componentType":5126,"count":324,"type":"VEC3"},{"bufferView":54,"componentType":5126,"count":324,"type":"VEC2"},{"bufferView":55,"componentType":5123,"count":918,"type":"SCALAR"},{"bufferView":56,"componentType":5126,"count":70,"max":[6.516058921813965,57.1202507019043,-10.345864295959473],"min":[-3.292659282684326,53.97251892089844,-14.800835609436035],"type":"VEC3"},{"bufferView":57,"componentType":5126,"count":70,"type":"VEC3"},{"bufferView":58,"componentType":5126,"count":70,"type":"VEC2"},{"bufferView":59,"componentType":5123,"count":114,"type":"SCALAR"},{"bufferView":60,"componentType":5123,"count":72,"type":"SCALAR"},{"bufferView":61,"componentType":5123,"count":6,"type":"SCALAR"},{"bufferView":62,"componentType":5126,"count":48,"max":[7.5,0.09999997913837433,7.5],"min":[-7.5,-0.10000001639127731,-7.5],"type":"VEC3"},{"bufferView":63,"componentType":5126,"count":48,"type":"VEC3"},{"bufferView":64,"componentType":5126,"count":48,"type":"VEC2"},{"bufferView":65,"componentType":5126,"count":4,"max":[3.750000476837158,-0.10000000894069672,7.5],"min":[-3.750000476837158,-0.10000000894069672,-7.5],"type":"VEC3"},{"bufferView":66,"componentType":5126,"count":4,"type":"VEC3"},{"bufferView":67,"componentType":5126,"count":4,"type":"VEC2"},{"bufferView":68,"componentType":5126,"count":186,"max":[7.499999523162842,0.100006103515625,7.499999523162842],"min":[-7.499999523162842,-0.09999857097864151,-7.499999523162842],"type":"VEC3"},{"bufferView":69,"componentType":5126,"count":186,"type":"VEC3"},{"bufferView":70,"componentType":5126,"count":186,"type":"VEC2"},{"bufferView":71,"componentType":5123,"count":474,"type":"SCALAR"},{"bufferView":72,"componentType":5126,"count":4,"max":[7.500012397766113,-0.10000228881835938,7.500000953674316],"min":[-7.500101566314697,-0.10000229626893997,-7.500003337860107],"type":"VEC3"},{"bufferView":73,"componentType":5126,"count":4,"type":"VEC3"},{"bufferView":74,"componentType":5126,"count":4,"type":"VEC2"},{"bufferView":75,"componentType":5123,"count":6,"type":"SCALAR"},{"bufferView":76,"componentType":5123,"count":6,"type":"SCALAR"},{"bufferView":77,"componentType":5126,"count":4,"max":[7.49993896484375,0,7.5],"min":[-7.500061511993408,0,-7.5],"type":"VEC3"},{"bufferView":78,"componentType":5126,"count":4,"type":"VEC3"},{"bufferView":79,"componentType":5126,"count":4,"type":"VEC2"},{"bufferView":80,"componentType":5123,"count":6,"type":"SCALAR"},{"bufferView":81,"componentType":5126,"count":40,"max":[-1.776357650756836,0.10000000149011612,7.499995231628418],"min":[-5.706169128417969,-0.10000000149011612,-7.500004768371582],"type":"VEC3"},{"bufferView":82,"componentType":5126,"count":40,"type":"VEC3"},{"bufferView":83,"componentType":5126,"count":40,"type":"VEC2"},{"bufferView":84,"componentType":5123,"count":60,"type":"SCALAR"},{"bufferView":85,"componentType":5126,"count":4,"max":[-1.8790836334228516,-9.5367431640625e-7,7.499995231628418],"min":[-5.606972694396973,-9.5367431640625e-7,-7.500004768371582],"type":"VEC3"},{"bufferView":86,"componentType":5126,"count":4,"type":"VEC3"},{"bufferView":87,"componentType":5126,"count":4,"type":"VEC2"},{"bufferView":88,"componentType":5123,"count":6,"type":"SCALAR"},{"bufferView":89,"componentType":5126,"count":4,"max":[7.5,0,7.499995231628418],"min":[-1.8790836334228516,-9.5367431640625e-7,-7.500004768371582],"type":"VEC3"},{"bufferView":90,"componentType":5126,"count":4,"type":"VEC3"},{"bufferView":91,"componentType":5126,"count":4,"type":"VEC2"},{"bufferView":92,"componentType":5123,"count":6,"type":"SCALAR"},{"bufferView":93,"componentType":5126,"count":4,"max":[-5.606972694396973,0,7.499995231628418],"min":[-7.5,-9.5367431640625e-7,-7.500004768371582],"type":"VEC3"},{"bufferView":94,"componentType":5126,"count":4,"type":"VEC3"},{"bufferView":95,"componentType":5126,"count":4,"type":"VEC2"},{"bufferView":96,"componentType":5126,"count":160,"max":[7.499998569488525,0.10000000149011612,7.5],"min":[1.7770425081253052,-0.10000000149011612,1.7706679105758667],"type":"VEC3"},{"bufferView":97,"componentType":5126,"count":160,"type":"VEC3"},{"bufferView":98,"componentType":5126,"count":160,"type":"VEC2"},{"bufferView":99,"componentType":5123,"count":276,"type":"SCALAR"},{"bufferView":100,"componentType":5126,"count":10,"max":[7.499980926513672,0,7.5],"min":[1.8760571479797363,-9.5367431640625e-7,1.8711148500442505],"type":"VEC3"},{"bufferView":101,"componentType":5126,"count":10,"type":"VEC3"},{"bufferView":102,"componentType":5126,"count":10,"type":"VEC2"},{"bufferView":103,"componentType":5123,"count":24,"type":"SCALAR"},{"bufferView":104,"componentType":5126,"count":8,"max":[7.499974727630615,0,7.5],"min":[-7.500000476837158,-9.5367431640625e-7,-7.5],"type":"VEC3"},{"bufferView":105,"componentType":5126,"count":8,"type":"VEC3"},{"bufferView":106,"componentType":5126,"count":8,"type":"VEC2"},{"bufferView":107,"componentType":5123,"count":18,"type":"SCALAR"},{"bufferView":108,"componentType":5126,"count":6,"max":[7.49998140335083,0,7.5],"min":[5.603943824768066,-9.5367431640625e-7,5.599004745483398],"type":"VEC3"},{"bufferView":109,"componentType":5126,"count":6,"type":"VEC3"},{"bufferView":110,"componentType":5126,"count":6,"type":"VEC2"},{"bufferView":111,"componentType":5123,"count":12,"type":"SCALAR"},{"bufferView":112,"componentType":5126,"count":106,"max":[0.22128364443778992,8.304719924926758,3.0710415840148926],"min":[-0.2213037759065628,0,-0.11709251999855042],"type":"VEC3"},{"bufferView":113,"componentType":5126,"count":106,"type":"VEC3"},{"bufferView":114,"componentType":5126,"count":106,"type":"VEC2"},{"bufferView":115,"componentType":5123,"count":336,"type":"SCALAR"},{"bufferView":116,"componentType":5126,"count":10,"max":[0.13364164531230927,7.941127300262451,3.0237202644348145],"min":[-0.13366179168224335,7.70126485824585,2.2360119819641113],"type":"VEC3"},{"bufferView":117,"componentType":5126,"count":10,"type":"VEC3"},{"bufferView":118,"componentType":5126,"count":10,"type":"VEC2"},{"bufferView":119,"componentType":5123,"count":24,"type":"SCALAR"},{"bufferView":120,"componentType":5126,"count":118,"max":[0.6283481121063232,1.2132635116577148,0.517784595489502],"min":[-0.5177860856056213,-6.827591647606823e-8,-0.6442232131958008],"type":"VEC3"},{"bufferView":121,"componentType":5126,"count":118,"type":"VEC3"},{"bufferView":122,"componentType":5126,"count":118,"type":"VEC2"},{"bufferView":123,"componentType":5123,"count":324,"type":"SCALAR"},{"bufferView":124,"componentType":5126,"count":92,"max":[0.5701413154602051,1.2098585367202759,0.5699145793914795],"min":[-0.5696879029273987,-6.827591647606823e-8,-0.5699145793914795],"type":"VEC3"},{"bufferView":125,"componentType":5126,"count":92,"type":"VEC3"},{"bufferView":126,"componentType":5126,"count":92,"type":"VEC2"},{"bufferView":127,"componentType":5123,"count":228,"type":"SCALAR"}],"bufferViews":[{"buffer":0,"byteLength":2184,"byteOffset":0,"target":34962},{"buffer":0,"byteLength":3276,"byteOffset":2184,"target":34962},{"buffer":0,"byteLength":3276,"byteOffset":5460,"target":34962},{"buffer":0,"byteLength":2184,"byteOffset":8736,"target":34962},{"buffer":0,"byteLength":1800,"byteOffset":10920,"target":34963},{"buffer":0,"byteLength":2184,"byteOffset":12720,"target":34962},{"buffer":0,"byteLength":3276,"byteOffset":14904,"target":34962},{"buffer":0,"byteLength":3276,"byteOffset":18180,"target":34962},{"buffer":0,"byteLength":2184,"byteOffset":21456,"target":34962},{"buffer":0,"byteLength":1800,"byteOffset":23640,"target":34963},{"buffer":0,"byteLength":2184,"byteOffset":25440,"target":34962},{"buffer":0,"byteLength":3276,"byteOffset":27624,"target":34962},{"buffer":0,"byteLength":3276,"byteOffset":30900,"target":34962},{"buffer":0,"byteLength":2184,"byteOffset":34176,"target":34962},{"buffer":0,"byteLength":2184,"byteOffset":36360,"target":34962},{"buffer":0,"byteLength":3276,"byteOffset":38544,"target":34962},{"buffer":0,"byteLength":3276,"byteOffset":41820,"target":34962},{"buffer":0,"byteLength":2184,"byteOffset":45096,"target":34962},{"buffer":0,"byteLength":4496,"byteOffset":47280,"target":34962},{"buffer":0,"byteLength":6744,"byteOffset":51776,"target":34962},{"buffer":0,"byteLength":6744,"byteOffset":58520,"target":34962},{"buffer":0,"byteLength":4496,"byteOffset":65264,"target":34962},{"buffer":0,"byteLength":2940,"byteOffset":69760,"target":34963},{"buffer":0,"byteLength":4488,"byteOffset":72700,"target":34962},{"buffer":0,"byteLength":6732,"byteOffset":77188,"target":34962},{"buffer":0,"byteLength":6732,"byteOffset":83920,"target":34962},{"buffer":0,"byteLength":4488,"byteOffset":90652,"target":34962},{"buffer":0,"byteLength":3900,"byteOffset":95140,"target":34963},{"buffer":0,"byteLength":776,"byteOffset":99040,"target":34962},{"buffer":0,"byteLength":1164,"byteOffset":99816,"target":34962},{"buffer":0,"byteLength":1164,"byteOffset":100980,"target":34962},{"buffer":0,"byteLength":776,"byteOffset":102144,"target":34962},{"buffer":0,"byteLength":540,"byteOffset":102920,"target":34963},{"buffer":0,"byteLength":192,"byteOffset":103460,"target":34962},{"buffer":0,"byteLength":288,"byteOffset":103652,"target":34962},{"buffer":0,"byteLength":288,"byteOffset":103940,"target":34962},{"buffer":0,"byteLength":192,"byteOffset":104228,"target":34962},{"buffer":0,"byteLength":120,"byteOffset":104420,"target":34963},{"buffer":0,"byteLength":208,"byteOffset":104540,"target":34962},{"buffer":0,"byteLength":312,"byteOffset":104748,"target":34962},{"buffer":0,"byteLength":312,"byteOffset":105060,"target":34962},{"buffer":0,"byteLength":208,"byteOffset":105372,"target":34962},{"buffer":0,"byteLength":144,"byteOffset":105580,"target":34963},{"buffer":0,"byteLength":576,"byteOffset":105724,"target":34962},{"buffer":0,"byteLength":864,"byteOffset":106300,"target":34962},{"buffer":0,"byteLength":864,"byteOffset":107164,"target":34962},{"buffer":0,"byteLength":576,"byteOffset":108028,"target":34962},{"buffer":0,"byteLength":408,"byteOffset":108604,"target":34963},{"buffer":0,"byteLength":83400,"byteOffset":109012,"target":34962},{"buffer":0,"byteLength":83400,"byteOffset":192412,"target":34962},{"buffer":0,"byteLength":55600,"byteOffset":275812,"target":34962},{"buffer":0,"byteLength":49404,"byteOffset":331412,"target":34963},{"buffer":0,"byteLength":3888,"byteOffset":380816,"target":34962},{"buffer":0,"byteLength":3888,"byteOffset":384704,"target":34962},{"buffer":0,"byteLength":2592,"byteOffset":388592,"target":34962},{"buffer":0,"byteLength":1836,"byteOffset":391184,"target":34963},{"buffer":0,"byteLength":840,"byteOffset":393020,"target":34962},{"buffer":0,"byteLength":840,"byteOffset":393860,"target":34962},{"buffer":0,"byteLength":560,"byteOffset":394700,"target":34962},{"buffer":0,"byteLength":228,"byteOffset":395260,"target":34963},{"buffer":0,"byteLength":144,"byteOffset":395488,"target":34963},{"buffer":0,"byteLength":12,"byteOffset":395632,"target":34963},{"buffer":0,"byteLength":576,"byteOffset":395644,"target":34962},{"buffer":0,"byteLength":576,"byteOffset":396220,"target":34962},{"buffer":0,"byteLength":384,"byteOffset":396796,"target":34962},{"buffer":0,"byteLength":48,"byteOffset":397180,"target":34962},{"buffer":0,"byteLength":48,"byteOffset":397228,"target":34962},{"buffer":0,"byteLength":32,"byteOffset":397276,"target":34962},{"buffer":0,"byteLength":2232,"byteOffset":397308,"target":34962},{"buffer":0,"byteLength":2232,"byteOffset":399540,"target":34962},{"buffer":0,"byteLength":1488,"byteOffset":401772,"target":34962},{"buffer":0,"byteLength":948,"byteOffset":403260,"target":34963},{"buffer":0,"byteLength":48,"byteOffset":404208,"target":34962},{"buffer":0,"byteLength":48,"byteOffset":404256,"target":34962},{"buffer":0,"byteLength":32,"byteOffset":404304,"target":34962},{"buffer":0,"byteLength":12,"byteOffset":404336,"target":34963},{"buffer":0,"byteLength":12,"byteOffset":404348,"target":34963},{"buffer":0,"byteLength":48,"byteOffset":404360,"target":34962},{"buffer":0,"byteLength":48,"byteOffset":404408,"target":34962},{"buffer":0,"byteLength":32,"byteOffset":404456,"target":34962},{"buffer":0,"byteLength":12,"byteOffset":404488,"target":34963},{"buffer":0,"byteLength":480,"byteOffset":404500,"target":34962},{"buffer":0,"byteLength":480,"byteOffset":404980,"target":34962},{"buffer":0,"byteLength":320,"byteOffset":405460,"target":34962},{"buffer":0,"byteLength":120,"byteOffset":405780,"target":34963},{"buffer":0,"byteLength":48,"byteOffset":405900,"target":34962},{"buffer":0,"byteLength":48,"byteOffset":405948,"target":34962},{"buffer":0,"byteLength":32,"byteOffset":405996,"target":34962},{"buffer":0,"byteLength":12,"byteOffset":406028,"target":34963},{"buffer":0,"byteLength":48,"byteOffset":406040,"target":34962},{"buffer":0,"byteLength":48,"byteOffset":406088,"target":34962},{"buffer":0,"byteLength":32,"byteOffset":406136,"target":34962},{"buffer":0,"byteLength":12,"byteOffset":406168,"target":34963},{"buffer":0,"byteLength":48,"byteOffset":406180,"target":34962},{"buffer":0,"byteLength":48,"byteOffset":406228,"target":34962},{"buffer":0,"byteLength":32,"byteOffset":406276,"target":34962},{"buffer":0,"byteLength":1920,"byteOffset":406308,"target":34962},{"buffer":0,"byteLength":1920,"byteOffset":408228,"target":34962},{"buffer":0,"byteLength":1280,"byteOffset":410148,"target":34962},{"buffer":0,"byteLength":552,"byteOffset":411428,"target":34963},{"buffer":0,"byteLength":120,"byteOffset":411980,"target":34962},{"buffer":0,"byteLength":120,"byteOffset":412100,"target":34962},{"buffer":0,"byteLength":80,"byteOffset":412220,"target":34962},{"buffer":0,"byteLength":48,"byteOffset":412300,"target":34963},{"buffer":0,"byteLength":96,"byteOffset":412348,"target":34962},{"buffer":0,"byteLength":96,"byteOffset":412444,"target":34962},{"buffer":0,"byteLength":64,"byteOffset":412540,"target":34962},{"buffer":0,"byteLength":36,"byteOffset":412604,"target":34963},{"buffer":0,"byteLength":72,"byteOffset":412640,"target":34962},{"buffer":0,"byteLength":72,"byteOffset":412712,"target":34962},{"buffer":0,"byteLength":48,"byteOffset":412784,"target":34962},{"buffer":0,"byteLength":24,"byteOffset":412832,"target":34963},{"buffer":0,"byteLength":1272,"byteOffset":412856,"target":34962},{"buffer":0,"byteLength":1272,"byteOffset":414128,"target":34962},{"buffer":0,"byteLength":848,"byteOffset":415400,"target":34962},{"buffer":0,"byteLength":672,"byteOffset":416248,"target":34963},{"buffer":0,"byteLength":120,"byteOffset":416920,"target":34962},{"buffer":0,"byteLength":120,"byteOffset":417040,"target":34962},{"buffer":0,"byteLength":80,"byteOffset":417160,"target":34962},{"buffer":0,"byteLength":48,"byteOffset":417240,"target":34963},{"buffer":0,"byteLength":1416,"byteOffset":417288,"target":34962},{"buffer":0,"byteLength":1416,"byteOffset":418704,"target":34962},{"buffer":0,"byteLength":944,"byteOffset":420120,"target":34962},{"buffer":0,"byteLength":648,"byteOffset":421064,"target":34963},{"buffer":0,"byteLength":1104,"byteOffset":421712,"target":34962},{"buffer":0,"byteLength":1104,"byteOffset":422816,"target":34962},{"buffer":0,"byteLength":736,"byteOffset":423920,"target":34962},{"buffer":0,"byteLength":456,"byteOffset":424656,"target":34963}],"buffers":[{"uri":"north-west.bin","byteLength":425112}]}