{"asset":{"version":"2.0","generator":"Jarvis Cartoon City sectorizer v1"},"extensionsUsed":["KHR_materials_specular","KHR_materials_ior","KHR_materials_emissive_strength"],"scenes":[{"name":"Cartoon City Free — north-east","nodes":[0,5,10,11,12,13,14,15,16,17,18,19,20,21]}],"scene":0,"nodes":[{"mesh":4,"name":"Car_06.002","rotation":[0,0.7071067094802856,0,0.7071068286895752],"translation":[24.544044494628906,-0.09999997168779373,69.53749084472656],"children":[1,2,3,4]},{"mesh":0,"name":"Car_06_Wheel_Front_Left.002","translation":[0.8459644317626953,0.40000006556510925,1.100593090057373]},{"mesh":1,"name":"Car_06_Wheel_Front_Right.002","translation":[-0.8456859588623047,0.40000006556510925,1.1005932092666626]},{"mesh":2,"name":"Car_06_Wheel_Rear_Left.002","translation":[0.8459643125534058,0.40000006556510925,-1.1005940437316895]},{"mesh":3,"name":"Car_06_Wheel_Rear_Right.002","translation":[-0.8456860780715942,0.40000006556510925,-1.1005939245224]},{"mesh":9,"name":"Car_16.002","rotation":[0,1,0,7.549790126404332e-8],"translation":[54.5340576171875,0,46.89729309082031],"children":[6,7,8,9]},{"mesh":5,"name":"Car_16_Wheel_Front_Left.002","translation":[0.8458259105682373,0.40000006556510925,1.2239537239074707]},{"mesh":6,"name":"Car_16_Wheel_Front_Right.002","translation":[-0.8458244800567627,0.40000006556510925,1.2239539623260498]},{"mesh":7,"name":"Car_16_Wheel_Rear_Left.002","translation":[0.8458255529403687,0.40000006556510925,-1.223945140838623]},{"mesh":8,"name":"Car_16_Wheel_Rear_Right.002","translation":[-0.8458248376846313,0.40000006556510925,-1.223944902420044]},{"mesh":10,"name":"Regular_Building_TwistedTower_Large.004","rotation":[0,0.7372773885726929,0,0.6755901575088501],"translation":[31.593048095703125,0,47.623085021972656]},{"mesh":13,"name":"road_022.070","rotation":[0,1,0,7.549790126404332e-8],"translation":[52.5,0,37.5]},{"mesh":13,"name":"road_022.071","rotation":[0,-0.7071066498756409,0,0.70710688829422],"translation":[22.5,0,67.5]},{"mesh":12,"name":"road_013.020","translation":[52.5,0,67.5]},{"mesh":11,"name":"road_009.007","translation":[52.5,0,52.5]},{"mesh":11,"name":"road_009.008","rotation":[0,0.7071066498756409,0,0.70710688829422],"translation":[37.5,0,67.5]},{"mesh":15,"name":"Set_B_Tiles_01.060","rotation":[0,-0.7071066498756409,0,0.70710688829422],"translation":[22.5,0,37.5]},{"mesh":17,"name":"Set_B_Tiles_05.108","rotation":[0,-0.7071066498756409,0,0.70710688829422],"translation":[37.5,0,37.5]},{"mesh":16,"name":"Set_B_Tiles_09.148","translation":[37.5,0,52.5]},{"mesh":14,"name":"Set_B_Tiles_04.054","translation":[22.5,0,52.5]},{"mesh":18,"name":"Spotlight_01.121","rotation":[0,0.000003862396624754183,0,1],"translation":[40.33026123046875,0,61.47196960449219]},{"mesh":19,"name":"Trash_Can_04.038","rotation":[0,-0.5078727006912231,0,0.8614321351051331],"translation":[43.12939453125,0.000003814697265625,50.752960205078125]}],"meshes":[{"name":"Mesh.097","primitives":[{"attributes":{"COLOR_0":0,"POSITION":1,"NORMAL":2,"TEXCOORD_0":3},"indices":4,"material":0}]},{"name":"Mesh.094","primitives":[{"attributes":{"COLOR_0":5,"POSITION":6,"NORMAL":7,"TEXCOORD_0":8},"indices":9,"material":0}]},{"name":"Mesh.096","primitives":[{"attributes":{"COLOR_0":10,"POSITION":11,"NORMAL":12,"TEXCOORD_0":13},"indices":4,"material":0}]},{"name":"Mesh.095","primitives":[{"attributes":{"COLOR_0":14,"POSITION":15,"NORMAL":16,"TEXCOORD_0":17},"indices":9,"material":0}]},{"name":"Cube.266","primitives":[{"attributes":{"COLOR_0":18,"POSITION":19,"NORMAL":20,"TEXCOORD_0":21},"indices":22,"material":0},{"attributes":{"COLOR_0":23,"POSITION":24,"NORMAL":25,"TEXCOORD_0":26},"indices":27,"material":5},{"attributes":{"COLOR_0":28,"POSITION":29,"NORMAL":30,"TEXCOORD_0":31},"indices":32,"material":2},{"attributes":{"COLOR_0":33,"POSITION":34,"NORMAL":35,"TEXCOORD_0":36},"indices":37,"material":6},{"attributes":{"COLOR_0":38,"POSITION":39,"NORMAL":40,"TEXCOORD_0":41},"indices":42,"material":3},{"attributes":{"COLOR_0":43,"POSITION":44,"NORMAL":45,"TEXCOORD_0":46},"indices":47,"material":4}]},{"name":"Mesh.136","primitives":[{"attributes":{"COLOR_0":50,"POSITION":51,"NORMAL":52,"TEXCOORD_0":53},"indices":48,"material":0},{"attributes":{"COLOR_0":54,"POSITION":55,"NORMAL":56,"TEXCOORD_0":57},"indices":58,"material":1}]},{"name":"Mesh.133","primitives":[{"attributes":{"COLOR_0":59,"POSITION":60,"NORMAL":61,"TEXCOORD_0":62},"indices":49,"material":0},{"attributes":{"COLOR_0":63,"POSITION":64,"NORMAL":65,"TEXCOORD_0":66},"indices":58,"material":1}]},{"name":"Mesh.135","primitives":[{"attributes":{"COLOR_0":67,"POSITION":68,"NORMAL":69,"TEXCOORD_0":70},"indices":48,"material":0},{"attributes":{"COLOR_0":71,"POSITION":72,"NORMAL":73,"TEXCOORD_0":74},"indices":58,"material":1}]},{"name":"Mesh.134","primitives":[{"attributes":{"COLOR_0":75,"POSITION":76,"NORMAL":77,"TEXCOORD_0":78},"indices":49,"material":0},{"attributes":{"COLOR_0":79,"POSITION":80,"NORMAL":81,"TEXCOORD_0":82},"indices":58,"material":1}]},{"name":"Plane.019","primitives":[{"attributes":{"COLOR_0":83,"POSITION":84,"NORMAL":85,"TEXCOORD_0":86},"indices":87,"material":0},{"attributes":{"COLOR_0":88,"POSITION":89,"NORMAL":90,"TEXCOORD_0":91},"indices":92,"material":5},{"attributes":{"COLOR_0":93,"POSITION":94,"NORMAL":95,"TEXCOORD_0":96},"indices":97,"material":2},{"attributes":{"COLOR_0":98,"POSITION":99,"NORMAL":100,"TEXCOORD_0":101},"indices":102,"material":6},{"attributes":{"COLOR_0":103,"POSITION":104,"NORMAL":105,"TEXCOORD_0":106},"indices":107,"material":3},{"attributes":{"COLOR_0":108,"POSITION":109,"NORMAL":110,"TEXCOORD_0":111},"indices":112,"material":4}]},{"name":"Cylinder.005","primitives":[{"attributes":{"POSITION":113,"NORMAL":114,"TEXCOORD_0":115},"indices":116,"material":0},{"attributes":{"POSITION":117,"NORMAL":118,"TEXCOORD_0":119},"indices":120,"material":4}]},{"name":"Cube.206","primitives":[{"attributes":{"POSITION":123,"NORMAL":124,"TEXCOORD_0":125},"indices":121,"material":0},{"attributes":{"POSITION":126,"NORMAL":127,"TEXCOORD_0":128},"indices":122,"material":8}]},{"name":"Plane.079","primitives":[{"attributes":{"POSITION":129,"NORMAL":130,"TEXCOORD_0":131},"indices":132,"material":0},{"attributes":{"POSITION":133,"NORMAL":134,"TEXCOORD_0":135},"indices":136,"material":8}]},{"name":"Cube.188","primitives":[{"attributes":{"POSITION":138,"NORMAL":139,"TEXCOORD_0":140},"indices":137,"material":0},{"attributes":{"POSITION":141,"NORMAL":142,"TEXCOORD_0":143},"indices":122,"material":8}]},{"name":"Plane.268","primitives":[{"attributes":{"POSITION":145,"NORMAL":146,"TEXCOORD_0":147},"indices":148,"material":0},{"attributes":{"POSITION":149,"NORMAL":150,"TEXCOORD_0":151},"indices":152,"material":9},{"attributes":{"POSITION":153,"NORMAL":154,"TEXCOORD_0":155},"indices":144,"material":10},{"attributes":{"POSITION":156,"NORMAL":157,"TEXCOORD_0":158},"indices":159,"material":11}]},{"name":"Plane.272","primitives":[{"attributes":{"POSITION":160,"NORMAL":161,"TEXCOORD_0":162},"indices":163,"material":0},{"attributes":{"POSITION":164,"NORMAL":165,"TEXCOORD_0":166},"indices":167,"material":9},{"attributes":{"POSITION":168,"NORMAL":169,"TEXCOORD_0":170},"indices":171,"material":10},{"attributes":{"POSITION":172,"NORMAL":173,"TEXCOORD_0":174},"indices":175,"material":11}]},{"name":"Plane.276","primitives":[{"attributes":{"POSITION":176,"NORMAL":177,"TEXCOORD_0":178},"indices":179,"material":10}]},{"name":"Plane.271","primitives":[{"attributes":{"POSITION":180,"NORMAL":181,"TEXCOORD_0":182},"indices":183,"material":0},{"attributes":{"POSITION":184,"NORMAL":185,"TEXCOORD_0":186},"indices":187,"material":9},{"attributes":{"POSITION":188,"NORMAL":189,"TEXCOORD_0":190},"indices":191,"material":10},{"attributes":{"POSITION":192,"NORMAL":193,"TEXCOORD_0":194},"indices":144,"material":11}]},{"name":"Cube.184","primitives":[{"attributes":{"POSITION":195,"NORMAL":196,"TEXCOORD_0":197},"indices":198,"material":0},{"attributes":{"POSITION":199,"NORMAL":200,"TEXCOORD_0":201},"indices":202,"material":7}]},{"name":"Cube.068","primitives":[{"attributes":{"POSITION":204,"NORMAL":205,"TEXCOORD_0":206},"indices":203,"material":0}]}],"materials":[{"doubleSided":true,"name":"Color","pbrMetallicRoughness":{"baseColorTexture":{"index":0},"metallicFactor":0,"roughnessFactor":0.699999988079071}},{"doubleSided":true,"name":"Metal","pbrMetallicRoughness":{"baseColorTexture":{"index":1},"roughnessFactor":0.3316831588745117}},{"doubleSided":true,"name":"Color_Glossy","pbrMetallicRoughness":{"baseColorTexture":{"index":2},"metallicFactor":0,"roughnessFactor":0.20000000298023224}},{"doubleSided":true,"emissiveFactor":[1,1,1],"emissiveTexture":{"index":3},"name":"Car_Taillights","pbrMetallicRoughness":{"baseColorTexture":{"index":4},"metallicFactor":0,"roughnessFactor":0.5}},{"alphaMode":"BLEND","doubleSided":true,"extensions":{"KHR_materials_specular":{"specularColorFactor":[2.371357614441398,2.371357614441398,2.371357614441398]},"KHR_materials_ior":{"ior":1.4500000476837158}},"name":"Glass","pbrMetallicRoughness":{"baseColorFactor":[1,1,1,0.5],"baseColorTexture":{"index":5},"metallicFactor":0.20000000298023224,"roughnessFactor":0.05000000074505806}},{"doubleSided":true,"emissiveFactor":[0.10000000149011612,0.10000000149011612,0.10000000149011612],"emissiveTexture":{"index":6},"name":"Car_Color","pbrMetallicRoughness":{"baseColorTexture":{"index":7},"metallicFactor":0.20000000298023224,"roughnessFactor":0.10000000149011612}},{"doubleSided":true,"emissiveFactor":[1,1,1],"emissiveTexture":{"index":8},"name":"Car_Headlights","pbrMetallicRoughness":{"baseColorTexture":{"index":9},"metallicFactor":0,"roughnessFactor":0.5}},{"doubleSided":true,"emissiveFactor":[1,1,1],"emissiveTexture":{"index":10},"extensions":{"KHR_materials_emissive_strength":{"emissiveStrength":3}},"name":"Emissive","pbrMetallicRoughness":{"baseColorTexture":{"index":11},"metallicFactor":0,"roughnessFactor":0.5}},{"doubleSided":true,"emissiveFactor":[0.10000000149011612,0.10000000149011612,0.10000000149011612],"emissiveTexture":{"index":12},"extensions":{"KHR_materials_specular":{"specularColorFactor":[0.711407312601205,0.711407312601205,0.711407312601205]},"KHR_materials_ior":{"ior":1.4500000476837158}},"name":"Roads","pbrMetallicRoughness":{"baseColorTexture":{"index":13},"metallicFactor":0,"roughnessFactor":0.75}},{"doubleSided":true,"name":"Asphalt_Dark_Gray","pbrMetallicRoughness":{"baseColorFactor":[0.13853572309017181,0.13853572309017181,0.13853572309017181,1],"metallicFactor":0,"roughnessFactor":0.5}},{"doubleSided":true,"name":"Tile_1","normalTexture":{"index":14,"scale":5},"pbrMetallicRoughness":{"baseColorTexture":{"index":15},"metallicFactor":0,"metallicRoughnessTexture":{"index":16}}},{"doubleSided":true,"name":"Grass","pbrMetallicRoughness":{"baseColorFactor":[0.25015830993652344,0.44520121812820435,0.13013650476932526,1],"metallicFactor":0,"roughnessFactor":0.7598187327384949}}],"textures":[{"sampler":0,"source":0},{"sampler":0,"source":1},{"sampler":0,"source":0},{"sampler":0,"source":1},{"sampler":0,"source":1},{"sampler":0,"source":0},{"sampler":0,"source":0},{"sampler":0,"source":0},{"sampler":0,"source":1},{"sampler":0,"source":1},{"sampler":0,"source":1},{"sampler":0,"source":1},{"sampler":0,"source":2},{"sampler":0,"source":2},{"sampler":0,"source":3},{"sampler":0,"source":4},{"sampler":0,"source":5}],"images":[{"uri":"shared/486c6d61063241d5.webp","mimeType":"image/webp"},{"uri":"shared/486c6d61063241d5.webp","mimeType":"image/webp"},{"uri":"shared/cd11a20db95ff60c.webp","mimeType":"image/webp"},{"uri":"shared/28470d0f5c64a9e9.png","mimeType":"image/png"},{"uri":"shared/d686ec6d73243cad.webp","mimeType":"image/webp"},{"uri":"shared/0dd4c9f67e03b0dc.png","mimeType":"image/png"}],"samplers":[{"magFilter":9729,"minFilter":9987}],"accessors":[{"bufferView":0,"componentType":5123,"count":273,"normalized":true,"type":"VEC4"},{"bufferView":1,"componentType":5126,"count":273,"max":[0.16213111579418182,0.3999999165534973,0.3998884856700897],"min":[-0.1620960682630539,-0.40000006556510925,-0.4001115560531616],"type":"VEC3"},{"bufferView":2,"componentType":5126,"count":273,"type":"VEC3"},{"bufferView":3,"componentType":5126,"count":273,"type":"VEC2"},{"bufferView":4,"componentType":5123,"count":900,"type":"SCALAR"},{"bufferView":5,"componentType":5123,"count":273,"normalized":true,"type":"VEC4"},{"bufferView":6,"componentType":5126,"count":273,"max":[0.16209618747234344,0.3999999165534973,0.4001115560531616],"min":[-0.16213122010231018,-0.40000006556510925,-0.3998884856700897],"type":"VEC3"},{"bufferView":7,"componentType":5126,"count":273,"type":"VEC3"},{"bufferView":8,"componentType":5126,"count":273,"type":"VEC2"},{"bufferView":9,"componentType":5123,"count":900,"type":"SCALAR"},{"bufferView":10,"componentType":5123,"count":273,"normalized":true,"type":"VEC4"},{"bufferView":11,"componentType":5126,"count":273,"max":[0.16213111579418182,0.3999999165534973,0.3998884856700897],"min":[-0.1620960682630539,-0.40000006556510925,-0.4001115560531616],"type":"VEC3"},{"bufferView":12,"componentType":5126,"count":273,"type":"VEC3"},{"bufferView":13,"componentType":5126,"count":273,"type":"VEC2"},{"bufferView":14,"componentType":5123,"count":273,"normalized":true,"type":"VEC4"},{"bufferView":15,"componentType":5126,"count":273,"max":[0.16209618747234344,0.3999999165534973,0.4001115560531616],"min":[-0.16213122010231018,-0.40000006556510925,-0.3998884856700897],"type":"VEC3"},{"bufferView":16,"componentType":5126,"count":273,"type":"VEC3"},{"bufferView":17,"componentType":5126,"count":273,"type":"VEC2"},{"bufferView":18,"componentType":5123,"count":562,"normalized":true,"type":"VEC4"},{"bufferView":19,"componentType":5126,"count":562,"max":[0.9821081161499023,1.671571135520935,1.8693079948425293],"min":[-0.9818639755249023,0.23435990512371063,-1.7959847450256348],"type":"VEC3"},{"bufferView":20,"componentType":5126,"count":562,"type":"VEC3"},{"bufferView":21,"componentType":5126,"count":562,"type":"VEC2"},{"bufferView":22,"componentType":5123,"count":1470,"type":"SCALAR"},{"bufferView":23,"componentType":5123,"count":561,"normalized":true,"type":"VEC4"},{"bufferView":24,"componentType":5126,"count":561,"max":[1.2657324075698853,1.731117844581604,1.8522025346755981],"min":[-1.2654882669448853,0.39693567156791687,-1.8221327066421509],"type":"VEC3"},{"bufferView":25,"componentType":5126,"count":561,"type":"VEC3"},{"bufferView":26,"componentType":5126,"count":561,"type":"VEC2"},{"bufferView":27,"componentType":5123,"count":1950,"type":"SCALAR"},{"bufferView":28,"componentType":5123,"count":97,"normalized":true,"type":"VEC4"},{"bufferView":29,"componentType":5126,"count":97,"max":[1.233822226524353,1.6194183826446533,0.819335401058197],"min":[-1.233578085899353,1.026626706123352,-1.6400434970855713],"type":"VEC3"},{"bufferView":30,"componentType":5126,"count":97,"type":"VEC3"},{"bufferView":31,"componentType":5126,"count":97,"type":"VEC2"},{"bufferView":32,"componentType":5123,"count":270,"type":"SCALAR"},{"bufferView":33,"componentType":5123,"count":24,"normalized":true,"type":"VEC4"},{"bufferView":34,"componentType":5126,"count":24,"max":[0.8786246180534363,0.8859658241271973,1.682948112487793],"min":[-0.8783804774284363,0.6795313358306885,1.5460014343261719],"type":"VEC3"},{"bufferView":35,"componentType":5126,"count":24,"type":"VEC3"},{"bufferView":36,"componentType":5126,"count":24,"type":"VEC2"},{"bufferView":37,"componentType":5123,"count":60,"type":"SCALAR"},{"bufferView":38,"componentType":5123,"count":26,"normalized":true,"type":"VEC4"},{"bufferView":39,"componentType":5126,"count":26,"max":[0.8376821279525757,0.8246886730194092,-1.690671443939209],"min":[-0.8374379873275757,0.6238102912902832,-1.7328327894210815],"type":"VEC3"},{"bufferView":40,"componentType":5126,"count":26,"type":"VEC3"},{"bufferView":41,"componentType":5126,"count":26,"type":"VEC2"},{"bufferView":42,"componentType":5123,"count":72,"type":"SCALAR"},{"bufferView":43,"componentType":5123,"count":72,"normalized":true,"type":"VEC4"},{"bufferView":44,"componentType":5126,"count":72,"max":[0.901957094669342,0.9081380367279053,1.7461631298065186],"min":[-0.901712954044342,0.6566294431686401,1.5785361528396606],"type":"VEC3"},{"bufferView":45,"componentType":5126,"count":72,"type":"VEC3"},{"bufferView":46,"componentType":5126,"count":72,"type":"VEC2"},{"bufferView":47,"componentType":5123,"count":204,"type":"SCALAR"},{"bufferView":48,"componentType":5123,"count":1014,"type":"SCALAR"},{"bufferView":49,"componentType":5123,"count":1014,"type":"SCALAR"},{"bufferView":50,"componentType":5123,"count":285,"normalized":true,"type":"VEC4"},{"bufferView":51,"componentType":5126,"count":285,"max":[0.16213113069534302,0.3999999165534973,0.3998884856700897],"min":[-0.1620960682630539,-0.40000006556510925,-0.4001115560531616],"type":"VEC3"},{"bufferView":52,"componentType":5126,"count":285,"type":"VEC3"},{"bufferView":53,"componentType":5126,"count":285,"type":"VEC2"},{"bufferView":54,"componentType":5123,"count":54,"normalized":true,"type":"VEC4"},{"bufferView":55,"componentType":5126,"count":54,"max":[0.1361139863729477,0.2748536467552185,0.29106059670448303],"min":[0.04467451199889183,-0.27894407510757446,-0.29114869236946106],"type":"VEC3"},{"bufferView":56,"componentType":5126,"count":54,"type":"VEC3"},{"bufferView":57,"componentType":5126,"count":54,"type":"VEC2"},{"bufferView":58,"componentType":5123,"count":120,"type":"SCALAR"},{"bufferView":59,"componentType":5123,"count":285,"normalized":true,"type":"VEC4"},{"bufferView":60,"componentType":5126,"count":285,"max":[0.16209617257118225,0.3999999165534973,0.4001115560531616],"min":[-0.16213126480579376,-0.40000006556510925,-0.3998884856700897],"type":"VEC3"},{"bufferView":61,"componentType":5126,"count":285,"type":"VEC3"},{"bufferView":62,"componentType":5126,"count":285,"type":"VEC2"},{"bufferView":63,"componentType":5123,"count":54,"normalized":true,"type":"VEC4"},{"bufferView":64,"componentType":5126,"count":54,"max":[-0.044674504548311234,0.2748536467552185,0.2911487817764282],"min":[-0.13611413538455963,-0.27894407510757446,-0.29106050729751587],"type":"VEC3"},{"bufferView":65,"componentType":5126,"count":54,"type":"VEC3"},{"bufferView":66,"componentType":5126,"count":54,"type":"VEC2"},{"bufferView":67,"componentType":5123,"count":285,"normalized":true,"type":"VEC4"},{"bufferView":68,"componentType":5126,"count":285,"max":[0.16213113069534302,0.3999999165534973,0.3998884856700897],"min":[-0.1620960682630539,-0.40000006556510925,-0.4001115560531616],"type":"VEC3"},{"bufferView":69,"componentType":5126,"count":285,"type":"VEC3"},{"bufferView":70,"componentType":5126,"count":285,"type":"VEC2"},{"bufferView":71,"componentType":5123,"count":54,"normalized":true,"type":"VEC4"},{"bufferView":72,"componentType":5126,"count":54,"max":[0.1361139863729477,0.2748536467552185,0.29106059670448303],"min":[0.04467451199889183,-0.27894407510757446,-0.29114869236946106],"type":"VEC3"},{"bufferView":73,"componentType":5126,"count":54,"type":"VEC3"},{"bufferView":74,"componentType":5126,"count":54,"type":"VEC2"},{"bufferView":75,"componentType":5123,"count":285,"normalized":true,"type":"VEC4"},{"bufferView":76,"componentType":5126,"count":285,"max":[0.16209617257118225,0.3999999165534973,0.4001115560531616],"min":[-0.16213126480579376,-0.40000006556510925,-0.3998884856700897],"type":"VEC3"},{"bufferView":77,"componentType":5126,"count":285,"type":"VEC3"},{"bufferView":78,"componentType":5126,"count":285,"type":"VEC2"},{"bufferView":79,"componentType":5123,"count":54,"normalized":true,"type":"VEC4"},{"bufferView":80,"componentType":5126,"count":54,"max":[-0.044674504548311234,0.2748536467552185,0.2911487817764282],"min":[-0.13611413538455963,-0.27894407510757446,-0.29106050729751587],"type":"VEC3"},{"bufferView":81,"componentType":5126,"count":54,"type":"VEC3"},{"bufferView":82,"componentType":5126,"count":54,"type":"VEC2"},{"bufferView":83,"componentType":5123,"count":457,"normalized":true,"type":"VEC4"},{"bufferView":84,"componentType":5126,"count":457,"max":[1.0036572217941284,1.4339401721954346,2.003713607788086],"min":[-1.0033501386642456,0.152602419257164,-1.9192681312561035],"type":"VEC3"},{"bufferView":85,"componentType":5126,"count":457,"type":"VEC3"},{"bufferView":86,"componentType":5126,"count":457,"type":"VEC2"},{"bufferView":87,"componentType":5123,"count":1248,"type":"SCALAR"},{"bufferView":88,"componentType":5123,"count":906,"normalized":true,"type":"VEC4"},{"bufferView":89,"componentType":5126,"count":906,"max":[1.0876888036727905,1.4782252311706543,2.109272003173828],"min":[-1.0879329442977905,0.152602419257164,-2.0220673084259033],"type":"VEC3"},{"bufferView":90,"componentType":5126,"count":906,"type":"VEC3"},{"bufferView":91,"componentType":5126,"count":906,"type":"VEC2"},{"bufferView":92,"componentType":5123,"count":2886,"type":"SCALAR"},{"bufferView":93,"componentType":5123,"count":70,"normalized":true,"type":"VEC4"},{"bufferView":94,"componentType":5126,"count":70,"max":[1.0586886405944824,1.3958861827850342,0.9936060905456543],"min":[-1.0589327812194824,0.9292917251586914,-0.7287842631340027],"type":"VEC3"},{"bufferView":95,"componentType":5126,"count":70,"type":"VEC3"},{"bufferView":96,"componentType":5126,"count":70,"type":"VEC2"},{"bufferView":97,"componentType":5123,"count":174,"type":"SCALAR"},{"bufferView":98,"componentType":5123,"count":24,"normalized":true,"type":"VEC4"},{"bufferView":99,"componentType":5126,"count":24,"max":[0.8564546704292297,0.789059579372406,1.8919814825057983],"min":[-0.8561476469039917,0.5867435932159424,1.604676604270935],"type":"VEC3"},{"bufferView":100,"componentType":5126,"count":24,"type":"VEC3"},{"bufferView":101,"componentType":5126,"count":24,"type":"VEC2"},{"bufferView":102,"componentType":5123,"count":60,"type":"SCALAR"},{"bufferView":103,"componentType":5123,"count":40,"normalized":true,"type":"VEC4"},{"bufferView":104,"componentType":5126,"count":40,"max":[0.8895073533058167,1.0314717292785645,-1.5483675003051758],"min":[-0.8892002701759338,0.8576816320419312,-1.8893619775772095],"type":"VEC3"},{"bufferView":105,"componentType":5126,"count":40,"type":"VEC3"},{"bufferView":106,"componentType":5126,"count":40,"type":"VEC2"},{"bufferView":107,"componentType":5123,"count":60,"type":"SCALAR"},{"bufferView":108,"componentType":5123,"count":33,"normalized":true,"type":"VEC4"},{"bufferView":109,"componentType":5126,"count":33,"max":[0.902402400970459,0.8276004791259766,2.003713607788086],"min":[-0.902095377445221,0.5534816980361938,1.6144428253173828],"type":"VEC3"},{"bufferView":110,"componentType":5126,"count":33,"type":"VEC3"},{"bufferView":111,"componentType":5126,"count":33,"type":"VEC2"},{"bufferView":112,"componentType":5123,"count":108,"type":"SCALAR"},{"bufferView":113,"componentType":5126,"count":2792,"max":[16.80055046081543,53.17498016357422,10.149778366088867],"min":[-13.083526611328125,-0.00000528334203409031,-12.747740745544434],"type":"VEC3"},{"bufferView":114,"componentType":5126,"count":2792,"type":"VEC3"},{"bufferView":115,"componentType":5126,"count":2792,"type":"VEC2"},{"bufferView":116,"componentType":5123,"count":12306,"type":"SCALAR"},{"bufferView":117,"componentType":5126,"count":224,"max":[12.467144966125488,43.79997253417969,8.466917991638184],"min":[-10.705672264099121,-0.000005097832854517037,-10.31894302368164],"type":"VEC3"},{"bufferView":118,"componentType":5126,"count":224,"type":"VEC3"},{"bufferView":119,"componentType":5126,"count":224,"type":"VEC2"},{"bufferView":120,"componentType":5123,"count":1152,"type":"SCALAR"},{"bufferView":121,"componentType":5123,"count":72,"type":"SCALAR"},{"bufferView":122,"componentType":5123,"count":6,"type":"SCALAR"},{"bufferView":123,"componentType":5126,"count":48,"max":[7.5,0.09999997913837433,7.5],"min":[-7.5,-0.10000001639127731,-7.5],"type":"VEC3"},{"bufferView":124,"componentType":5126,"count":48,"type":"VEC3"},{"bufferView":125,"componentType":5126,"count":48,"type":"VEC2"},{"bufferView":126,"componentType":5126,"count":4,"max":[3.750000476837158,-0.10000000894069672,7.5],"min":[-3.750000476837158,-0.10000000894069672,-7.5],"type":"VEC3"},{"bufferView":127,"componentType":5126,"count":4,"type":"VEC3"},{"bufferView":128,"componentType":5126,"count":4,"type":"VEC2"},{"bufferView":129,"componentType":5126,"count":186,"max":[7.499999523162842,0.100006103515625,7.499999523162842],"min":[-7.499999523162842,-0.09999857097864151,-7.499999523162842],"type":"VEC3"},{"bufferView":130,"componentType":5126,"count":186,"type":"VEC3"},{"bufferView":131,"componentType":5126,"count":186,"type":"VEC2"},{"bufferView":132,"componentType":5123,"count":474,"type":"SCALAR"},{"bufferView":133,"componentType":5126,"count":4,"max":[7.500012397766113,-0.10000228881835938,7.500000953674316],"min":[-7.500101566314697,-0.10000229626893997,-7.500003337860107],"type":"VEC3"},{"bufferView":134,"componentType":5126,"count":4,"type":"VEC3"},{"bufferView":135,"componentType":5126,"count":4,"type":"VEC2"},{"bufferView":136,"componentType":5123,"count":6,"type":"SCALAR"},{"bufferView":137,"componentType":5123,"count":72,"type":"SCALAR"},{"bufferView":138,"componentType":5126,"count":48,"max":[7.500000953674316,0.09999997913837433,7.500000953674316],"min":[-7.500000953674316,-0.10000001639127731,-7.500000953674316],"type":"VEC3"},{"bufferView":139,"componentType":5126,"count":48,"type":"VEC3"},{"bufferView":140,"componentType":5126,"count":48,"type":"VEC2"},{"bufferView":141,"componentType":5126,"count":4,"max":[3.7500016689300537,-0.10000000894069672,7.500000476837158],"min":[-3.7500016689300537,-0.10000000894069672,-7.500000476837158],"type":"VEC3"},{"bufferView":142,"componentType":5126,"count":4,"type":"VEC3"},{"bufferView":143,"componentType":5126,"count":4,"type":"VEC2"},{"bufferView":144,"componentType":5123,"count":6,"type":"SCALAR"},{"bufferView":145,"componentType":5126,"count":82,"max":[-1.7728652954101562,0.10000000149011612,7.500003814697266],"min":[-7.5,-0.10000000149011612,-7.499988555908203],"type":"VEC3"},{"bufferView":146,"componentType":5126,"count":82,"type":"VEC3"},{"bufferView":147,"componentType":5126,"count":82,"type":"VEC2"},{"bufferView":148,"componentType":5123,"count":126,"type":"SCALAR"},{"bufferView":149,"componentType":5126,"count":8,"max":[-1.8790836334228516,0,7.5000104904174805],"min":[-7.5,-9.5367431640625e-7,-7.499988555908203],"type":"VEC3"},{"bufferView":150,"componentType":5126,"count":8,"type":"VEC3"},{"bufferView":151,"componentType":5126,"count":8,"type":"VEC2"},{"bufferView":152,"componentType":5123,"count":18,"type":"SCALAR"},{"bufferView":153,"componentType":5126,"count":4,"max":[7.5,0,7.500003814697266],"min":[-1.8790836334228516,-9.5367431640625e-7,-7.499988555908203],"type":"VEC3"},{"bufferView":154,"componentType":5126,"count":4,"type":"VEC3"},{"bufferView":155,"componentType":5126,"count":4,"type":"VEC2"},{"bufferView":156,"componentType":5126,"count":8,"max":[-5.606972694396973,0,7.5000104904174805],"min":[-7.5,-9.5367431640625e-7,-7.499988555908203],"type":"VEC3"},{"bufferView":157,"componentType":5126,"count":8,"type":"VEC3"},{"bufferView":158,"componentType":5126,"count":8,"type":"VEC2"},{"bufferView":159,"componentType":5123,"count":12,"type":"SCALAR"},{"bufferView":160,"componentType":5126,"count":160,"max":[7.5,0.10000000149011612,5.705989837646484],"min":[-5.705223083496094,-0.10000000149011612,-7.499998569488525],"type":"VEC3"},{"bufferView":161,"componentType":5126,"count":160,"type":"VEC3"},{"bufferView":162,"componentType":5126,"count":160,"type":"VEC2"},{"bufferView":163,"componentType":5123,"count":276,"type":"SCALAR"},{"bufferView":164,"componentType":5126,"count":10,"max":[7.5,0,5.606975078582764],"min":[-5.604776382446289,-9.5367431640625e-7,-7.499980926513672],"type":"VEC3"},{"bufferView":165,"componentType":5126,"count":10,"type":"VEC3"},{"bufferView":166,"componentType":5126,"count":10,"type":"VEC2"},{"bufferView":167,"componentType":5123,"count":24,"type":"SCALAR"},{"bufferView":168,"componentType":5126,"count":6,"max":[7.5,0,1.8790885210037231],"min":[-1.8768863677978516,-9.5367431640625e-7,-7.49998140335083],"type":"VEC3"},{"bufferView":169,"componentType":5126,"count":6,"type":"VEC3"},{"bufferView":170,"componentType":5126,"count":6,"type":"VEC2"},{"bufferView":171,"componentType":5123,"count":12,"type":"SCALAR"},{"bufferView":172,"componentType":5126,"count":8,"max":[7.5,0,7.500000476837158],"min":[-7.5,-9.5367431640625e-7,-7.499974727630615],"type":"VEC3"},{"bufferView":173,"componentType":5126,"count":8,"type":"VEC3"},{"bufferView":174,"componentType":5126,"count":8,"type":"VEC2"},{"bufferView":175,"componentType":5123,"count":18,"type":"SCALAR"},{"bufferView":176,"componentType":5126,"count":4,"max":[7.49993896484375,0,7.5],"min":[-7.500061511993408,0,-7.5],"type":"VEC3"},{"bufferView":177,"componentType":5126,"count":4,"type":"VEC3"},{"bufferView":178,"componentType":5126,"count":4,"type":"VEC2"},{"bufferView":179,"componentType":5123,"count":6,"type":"SCALAR"},{"bufferView":180,"componentType":5126,"count":40,"max":[-1.776357650756836,0.10000000149011612,7.499995231628418],"min":[-5.706169128417969,-0.10000000149011612,-7.500004768371582],"type":"VEC3"},{"bufferView":181,"componentType":5126,"count":40,"type":"VEC3"},{"bufferView":182,"componentType":5126,"count":40,"type":"VEC2"},{"bufferView":183,"componentType":5123,"count":60,"type":"SCALAR"},{"bufferView":184,"componentType":5126,"count":4,"max":[-1.8790836334228516,-9.5367431640625e-7,7.499995231628418],"min":[-5.606972694396973,-9.5367431640625e-7,-7.500004768371582],"type":"VEC3"},{"bufferView":185,"componentType":5126,"count":4,"type":"VEC3"},{"bufferView":186,"componentType":5126,"count":4,"type":"VEC2"},{"bufferView":187,"componentType":5123,"count":6,"type":"SCALAR"},{"bufferView":188,"componentType":5126,"count":4,"max":[7.5,0,7.499995231628418],"min":[-1.8790836334228516,-9.5367431640625e-7,-7.500004768371582],"type":"VEC3"},{"bufferView":189,"componentType":5126,"count":4,"type":"VEC3"},{"bufferView":190,"componentType":5126,"count":4,"type":"VEC2"},{"bufferView":191,"componentType":5123,"count":6,"type":"SCALAR"},{"bufferView":192,"componentType":5126,"count":4,"max":[-5.606972694396973,0,7.499995231628418],"min":[-7.5,-9.5367431640625e-7,-7.500004768371582],"type":"VEC3"},{"bufferView":193,"componentType":5126,"count":4,"type":"VEC3"},{"bufferView":194,"componentType":5126,"count":4,"type":"VEC2"},{"bufferView":195,"componentType":5126,"count":106,"max":[0.22128364443778992,8.304719924926758,3.0710415840148926],"min":[-0.2213037759065628,0,-0.11709251999855042],"type":"VEC3"},{"bufferView":196,"componentType":5126,"count":106,"type":"VEC3"},{"bufferView":197,"componentType":5126,"count":106,"type":"VEC2"},{"bufferView":198,"componentType":5123,"count":336,"type":"SCALAR"},{"bufferView":199,"componentType":5126,"count":10,"max":[0.13364164531230927,7.941127300262451,3.0237202644348145],"min":[-0.13366179168224335,7.70126485824585,2.2360119819641113],"type":"VEC3"},{"bufferView":200,"componentType":5126,"count":10,"type":"VEC3"},{"bufferView":201,"componentType":5126,"count":10,"type":"VEC2"},{"bufferView":202,"componentType":5123,"count":24,"type":"SCALAR"},{"bufferView":203,"componentType":5123,"count":132,"type":"SCALAR"},{"bufferView":204,"componentType":5126,"count":76,"max":[1.0424615144729614,1.639740228652954,0.5986649990081787],"min":[-1.0424615144729614,-0.00527788233011961,-0.5966669321060181],"type":"VEC3"},{"bufferView":205,"componentType":5126,"count":76,"type":"VEC3"},{"bufferView":206,"componentType":5126,"count":76,"type":"VEC2"}],"bufferViews":[{"buffer":0,"byteLength":2184,"byteOffset":0,"target":34962},{"buffer":0,"byteLength":3276,"byteOffset":2184,"target":34962},{"buffer":0,"byteLength":3276,"byteOffset":5460,"target":34962},{"buffer":0,"byteLength":2184,"byteOffset":8736,"target":34962},{"buffer":0,"byteLength":1800,"byteOffset":10920,"target":34963},{"buffer":0,"byteLength":2184,"byteOffset":12720,"target":34962},{"buffer":0,"byteLength":3276,"byteOffset":14904,"target":34962},{"buffer":0,"byteLength":3276,"byteOffset":18180,"target":34962},{"buffer":0,"byteLength":2184,"byteOffset":21456,"target":34962},{"buffer":0,"byteLength":1800,"byteOffset":23640,"target":34963},{"buffer":0,"byteLength":2184,"byteOffset":25440,"target":34962},{"buffer":0,"byteLength":3276,"byteOffset":27624,"target":34962},{"buffer":0,"byteLength":3276,"byteOffset":30900,"target":34962},{"buffer":0,"byteLength":2184,"byteOffset":34176,"target":34962},{"buffer":0,"byteLength":2184,"byteOffset":36360,"target":34962},{"buffer":0,"byteLength":3276,"byteOffset":38544,"target":34962},{"buffer":0,"byteLength":3276,"byteOffset":41820,"target":34962},{"buffer":0,"byteLength":2184,"byteOffset":45096,"target":34962},{"buffer":0,"byteLength":4496,"byteOffset":47280,"target":34962},{"buffer":0,"byteLength":6744,"byteOffset":51776,"target":34962},{"buffer":0,"byteLength":6744,"byteOffset":58520,"target":34962},{"buffer":0,"byteLength":4496,"byteOffset":65264,"target":34962},{"buffer":0,"byteLength":2940,"byteOffset":69760,"target":34963},{"buffer":0,"byteLength":4488,"byteOffset":72700,"target":34962},{"buffer":0,"byteLength":6732,"byteOffset":77188,"target":34962},{"buffer":0,"byteLength":6732,"byteOffset":83920,"target":34962},{"buffer":0,"byteLength":4488,"byteOffset":90652,"target":34962},{"buffer":0,"byteLength":3900,"byteOffset":95140,"target":34963},{"buffer":0,"byteLength":776,"byteOffset":99040,"target":34962},{"buffer":0,"byteLength":1164,"byteOffset":99816,"target":34962},{"buffer":0,"byteLength":1164,"byteOffset":100980,"target":34962},{"buffer":0,"byteLength":776,"byteOffset":102144,"target":34962},{"buffer":0,"byteLength":540,"byteOffset":102920,"target":34963},{"buffer":0,"byteLength":192,"byteOffset":103460,"target":34962},{"buffer":0,"byteLength":288,"byteOffset":103652,"target":34962},{"buffer":0,"byteLength":288,"byteOffset":103940,"target":34962},{"buffer":0,"byteLength":192,"byteOffset":104228,"target":34962},{"buffer":0,"byteLength":120,"byteOffset":104420,"target":34963},{"buffer":0,"byteLength":208,"byteOffset":104540,"target":34962},{"buffer":0,"byteLength":312,"byteOffset":104748,"target":34962},{"buffer":0,"byteLength":312,"byteOffset":105060,"target":34962},{"buffer":0,"byteLength":208,"byteOffset":105372,"target":34962},{"buffer":0,"byteLength":144,"byteOffset":105580,"target":34963},{"buffer":0,"byteLength":576,"byteOffset":105724,"target":34962},{"buffer":0,"byteLength":864,"byteOffset":106300,"target":34962},{"buffer":0,"byteLength":864,"byteOffset":107164,"target":34962},{"buffer":0,"byteLength":576,"byteOffset":108028,"target":34962},{"buffer":0,"byteLength":408,"byteOffset":108604,"target":34963},{"buffer":0,"byteLength":2028,"byteOffset":109012,"target":34963},{"buffer":0,"byteLength":2028,"byteOffset":111040,"target":34963},{"buffer":0,"byteLength":2280,"byteOffset":113068,"target":34962},{"buffer":0,"byteLength":3420,"byteOffset":115348,"target":34962},{"buffer":0,"byteLength":3420,"byteOffset":118768,"target":34962},{"buffer":0,"byteLength":2280,"byteOffset":122188,"target":34962},{"buffer":0,"byteLength":432,"byteOffset":124468,"target":34962},{"buffer":0,"byteLength":648,"byteOffset":124900,"target":34962},{"buffer":0,"byteLength":648,"byteOffset":125548,"target":34962},{"buffer":0,"byteLength":432,"byteOffset":126196,"target":34962},{"buffer":0,"byteLength":240,"byteOffset":126628,"target":34963},{"buffer":0,"byteLength":2280,"byteOffset":126868,"target":34962},{"buffer":0,"byteLength":3420,"byteOffset":129148,"target":34962},{"buffer":0,"byteLength":3420,"byteOffset":132568,"target":34962},{"buffer":0,"byteLength":2280,"byteOffset":135988,"target":34962},{"buffer":0,"byteLength":432,"byteOffset":138268,"target":34962},{"buffer":0,"byteLength":648,"byteOffset":138700,"target":34962},{"buffer":0,"byteLength":648,"byteOffset":139348,"target":34962},{"buffer":0,"byteLength":432,"byteOffset":139996,"target":34962},{"buffer":0,"byteLength":2280,"byteOffset":140428,"target":34962},{"buffer":0,"byteLength":3420,"byteOffset":142708,"target":34962},{"buffer":0,"byteLength":3420,"byteOffset":146128,"target":34962},{"buffer":0,"byteLength":2280,"byteOffset":149548,"target":34962},{"buffer":0,"byteLength":432,"byteOffset":151828,"target":34962},{"buffer":0,"byteLength":648,"byteOffset":152260,"target":34962},{"buffer":0,"byteLength":648,"byteOffset":152908,"target":34962},{"buffer":0,"byteLength":432,"byteOffset":153556,"target":34962},{"buffer":0,"byteLength":2280,"byteOffset":153988,"target":34962},{"buffer":0,"byteLength":3420,"byteOffset":156268,"target":34962},{"buffer":0,"byteLength":3420,"byteOffset":159688,"target":34962},{"buffer":0,"byteLength":2280,"byteOffset":163108,"target":34962},{"buffer":0,"byteLength":432,"byteOffset":165388,"target":34962},{"buffer":0,"byteLength":648,"byteOffset":165820,"target":34962},{"buffer":0,"byteLength":648,"byteOffset":166468,"target":34962},{"buffer":0,"byteLength":432,"byteOffset":167116,"target":34962},{"buffer":0,"byteLength":3656,"byteOffset":167548,"target":34962},{"buffer":0,"byteLength":5484,"byteOffset":171204,"target":34962},{"buffer":0,"byteLength":5484,"byteOffset":176688,"target":34962},{"buffer":0,"byteLength":3656,"byteOffset":182172,"target":34962},{"buffer":0,"byteLength":2496,"byteOffset":185828,"target":34963},{"buffer":0,"byteLength":7248,"byteOffset":188324,"target":34962},{"buffer":0,"byteLength":10872,"byteOffset":195572,"target":34962},{"buffer":0,"byteLength":10872,"byteOffset":206444,"target":34962},{"buffer":0,"byteLength":7248,"byteOffset":217316,"target":34962},{"buffer":0,"byteLength":5772,"byteOffset":224564,"target":34963},{"buffer":0,"byteLength":560,"byteOffset":230336,"target":34962},{"buffer":0,"byteLength":840,"byteOffset":230896,"target":34962},{"buffer":0,"byteLength":840,"byteOffset":231736,"target":34962},{"buffer":0,"byteLength":560,"byteOffset":232576,"target":34962},{"buffer":0,"byteLength":348,"byteOffset":233136,"target":34963},{"buffer":0,"byteLength":192,"byteOffset":233484,"target":34962},{"buffer":0,"byteLength":288,"byteOffset":233676,"target":34962},{"buffer":0,"byteLength":288,"byteOffset":233964,"target":34962},{"buffer":0,"byteLength":192,"byteOffset":234252,"target":34962},{"buffer":0,"byteLength":120,"byteOffset":234444,"target":34963},{"buffer":0,"byteLength":320,"byteOffset":234564,"target":34962},{"buffer":0,"byteLength":480,"byteOffset":234884,"target":34962},{"buffer":0,"byteLength":480,"byteOffset":235364,"target":34962},{"buffer":0,"byteLength":320,"byteOffset":235844,"target":34962},{"buffer":0,"byteLength":120,"byteOffset":236164,"target":34963},{"buffer":0,"byteLength":264,"byteOffset":236284,"target":34962},{"buffer":0,"byteLength":396,"byteOffset":236548,"target":34962},{"buffer":0,"byteLength":396,"byteOffset":236944,"target":34962},{"buffer":0,"byteLength":264,"byteOffset":237340,"target":34962},{"buffer":0,"byteLength":216,"byteOffset":237604,"target":34963},{"buffer":0,"byteLength":33504,"byteOffset":237820,"target":34962},{"buffer":0,"byteLength":33504,"byteOffset":271324,"target":34962},{"buffer":0,"byteLength":22336,"byteOffset":304828,"target":34962},{"buffer":0,"byteLength":24612,"byteOffset":327164,"target":34963},{"buffer":0,"byteLength":2688,"byteOffset":351776,"target":34962},{"buffer":0,"byteLength":2688,"byteOffset":354464,"target":34962},{"buffer":0,"byteLength":1792,"byteOffset":357152,"target":34962},{"buffer":0,"byteLength":2304,"byteOffset":358944,"target":34963},{"buffer":0,"byteLength":144,"byteOffset":361248,"target":34963},{"buffer":0,"byteLength":12,"byteOffset":361392,"target":34963},{"buffer":0,"byteLength":576,"byteOffset":361404,"target":34962},{"buffer":0,"byteLength":576,"byteOffset":361980,"target":34962},{"buffer":0,"byteLength":384,"byteOffset":362556,"target":34962},{"buffer":0,"byteLength":48,"byteOffset":362940,"target":34962},{"buffer":0,"byteLength":48,"byteOffset":362988,"target":34962},{"buffer":0,"byteLength":32,"byteOffset":363036,"target":34962},{"buffer":0,"byteLength":2232,"byteOffset":363068,"target":34962},{"buffer":0,"byteLength":2232,"byteOffset":365300,"target":34962},{"buffer":0,"byteLength":1488,"byteOffset":367532,"target":34962},{"buffer":0,"byteLength":948,"byteOffset":369020,"target":34963},{"buffer":0,"byteLength":48,"byteOffset":369968,"target":34962},{"buffer":0,"byteLength":48,"byteOffset":370016,"target":34962},{"buffer":0,"byteLength":32,"byteOffset":370064,"target":34962},{"buffer":0,"byteLength":12,"byteOffset":370096,"target":34963},{"buffer":0,"byteLength":144,"byteOffset":370108,"target":34963},{"buffer":0,"byteLength":576,"byteOffset":370252,"target":34962},{"buffer":0,"byteLength":576,"byteOffset":370828,"target":34962},{"buffer":0,"byteLength":384,"byteOffset":371404,"target":34962},{"buffer":0,"byteLength":48,"byteOffset":371788,"target":34962},{"buffer":0,"byteLength":48,"byteOffset":371836,"target":34962},{"buffer":0,"byteLength":32,"byteOffset":371884,"target":34962},{"buffer":0,"byteLength":12,"byteOffset":371916,"target":34963},{"buffer":0,"byteLength":984,"byteOffset":371928,"target":34962},{"buffer":0,"byteLength":984,"byteOffset":372912,"target":34962},{"buffer":0,"byteLength":656,"byteOffset":373896,"target":34962},{"buffer":0,"byteLength":252,"byteOffset":374552,"target":34963},{"buffer":0,"byteLength":96,"byteOffset":374804,"target":34962},{"buffer":0,"byteLength":96,"byteOffset":374900,"target":34962},{"buffer":0,"byteLength":64,"byteOffset":374996,"target":34962},{"buffer":0,"byteLength":36,"byteOffset":375060,"target":34963},{"buffer":0,"byteLength":48,"byteOffset":375096,"target":34962},{"buffer":0,"byteLength":48,"byteOffset":375144,"target":34962},{"buffer":0,"byteLength":32,"byteOffset":375192,"target":34962},{"buffer":0,"byteLength":96,"byteOffset":375224,"target":34962},{"buffer":0,"byteLength":96,"byteOffset":375320,"target":34962},{"buffer":0,"byteLength":64,"byteOffset":375416,"target":34962},{"buffer":0,"byteLength":24,"byteOffset":375480,"target":34963},{"buffer":0,"byteLength":1920,"byteOffset":375504,"target":34962},{"buffer":0,"byteLength":1920,"byteOffset":377424,"target":34962},{"buffer":0,"byteLength":1280,"byteOffset":379344,"target":34962},{"buffer":0,"byteLength":552,"byteOffset":380624,"target":34963},{"buffer":0,"byteLength":120,"byteOffset":381176,"target":34962},{"buffer":0,"byteLength":120,"byteOffset":381296,"target":34962},{"buffer":0,"byteLength":80,"byteOffset":381416,"target":34962},{"buffer":0,"byteLength":48,"byteOffset":381496,"target":34963},{"buffer":0,"byteLength":72,"byteOffset":381544,"target":34962},{"buffer":0,"byteLength":72,"byteOffset":381616,"target":34962},{"buffer":0,"byteLength":48,"byteOffset":381688,"target":34962},{"buffer":0,"byteLength":24,"byteOffset":381736,"target":34963},{"buffer":0,"byteLength":96,"byteOffset":381760,"target":34962},{"buffer":0,"byteLength":96,"byteOffset":381856,"target":34962},{"buffer":0,"byteLength":64,"byteOffset":381952,"target":34962},{"buffer":0,"byteLength":36,"byteOffset":382016,"target":34963},{"buffer":0,"byteLength":48,"byteOffset":382052,"target":34962},{"buffer":0,"byteLength":48,"byteOffset":382100,"target":34962},{"buffer":0,"byteLength":32,"byteOffset":382148,"target":34962},{"buffer":0,"byteLength":12,"byteOffset":382180,"target":34963},{"buffer":0,"byteLength":480,"byteOffset":382192,"target":34962},{"buffer":0,"byteLength":480,"byteOffset":382672,"target":34962},{"buffer":0,"byteLength":320,"byteOffset":383152,"target":34962},{"buffer":0,"byteLength":120,"byteOffset":383472,"target":34963},{"buffer":0,"byteLength":48,"byteOffset":383592,"target":34962},{"buffer":0,"byteLength":48,"byteOffset":383640,"target":34962},{"buffer":0,"byteLength":32,"byteOffset":383688,"target":34962},{"buffer":0,"byteLength":12,"byteOffset":383720,"target":34963},{"buffer":0,"byteLength":48,"byteOffset":383732,"target":34962},{"buffer":0,"byteLength":48,"byteOffset":383780,"target":34962},{"buffer":0,"byteLength":32,"byteOffset":383828,"target":34962},{"buffer":0,"byteLength":12,"byteOffset":383860,"target":34963},{"buffer":0,"byteLength":48,"byteOffset":383872,"target":34962},{"buffer":0,"byteLength":48,"byteOffset":383920,"target":34962},{"buffer":0,"byteLength":32,"byteOffset":383968,"target":34962},{"buffer":0,"byteLength":1272,"byteOffset":384000,"target":34962},{"buffer":0,"byteLength":1272,"byteOffset":385272,"target":34962},{"buffer":0,"byteLength":848,"byteOffset":386544,"target":34962},{"buffer":0,"byteLength":672,"byteOffset":387392,"target":34963},{"buffer":0,"byteLength":120,"byteOffset":388064,"target":34962},{"buffer":0,"byteLength":120,"byteOffset":388184,"target":34962},{"buffer":0,"byteLength":80,"byteOffset":388304,"target":34962},{"buffer":0,"byteLength":48,"byteOffset":388384,"target":34963},{"buffer":0,"byteLength":264,"byteOffset":388432,"target":34963},{"buffer":0,"byteLength":912,"byteOffset":388696,"target":34962},{"buffer":0,"byteLength":912,"byteOffset":389608,"target":34962},{"buffer":0,"byteLength":608,"byteOffset":390520,"target":34962}],"buffers":[{"uri":"north-east.bin","byteLength":391128}]}