{"asset":{"version":"2.0","generator":"Jarvis Cartoon City sectorizer v1"},"extensionsUsed":["KHR_materials_specular","KHR_materials_ior","KHR_materials_emissive_strength"],"scenes":[{"name":"Cartoon City Free — north-center","nodes":[0,5,10,11,12,13,14,15,16,17,18,19,20,21,22,23,24,25,26,27,28,29,30,31,32,33,34,35,36]}],"scene":0,"nodes":[{"mesh":4,"name":"Van.001","translation":[2.8014144897460938,-0.09999964386224747,48.36382293701172],"children":[1,2,3,4]},{"mesh":0,"name":"Van_Wheel_Front_Left.001","translation":[0.9229507446289062,0.39999985694885254,1.4014663696289062]},{"mesh":1,"name":"Van_Wheel_Front_Right.001","translation":[-0.9227523803710938,0.39999985694885254,1.4014663696289062]},{"mesh":2,"name":"Van_Wheel_Rear_Left.001","translation":[0.9229507446289062,0.39999985694885254,-1.4014739990234375]},{"mesh":3,"name":"Van_Wheel_Rear_Right.001","translation":[-0.9227523803710938,0.39999985694885254,-1.4014739990234375]},{"mesh":4,"name":"Van.005","rotation":[0,0.7071067094802856,0,0.7071068286895752],"translation":[-14.189752578735352,-0.09999964386224747,69.25492095947266],"children":[6,7,8,9]},{"mesh":0,"name":"Van_Wheel_Front_Left.005","translation":[0.922887921333313,0.39999985694885254,1.4014759063720703]},{"mesh":1,"name":"Van_Wheel_Front_Right.005","translation":[-0.922815203666687,0.39999985694885254,1.4014685153961182]},{"mesh":2,"name":"Van_Wheel_Rear_Left.005","translation":[0.9228875637054443,0.39999985694885254,-1.4014644622802734]},{"mesh":3,"name":"Van_Wheel_Rear_Right.005","translation":[-0.9228155612945557,0.39999985694885254,-1.4014718532562256]},{"mesh":6,"name":"road_020.084","rotation":[0,1,0,1.6292068494294654e-7],"translation":[7.5,0,37.5]},{"mesh":5,"name":"road_009.014","rotation":[0,0.7071066498756409,0,0.70710688829422],"translation":[-7.5,0,67.5]},{"mesh":7,"name":"road_019.005","rotation":[0,-0.7071066498756409,0,0.70710688829422],"translation":[7.5,0,67.5]},{"mesh":6,"name":"road_020.002","translation":[7.5,0,52.5]},{"mesh":8,"name":"Set_B_Tiles_04.031","rotation":[0,1,0,1.6292068494294654e-7],"translation":[-7.5,0,52.5]},{"mesh":9,"name":"Set_B_Tiles_06.002","translation":[-7.5,0,37.5]},{"mesh":12,"name":"Spotlight_01.094","rotation":[0,0.7071077823638916,0,0.7071058750152588],"translation":[0.54754638671875,0,43.06230163574219]},{"mesh":13,"name":"Trash_02.040","rotation":[0,-0.7071060538291931,0,0.7071074843406677],"translation":[-7.565460205078125,0,40.20832061767578]},{"mesh":14,"name":"Trash_03.040","rotation":[0,-0.7071060538291931,0,0.7071074843406677],"translation":[-7.565460205078125,0,40.93854522705078]},{"mesh":15,"name":"Trash_04.040","rotation":[0,-0.7071060538291931,0,0.7071074843406677],"translation":[-7.565460205078125,0,41.63581085205078]},{"mesh":16,"name":"Trash_05.040","rotation":[0,-0.7071060538291931,0,0.7071074843406677],"translation":[-7.565460205078125,0,42.31256866455078]},{"mesh":10,"name":"traffic_light_002.174","rotation":[0,1,0,1.6292068494294654e-7],"translation":[0.484710693359375,0,55.43244934082031]},{"mesh":10,"name":"traffic_light_002.304","rotation":[0,-0.7071060538291931,0,0.7071074843406677],"translation":[-4.917755126953125,0,72.00117492675781]},{"mesh":10,"name":"traffic_light_002.306","rotation":[0,0.7071071863174438,0,0.7071064710617065],"translation":[19.77728271484375,0,63.24482727050781]},{"mesh":11,"name":"traffic_light_001.070","rotation":[0,1,0,1.6292068494294654e-7],"translation":[14.993133544921875,0,71.74299621582031]},{"mesh":12,"name":"Spotlight_01.101","rotation":[0,-1,0,0.00008209148654714227],"translation":[2.51141357421875,0,72.24391174316406]},{"mesh":17,"name":"traffic_light_003.172","rotation":[0,-0.7071060538291931,0,0.7071074843406677],"translation":[14.31781005859375,0,55.43244934082031]},{"mesh":17,"name":"traffic_light_003.302","translation":[-4.917755126953125,0,63.30183410644531]},{"mesh":17,"name":"traffic_light_003.304","rotation":[0,-1,0,7.907536314633035e-7],"translation":[19.77728271484375,0,71.94416809082031]},{"mesh":18,"name":"Bush_10.250","rotation":[0,-0.7071058750152588,0,0.7071077823638916],"translation":[15.8916015625,0,58.280250549316406]},{"mesh":18,"name":"Bush_10.252","rotation":[0,-0.7071058750152588,0,0.7071077823638916],"translation":[15.89154052734375,0,46.946563720703125]},{"mesh":18,"name":"Bush_10.253","rotation":[0,-0.7071058750152588,0,0.7071077823638916],"translation":[15.8916015625,0,38.44573974609375]},{"mesh":18,"name":"Bush_10.254","rotation":[0,-0.7071058750152588,0,0.7071077823638916],"translation":[15.891571044921875,0,42.65771484375]},{"mesh":18,"name":"Bush_10.279","rotation":[0,0.707108199596405,0,0.7071054577827454],"translation":[-0.936126708984375,0,58.22950744628906]},{"mesh":19,"name":"Bush_07.021","translation":[-0.8388671875,0,48.198394775390625]},{"mesh":19,"name":"Bush_07.022","translation":[-0.8388671875,0,44.732276916503906]},{"mesh":21,"name":"Billboard_4x1_04.002","rotation":[0,0.7071066498756409,0,0.70710688829422],"translation":[-7.6436767578125,19.95665168762207,50.589805603027344],"children":[37]},{"mesh":20,"name":"Billboard_4x1_04_Line.002","translation":[-0.000039635251596337184,0,0]}],"meshes":[{"name":"Mesh.139","primitives":[{"attributes":{"COLOR_0":0,"POSITION":1,"NORMAL":2,"TEXCOORD_0":3},"indices":4,"material":0},{"attributes":{"COLOR_0":5,"POSITION":6,"NORMAL":7,"TEXCOORD_0":8},"indices":9,"material":1}]},{"name":"Mesh.138","primitives":[{"attributes":{"COLOR_0":10,"POSITION":11,"NORMAL":12,"TEXCOORD_0":13},"indices":4,"material":0},{"attributes":{"COLOR_0":14,"POSITION":15,"NORMAL":16,"TEXCOORD_0":17},"indices":9,"material":1}]},{"name":"Mesh.141","primitives":[{"attributes":{"COLOR_0":18,"POSITION":19,"NORMAL":20,"TEXCOORD_0":21},"indices":4,"material":0},{"attributes":{"COLOR_0":22,"POSITION":23,"NORMAL":24,"TEXCOORD_0":25},"indices":9,"material":1}]},{"name":"Mesh.140","primitives":[{"attributes":{"COLOR_0":26,"POSITION":27,"NORMAL":28,"TEXCOORD_0":29},"indices":4,"material":0},{"attributes":{"COLOR_0":30,"POSITION":31,"NORMAL":32,"TEXCOORD_0":33},"indices":9,"material":1}]},{"name":"Mesh.142","primitives":[{"attributes":{"COLOR_0":34,"POSITION":35,"NORMAL":36,"TEXCOORD_0":37},"indices":38,"material":0},{"attributes":{"COLOR_0":39,"POSITION":40,"NORMAL":41,"TEXCOORD_0":42},"indices":43,"material":1},{"attributes":{"COLOR_0":44,"POSITION":45,"NORMAL":46,"TEXCOORD_0":47},"indices":48,"material":2},{"attributes":{"COLOR_0":49,"POSITION":50,"NORMAL":51,"TEXCOORD_0":52},"indices":53,"material":3},{"attributes":{"COLOR_0":54,"POSITION":55,"NORMAL":56,"TEXCOORD_0":57},"indices":58,"material":4}]},{"name":"Cube.206","primitives":[{"attributes":{"POSITION":61,"NORMAL":62,"TEXCOORD_0":63},"indices":59,"material":0},{"attributes":{"POSITION":64,"NORMAL":65,"TEXCOORD_0":66},"indices":60,"material":6}]},{"name":"Cube.190","primitives":[{"attributes":{"POSITION":67,"NORMAL":68,"TEXCOORD_0":69},"indices":70,"material":0},{"attributes":{"POSITION":71,"NORMAL":72,"TEXCOORD_0":73},"indices":60,"material":6}]},{"name":"Cube.191","primitives":[{"attributes":{"POSITION":74,"NORMAL":75,"TEXCOORD_0":76},"indices":77,"material":0},{"attributes":{"POSITION":78,"NORMAL":79,"TEXCOORD_0":80},"indices":81,"material":6}]},{"name":"Plane.268","primitives":[{"attributes":{"POSITION":82,"NORMAL":83,"TEXCOORD_0":84},"indices":85,"material":0},{"attributes":{"POSITION":86,"NORMAL":87,"TEXCOORD_0":88},"indices":89,"material":7},{"attributes":{"POSITION":90,"NORMAL":91,"TEXCOORD_0":92},"indices":81,"material":8},{"attributes":{"POSITION":93,"NORMAL":94,"TEXCOORD_0":95},"indices":96,"material":9}]},{"name":"Plane.274","primitives":[{"attributes":{"POSITION":97,"NORMAL":98,"TEXCOORD_0":99},"indices":100,"material":0},{"attributes":{"POSITION":101,"NORMAL":102,"TEXCOORD_0":103},"indices":104,"material":7},{"attributes":{"POSITION":105,"NORMAL":106,"TEXCOORD_0":107},"indices":108,"material":8},{"attributes":{"POSITION":109,"NORMAL":110,"TEXCOORD_0":111},"indices":112,"material":9}]},{"name":"Cube.111","primitives":[{"attributes":{"POSITION":113,"NORMAL":114,"TEXCOORD_0":115},"indices":116,"material":0},{"attributes":{"POSITION":117,"NORMAL":118,"TEXCOORD_0":119},"indices":120,"material":5},{"attributes":{"POSITION":121,"NORMAL":122,"TEXCOORD_0":123},"indices":124,"material":10}]},{"name":"Cube.124","primitives":[{"attributes":{"POSITION":125,"NORMAL":126,"TEXCOORD_0":127},"indices":128,"material":0},{"attributes":{"POSITION":129,"NORMAL":130,"TEXCOORD_0":131},"indices":132,"material":5}]},{"name":"Cube.184","primitives":[{"attributes":{"POSITION":133,"NORMAL":134,"TEXCOORD_0":135},"indices":136,"material":0},{"attributes":{"POSITION":137,"NORMAL":138,"TEXCOORD_0":139},"indices":140,"material":5}]},{"name":"Plane.843","primitives":[{"attributes":{"POSITION":141,"NORMAL":142,"TEXCOORD_0":143},"indices":144,"material":0}]},{"name":"Plane.856","primitives":[{"attributes":{"POSITION":145,"NORMAL":146,"TEXCOORD_0":147},"indices":148,"material":0}]},{"name":"Plane.873","primitives":[{"attributes":{"POSITION":149,"NORMAL":150,"TEXCOORD_0":151},"indices":148,"material":0}]},{"name":"Plane.889","primitives":[{"attributes":{"POSITION":152,"NORMAL":153,"TEXCOORD_0":154},"indices":148,"material":0}]},{"name":"Cube.107","primitives":[{"attributes":{"POSITION":155,"NORMAL":156,"TEXCOORD_0":157},"indices":158,"material":0},{"attributes":{"POSITION":159,"NORMAL":160,"TEXCOORD_0":161},"indices":162,"material":5},{"attributes":{"POSITION":163,"NORMAL":164,"TEXCOORD_0":165},"indices":124,"material":10}]},{"name":"Cube.083","primitives":[{"attributes":{"POSITION":166,"NORMAL":167,"TEXCOORD_0":168},"indices":169,"material":0}]},{"name":"Cube.041","primitives":[{"attributes":{"POSITION":171,"NORMAL":172,"TEXCOORD_0":173},"indices":170,"material":0}]},{"name":"Cube.202","primitives":[{"attributes":{"POSITION":176,"NORMAL":177,"TEXCOORD_0":178},"indices":174,"material":12}]},{"name":"Cube.230","primitives":[{"attributes":{"POSITION":179,"NORMAL":180,"TEXCOORD_0":181},"indices":175,"material":0},{"attributes":{"POSITION":182,"NORMAL":183,"TEXCOORD_0":184},"indices":174,"material":11}]}],"materials":[{"doubleSided":true,"name":"Color","pbrMetallicRoughness":{"baseColorTexture":{"index":0},"metallicFactor":0,"roughnessFactor":0.699999988079071}},{"doubleSided":true,"name":"Metal","pbrMetallicRoughness":{"baseColorTexture":{"index":1},"roughnessFactor":0.3316831588745117}},{"doubleSided":true,"name":"Color_Glossy","pbrMetallicRoughness":{"baseColorTexture":{"index":2},"metallicFactor":0,"roughnessFactor":0.20000000298023224}},{"doubleSided":true,"emissiveFactor":[1,1,1],"emissiveTexture":{"index":3},"name":"Car_Taillights","pbrMetallicRoughness":{"baseColorTexture":{"index":4},"metallicFactor":0,"roughnessFactor":0.5}},{"alphaMode":"BLEND","doubleSided":true,"extensions":{"KHR_materials_specular":{"specularColorFactor":[2.371357614441398,2.371357614441398,2.371357614441398]},"KHR_materials_ior":{"ior":1.4500000476837158}},"name":"Glass","pbrMetallicRoughness":{"baseColorFactor":[1,1,1,0.5],"baseColorTexture":{"index":5},"metallicFactor":0.20000000298023224,"roughnessFactor":0.05000000074505806}},{"doubleSided":true,"emissiveFactor":[1,1,1],"emissiveTexture":{"index":6},"extensions":{"KHR_materials_emissive_strength":{"emissiveStrength":3}},"name":"Emissive","pbrMetallicRoughness":{"baseColorTexture":{"index":7},"metallicFactor":0,"roughnessFactor":0.5}},{"doubleSided":true,"emissiveFactor":[0.10000000149011612,0.10000000149011612,0.10000000149011612],"emissiveTexture":{"index":8},"extensions":{"KHR_materials_specular":{"specularColorFactor":[0.711407312601205,0.711407312601205,0.711407312601205]},"KHR_materials_ior":{"ior":1.4500000476837158}},"name":"Roads","pbrMetallicRoughness":{"baseColorTexture":{"index":9},"metallicFactor":0,"roughnessFactor":0.75}},{"doubleSided":true,"name":"Asphalt_Dark_Gray","pbrMetallicRoughness":{"baseColorFactor":[0.13853572309017181,0.13853572309017181,0.13853572309017181,1],"metallicFactor":0,"roughnessFactor":0.5}},{"doubleSided":true,"name":"Tile_1","normalTexture":{"index":10,"scale":5},"pbrMetallicRoughness":{"baseColorTexture":{"index":11},"metallicFactor":0,"metallicRoughnessTexture":{"index":12}}},{"doubleSided":true,"name":"Grass","pbrMetallicRoughness":{"baseColorFactor":[0.25015830993652344,0.44520121812820435,0.13013650476932526,1],"metallicFactor":0,"roughnessFactor":0.7598187327384949}},{"doubleSided":true,"name":"Road_Signs","pbrMetallicRoughness":{"baseColorTexture":{"index":13},"metallicFactor":0,"roughnessFactor":0.5}},{"doubleSided":true,"emissiveFactor":[1,1,1],"emissiveTexture":{"index":14},"name":"Billboard","pbrMetallicRoughness":{"baseColorTexture":{"index":15},"metallicFactor":0,"roughnessFactor":0.5}},{"alphaMode":"BLEND","doubleSided":true,"emissiveFactor":[1,1,1],"emissiveTexture":{"index":16},"name":"scrolling text","pbrMetallicRoughness":{"baseColorTexture":{"index":17},"metallicFactor":0,"roughnessFactor":0.5}}],"textures":[{"sampler":0,"source":0},{"sampler":0,"source":1},{"sampler":0,"source":0},{"sampler":0,"source":1},{"sampler":0,"source":1},{"sampler":0,"source":0},{"sampler":0,"source":1},{"sampler":0,"source":1},{"sampler":0,"source":2},{"sampler":0,"source":2},{"sampler":0,"source":3},{"sampler":0,"source":4},{"sampler":0,"source":5},{"sampler":0,"source":6},{"sampler":0,"source":7},{"sampler":0,"source":7},{"sampler":1,"source":8},{"sampler":1,"source":8}],"images":[{"uri":"shared/486c6d61063241d5.webp","mimeType":"image/webp"},{"uri":"shared/486c6d61063241d5.webp","mimeType":"image/webp"},{"uri":"shared/cd11a20db95ff60c.webp","mimeType":"image/webp"},{"uri":"shared/28470d0f5c64a9e9.png","mimeType":"image/png"},{"uri":"shared/d686ec6d73243cad.webp","mimeType":"image/webp"},{"uri":"shared/0dd4c9f67e03b0dc.png","mimeType":"image/png"},{"uri":"shared/2cccaa2f16cfd5f2.webp","mimeType":"image/webp"},{"uri":"shared/6b5f60a1524e8f02.webp","mimeType":"image/webp"},{"uri":"shared/7304cfa24ac03a1d.webp","mimeType":"image/webp"}],"samplers":[{"magFilter":9729,"minFilter":9987},{"magFilter":9728,"minFilter":9984}],"accessors":[{"bufferView":0,"componentType":5123,"count":120,"normalized":true,"type":"VEC4"},{"bufferView":1,"componentType":5126,"count":120,"max":[0.1618468463420868,0.3999999165534973,0.3999944031238556],"min":[-0.1623368263244629,-0.4000000059604645,-0.40000560879707336],"type":"VEC3"},{"bufferView":2,"componentType":5126,"count":120,"type":"VEC3"},{"bufferView":3,"componentType":5126,"count":120,"type":"VEC2"},{"bufferView":4,"componentType":5123,"count":594,"type":"SCALAR"},{"bufferView":5,"componentType":5123,"count":34,"normalized":true,"type":"VEC4"},{"bufferView":6,"componentType":5126,"count":34,"max":[0.16150975227355957,0.25954538583755493,0.2595387101173401],"min":[0.03218558430671692,-0.2595454156398773,-0.2595521807670593],"type":"VEC3"},{"bufferView":7,"componentType":5126,"count":34,"type":"VEC3"},{"bufferView":8,"componentType":5126,"count":34,"type":"VEC2"},{"bufferView":9,"componentType":5123,"count":96,"type":"SCALAR"},{"bufferView":10,"componentType":5123,"count":120,"normalized":true,"type":"VEC4"},{"bufferView":11,"componentType":5126,"count":120,"max":[0.16233696043491364,0.3999999165534973,0.40000560879707336],"min":[-0.16184698045253754,-0.4000000059604645,-0.3999944031238556],"type":"VEC3"},{"bufferView":12,"componentType":5126,"count":120,"type":"VEC3"},{"bufferView":13,"componentType":5126,"count":120,"type":"VEC2"},{"bufferView":14,"componentType":5123,"count":34,"normalized":true,"type":"VEC4"},{"bufferView":15,"componentType":5126,"count":34,"max":[-0.03218558430671692,0.25954538583755493,0.2595522999763489],"min":[-0.16150975227355957,-0.2595454156398773,-0.25953859090805054],"type":"VEC3"},{"bufferView":16,"componentType":5126,"count":34,"type":"VEC3"},{"bufferView":17,"componentType":5126,"count":34,"type":"VEC2"},{"bufferView":18,"componentType":5123,"count":120,"normalized":true,"type":"VEC4"},{"bufferView":19,"componentType":5126,"count":120,"max":[0.1618468463420868,0.3999999165534973,0.3999944031238556],"min":[-0.1623368263244629,-0.4000000059604645,-0.40000560879707336],"type":"VEC3"},{"bufferView":20,"componentType":5126,"count":120,"type":"VEC3"},{"bufferView":21,"componentType":5126,"count":120,"type":"VEC2"},{"bufferView":22,"componentType":5123,"count":34,"normalized":true,"type":"VEC4"},{"bufferView":23,"componentType":5126,"count":34,"max":[0.16150975227355957,0.25954538583755493,0.2595387101173401],"min":[0.03218558430671692,-0.2595454156398773,-0.2595521807670593],"type":"VEC3"},{"bufferView":24,"componentType":5126,"count":34,"type":"VEC3"},{"bufferView":25,"componentType":5126,"count":34,"type":"VEC2"},{"bufferView":26,"componentType":5123,"count":120,"normalized":true,"type":"VEC4"},{"bufferView":27,"componentType":5126,"count":120,"max":[0.16233696043491364,0.3999999165534973,0.40000560879707336],"min":[-0.16184698045253754,-0.4000000059604645,-0.3999944031238556],"type":"VEC3"},{"bufferView":28,"componentType":5126,"count":120,"type":"VEC3"},{"bufferView":29,"componentType":5126,"count":120,"type":"VEC2"},{"bufferView":30,"componentType":5123,"count":34,"normalized":true,"type":"VEC4"},{"bufferView":31,"componentType":5126,"count":34,"max":[-0.03218558430671692,0.25954538583755493,0.2595522999763489],"min":[-0.16150975227355957,-0.2595454156398773,-0.25953859090805054],"type":"VEC3"},{"bufferView":32,"componentType":5126,"count":34,"type":"VEC3"},{"bufferView":33,"componentType":5126,"count":34,"type":"VEC2"},{"bufferView":34,"componentType":5123,"count":1524,"normalized":true,"type":"VEC4"},{"bufferView":35,"componentType":5126,"count":1524,"max":[1.1476143598556519,2.9508824348449707,2.242865562438965],"min":[-1.1473641395568848,0.2360285520553589,-2.785670757293701],"type":"VEC3"},{"bufferView":36,"componentType":5126,"count":1524,"type":"VEC3"},{"bufferView":37,"componentType":5126,"count":1524,"type":"VEC2"},{"bufferView":38,"componentType":5123,"count":5235,"type":"SCALAR"},{"bufferView":39,"componentType":5123,"count":132,"normalized":true,"type":"VEC4"},{"bufferView":40,"componentType":5126,"count":132,"max":[0.9670319557189941,1.0786514282226562,2.2174072265625],"min":[-0.9667816758155823,0.5249274373054504,-2.762026309967041],"type":"VEC3"},{"bufferView":41,"componentType":5126,"count":132,"type":"VEC3"},{"bufferView":42,"componentType":5126,"count":132,"type":"VEC2"},{"bufferView":43,"componentType":5123,"count":372,"type":"SCALAR"},{"bufferView":44,"componentType":5123,"count":105,"normalized":true,"type":"VEC4"},{"bufferView":45,"componentType":5126,"count":105,"max":[1.0450634956359863,2.4341421127319336,1.4451169967651367],"min":[-1.0448132753372192,1.2491238117218018,-2.6542718410491943],"type":"VEC3"},{"bufferView":46,"componentType":5126,"count":105,"type":"VEC3"},{"bufferView":47,"componentType":5126,"count":105,"type":"VEC2"},{"bufferView":48,"componentType":5123,"count":261,"type":"SCALAR"},{"bufferView":49,"componentType":5123,"count":60,"normalized":true,"type":"VEC4"},{"bufferView":50,"componentType":5126,"count":60,"max":[0.9583225250244141,1.0662018060684204,-2.7283101081848145],"min":[-0.9580722451210022,0.7614828944206238,-2.8064112663269043],"type":"VEC3"},{"bufferView":51,"componentType":5126,"count":60,"type":"VEC3"},{"bufferView":52,"componentType":5126,"count":60,"type":"VEC2"},{"bufferView":53,"componentType":5123,"count":288,"type":"SCALAR"},{"bufferView":54,"componentType":5123,"count":96,"normalized":true,"type":"VEC4"},{"bufferView":55,"componentType":5126,"count":96,"max":[0.8955180644989014,0.9167686104774475,2.2615208625793457],"min":[-0.8896902799606323,0.5387100577354431,2.194962978363037],"type":"VEC3"},{"bufferView":56,"componentType":5126,"count":96,"type":"VEC3"},{"bufferView":57,"componentType":5126,"count":96,"type":"VEC2"},{"bufferView":58,"componentType":5123,"count":408,"type":"SCALAR"},{"bufferView":59,"componentType":5123,"count":72,"type":"SCALAR"},{"bufferView":60,"componentType":5123,"count":6,"type":"SCALAR"},{"bufferView":61,"componentType":5126,"count":48,"max":[7.5,0.09999997913837433,7.5],"min":[-7.5,-0.10000001639127731,-7.5],"type":"VEC3"},{"bufferView":62,"componentType":5126,"count":48,"type":"VEC3"},{"bufferView":63,"componentType":5126,"count":48,"type":"VEC2"},{"bufferView":64,"componentType":5126,"count":4,"max":[3.750000476837158,-0.10000000894069672,7.5],"min":[-3.750000476837158,-0.10000000894069672,-7.5],"type":"VEC3"},{"bufferView":65,"componentType":5126,"count":4,"type":"VEC3"},{"bufferView":66,"componentType":5126,"count":4,"type":"VEC2"},{"bufferView":67,"componentType":5126,"count":48,"max":[7.500000953674316,0.09999997913837433,7.499996662139893],"min":[-7.500000953674316,-0.10000001639127731,-7.499996662139893],"type":"VEC3"},{"bufferView":68,"componentType":5126,"count":48,"type":"VEC3"},{"bufferView":69,"componentType":5126,"count":48,"type":"VEC2"},{"bufferView":70,"componentType":5123,"count":72,"type":"SCALAR"},{"bufferView":71,"componentType":5126,"count":4,"max":[7.499879837036133,-0.10000000894069672,7.499996662139893],"min":[-7.500123977661133,-0.10000000894069672,-7.499996662139893],"type":"VEC3"},{"bufferView":72,"componentType":5126,"count":4,"type":"VEC3"},{"bufferView":73,"componentType":5126,"count":4,"type":"VEC2"},{"bufferView":74,"componentType":5126,"count":136,"max":[7.500000476837158,0.10000002384185791,7.5],"min":[-7.500001430511475,-0.10000002384185791,-7.5],"type":"VEC3"},{"bufferView":75,"componentType":5126,"count":136,"type":"VEC3"},{"bufferView":76,"componentType":5126,"count":136,"type":"VEC2"},{"bufferView":77,"componentType":5123,"count":258,"type":"SCALAR"},{"bufferView":78,"componentType":5126,"count":4,"max":[7.500000953674316,-0.10000000894069672,7.499995231628418],"min":[-7.500096321105957,-0.10000000894069672,-7.499995231628418],"type":"VEC3"},{"bufferView":79,"componentType":5126,"count":4,"type":"VEC3"},{"bufferView":80,"componentType":5126,"count":4,"type":"VEC2"},{"bufferView":81,"componentType":5123,"count":6,"type":"SCALAR"},{"bufferView":82,"componentType":5126,"count":82,"max":[-1.7728652954101562,0.10000000149011612,7.500003814697266],"min":[-7.5,-0.10000000149011612,-7.499988555908203],"type":"VEC3"},{"bufferView":83,"componentType":5126,"count":82,"type":"VEC3"},{"bufferView":84,"componentType":5126,"count":82,"type":"VEC2"},{"bufferView":85,"componentType":5123,"count":126,"type":"SCALAR"},{"bufferView":86,"componentType":5126,"count":8,"max":[-1.8790836334228516,0,7.5000104904174805],"min":[-7.5,-9.5367431640625e-7,-7.499988555908203],"type":"VEC3"},{"bufferView":87,"componentType":5126,"count":8,"type":"VEC3"},{"bufferView":88,"componentType":5126,"count":8,"type":"VEC2"},{"bufferView":89,"componentType":5123,"count":18,"type":"SCALAR"},{"bufferView":90,"componentType":5126,"count":4,"max":[7.5,0,7.500003814697266],"min":[-1.8790836334228516,-9.5367431640625e-7,-7.499988555908203],"type":"VEC3"},{"bufferView":91,"componentType":5126,"count":4,"type":"VEC3"},{"bufferView":92,"componentType":5126,"count":4,"type":"VEC2"},{"bufferView":93,"componentType":5126,"count":8,"max":[-5.606972694396973,0,7.5000104904174805],"min":[-7.5,-9.5367431640625e-7,-7.499988555908203],"type":"VEC3"},{"bufferView":94,"componentType":5126,"count":8,"type":"VEC3"},{"bufferView":95,"componentType":5126,"count":8,"type":"VEC2"},{"bufferView":96,"componentType":5123,"count":12,"type":"SCALAR"},{"bufferView":97,"componentType":5126,"count":160,"max":[7.499998569488525,0.10000000149011612,7.5],"min":[1.7770425081253052,-0.10000000149011612,1.7706679105758667],"type":"VEC3"},{"bufferView":98,"componentType":5126,"count":160,"type":"VEC3"},{"bufferView":99,"componentType":5126,"count":160,"type":"VEC2"},{"bufferView":100,"componentType":5123,"count":276,"type":"SCALAR"},{"bufferView":101,"componentType":5126,"count":10,"max":[7.499980926513672,0,7.5],"min":[1.8760571479797363,-9.5367431640625e-7,1.8711148500442505],"type":"VEC3"},{"bufferView":102,"componentType":5126,"count":10,"type":"VEC3"},{"bufferView":103,"componentType":5126,"count":10,"type":"VEC2"},{"bufferView":104,"componentType":5123,"count":24,"type":"SCALAR"},{"bufferView":105,"componentType":5126,"count":8,"max":[7.499974727630615,0,7.5],"min":[-7.500000476837158,-9.5367431640625e-7,-7.5],"type":"VEC3"},{"bufferView":106,"componentType":5126,"count":8,"type":"VEC3"},{"bufferView":107,"componentType":5126,"count":8,"type":"VEC2"},{"bufferView":108,"componentType":5123,"count":18,"type":"SCALAR"},{"bufferView":109,"componentType":5126,"count":6,"max":[7.49998140335083,0,7.5],"min":[5.603943824768066,-9.5367431640625e-7,5.599004745483398],"type":"VEC3"},{"bufferView":110,"componentType":5126,"count":6,"type":"VEC3"},{"bufferView":111,"componentType":5126,"count":6,"type":"VEC2"},{"bufferView":112,"componentType":5123,"count":12,"type":"SCALAR"},{"bufferView":113,"componentType":5126,"count":250,"max":[0.8402214050292969,5.875692367553711,0.2000018209218979],"min":[-3.8944287300109863,0,-0.534691333770752],"type":"VEC3"},{"bufferView":114,"componentType":5126,"count":250,"type":"VEC3"},{"bufferView":115,"componentType":5126,"count":250,"type":"VEC2"},{"bufferView":116,"componentType":5123,"count":690,"type":"SCALAR"},{"bufferView":117,"componentType":5126,"count":104,"max":[0.05109861120581627,5.80059814453125,0.20468004047870636],"min":[-3.8028550148010254,2.0637972354888916,-0.44432735443115234],"type":"VEC3"},{"bufferView":118,"componentType":5126,"count":104,"type":"VEC3"},{"bufferView":119,"componentType":5126,"count":104,"type":"VEC2"},{"bufferView":120,"componentType":5123,"count":234,"type":"SCALAR"},{"bufferView":121,"componentType":5126,"count":8,"max":[0.8402214050292969,3.674964427947998,0.05142209678888321],"min":[0.14022113382816315,2.9749643802642822,0.05142199248075485],"type":"VEC3"},{"bufferView":122,"componentType":5126,"count":8,"type":"VEC3"},{"bufferView":123,"componentType":5126,"count":8,"type":"VEC2"},{"bufferView":124,"componentType":5123,"count":18,"type":"SCALAR"},{"bufferView":125,"componentType":5126,"count":79,"max":[3.8942618370056152,5.875692367553711,0.20000438392162323],"min":[-0.09761166572570801,0,-0.1999952495098114],"type":"VEC3"},{"bufferView":126,"componentType":5126,"count":79,"type":"VEC3"},{"bufferView":127,"componentType":5126,"count":79,"type":"VEC2"},{"bufferView":128,"componentType":5123,"count":312,"type":"SCALAR"},{"bufferView":129,"componentType":5126,"count":24,"max":[3.8026881217956543,5.80059814453125,0.2025989294052124],"min":[3.5812008380889893,4.953180313110352,0.20259889960289001],"type":"VEC3"},{"bufferView":130,"componentType":5126,"count":24,"type":"VEC3"},{"bufferView":131,"componentType":5126,"count":24,"type":"VEC2"},{"bufferView":132,"componentType":5123,"count":54,"type":"SCALAR"},{"bufferView":133,"componentType":5126,"count":106,"max":[0.22128364443778992,8.304719924926758,3.0710415840148926],"min":[-0.2213037759065628,0,-0.11709251999855042],"type":"VEC3"},{"bufferView":134,"componentType":5126,"count":106,"type":"VEC3"},{"bufferView":135,"componentType":5126,"count":106,"type":"VEC2"},{"bufferView":136,"componentType":5123,"count":336,"type":"SCALAR"},{"bufferView":137,"componentType":5126,"count":10,"max":[0.13364164531230927,7.941127300262451,3.0237202644348145],"min":[-0.13366179168224335,7.70126485824585,2.2360119819641113],"type":"VEC3"},{"bufferView":138,"componentType":5126,"count":10,"type":"VEC3"},{"bufferView":139,"componentType":5126,"count":10,"type":"VEC2"},{"bufferView":140,"componentType":5123,"count":24,"type":"SCALAR"},{"bufferView":141,"componentType":5126,"count":112,"max":[0.2549418807029724,0.8757240176200867,0.2549418807029724],"min":[-0.2549418807029724,0,-0.2549418807029724],"type":"VEC3"},{"bufferView":142,"componentType":5126,"count":112,"type":"VEC3"},{"bufferView":143,"componentType":5126,"count":112,"type":"VEC2"},{"bufferView":144,"componentType":5123,"count":486,"type":"SCALAR"},{"bufferView":145,"componentType":5126,"count":112,"max":[0.2549418807029724,0.8757240176200867,0.2549418807029724],"min":[-0.2549418807029724,0,-0.2549418807029724],"type":"VEC3"},{"bufferView":146,"componentType":5126,"count":112,"type":"VEC3"},{"bufferView":147,"componentType":5126,"count":112,"type":"VEC2"},{"bufferView":148,"componentType":5123,"count":486,"type":"SCALAR"},{"bufferView":149,"componentType":5126,"count":112,"max":[0.2549418807029724,0.8757240176200867,0.2549418807029724],"min":[-0.2549418807029724,0,-0.2549418807029724],"type":"VEC3"},{"bufferView":150,"componentType":5126,"count":112,"type":"VEC3"},{"bufferView":151,"componentType":5126,"count":112,"type":"VEC2"},{"bufferView":152,"componentType":5126,"count":112,"max":[0.2549418807029724,0.8757240176200867,0.2549418807029724],"min":[-0.2549418807029724,0,-0.2549418807029724],"type":"VEC3"},{"bufferView":153,"componentType":5126,"count":112,"type":"VEC3"},{"bufferView":154,"componentType":5126,"count":112,"type":"VEC2"},{"bufferView":155,"componentType":5126,"count":130,"max":[0.5346779823303223,3.6833977699279785,0.09750127792358398],"min":[-0.35001420974731445,0,-0.09750032424926758],"type":"VEC3"},{"bufferView":156,"componentType":5126,"count":130,"type":"VEC3"},{"bufferView":157,"componentType":5126,"count":130,"type":"VEC2"},{"bufferView":158,"componentType":5123,"count":270,"type":"SCALAR"},{"bufferView":159,"componentType":5126,"count":32,"max":[0.44431400299072266,2.5615642070770264,0.051464855670928955],"min":[0.22252750396728516,2.0637972354888916,-0.059887468814849854],"type":"VEC3"},{"bufferView":160,"componentType":5126,"count":32,"type":"VEC3"},{"bufferView":161,"componentType":5126,"count":32,"type":"VEC2"},{"bufferView":162,"componentType":5123,"count":72,"type":"SCALAR"},{"bufferView":163,"componentType":5126,"count":8,"max":[0.34998607635498047,3.6833977699279785,0.04463052749633789],"min":[-0.35001420974731445,2.983397960662842,0.04463052749633789],"type":"VEC3"},{"bufferView":164,"componentType":5126,"count":8,"type":"VEC3"},{"bufferView":165,"componentType":5126,"count":8,"type":"VEC2"},{"bufferView":166,"componentType":5126,"count":20,"max":[0.9925661087036133,1,0.49380436539649963],"min":[-0.9925661087036133,0,-0.49380436539649963],"type":"VEC3"},{"bufferView":167,"componentType":5126,"count":20,"type":"VEC3"},{"bufferView":168,"componentType":5126,"count":20,"type":"VEC2"},{"bufferView":169,"componentType":5123,"count":90,"type":"SCALAR"},{"bufferView":170,"componentType":5123,"count":678,"type":"SCALAR"},{"bufferView":171,"componentType":5126,"count":457,"max":[0.7749559879302979,1.9806106090545654,0.8062148690223694],"min":[-0.8049391508102417,-3.166496753692627e-8,-0.8004156351089478],"type":"VEC3"},{"bufferView":172,"componentType":5126,"count":457,"type":"VEC3"},{"bufferView":173,"componentType":5126,"count":457,"type":"VEC2"},{"bufferView":174,"componentType":5123,"count":6,"type":"SCALAR"},{"bufferView":175,"componentType":5123,"count":54,"type":"SCALAR"},{"bufferView":176,"componentType":5126,"count":4,"max":[4.590828895568848,2.5213122367858887,0.7872918844223022],"min":[-4.590854644775391,0.22693733870983124,0.7872906923294067],"type":"VEC3"},{"bufferView":177,"componentType":5126,"count":4,"type":"VEC3"},{"bufferView":178,"componentType":5126,"count":4,"type":"VEC2"},{"bufferView":179,"componentType":5126,"count":28,"max":[4.810030937194824,2.7482519149780273,0.7596911787986755],"min":[-4.810057163238525,-0.0000021678442863048986,-6.462703936449543e-7],"type":"VEC3"},{"bufferView":180,"componentType":5126,"count":28,"type":"VEC3"},{"bufferView":181,"componentType":5126,"count":28,"type":"VEC2"},{"bufferView":182,"componentType":5126,"count":4,"max":[4.590828895568848,2.5213122367858887,0.7596911191940308],"min":[-4.590854644775391,0.22693733870983124,0.7596899271011353],"type":"VEC3"},{"bufferView":183,"componentType":5126,"count":4,"type":"VEC3"},{"bufferView":184,"componentType":5126,"count":4,"type":"VEC2"}],"bufferViews":[{"buffer":0,"byteLength":960,"byteOffset":0,"target":34962},{"buffer":0,"byteLength":1440,"byteOffset":960,"target":34962},{"buffer":0,"byteLength":1440,"byteOffset":2400,"target":34962},{"buffer":0,"byteLength":960,"byteOffset":3840,"target":34962},{"buffer":0,"byteLength":1188,"byteOffset":4800,"target":34963},{"buffer":0,"byteLength":272,"byteOffset":5988,"target":34962},{"buffer":0,"byteLength":408,"byteOffset":6260,"target":34962},{"buffer":0,"byteLength":408,"byteOffset":6668,"target":34962},{"buffer":0,"byteLength":272,"byteOffset":7076,"target":34962},{"buffer":0,"byteLength":192,"byteOffset":7348,"target":34963},{"buffer":0,"byteLength":960,"byteOffset":7540,"target":34962},{"buffer":0,"byteLength":1440,"byteOffset":8500,"target":34962},{"buffer":0,"byteLength":1440,"byteOffset":9940,"target":34962},{"buffer":0,"byteLength":960,"byteOffset":11380,"target":34962},{"buffer":0,"byteLength":272,"byteOffset":12340,"target":34962},{"buffer":0,"byteLength":408,"byteOffset":12612,"target":34962},{"buffer":0,"byteLength":408,"byteOffset":13020,"target":34962},{"buffer":0,"byteLength":272,"byteOffset":13428,"target":34962},{"buffer":0,"byteLength":960,"byteOffset":13700,"target":34962},{"buffer":0,"byteLength":1440,"byteOffset":14660,"target":34962},{"buffer":0,"byteLength":1440,"byteOffset":16100,"target":34962},{"buffer":0,"byteLength":960,"byteOffset":17540,"target":34962},{"buffer":0,"byteLength":272,"byteOffset":18500,"target":34962},{"buffer":0,"byteLength":408,"byteOffset":18772,"target":34962},{"buffer":0,"byteLength":408,"byteOffset":19180,"target":34962},{"buffer":0,"byteLength":272,"byteOffset":19588,"target":34962},{"buffer":0,"byteLength":960,"byteOffset":19860,"target":34962},{"buffer":0,"byteLength":1440,"byteOffset":20820,"target":34962},{"buffer":0,"byteLength":1440,"byteOffset":22260,"target":34962},{"buffer":0,"byteLength":960,"byteOffset":23700,"target":34962},{"buffer":0,"byteLength":272,"byteOffset":24660,"target":34962},{"buffer":0,"byteLength":408,"byteOffset":24932,"target":34962},{"buffer":0,"byteLength":408,"byteOffset":25340,"target":34962},{"buffer":0,"byteLength":272,"byteOffset":25748,"target":34962},{"buffer":0,"byteLength":12192,"byteOffset":26020,"target":34962},{"buffer":0,"byteLength":18288,"byteOffset":38212,"target":34962},{"buffer":0,"byteLength":18288,"byteOffset":56500,"target":34962},{"buffer":0,"byteLength":12192,"byteOffset":74788,"target":34962},{"buffer":0,"byteLength":10470,"byteOffset":86980,"target":34963},{"buffer":0,"byteLength":1056,"byteOffset":97452,"target":34962},{"buffer":0,"byteLength":1584,"byteOffset":98508,"target":34962},{"buffer":0,"byteLength":1584,"byteOffset":100092,"target":34962},{"buffer":0,"byteLength":1056,"byteOffset":101676,"target":34962},{"buffer":0,"byteLength":744,"byteOffset":102732,"target":34963},{"buffer":0,"byteLength":840,"byteOffset":103476,"target":34962},{"buffer":0,"byteLength":1260,"byteOffset":104316,"target":34962},{"buffer":0,"byteLength":1260,"byteOffset":105576,"target":34962},{"buffer":0,"byteLength":840,"byteOffset":106836,"target":34962},{"buffer":0,"byteLength":522,"byteOffset":107676,"target":34963},{"buffer":0,"byteLength":480,"byteOffset":108200,"target":34962},{"buffer":0,"byteLength":720,"byteOffset":108680,"target":34962},{"buffer":0,"byteLength":720,"byteOffset":109400,"target":34962},{"buffer":0,"byteLength":480,"byteOffset":110120,"target":34962},{"buffer":0,"byteLength":576,"byteOffset":110600,"target":34963},{"buffer":0,"byteLength":768,"byteOffset":111176,"target":34962},{"buffer":0,"byteLength":1152,"byteOffset":111944,"target":34962},{"buffer":0,"byteLength":1152,"byteOffset":113096,"target":34962},{"buffer":0,"byteLength":768,"byteOffset":114248,"target":34962},{"buffer":0,"byteLength":816,"byteOffset":115016,"target":34963},{"buffer":0,"byteLength":144,"byteOffset":115832,"target":34963},{"buffer":0,"byteLength":12,"byteOffset":115976,"target":34963},{"buffer":0,"byteLength":576,"byteOffset":115988,"target":34962},{"buffer":0,"byteLength":576,"byteOffset":116564,"target":34962},{"buffer":0,"byteLength":384,"byteOffset":117140,"target":34962},{"buffer":0,"byteLength":48,"byteOffset":117524,"target":34962},{"buffer":0,"byteLength":48,"byteOffset":117572,"target":34962},{"buffer":0,"byteLength":32,"byteOffset":117620,"target":34962},{"buffer":0,"byteLength":576,"byteOffset":117652,"target":34962},{"buffer":0,"byteLength":576,"byteOffset":118228,"target":34962},{"buffer":0,"byteLength":384,"byteOffset":118804,"target":34962},{"buffer":0,"byteLength":144,"byteOffset":119188,"target":34963},{"buffer":0,"byteLength":48,"byteOffset":119332,"target":34962},{"buffer":0,"byteLength":48,"byteOffset":119380,"target":34962},{"buffer":0,"byteLength":32,"byteOffset":119428,"target":34962},{"buffer":0,"byteLength":1632,"byteOffset":119460,"target":34962},{"buffer":0,"byteLength":1632,"byteOffset":121092,"target":34962},{"buffer":0,"byteLength":1088,"byteOffset":122724,"target":34962},{"buffer":0,"byteLength":516,"byteOffset":123812,"target":34963},{"buffer":0,"byteLength":48,"byteOffset":124328,"target":34962},{"buffer":0,"byteLength":48,"byteOffset":124376,"target":34962},{"buffer":0,"byteLength":32,"byteOffset":124424,"target":34962},{"buffer":0,"byteLength":12,"byteOffset":124456,"target":34963},{"buffer":0,"byteLength":984,"byteOffset":124468,"target":34962},{"buffer":0,"byteLength":984,"byteOffset":125452,"target":34962},{"buffer":0,"byteLength":656,"byteOffset":126436,"target":34962},{"buffer":0,"byteLength":252,"byteOffset":127092,"target":34963},{"buffer":0,"byteLength":96,"byteOffset":127344,"target":34962},{"buffer":0,"byteLength":96,"byteOffset":127440,"target":34962},{"buffer":0,"byteLength":64,"byteOffset":127536,"target":34962},{"buffer":0,"byteLength":36,"byteOffset":127600,"target":34963},{"buffer":0,"byteLength":48,"byteOffset":127636,"target":34962},{"buffer":0,"byteLength":48,"byteOffset":127684,"target":34962},{"buffer":0,"byteLength":32,"byteOffset":127732,"target":34962},{"buffer":0,"byteLength":96,"byteOffset":127764,"target":34962},{"buffer":0,"byteLength":96,"byteOffset":127860,"target":34962},{"buffer":0,"byteLength":64,"byteOffset":127956,"target":34962},{"buffer":0,"byteLength":24,"byteOffset":128020,"target":34963},{"buffer":0,"byteLength":1920,"byteOffset":128044,"target":34962},{"buffer":0,"byteLength":1920,"byteOffset":129964,"target":34962},{"buffer":0,"byteLength":1280,"byteOffset":131884,"target":34962},{"buffer":0,"byteLength":552,"byteOffset":133164,"target":34963},{"buffer":0,"byteLength":120,"byteOffset":133716,"target":34962},{"buffer":0,"byteLength":120,"byteOffset":133836,"target":34962},{"buffer":0,"byteLength":80,"byteOffset":133956,"target":34962},{"buffer":0,"byteLength":48,"byteOffset":134036,"target":34963},{"buffer":0,"byteLength":96,"byteOffset":134084,"target":34962},{"buffer":0,"byteLength":96,"byteOffset":134180,"target":34962},{"buffer":0,"byteLength":64,"byteOffset":134276,"target":34962},{"buffer":0,"byteLength":36,"byteOffset":134340,"target":34963},{"buffer":0,"byteLength":72,"byteOffset":134376,"target":34962},{"buffer":0,"byteLength":72,"byteOffset":134448,"target":34962},{"buffer":0,"byteLength":48,"byteOffset":134520,"target":34962},{"buffer":0,"byteLength":24,"byteOffset":134568,"target":34963},{"buffer":0,"byteLength":3000,"byteOffset":134592,"target":34962},{"buffer":0,"byteLength":3000,"byteOffset":137592,"target":34962},{"buffer":0,"byteLength":2000,"byteOffset":140592,"target":34962},{"buffer":0,"byteLength":1380,"byteOffset":142592,"target":34963},{"buffer":0,"byteLength":1248,"byteOffset":143972,"target":34962},{"buffer":0,"byteLength":1248,"byteOffset":145220,"target":34962},{"buffer":0,"byteLength":832,"byteOffset":146468,"target":34962},{"buffer":0,"byteLength":468,"byteOffset":147300,"target":34963},{"buffer":0,"byteLength":96,"byteOffset":147768,"target":34962},{"buffer":0,"byteLength":96,"byteOffset":147864,"target":34962},{"buffer":0,"byteLength":64,"byteOffset":147960,"target":34962},{"buffer":0,"byteLength":36,"byteOffset":148024,"target":34963},{"buffer":0,"byteLength":948,"byteOffset":148060,"target":34962},{"buffer":0,"byteLength":948,"byteOffset":149008,"target":34962},{"buffer":0,"byteLength":632,"byteOffset":149956,"target":34962},{"buffer":0,"byteLength":624,"byteOffset":150588,"target":34963},{"buffer":0,"byteLength":288,"byteOffset":151212,"target":34962},{"buffer":0,"byteLength":288,"byteOffset":151500,"target":34962},{"buffer":0,"byteLength":192,"byteOffset":151788,"target":34962},{"buffer":0,"byteLength":108,"byteOffset":151980,"target":34963},{"buffer":0,"byteLength":1272,"byteOffset":152088,"target":34962},{"buffer":0,"byteLength":1272,"byteOffset":153360,"target":34962},{"buffer":0,"byteLength":848,"byteOffset":154632,"target":34962},{"buffer":0,"byteLength":672,"byteOffset":155480,"target":34963},{"buffer":0,"byteLength":120,"byteOffset":156152,"target":34962},{"buffer":0,"byteLength":120,"byteOffset":156272,"target":34962},{"buffer":0,"byteLength":80,"byteOffset":156392,"target":34962},{"buffer":0,"byteLength":48,"byteOffset":156472,"target":34963},{"buffer":0,"byteLength":1344,"byteOffset":156520,"target":34962},{"buffer":0,"byteLength":1344,"byteOffset":157864,"target":34962},{"buffer":0,"byteLength":896,"byteOffset":159208,"target":34962},{"buffer":0,"byteLength":972,"byteOffset":160104,"target":34963},{"buffer":0,"byteLength":1344,"byteOffset":161076,"target":34962},{"buffer":0,"byteLength":1344,"byteOffset":162420,"target":34962},{"buffer":0,"byteLength":896,"byteOffset":163764,"target":34962},{"buffer":0,"byteLength":972,"byteOffset":164660,"target":34963},{"buffer":0,"byteLength":1344,"byteOffset":165632,"target":34962},{"buffer":0,"byteLength":1344,"byteOffset":166976,"target":34962},{"buffer":0,"byteLength":896,"byteOffset":168320,"target":34962},{"buffer":0,"byteLength":1344,"byteOffset":169216,"target":34962},{"buffer":0,"byteLength":1344,"byteOffset":170560,"target":34962},{"buffer":0,"byteLength":896,"byteOffset":171904,"target":34962},{"buffer":0,"byteLength":1560,"byteOffset":172800,"target":34962},{"buffer":0,"byteLength":1560,"byteOffset":174360,"target":34962},{"buffer":0,"byteLength":1040,"byteOffset":175920,"target":34962},{"buffer":0,"byteLength":540,"byteOffset":176960,"target":34963},{"buffer":0,"byteLength":384,"byteOffset":177500,"target":34962},{"buffer":0,"byteLength":384,"byteOffset":177884,"target":34962},{"buffer":0,"byteLength":256,"byteOffset":178268,"target":34962},{"buffer":0,"byteLength":144,"byteOffset":178524,"target":34963},{"buffer":0,"byteLength":96,"byteOffset":178668,"target":34962},{"buffer":0,"byteLength":96,"byteOffset":178764,"target":34962},{"buffer":0,"byteLength":64,"byteOffset":178860,"target":34962},{"buffer":0,"byteLength":240,"byteOffset":178924,"target":34962},{"buffer":0,"byteLength":240,"byteOffset":179164,"target":34962},{"buffer":0,"byteLength":160,"byteOffset":179404,"target":34962},{"buffer":0,"byteLength":180,"byteOffset":179564,"target":34963},{"buffer":0,"byteLength":1356,"byteOffset":179744,"target":34963},{"buffer":0,"byteLength":5484,"byteOffset":181100,"target":34962},{"buffer":0,"byteLength":5484,"byteOffset":186584,"target":34962},{"buffer":0,"byteLength":3656,"byteOffset":192068,"target":34962},{"buffer":0,"byteLength":12,"byteOffset":195724,"target":34963},{"buffer":0,"byteLength":108,"byteOffset":195736,"target":34963},{"buffer":0,"byteLength":48,"byteOffset":195844,"target":34962},{"buffer":0,"byteLength":48,"byteOffset":195892,"target":34962},{"buffer":0,"byteLength":32,"byteOffset":195940,"target":34962},{"buffer":0,"byteLength":336,"byteOffset":195972,"target":34962},{"buffer":0,"byteLength":336,"byteOffset":196308,"target":34962},{"buffer":0,"byteLength":224,"byteOffset":196644,"target":34962},{"buffer":0,"byteLength":48,"byteOffset":196868,"target":34962},{"buffer":0,"byteLength":48,"byteOffset":196916,"target":34962},{"buffer":0,"byteLength":32,"byteOffset":196964,"target":34962}],"buffers":[{"uri":"north-center.bin","byteLength":196996}]}