{"asset":{"version":"2.0","generator":"Jarvis Cartoon City sectorizer v1"},"extensionsUsed":["KHR_materials_specular","KHR_materials_ior","KHR_materials_emissive_strength"],"scenes":[{"name":"Cartoon City Free — south-east","nodes":[0,1,2,3,4,5,6,7,8,9]}],"scene":0,"nodes":[{"mesh":0,"name":"Eco_Building_Terrace.008","rotation":[0,-1,0,1.9470718370939721e-7],"translation":[33.42279052734375,0,-40.319366455078125]},{"mesh":1,"name":"road_009.246","translation":[52.5,0,-52.5]},{"mesh":2,"name":"road_013.019","rotation":[0,0.7071066498756409,0,0.70710688829422],"translation":[52.5,0,-67.5]},{"mesh":1,"name":"road_009.248","rotation":[0,0.7071066498756409,0,0.70710688829422],"translation":[37.5,0,-67.5]},{"mesh":3,"name":"road_022.107","rotation":[0,-0.7071070671081543,0,0.7071065902709961],"translation":[22.5,0,-67.5]},{"mesh":4,"name":"Set_B_Tiles_09.151","translation":[37.5,0,-52.5]},{"mesh":5,"name":"Set_B_Tiles_05.114","translation":[22.5,0,-52.5]},{"mesh":6,"name":"Spotlight_01.108","translation":[30.54705810546875,0,-73.50202941894531]},{"mesh":6,"name":"Spotlight_01.109","rotation":[0,-0.707105278968811,0,0.7071083784103394],"translation":[58.40911865234375,0,-53.79331970214844]},{"mesh":7,"name":"Trash_Can_04.041","rotation":[0,0.7457494139671326,0,0.6662265658378601],"translation":[23.707427978515625,0,-43.87886047363281]}],"meshes":[{"name":"Cube.018","primitives":[{"attributes":{"POSITION":0,"NORMAL":1,"TEXCOORD_0":2},"indices":3,"material":0},{"attributes":{"POSITION":4,"NORMAL":5,"TEXCOORD_0":6},"indices":7,"material":1}]},{"name":"Cube.206","primitives":[{"attributes":{"POSITION":10,"NORMAL":11,"TEXCOORD_0":12},"indices":8,"material":0},{"attributes":{"POSITION":13,"NORMAL":14,"TEXCOORD_0":15},"indices":9,"material":3}]},{"name":"Plane.079","primitives":[{"attributes":{"POSITION":16,"NORMAL":17,"TEXCOORD_0":18},"indices":19,"material":0},{"attributes":{"POSITION":20,"NORMAL":21,"TEXCOORD_0":22},"indices":23,"material":3}]},{"name":"Cube.188","primitives":[{"attributes":{"POSITION":25,"NORMAL":26,"TEXCOORD_0":27},"indices":24,"material":0},{"attributes":{"POSITION":28,"NORMAL":29,"TEXCOORD_0":30},"indices":9,"material":3}]},{"name":"Plane.276","primitives":[{"attributes":{"POSITION":32,"NORMAL":33,"TEXCOORD_0":34},"indices":35,"material":5}]},{"name":"Plane.271","primitives":[{"attributes":{"POSITION":36,"NORMAL":37,"TEXCOORD_0":38},"indices":39,"material":0},{"attributes":{"POSITION":40,"NORMAL":41,"TEXCOORD_0":42},"indices":43,"material":4},{"attributes":{"POSITION":44,"NORMAL":45,"TEXCOORD_0":46},"indices":47,"material":5},{"attributes":{"POSITION":48,"NORMAL":49,"TEXCOORD_0":50},"indices":31,"material":6}]},{"name":"Cube.184","primitives":[{"attributes":{"POSITION":51,"NORMAL":52,"TEXCOORD_0":53},"indices":54,"material":0},{"attributes":{"POSITION":55,"NORMAL":56,"TEXCOORD_0":57},"indices":58,"material":2}]},{"name":"Cube.068","primitives":[{"attributes":{"POSITION":60,"NORMAL":61,"TEXCOORD_0":62},"indices":59,"material":0}]}],"materials":[{"doubleSided":true,"name":"Color","pbrMetallicRoughness":{"baseColorTexture":{"index":0},"metallicFactor":0,"roughnessFactor":0.699999988079071}},{"alphaMode":"BLEND","doubleSided":true,"extensions":{"KHR_materials_specular":{"specularColorFactor":[2.371357614441398,2.371357614441398,2.371357614441398]},"KHR_materials_ior":{"ior":1.4500000476837158}},"name":"Glass","pbrMetallicRoughness":{"baseColorFactor":[1,1,1,0.5],"baseColorTexture":{"index":1},"metallicFactor":0.20000000298023224,"roughnessFactor":0.05000000074505806}},{"doubleSided":true,"emissiveFactor":[1,1,1],"emissiveTexture":{"index":2},"extensions":{"KHR_materials_emissive_strength":{"emissiveStrength":3}},"name":"Emissive","pbrMetallicRoughness":{"baseColorTexture":{"index":3},"metallicFactor":0,"roughnessFactor":0.5}},{"doubleSided":true,"emissiveFactor":[0.10000000149011612,0.10000000149011612,0.10000000149011612],"emissiveTexture":{"index":4},"extensions":{"KHR_materials_specular":{"specularColorFactor":[0.711407312601205,0.711407312601205,0.711407312601205]},"KHR_materials_ior":{"ior":1.4500000476837158}},"name":"Roads","pbrMetallicRoughness":{"baseColorTexture":{"index":5},"metallicFactor":0,"roughnessFactor":0.75}},{"doubleSided":true,"name":"Asphalt_Dark_Gray","pbrMetallicRoughness":{"baseColorFactor":[0.13853572309017181,0.13853572309017181,0.13853572309017181,1],"metallicFactor":0,"roughnessFactor":0.5}},{"doubleSided":true,"name":"Tile_1","normalTexture":{"index":6,"scale":5},"pbrMetallicRoughness":{"baseColorTexture":{"index":7},"metallicFactor":0,"metallicRoughnessTexture":{"index":8}}},{"doubleSided":true,"name":"Grass","pbrMetallicRoughness":{"baseColorFactor":[0.25015830993652344,0.44520121812820435,0.13013650476932526,1],"metallicFactor":0,"roughnessFactor":0.7598187327384949}}],"textures":[{"sampler":0,"source":0},{"sampler":0,"source":0},{"sampler":0,"source":1},{"sampler":0,"source":1},{"sampler":0,"source":2},{"sampler":0,"source":2},{"sampler":0,"source":3},{"sampler":0,"source":4},{"sampler":0,"source":5}],"images":[{"uri":"shared/486c6d61063241d5.webp","mimeType":"image/webp"},{"uri":"shared/486c6d61063241d5.webp","mimeType":"image/webp"},{"uri":"shared/cd11a20db95ff60c.webp","mimeType":"image/webp"},{"uri":"shared/28470d0f5c64a9e9.png","mimeType":"image/png"},{"uri":"shared/d686ec6d73243cad.webp","mimeType":"image/webp"},{"uri":"shared/0dd4c9f67e03b0dc.png","mimeType":"image/png"}],"samplers":[{"magFilter":9729,"minFilter":9987}],"accessors":[{"bufferView":0,"componentType":5126,"count":3699,"max":[9.543460845947266,24.41156578063965,22.701290130615234],"min":[-9.544054985046387,0,-15.503744125366211],"type":"VEC3"},{"bufferView":1,"componentType":5126,"count":3699,"type":"VEC3"},{"bufferView":2,"componentType":5126,"count":3699,"type":"VEC2"},{"bufferView":3,"componentType":5123,"count":13884,"type":"SCALAR"},{"bufferView":4,"componentType":5126,"count":324,"max":[8.423206329345703,15.75301742553711,20.707826614379883],"min":[-8.425782203674316,4.858661651611328,-5.130716323852539],"type":"VEC3"},{"bufferView":5,"componentType":5126,"count":324,"type":"VEC3"},{"bufferView":6,"componentType":5126,"count":324,"type":"VEC2"},{"bufferView":7,"componentType":5123,"count":918,"type":"SCALAR"},{"bufferView":8,"componentType":5123,"count":72,"type":"SCALAR"},{"bufferView":9,"componentType":5123,"count":6,"type":"SCALAR"},{"bufferView":10,"componentType":5126,"count":48,"max":[7.5,0.09999997913837433,7.5],"min":[-7.5,-0.10000001639127731,-7.5],"type":"VEC3"},{"bufferView":11,"componentType":5126,"count":48,"type":"VEC3"},{"bufferView":12,"componentType":5126,"count":48,"type":"VEC2"},{"bufferView":13,"componentType":5126,"count":4,"max":[3.750000476837158,-0.10000000894069672,7.5],"min":[-3.750000476837158,-0.10000000894069672,-7.5],"type":"VEC3"},{"bufferView":14,"componentType":5126,"count":4,"type":"VEC3"},{"bufferView":15,"componentType":5126,"count":4,"type":"VEC2"},{"bufferView":16,"componentType":5126,"count":186,"max":[7.499999523162842,0.100006103515625,7.499999523162842],"min":[-7.499999523162842,-0.09999857097864151,-7.499999523162842],"type":"VEC3"},{"bufferView":17,"componentType":5126,"count":186,"type":"VEC3"},{"bufferView":18,"componentType":5126,"count":186,"type":"VEC2"},{"bufferView":19,"componentType":5123,"count":474,"type":"SCALAR"},{"bufferView":20,"componentType":5126,"count":4,"max":[7.500012397766113,-0.10000228881835938,7.500000953674316],"min":[-7.500101566314697,-0.10000229626893997,-7.500003337860107],"type":"VEC3"},{"bufferView":21,"componentType":5126,"count":4,"type":"VEC3"},{"bufferView":22,"componentType":5126,"count":4,"type":"VEC2"},{"bufferView":23,"componentType":5123,"count":6,"type":"SCALAR"},{"bufferView":24,"componentType":5123,"count":72,"type":"SCALAR"},{"bufferView":25,"componentType":5126,"count":48,"max":[7.500000953674316,0.09999997913837433,7.500000953674316],"min":[-7.500000953674316,-0.10000001639127731,-7.500000953674316],"type":"VEC3"},{"bufferView":26,"componentType":5126,"count":48,"type":"VEC3"},{"bufferView":27,"componentType":5126,"count":48,"type":"VEC2"},{"bufferView":28,"componentType":5126,"count":4,"max":[3.7500016689300537,-0.10000000894069672,7.500000476837158],"min":[-3.7500016689300537,-0.10000000894069672,-7.500000476837158],"type":"VEC3"},{"bufferView":29,"componentType":5126,"count":4,"type":"VEC3"},{"bufferView":30,"componentType":5126,"count":4,"type":"VEC2"},{"bufferView":31,"componentType":5123,"count":6,"type":"SCALAR"},{"bufferView":32,"componentType":5126,"count":4,"max":[7.49993896484375,0,7.5],"min":[-7.500061511993408,0,-7.5],"type":"VEC3"},{"bufferView":33,"componentType":5126,"count":4,"type":"VEC3"},{"bufferView":34,"componentType":5126,"count":4,"type":"VEC2"},{"bufferView":35,"componentType":5123,"count":6,"type":"SCALAR"},{"bufferView":36,"componentType":5126,"count":40,"max":[-1.776357650756836,0.10000000149011612,7.499995231628418],"min":[-5.706169128417969,-0.10000000149011612,-7.500004768371582],"type":"VEC3"},{"bufferView":37,"componentType":5126,"count":40,"type":"VEC3"},{"bufferView":38,"componentType":5126,"count":40,"type":"VEC2"},{"bufferView":39,"componentType":5123,"count":60,"type":"SCALAR"},{"bufferView":40,"componentType":5126,"count":4,"max":[-1.8790836334228516,-9.5367431640625e-7,7.499995231628418],"min":[-5.606972694396973,-9.5367431640625e-7,-7.500004768371582],"type":"VEC3"},{"bufferView":41,"componentType":5126,"count":4,"type":"VEC3"},{"bufferView":42,"componentType":5126,"count":4,"type":"VEC2"},{"bufferView":43,"componentType":5123,"count":6,"type":"SCALAR"},{"bufferView":44,"componentType":5126,"count":4,"max":[7.5,0,7.499995231628418],"min":[-1.8790836334228516,-9.5367431640625e-7,-7.500004768371582],"type":"VEC3"},{"bufferView":45,"componentType":5126,"count":4,"type":"VEC3"},{"bufferView":46,"componentType":5126,"count":4,"type":"VEC2"},{"bufferView":47,"componentType":5123,"count":6,"type":"SCALAR"},{"bufferView":48,"componentType":5126,"count":4,"max":[-5.606972694396973,0,7.499995231628418],"min":[-7.5,-9.5367431640625e-7,-7.500004768371582],"type":"VEC3"},{"bufferView":49,"componentType":5126,"count":4,"type":"VEC3"},{"bufferView":50,"componentType":5126,"count":4,"type":"VEC2"},{"bufferView":51,"componentType":5126,"count":106,"max":[0.22128364443778992,8.304719924926758,3.0710415840148926],"min":[-0.2213037759065628,0,-0.11709251999855042],"type":"VEC3"},{"bufferView":52,"componentType":5126,"count":106,"type":"VEC3"},{"bufferView":53,"componentType":5126,"count":106,"type":"VEC2"},{"bufferView":54,"componentType":5123,"count":336,"type":"SCALAR"},{"bufferView":55,"componentType":5126,"count":10,"max":[0.13364164531230927,7.941127300262451,3.0237202644348145],"min":[-0.13366179168224335,7.70126485824585,2.2360119819641113],"type":"VEC3"},{"bufferView":56,"componentType":5126,"count":10,"type":"VEC3"},{"bufferView":57,"componentType":5126,"count":10,"type":"VEC2"},{"bufferView":58,"componentType":5123,"count":24,"type":"SCALAR"},{"bufferView":59,"componentType":5123,"count":132,"type":"SCALAR"},{"bufferView":60,"componentType":5126,"count":76,"max":[1.0424615144729614,1.639740228652954,0.5986649990081787],"min":[-1.0424615144729614,-0.00527788233011961,-0.5966669321060181],"type":"VEC3"},{"bufferView":61,"componentType":5126,"count":76,"type":"VEC3"},{"bufferView":62,"componentType":5126,"count":76,"type":"VEC2"}],"bufferViews":[{"buffer":0,"byteLength":44388,"byteOffset":0,"target":34962},{"buffer":0,"byteLength":44388,"byteOffset":44388,"target":34962},{"buffer":0,"byteLength":29592,"byteOffset":88776,"target":34962},{"buffer":0,"byteLength":27768,"byteOffset":118368,"target":34963},{"buffer":0,"byteLength":3888,"byteOffset":146136,"target":34962},{"buffer":0,"byteLength":3888,"byteOffset":150024,"target":34962},{"buffer":0,"byteLength":2592,"byteOffset":153912,"target":34962},{"buffer":0,"byteLength":1836,"byteOffset":156504,"target":34963},{"buffer":0,"byteLength":144,"byteOffset":158340,"target":34963},{"buffer":0,"byteLength":12,"byteOffset":158484,"target":34963},{"buffer":0,"byteLength":576,"byteOffset":158496,"target":34962},{"buffer":0,"byteLength":576,"byteOffset":159072,"target":34962},{"buffer":0,"byteLength":384,"byteOffset":159648,"target":34962},{"buffer":0,"byteLength":48,"byteOffset":160032,"target":34962},{"buffer":0,"byteLength":48,"byteOffset":160080,"target":34962},{"buffer":0,"byteLength":32,"byteOffset":160128,"target":34962},{"buffer":0,"byteLength":2232,"byteOffset":160160,"target":34962},{"buffer":0,"byteLength":2232,"byteOffset":162392,"target":34962},{"buffer":0,"byteLength":1488,"byteOffset":164624,"target":34962},{"buffer":0,"byteLength":948,"byteOffset":166112,"target":34963},{"buffer":0,"byteLength":48,"byteOffset":167060,"target":34962},{"buffer":0,"byteLength":48,"byteOffset":167108,"target":34962},{"buffer":0,"byteLength":32,"byteOffset":167156,"target":34962},{"buffer":0,"byteLength":12,"byteOffset":167188,"target":34963},{"buffer":0,"byteLength":144,"byteOffset":167200,"target":34963},{"buffer":0,"byteLength":576,"byteOffset":167344,"target":34962},{"buffer":0,"byteLength":576,"byteOffset":167920,"target":34962},{"buffer":0,"byteLength":384,"byteOffset":168496,"target":34962},{"buffer":0,"byteLength":48,"byteOffset":168880,"target":34962},{"buffer":0,"byteLength":48,"byteOffset":168928,"target":34962},{"buffer":0,"byteLength":32,"byteOffset":168976,"target":34962},{"buffer":0,"byteLength":12,"byteOffset":169008,"target":34963},{"buffer":0,"byteLength":48,"byteOffset":169020,"target":34962},{"buffer":0,"byteLength":48,"byteOffset":169068,"target":34962},{"buffer":0,"byteLength":32,"byteOffset":169116,"target":34962},{"buffer":0,"byteLength":12,"byteOffset":169148,"target":34963},{"buffer":0,"byteLength":480,"byteOffset":169160,"target":34962},{"buffer":0,"byteLength":480,"byteOffset":169640,"target":34962},{"buffer":0,"byteLength":320,"byteOffset":170120,"target":34962},{"buffer":0,"byteLength":120,"byteOffset":170440,"target":34963},{"buffer":0,"byteLength":48,"byteOffset":170560,"target":34962},{"buffer":0,"byteLength":48,"byteOffset":170608,"target":34962},{"buffer":0,"byteLength":32,"byteOffset":170656,"target":34962},{"buffer":0,"byteLength":12,"byteOffset":170688,"target":34963},{"buffer":0,"byteLength":48,"byteOffset":170700,"target":34962},{"buffer":0,"byteLength":48,"byteOffset":170748,"target":34962},{"buffer":0,"byteLength":32,"byteOffset":170796,"target":34962},{"buffer":0,"byteLength":12,"byteOffset":170828,"target":34963},{"buffer":0,"byteLength":48,"byteOffset":170840,"target":34962},{"buffer":0,"byteLength":48,"byteOffset":170888,"target":34962},{"buffer":0,"byteLength":32,"byteOffset":170936,"target":34962},{"buffer":0,"byteLength":1272,"byteOffset":170968,"target":34962},{"buffer":0,"byteLength":1272,"byteOffset":172240,"target":34962},{"buffer":0,"byteLength":848,"byteOffset":173512,"target":34962},{"buffer":0,"byteLength":672,"byteOffset":174360,"target":34963},{"buffer":0,"byteLength":120,"byteOffset":175032,"target":34962},{"buffer":0,"byteLength":120,"byteOffset":175152,"target":34962},{"buffer":0,"byteLength":80,"byteOffset":175272,"target":34962},{"buffer":0,"byteLength":48,"byteOffset":175352,"target":34963},{"buffer":0,"byteLength":264,"byteOffset":175400,"target":34963},{"buffer":0,"byteLength":912,"byteOffset":175664,"target":34962},{"buffer":0,"byteLength":912,"byteOffset":176576,"target":34962},{"buffer":0,"byteLength":608,"byteOffset":177488,"target":34962}],"buffers":[{"uri":"south-east.bin","byteLength":178096}]}