{"asset":{"version":"2.0","generator":"Jarvis Cartoon City sectorizer v1"},"extensionsUsed":["KHR_materials_specular","KHR_materials_ior","KHR_materials_emissive_strength"],"scenes":[{"name":"Cartoon City Free — south-central-west","nodes":[0,1,2,3,4,5,6,7,8,9,10,11,12,13,14,15]}],"scene":0,"nodes":[{"mesh":0,"name":"Eco_Building_Slope.005","rotation":[0,0.7071066498756409,0,0.70710688829422],"translation":[-28.739013671875,0,-37.09410095214844]},{"mesh":1,"name":"road_009.235","translation":[-52.5,0,-7.5]},{"mesh":1,"name":"road_009.236","translation":[-52.5,0,-22.5]},{"mesh":1,"name":"road_009.237","translation":[-52.5,0,-37.5]},{"mesh":2,"name":"Set_B_Tiles_09.016","translation":[-22.5,0,-37.5]},{"mesh":2,"name":"Set_B_Tiles_09.023","translation":[-37.5,0,-37.5]},{"mesh":3,"name":"Set_B_Tiles_05.013","rotation":[0,-0.7071066498756409,0,0.70710688829422],"translation":[-37.5,0,-7.5]},{"mesh":3,"name":"Set_B_Tiles_05.015","rotation":[0,0.7071066498756409,0,0.70710688829422],"translation":[-37.5,0,-22.5]},{"mesh":4,"name":"Set_B_Tiles_06.008","rotation":[0,1,0,7.549790126404332e-8],"translation":[-22.5,0,-7.5]},{"mesh":4,"name":"Set_B_Tiles_06.009","rotation":[0,-0.7071066498756409,0,0.70710688829422],"translation":[-22.5,0,-22.5]},{"mesh":5,"name":"Spotlight_01.104","rotation":[0,-0.7071059346199036,0,0.7071076035499573],"translation":[-46.798828125,0,-17.370803833007812]},{"mesh":6,"name":"Trash_06.056","rotation":[0,0.7071142792701721,0,0.7070993781089783],"translation":[-58.261322021484375,0,-32.382537841796875]},{"mesh":7,"name":"Palm_03.067","translation":[-30.76373291015625,0.15000015497207642,-15.110076904296875]},{"mesh":8,"name":"Bush_10.207","translation":[-34.447998046875,0,-15.029769897460938]},{"mesh":8,"name":"Bush_10.208","translation":[-42.94879150390625,0,-15.029830932617188]},{"mesh":8,"name":"Bush_10.209","translation":[-38.73681640625,0,-15.029800415039062]}],"meshes":[{"name":"Cube.165","primitives":[{"attributes":{"POSITION":0,"NORMAL":1,"TEXCOORD_0":2},"indices":3,"material":0},{"attributes":{"POSITION":4,"NORMAL":5,"TEXCOORD_0":6},"indices":7,"material":2},{"attributes":{"POSITION":8,"NORMAL":9,"TEXCOORD_0":10},"indices":11,"material":1}]},{"name":"Cube.206","primitives":[{"attributes":{"POSITION":14,"NORMAL":15,"TEXCOORD_0":16},"indices":12,"material":0},{"attributes":{"POSITION":17,"NORMAL":18,"TEXCOORD_0":19},"indices":13,"material":4}]},{"name":"Plane.276","primitives":[{"attributes":{"POSITION":21,"NORMAL":22,"TEXCOORD_0":23},"indices":24,"material":6}]},{"name":"Plane.271","primitives":[{"attributes":{"POSITION":25,"NORMAL":26,"TEXCOORD_0":27},"indices":28,"material":0},{"attributes":{"POSITION":29,"NORMAL":30,"TEXCOORD_0":31},"indices":32,"material":5},{"attributes":{"POSITION":33,"NORMAL":34,"TEXCOORD_0":35},"indices":36,"material":6},{"attributes":{"POSITION":37,"NORMAL":38,"TEXCOORD_0":39},"indices":20,"material":7}]},{"name":"Plane.274","primitives":[{"attributes":{"POSITION":40,"NORMAL":41,"TEXCOORD_0":42},"indices":43,"material":0},{"attributes":{"POSITION":44,"NORMAL":45,"TEXCOORD_0":46},"indices":47,"material":5},{"attributes":{"POSITION":48,"NORMAL":49,"TEXCOORD_0":50},"indices":51,"material":6},{"attributes":{"POSITION":52,"NORMAL":53,"TEXCOORD_0":54},"indices":55,"material":7}]},{"name":"Cube.184","primitives":[{"attributes":{"POSITION":56,"NORMAL":57,"TEXCOORD_0":58},"indices":59,"material":0},{"attributes":{"POSITION":60,"NORMAL":61,"TEXCOORD_0":62},"indices":63,"material":3}]},{"name":"Cube.8680","primitives":[{"attributes":{"POSITION":64,"NORMAL":65,"TEXCOORD_0":66},"indices":67,"material":0}]},{"name":"Cylinder.086","primitives":[{"attributes":{"POSITION":68,"NORMAL":69,"TEXCOORD_0":70},"indices":71,"material":0}]},{"name":"Cube.083","primitives":[{"attributes":{"POSITION":72,"NORMAL":73,"TEXCOORD_0":74},"indices":75,"material":0}]}],"materials":[{"doubleSided":true,"name":"Color","pbrMetallicRoughness":{"baseColorTexture":{"index":0},"metallicFactor":0,"roughnessFactor":0.699999988079071}},{"doubleSided":true,"name":"Color_Glossy","pbrMetallicRoughness":{"baseColorTexture":{"index":1},"metallicFactor":0,"roughnessFactor":0.20000000298023224}},{"alphaMode":"BLEND","doubleSided":true,"extensions":{"KHR_materials_specular":{"specularColorFactor":[2.371357614441398,2.371357614441398,2.371357614441398]},"KHR_materials_ior":{"ior":1.4500000476837158}},"name":"Glass","pbrMetallicRoughness":{"baseColorFactor":[1,1,1,0.5],"baseColorTexture":{"index":2},"metallicFactor":0.20000000298023224,"roughnessFactor":0.05000000074505806}},{"doubleSided":true,"emissiveFactor":[1,1,1],"emissiveTexture":{"index":3},"extensions":{"KHR_materials_emissive_strength":{"emissiveStrength":3}},"name":"Emissive","pbrMetallicRoughness":{"baseColorTexture":{"index":4},"metallicFactor":0,"roughnessFactor":0.5}},{"doubleSided":true,"emissiveFactor":[0.10000000149011612,0.10000000149011612,0.10000000149011612],"emissiveTexture":{"index":5},"extensions":{"KHR_materials_specular":{"specularColorFactor":[0.711407312601205,0.711407312601205,0.711407312601205]},"KHR_materials_ior":{"ior":1.4500000476837158}},"name":"Roads","pbrMetallicRoughness":{"baseColorTexture":{"index":6},"metallicFactor":0,"roughnessFactor":0.75}},{"doubleSided":true,"name":"Asphalt_Dark_Gray","pbrMetallicRoughness":{"baseColorFactor":[0.13853572309017181,0.13853572309017181,0.13853572309017181,1],"metallicFactor":0,"roughnessFactor":0.5}},{"doubleSided":true,"name":"Tile_1","normalTexture":{"index":7,"scale":5},"pbrMetallicRoughness":{"baseColorTexture":{"index":8},"metallicFactor":0,"metallicRoughnessTexture":{"index":9}}},{"doubleSided":true,"name":"Grass","pbrMetallicRoughness":{"baseColorFactor":[0.25015830993652344,0.44520121812820435,0.13013650476932526,1],"metallicFactor":0,"roughnessFactor":0.7598187327384949}}],"textures":[{"sampler":0,"source":0},{"sampler":0,"source":0},{"sampler":0,"source":0},{"sampler":0,"source":1},{"sampler":0,"source":1},{"sampler":0,"source":2},{"sampler":0,"source":2},{"sampler":0,"source":3},{"sampler":0,"source":4},{"sampler":0,"source":5}],"images":[{"uri":"shared/486c6d61063241d5.webp","mimeType":"image/webp"},{"uri":"shared/486c6d61063241d5.webp","mimeType":"image/webp"},{"uri":"shared/cd11a20db95ff60c.webp","mimeType":"image/webp"},{"uri":"shared/28470d0f5c64a9e9.png","mimeType":"image/png"},{"uri":"shared/d686ec6d73243cad.webp","mimeType":"image/webp"},{"uri":"shared/0dd4c9f67e03b0dc.png","mimeType":"image/png"}],"samplers":[{"magFilter":9729,"minFilter":9987}],"accessors":[{"bufferView":0,"componentType":5126,"count":6950,"max":[9.693767547607422,57.38644027709961,22.701290130615234],"min":[-9.544054985046387,0,-15.795122146606445],"type":"VEC3"},{"bufferView":1,"componentType":5126,"count":6950,"type":"VEC3"},{"bufferView":2,"componentType":5126,"count":6950,"type":"VEC2"},{"bufferView":3,"componentType":5123,"count":24702,"type":"SCALAR"},{"bufferView":4,"componentType":5126,"count":324,"max":[8.423206329345703,15.75301742553711,20.707826614379883],"min":[-8.425782203674316,4.858661651611328,-5.130716323852539],"type":"VEC3"},{"bufferView":5,"componentType":5126,"count":324,"type":"VEC3"},{"bufferView":6,"componentType":5126,"count":324,"type":"VEC2"},{"bufferView":7,"componentType":5123,"count":918,"type":"SCALAR"},{"bufferView":8,"componentType":5126,"count":70,"max":[6.516058921813965,57.1202507019043,-10.345864295959473],"min":[-3.292659282684326,53.97251892089844,-14.800835609436035],"type":"VEC3"},{"bufferView":9,"componentType":5126,"count":70,"type":"VEC3"},{"bufferView":10,"componentType":5126,"count":70,"type":"VEC2"},{"bufferView":11,"componentType":5123,"count":114,"type":"SCALAR"},{"bufferView":12,"componentType":5123,"count":72,"type":"SCALAR"},{"bufferView":13,"componentType":5123,"count":6,"type":"SCALAR"},{"bufferView":14,"componentType":5126,"count":48,"max":[7.5,0.09999997913837433,7.5],"min":[-7.5,-0.10000001639127731,-7.5],"type":"VEC3"},{"bufferView":15,"componentType":5126,"count":48,"type":"VEC3"},{"bufferView":16,"componentType":5126,"count":48,"type":"VEC2"},{"bufferView":17,"componentType":5126,"count":4,"max":[3.750000476837158,-0.10000000894069672,7.5],"min":[-3.750000476837158,-0.10000000894069672,-7.5],"type":"VEC3"},{"bufferView":18,"componentType":5126,"count":4,"type":"VEC3"},{"bufferView":19,"componentType":5126,"count":4,"type":"VEC2"},{"bufferView":20,"componentType":5123,"count":6,"type":"SCALAR"},{"bufferView":21,"componentType":5126,"count":4,"max":[7.49993896484375,0,7.5],"min":[-7.500061511993408,0,-7.5],"type":"VEC3"},{"bufferView":22,"componentType":5126,"count":4,"type":"VEC3"},{"bufferView":23,"componentType":5126,"count":4,"type":"VEC2"},{"bufferView":24,"componentType":5123,"count":6,"type":"SCALAR"},{"bufferView":25,"componentType":5126,"count":40,"max":[-1.776357650756836,0.10000000149011612,7.499995231628418],"min":[-5.706169128417969,-0.10000000149011612,-7.500004768371582],"type":"VEC3"},{"bufferView":26,"componentType":5126,"count":40,"type":"VEC3"},{"bufferView":27,"componentType":5126,"count":40,"type":"VEC2"},{"bufferView":28,"componentType":5123,"count":60,"type":"SCALAR"},{"bufferView":29,"componentType":5126,"count":4,"max":[-1.8790836334228516,-9.5367431640625e-7,7.499995231628418],"min":[-5.606972694396973,-9.5367431640625e-7,-7.500004768371582],"type":"VEC3"},{"bufferView":30,"componentType":5126,"count":4,"type":"VEC3"},{"bufferView":31,"componentType":5126,"count":4,"type":"VEC2"},{"bufferView":32,"componentType":5123,"count":6,"type":"SCALAR"},{"bufferView":33,"componentType":5126,"count":4,"max":[7.5,0,7.499995231628418],"min":[-1.8790836334228516,-9.5367431640625e-7,-7.500004768371582],"type":"VEC3"},{"bufferView":34,"componentType":5126,"count":4,"type":"VEC3"},{"bufferView":35,"componentType":5126,"count":4,"type":"VEC2"},{"bufferView":36,"componentType":5123,"count":6,"type":"SCALAR"},{"bufferView":37,"componentType":5126,"count":4,"max":[-5.606972694396973,0,7.499995231628418],"min":[-7.5,-9.5367431640625e-7,-7.500004768371582],"type":"VEC3"},{"bufferView":38,"componentType":5126,"count":4,"type":"VEC3"},{"bufferView":39,"componentType":5126,"count":4,"type":"VEC2"},{"bufferView":40,"componentType":5126,"count":160,"max":[7.499998569488525,0.10000000149011612,7.5],"min":[1.7770425081253052,-0.10000000149011612,1.7706679105758667],"type":"VEC3"},{"bufferView":41,"componentType":5126,"count":160,"type":"VEC3"},{"bufferView":42,"componentType":5126,"count":160,"type":"VEC2"},{"bufferView":43,"componentType":5123,"count":276,"type":"SCALAR"},{"bufferView":44,"componentType":5126,"count":10,"max":[7.499980926513672,0,7.5],"min":[1.8760571479797363,-9.5367431640625e-7,1.8711148500442505],"type":"VEC3"},{"bufferView":45,"componentType":5126,"count":10,"type":"VEC3"},{"bufferView":46,"componentType":5126,"count":10,"type":"VEC2"},{"bufferView":47,"componentType":5123,"count":24,"type":"SCALAR"},{"bufferView":48,"componentType":5126,"count":8,"max":[7.499974727630615,0,7.5],"min":[-7.500000476837158,-9.5367431640625e-7,-7.5],"type":"VEC3"},{"bufferView":49,"componentType":5126,"count":8,"type":"VEC3"},{"bufferView":50,"componentType":5126,"count":8,"type":"VEC2"},{"bufferView":51,"componentType":5123,"count":18,"type":"SCALAR"},{"bufferView":52,"componentType":5126,"count":6,"max":[7.49998140335083,0,7.5],"min":[5.603943824768066,-9.5367431640625e-7,5.599004745483398],"type":"VEC3"},{"bufferView":53,"componentType":5126,"count":6,"type":"VEC3"},{"bufferView":54,"componentType":5126,"count":6,"type":"VEC2"},{"bufferView":55,"componentType":5123,"count":12,"type":"SCALAR"},{"bufferView":56,"componentType":5126,"count":106,"max":[0.22128364443778992,8.304719924926758,3.0710415840148926],"min":[-0.2213037759065628,0,-0.11709251999855042],"type":"VEC3"},{"bufferView":57,"componentType":5126,"count":106,"type":"VEC3"},{"bufferView":58,"componentType":5126,"count":106,"type":"VEC2"},{"bufferView":59,"componentType":5123,"count":336,"type":"SCALAR"},{"bufferView":60,"componentType":5126,"count":10,"max":[0.13364164531230927,7.941127300262451,3.0237202644348145],"min":[-0.13366179168224335,7.70126485824585,2.2360119819641113],"type":"VEC3"},{"bufferView":61,"componentType":5126,"count":10,"type":"VEC3"},{"bufferView":62,"componentType":5126,"count":10,"type":"VEC2"},{"bufferView":63,"componentType":5123,"count":24,"type":"SCALAR"},{"bufferView":64,"componentType":5126,"count":480,"max":[1.0815818309783936,1.2417985200881958,0.2961703836917877],"min":[-1.0815824270248413,0,-0.29613420367240906],"type":"VEC3"},{"bufferView":65,"componentType":5126,"count":480,"type":"VEC3"},{"bufferView":66,"componentType":5126,"count":480,"type":"VEC2"},{"bufferView":67,"componentType":5123,"count":1068,"type":"SCALAR"},{"bufferView":68,"componentType":5126,"count":1662,"max":[3.8045547008514404,22.508602142333984,3.6199774742126465],"min":[-3.976882219314575,-0.16390419006347656,-4.198368549346924],"type":"VEC3"},{"bufferView":69,"componentType":5126,"count":1662,"type":"VEC3"},{"bufferView":70,"componentType":5126,"count":1662,"type":"VEC2"},{"bufferView":71,"componentType":5123,"count":3630,"type":"SCALAR"},{"bufferView":72,"componentType":5126,"count":20,"max":[0.9925661087036133,1,0.49380436539649963],"min":[-0.9925661087036133,0,-0.49380436539649963],"type":"VEC3"},{"bufferView":73,"componentType":5126,"count":20,"type":"VEC3"},{"bufferView":74,"componentType":5126,"count":20,"type":"VEC2"},{"bufferView":75,"componentType":5123,"count":90,"type":"SCALAR"}],"bufferViews":[{"buffer":0,"byteLength":83400,"byteOffset":0,"target":34962},{"buffer":0,"byteLength":83400,"byteOffset":83400,"target":34962},{"buffer":0,"byteLength":55600,"byteOffset":166800,"target":34962},{"buffer":0,"byteLength":49404,"byteOffset":222400,"target":34963},{"buffer":0,"byteLength":3888,"byteOffset":271804,"target":34962},{"buffer":0,"byteLength":3888,"byteOffset":275692,"target":34962},{"buffer":0,"byteLength":2592,"byteOffset":279580,"target":34962},{"buffer":0,"byteLength":1836,"byteOffset":282172,"target":34963},{"buffer":0,"byteLength":840,"byteOffset":284008,"target":34962},{"buffer":0,"byteLength":840,"byteOffset":284848,"target":34962},{"buffer":0,"byteLength":560,"byteOffset":285688,"target":34962},{"buffer":0,"byteLength":228,"byteOffset":286248,"target":34963},{"buffer":0,"byteLength":144,"byteOffset":286476,"target":34963},{"buffer":0,"byteLength":12,"byteOffset":286620,"target":34963},{"buffer":0,"byteLength":576,"byteOffset":286632,"target":34962},{"buffer":0,"byteLength":576,"byteOffset":287208,"target":34962},{"buffer":0,"byteLength":384,"byteOffset":287784,"target":34962},{"buffer":0,"byteLength":48,"byteOffset":288168,"target":34962},{"buffer":0,"byteLength":48,"byteOffset":288216,"target":34962},{"buffer":0,"byteLength":32,"byteOffset":288264,"target":34962},{"buffer":0,"byteLength":12,"byteOffset":288296,"target":34963},{"buffer":0,"byteLength":48,"byteOffset":288308,"target":34962},{"buffer":0,"byteLength":48,"byteOffset":288356,"target":34962},{"buffer":0,"byteLength":32,"byteOffset":288404,"target":34962},{"buffer":0,"byteLength":12,"byteOffset":288436,"target":34963},{"buffer":0,"byteLength":480,"byteOffset":288448,"target":34962},{"buffer":0,"byteLength":480,"byteOffset":288928,"target":34962},{"buffer":0,"byteLength":320,"byteOffset":289408,"target":34962},{"buffer":0,"byteLength":120,"byteOffset":289728,"target":34963},{"buffer":0,"byteLength":48,"byteOffset":289848,"target":34962},{"buffer":0,"byteLength":48,"byteOffset":289896,"target":34962},{"buffer":0,"byteLength":32,"byteOffset":289944,"target":34962},{"buffer":0,"byteLength":12,"byteOffset":289976,"target":34963},{"buffer":0,"byteLength":48,"byteOffset":289988,"target":34962},{"buffer":0,"byteLength":48,"byteOffset":290036,"target":34962},{"buffer":0,"byteLength":32,"byteOffset":290084,"target":34962},{"buffer":0,"byteLength":12,"byteOffset":290116,"target":34963},{"buffer":0,"byteLength":48,"byteOffset":290128,"target":34962},{"buffer":0,"byteLength":48,"byteOffset":290176,"target":34962},{"buffer":0,"byteLength":32,"byteOffset":290224,"target":34962},{"buffer":0,"byteLength":1920,"byteOffset":290256,"target":34962},{"buffer":0,"byteLength":1920,"byteOffset":292176,"target":34962},{"buffer":0,"byteLength":1280,"byteOffset":294096,"target":34962},{"buffer":0,"byteLength":552,"byteOffset":295376,"target":34963},{"buffer":0,"byteLength":120,"byteOffset":295928,"target":34962},{"buffer":0,"byteLength":120,"byteOffset":296048,"target":34962},{"buffer":0,"byteLength":80,"byteOffset":296168,"target":34962},{"buffer":0,"byteLength":48,"byteOffset":296248,"target":34963},{"buffer":0,"byteLength":96,"byteOffset":296296,"target":34962},{"buffer":0,"byteLength":96,"byteOffset":296392,"target":34962},{"buffer":0,"byteLength":64,"byteOffset":296488,"target":34962},{"buffer":0,"byteLength":36,"byteOffset":296552,"target":34963},{"buffer":0,"byteLength":72,"byteOffset":296588,"target":34962},{"buffer":0,"byteLength":72,"byteOffset":296660,"target":34962},{"buffer":0,"byteLength":48,"byteOffset":296732,"target":34962},{"buffer":0,"byteLength":24,"byteOffset":296780,"target":34963},{"buffer":0,"byteLength":1272,"byteOffset":296804,"target":34962},{"buffer":0,"byteLength":1272,"byteOffset":298076,"target":34962},{"buffer":0,"byteLength":848,"byteOffset":299348,"target":34962},{"buffer":0,"byteLength":672,"byteOffset":300196,"target":34963},{"buffer":0,"byteLength":120,"byteOffset":300868,"target":34962},{"buffer":0,"byteLength":120,"byteOffset":300988,"target":34962},{"buffer":0,"byteLength":80,"byteOffset":301108,"target":34962},{"buffer":0,"byteLength":48,"byteOffset":301188,"target":34963},{"buffer":0,"byteLength":5760,"byteOffset":301236,"target":34962},{"buffer":0,"byteLength":5760,"byteOffset":306996,"target":34962},{"buffer":0,"byteLength":3840,"byteOffset":312756,"target":34962},{"buffer":0,"byteLength":2136,"byteOffset":316596,"target":34963},{"buffer":0,"byteLength":19944,"byteOffset":318732,"target":34962},{"buffer":0,"byteLength":19944,"byteOffset":338676,"target":34962},{"buffer":0,"byteLength":13296,"byteOffset":358620,"target":34962},{"buffer":0,"byteLength":7260,"byteOffset":371916,"target":34963},{"buffer":0,"byteLength":240,"byteOffset":379176,"target":34962},{"buffer":0,"byteLength":240,"byteOffset":379416,"target":34962},{"buffer":0,"byteLength":160,"byteOffset":379656,"target":34962},{"buffer":0,"byteLength":180,"byteOffset":379816,"target":34963}],"buffers":[{"uri":"south-central-west.bin","byteLength":379996}]}