{"asset":{"version":"2.0","generator":"Jarvis Cartoon City sectorizer v1"},"extensionsUsed":["KHR_materials_specular","KHR_materials_ior","KHR_materials_emissive_strength"],"scenes":[{"name":"Cartoon City Free — south-west","nodes":[0,6,11,12,13,14,15,16,17,18,19,20,21,22,23,24,25,26]}],"scene":0,"nodes":[{"mesh":10,"name":"Car_13.003","translation":[-54.25349807739258,-0.09999997168779373,-45.16383361816406],"children":[1,2,3,4,5]},{"mesh":5,"name":"Car_13_Spoiler.003","translation":[-0.000041961669921875,0,0]},{"mesh":6,"name":"Car_13_Wheel_Front_Left.003","translation":[0.8457832336425781,0.40000006556510925,1.2239456176757812]},{"mesh":7,"name":"Car_13_Wheel_Front_Right.003","translation":[-0.8458671569824219,0.40000006556510925,1.2239456176757812]},{"mesh":8,"name":"Car_13_Wheel_Rear_Left.003","translation":[0.8457832336425781,0.40000006556510925,-1.2239532470703125]},{"mesh":9,"name":"Car_13_Wheel_Rear_Right.003","translation":[-0.8458671569824219,0.40000006556510925,-1.2239532470703125]},{"mesh":4,"name":"Van.004","rotation":[0,-0.7071068286895752,0,0.7071068286895752],"translation":[-20.18561553955078,-0.09999964386224747,-69.36510467529297],"children":[7,8,9,10]},{"mesh":0,"name":"Van_Wheel_Front_Left.004","translation":[0.9228436946868896,0.39999985694885254,1.4014655351638794]},{"mesh":1,"name":"Van_Wheel_Front_Right.004","translation":[-0.9228594303131104,0.39999985694885254,1.4014655351638794]},{"mesh":2,"name":"Van_Wheel_Rear_Left.004","translation":[0.9228436946868896,0.39999985694885254,-1.4014748334884644]},{"mesh":3,"name":"Van_Wheel_Rear_Right.004","translation":[-0.9228594303131104,0.39999985694885254,-1.4014748334884644]},{"mesh":11,"name":"road_009.238","translation":[-52.5,0,-52.5]},{"mesh":12,"name":"road_013.018","rotation":[0,1,0,7.549790126404332e-8],"translation":[-52.5,0,-67.5]},{"mesh":11,"name":"road_009.239","rotation":[0,0.7071066498756409,0,0.70710688829422],"translation":[-37.5,0,-67.5]},{"mesh":11,"name":"road_009.240","rotation":[0,0.7071066498756409,0,0.70710688829422],"translation":[-22.5,0,-67.5]},{"mesh":13,"name":"Set_B_Tiles_04.025","rotation":[0,-0.70710688829422,0,0.7071066498756409],"translation":[-22.5,0,-52.5]},{"mesh":14,"name":"Set_B_Tiles_05.010","rotation":[0,-0.7071066498756409,0,0.70710688829422],"translation":[-37.5,0,-52.5]},{"mesh":15,"name":"Spotlight_01.105","rotation":[0,0.7071070671081543,0,0.7071065902709961],"translation":[-57.987091064453125,0,-48.277557373046875]},{"mesh":15,"name":"Spotlight_01.106","translation":[-36.4327392578125,0,-73.50202941894531]},{"mesh":16,"name":"Bus_Stop_02.052","rotation":[0,0.7071072459220886,0,0.7071062922477722],"translation":[-59.05609130859375,0,-37.83526611328125]},{"mesh":17,"name":"Trash_Can_06.049","rotation":[0,0.8585742115974426,0,0.5126893520355225],"translation":[-34.9617919921875,0,-46.997772216796875]},{"mesh":18,"name":"Trash_Can_08.054","rotation":[0,0.5143240690231323,0,0.8575959205627441],"translation":[-33.3353271484375,0,-47.091583251953125]},{"mesh":19,"name":"Trash_Can_05.036","rotation":[0,-0.9999376535415649,0,0.011170231737196445],"translation":[-37.4698486328125,-0.000003814697265625,-47.0308837890625]},{"mesh":20,"name":"Spotlight_02.111","translation":[-41.022064208984375,0.0000152587890625,-50.47467041015625]},{"mesh":21,"name":"Bush_10.273","translation":[-29.87823486328125,0,-58.97602844238281]},{"mesh":21,"name":"Bush_10.274","translation":[-38.3790283203125,0,-58.97608947753906]},{"mesh":21,"name":"Bush_10.275","translation":[-34.16705322265625,0,-58.97605895996094]}],"meshes":[{"name":"Mesh.139","primitives":[{"attributes":{"COLOR_0":0,"POSITION":1,"NORMAL":2,"TEXCOORD_0":3},"indices":4,"material":0},{"attributes":{"COLOR_0":5,"POSITION":6,"NORMAL":7,"TEXCOORD_0":8},"indices":9,"material":1}]},{"name":"Mesh.138","primitives":[{"attributes":{"COLOR_0":10,"POSITION":11,"NORMAL":12,"TEXCOORD_0":13},"indices":4,"material":0},{"attributes":{"COLOR_0":14,"POSITION":15,"NORMAL":16,"TEXCOORD_0":17},"indices":9,"material":1}]},{"name":"Mesh.141","primitives":[{"attributes":{"COLOR_0":18,"POSITION":19,"NORMAL":20,"TEXCOORD_0":21},"indices":4,"material":0},{"attributes":{"COLOR_0":22,"POSITION":23,"NORMAL":24,"TEXCOORD_0":25},"indices":9,"material":1}]},{"name":"Mesh.140","primitives":[{"attributes":{"COLOR_0":26,"POSITION":27,"NORMAL":28,"TEXCOORD_0":29},"indices":4,"material":0},{"attributes":{"COLOR_0":30,"POSITION":31,"NORMAL":32,"TEXCOORD_0":33},"indices":9,"material":1}]},{"name":"Mesh.142","primitives":[{"attributes":{"COLOR_0":34,"POSITION":35,"NORMAL":36,"TEXCOORD_0":37},"indices":38,"material":0},{"attributes":{"COLOR_0":39,"POSITION":40,"NORMAL":41,"TEXCOORD_0":42},"indices":43,"material":1},{"attributes":{"COLOR_0":44,"POSITION":45,"NORMAL":46,"TEXCOORD_0":47},"indices":48,"material":2},{"attributes":{"COLOR_0":49,"POSITION":50,"NORMAL":51,"TEXCOORD_0":52},"indices":53,"material":3},{"attributes":{"COLOR_0":54,"POSITION":55,"NORMAL":56,"TEXCOORD_0":57},"indices":58,"material":4}]},{"name":"Cube.237","primitives":[{"attributes":{"COLOR_0":59,"POSITION":60,"NORMAL":61,"TEXCOORD_0":62},"indices":63,"material":0}]},{"name":"Mesh.150","primitives":[{"attributes":{"COLOR_0":64,"POSITION":65,"NORMAL":66,"TEXCOORD_0":67},"indices":68,"material":0},{"attributes":{"COLOR_0":69,"POSITION":70,"NORMAL":71,"TEXCOORD_0":72},"indices":73,"material":1}]},{"name":"Mesh.062","primitives":[{"attributes":{"COLOR_0":74,"POSITION":75,"NORMAL":76,"TEXCOORD_0":77},"indices":78,"material":0},{"attributes":{"COLOR_0":79,"POSITION":80,"NORMAL":81,"TEXCOORD_0":82},"indices":73,"material":1}]},{"name":"Mesh.151","primitives":[{"attributes":{"COLOR_0":83,"POSITION":84,"NORMAL":85,"TEXCOORD_0":86},"indices":68,"material":0},{"attributes":{"COLOR_0":87,"POSITION":88,"NORMAL":89,"TEXCOORD_0":90},"indices":73,"material":1}]},{"name":"Mesh.152","primitives":[{"attributes":{"COLOR_0":91,"POSITION":92,"NORMAL":93,"TEXCOORD_0":94},"indices":78,"material":0},{"attributes":{"COLOR_0":95,"POSITION":96,"NORMAL":97,"TEXCOORD_0":98},"indices":73,"material":1}]},{"name":"Cube.215","primitives":[{"attributes":{"COLOR_0":99,"POSITION":100,"NORMAL":101,"TEXCOORD_0":102},"indices":103,"material":0},{"attributes":{"COLOR_0":104,"POSITION":105,"NORMAL":106,"TEXCOORD_0":107},"indices":108,"material":5},{"attributes":{"COLOR_0":109,"POSITION":110,"NORMAL":111,"TEXCOORD_0":112},"indices":113,"material":2},{"attributes":{"COLOR_0":114,"POSITION":115,"NORMAL":116,"TEXCOORD_0":117},"indices":118,"material":6},{"attributes":{"COLOR_0":119,"POSITION":120,"NORMAL":121,"TEXCOORD_0":122},"indices":123,"material":3},{"attributes":{"COLOR_0":124,"POSITION":125,"NORMAL":126,"TEXCOORD_0":127},"indices":128,"material":4}]},{"name":"Cube.206","primitives":[{"attributes":{"POSITION":131,"NORMAL":132,"TEXCOORD_0":133},"indices":129,"material":0},{"attributes":{"POSITION":134,"NORMAL":135,"TEXCOORD_0":136},"indices":130,"material":8}]},{"name":"Plane.079","primitives":[{"attributes":{"POSITION":137,"NORMAL":138,"TEXCOORD_0":139},"indices":140,"material":0},{"attributes":{"POSITION":141,"NORMAL":142,"TEXCOORD_0":143},"indices":144,"material":8}]},{"name":"Plane.268","primitives":[{"attributes":{"POSITION":146,"NORMAL":147,"TEXCOORD_0":148},"indices":149,"material":0},{"attributes":{"POSITION":150,"NORMAL":151,"TEXCOORD_0":152},"indices":153,"material":9},{"attributes":{"POSITION":154,"NORMAL":155,"TEXCOORD_0":156},"indices":145,"material":10},{"attributes":{"POSITION":157,"NORMAL":158,"TEXCOORD_0":159},"indices":160,"material":11}]},{"name":"Plane.271","primitives":[{"attributes":{"POSITION":161,"NORMAL":162,"TEXCOORD_0":163},"indices":164,"material":0},{"attributes":{"POSITION":165,"NORMAL":166,"TEXCOORD_0":167},"indices":168,"material":9},{"attributes":{"POSITION":169,"NORMAL":170,"TEXCOORD_0":171},"indices":172,"material":10},{"attributes":{"POSITION":173,"NORMAL":174,"TEXCOORD_0":175},"indices":145,"material":11}]},{"name":"Cube.184","primitives":[{"attributes":{"POSITION":176,"NORMAL":177,"TEXCOORD_0":178},"indices":179,"material":0},{"attributes":{"POSITION":180,"NORMAL":181,"TEXCOORD_0":182},"indices":183,"material":7}]},{"name":"Plane.630","primitives":[{"attributes":{"POSITION":184,"NORMAL":185,"TEXCOORD_0":186},"indices":187,"material":0},{"attributes":{"POSITION":188,"NORMAL":189,"TEXCOORD_0":190},"indices":191,"material":4}]},{"name":"Cylinder.045","primitives":[{"attributes":{"POSITION":192,"NORMAL":193,"TEXCOORD_0":194},"indices":195,"material":0}]},{"name":"Cylinder.033","primitives":[{"attributes":{"POSITION":196,"NORMAL":197,"TEXCOORD_0":198},"indices":199,"material":0}]},{"name":"Cube.076","primitives":[{"attributes":{"POSITION":201,"NORMAL":202,"TEXCOORD_0":203},"indices":200,"material":0}]},{"name":"home_living.002","primitives":[{"attributes":{"POSITION":204,"NORMAL":205,"TEXCOORD_0":206},"indices":207,"material":0},{"attributes":{"POSITION":208,"NORMAL":209,"TEXCOORD_0":210},"indices":211,"material":7}]},{"name":"Cube.083","primitives":[{"attributes":{"POSITION":212,"NORMAL":213,"TEXCOORD_0":214},"indices":215,"material":0}]}],"materials":[{"doubleSided":true,"name":"Color","pbrMetallicRoughness":{"baseColorTexture":{"index":0},"metallicFactor":0,"roughnessFactor":0.699999988079071}},{"doubleSided":true,"name":"Metal","pbrMetallicRoughness":{"baseColorTexture":{"index":1},"roughnessFactor":0.3316831588745117}},{"doubleSided":true,"name":"Color_Glossy","pbrMetallicRoughness":{"baseColorTexture":{"index":2},"metallicFactor":0,"roughnessFactor":0.20000000298023224}},{"doubleSided":true,"emissiveFactor":[1,1,1],"emissiveTexture":{"index":3},"name":"Car_Taillights","pbrMetallicRoughness":{"baseColorTexture":{"index":4},"metallicFactor":0,"roughnessFactor":0.5}},{"alphaMode":"BLEND","doubleSided":true,"extensions":{"KHR_materials_specular":{"specularColorFactor":[2.371357614441398,2.371357614441398,2.371357614441398]},"KHR_materials_ior":{"ior":1.4500000476837158}},"name":"Glass","pbrMetallicRoughness":{"baseColorFactor":[1,1,1,0.5],"baseColorTexture":{"index":5},"metallicFactor":0.20000000298023224,"roughnessFactor":0.05000000074505806}},{"doubleSided":true,"emissiveFactor":[0.10000000149011612,0.10000000149011612,0.10000000149011612],"emissiveTexture":{"index":6},"name":"Car_Color","pbrMetallicRoughness":{"baseColorTexture":{"index":7},"metallicFactor":0.20000000298023224,"roughnessFactor":0.10000000149011612}},{"doubleSided":true,"emissiveFactor":[1,1,1],"emissiveTexture":{"index":8},"name":"Car_Headlights","pbrMetallicRoughness":{"baseColorTexture":{"index":9},"metallicFactor":0,"roughnessFactor":0.5}},{"doubleSided":true,"emissiveFactor":[1,1,1],"emissiveTexture":{"index":10},"extensions":{"KHR_materials_emissive_strength":{"emissiveStrength":3}},"name":"Emissive","pbrMetallicRoughness":{"baseColorTexture":{"index":11},"metallicFactor":0,"roughnessFactor":0.5}},{"doubleSided":true,"emissiveFactor":[0.10000000149011612,0.10000000149011612,0.10000000149011612],"emissiveTexture":{"index":12},"extensions":{"KHR_materials_specular":{"specularColorFactor":[0.711407312601205,0.711407312601205,0.711407312601205]},"KHR_materials_ior":{"ior":1.4500000476837158}},"name":"Roads","pbrMetallicRoughness":{"baseColorTexture":{"index":13},"metallicFactor":0,"roughnessFactor":0.75}},{"doubleSided":true,"name":"Asphalt_Dark_Gray","pbrMetallicRoughness":{"baseColorFactor":[0.13853572309017181,0.13853572309017181,0.13853572309017181,1],"metallicFactor":0,"roughnessFactor":0.5}},{"doubleSided":true,"name":"Tile_1","normalTexture":{"index":14,"scale":5},"pbrMetallicRoughness":{"baseColorTexture":{"index":15},"metallicFactor":0,"metallicRoughnessTexture":{"index":16}}},{"doubleSided":true,"name":"Grass","pbrMetallicRoughness":{"baseColorFactor":[0.25015830993652344,0.44520121812820435,0.13013650476932526,1],"metallicFactor":0,"roughnessFactor":0.7598187327384949}}],"textures":[{"sampler":0,"source":0},{"sampler":0,"source":1},{"sampler":0,"source":0},{"sampler":0,"source":1},{"sampler":0,"source":1},{"sampler":0,"source":0},{"sampler":0,"source":0},{"sampler":0,"source":0},{"sampler":0,"source":1},{"sampler":0,"source":1},{"sampler":0,"source":1},{"sampler":0,"source":1},{"sampler":0,"source":2},{"sampler":0,"source":2},{"sampler":0,"source":3},{"sampler":0,"source":4},{"sampler":0,"source":5}],"images":[{"uri":"shared/486c6d61063241d5.webp","mimeType":"image/webp"},{"uri":"shared/486c6d61063241d5.webp","mimeType":"image/webp"},{"uri":"shared/cd11a20db95ff60c.webp","mimeType":"image/webp"},{"uri":"shared/28470d0f5c64a9e9.png","mimeType":"image/png"},{"uri":"shared/d686ec6d73243cad.webp","mimeType":"image/webp"},{"uri":"shared/0dd4c9f67e03b0dc.png","mimeType":"image/png"}],"samplers":[{"magFilter":9729,"minFilter":9987}],"accessors":[{"bufferView":0,"componentType":5123,"count":120,"normalized":true,"type":"VEC4"},{"bufferView":1,"componentType":5126,"count":120,"max":[0.1618468463420868,0.3999999165534973,0.3999944031238556],"min":[-0.1623368263244629,-0.4000000059604645,-0.40000560879707336],"type":"VEC3"},{"bufferView":2,"componentType":5126,"count":120,"type":"VEC3"},{"bufferView":3,"componentType":5126,"count":120,"type":"VEC2"},{"bufferView":4,"componentType":5123,"count":594,"type":"SCALAR"},{"bufferView":5,"componentType":5123,"count":34,"normalized":true,"type":"VEC4"},{"bufferView":6,"componentType":5126,"count":34,"max":[0.16150975227355957,0.25954538583755493,0.2595387101173401],"min":[0.03218558430671692,-0.2595454156398773,-0.2595521807670593],"type":"VEC3"},{"bufferView":7,"componentType":5126,"count":34,"type":"VEC3"},{"bufferView":8,"componentType":5126,"count":34,"type":"VEC2"},{"bufferView":9,"componentType":5123,"count":96,"type":"SCALAR"},{"bufferView":10,"componentType":5123,"count":120,"normalized":true,"type":"VEC4"},{"bufferView":11,"componentType":5126,"count":120,"max":[0.16233696043491364,0.3999999165534973,0.40000560879707336],"min":[-0.16184698045253754,-0.4000000059604645,-0.3999944031238556],"type":"VEC3"},{"bufferView":12,"componentType":5126,"count":120,"type":"VEC3"},{"bufferView":13,"componentType":5126,"count":120,"type":"VEC2"},{"bufferView":14,"componentType":5123,"count":34,"normalized":true,"type":"VEC4"},{"bufferView":15,"componentType":5126,"count":34,"max":[-0.03218558430671692,0.25954538583755493,0.2595522999763489],"min":[-0.16150975227355957,-0.2595454156398773,-0.25953859090805054],"type":"VEC3"},{"bufferView":16,"componentType":5126,"count":34,"type":"VEC3"},{"bufferView":17,"componentType":5126,"count":34,"type":"VEC2"},{"bufferView":18,"componentType":5123,"count":120,"normalized":true,"type":"VEC4"},{"bufferView":19,"componentType":5126,"count":120,"max":[0.1618468463420868,0.3999999165534973,0.3999944031238556],"min":[-0.1623368263244629,-0.4000000059604645,-0.40000560879707336],"type":"VEC3"},{"bufferView":20,"componentType":5126,"count":120,"type":"VEC3"},{"bufferView":21,"componentType":5126,"count":120,"type":"VEC2"},{"bufferView":22,"componentType":5123,"count":34,"normalized":true,"type":"VEC4"},{"bufferView":23,"componentType":5126,"count":34,"max":[0.16150975227355957,0.25954538583755493,0.2595387101173401],"min":[0.03218558430671692,-0.2595454156398773,-0.2595521807670593],"type":"VEC3"},{"bufferView":24,"componentType":5126,"count":34,"type":"VEC3"},{"bufferView":25,"componentType":5126,"count":34,"type":"VEC2"},{"bufferView":26,"componentType":5123,"count":120,"normalized":true,"type":"VEC4"},{"bufferView":27,"componentType":5126,"count":120,"max":[0.16233696043491364,0.3999999165534973,0.40000560879707336],"min":[-0.16184698045253754,-0.4000000059604645,-0.3999944031238556],"type":"VEC3"},{"bufferView":28,"componentType":5126,"count":120,"type":"VEC3"},{"bufferView":29,"componentType":5126,"count":120,"type":"VEC2"},{"bufferView":30,"componentType":5123,"count":34,"normalized":true,"type":"VEC4"},{"bufferView":31,"componentType":5126,"count":34,"max":[-0.03218558430671692,0.25954538583755493,0.2595522999763489],"min":[-0.16150975227355957,-0.2595454156398773,-0.25953859090805054],"type":"VEC3"},{"bufferView":32,"componentType":5126,"count":34,"type":"VEC3"},{"bufferView":33,"componentType":5126,"count":34,"type":"VEC2"},{"bufferView":34,"componentType":5123,"count":1524,"normalized":true,"type":"VEC4"},{"bufferView":35,"componentType":5126,"count":1524,"max":[1.1476143598556519,2.9508824348449707,2.242865562438965],"min":[-1.1473641395568848,0.2360285520553589,-2.785670757293701],"type":"VEC3"},{"bufferView":36,"componentType":5126,"count":1524,"type":"VEC3"},{"bufferView":37,"componentType":5126,"count":1524,"type":"VEC2"},{"bufferView":38,"componentType":5123,"count":5235,"type":"SCALAR"},{"bufferView":39,"componentType":5123,"count":132,"normalized":true,"type":"VEC4"},{"bufferView":40,"componentType":5126,"count":132,"max":[0.9670319557189941,1.0786514282226562,2.2174072265625],"min":[-0.9667816758155823,0.5249274373054504,-2.762026309967041],"type":"VEC3"},{"bufferView":41,"componentType":5126,"count":132,"type":"VEC3"},{"bufferView":42,"componentType":5126,"count":132,"type":"VEC2"},{"bufferView":43,"componentType":5123,"count":372,"type":"SCALAR"},{"bufferView":44,"componentType":5123,"count":105,"normalized":true,"type":"VEC4"},{"bufferView":45,"componentType":5126,"count":105,"max":[1.0450634956359863,2.4341421127319336,1.4451169967651367],"min":[-1.0448132753372192,1.2491238117218018,-2.6542718410491943],"type":"VEC3"},{"bufferView":46,"componentType":5126,"count":105,"type":"VEC3"},{"bufferView":47,"componentType":5126,"count":105,"type":"VEC2"},{"bufferView":48,"componentType":5123,"count":261,"type":"SCALAR"},{"bufferView":49,"componentType":5123,"count":60,"normalized":true,"type":"VEC4"},{"bufferView":50,"componentType":5126,"count":60,"max":[0.9583225250244141,1.0662018060684204,-2.7283101081848145],"min":[-0.9580722451210022,0.7614828944206238,-2.8064112663269043],"type":"VEC3"},{"bufferView":51,"componentType":5126,"count":60,"type":"VEC3"},{"bufferView":52,"componentType":5126,"count":60,"type":"VEC2"},{"bufferView":53,"componentType":5123,"count":288,"type":"SCALAR"},{"bufferView":54,"componentType":5123,"count":96,"normalized":true,"type":"VEC4"},{"bufferView":55,"componentType":5126,"count":96,"max":[0.8955180644989014,0.9167686104774475,2.2615208625793457],"min":[-0.8896902799606323,0.5387100577354431,2.194962978363037],"type":"VEC3"},{"bufferView":56,"componentType":5126,"count":96,"type":"VEC3"},{"bufferView":57,"componentType":5126,"count":96,"type":"VEC2"},{"bufferView":58,"componentType":5123,"count":408,"type":"SCALAR"},{"bufferView":59,"componentType":5123,"count":124,"normalized":true,"type":"VEC4"},{"bufferView":60,"componentType":5126,"count":124,"max":[0.7666240930557251,1.171190619468689,-1.7706983089447021],"min":[-0.7670250535011292,0.7459808588027954,-2.233873128890991],"type":"VEC3"},{"bufferView":61,"componentType":5126,"count":124,"type":"VEC3"},{"bufferView":62,"componentType":5126,"count":124,"type":"VEC2"},{"bufferView":63,"componentType":5123,"count":270,"type":"SCALAR"},{"bufferView":64,"componentType":5123,"count":285,"normalized":true,"type":"VEC4"},{"bufferView":65,"componentType":5126,"count":285,"max":[0.16213113069534302,0.3999999165534973,0.3998884856700897],"min":[-0.1620960682630539,-0.40000006556510925,-0.4001115560531616],"type":"VEC3"},{"bufferView":66,"componentType":5126,"count":285,"type":"VEC3"},{"bufferView":67,"componentType":5126,"count":285,"type":"VEC2"},{"bufferView":68,"componentType":5123,"count":1014,"type":"SCALAR"},{"bufferView":69,"componentType":5123,"count":50,"normalized":true,"type":"VEC4"},{"bufferView":70,"componentType":5126,"count":50,"max":[0.1361139863729477,0.2748536467552185,0.29106059670448303],"min":[0.04467451199889183,-0.27894407510757446,-0.29114869236946106],"type":"VEC3"},{"bufferView":71,"componentType":5126,"count":50,"type":"VEC3"},{"bufferView":72,"componentType":5126,"count":50,"type":"VEC2"},{"bufferView":73,"componentType":5123,"count":120,"type":"SCALAR"},{"bufferView":74,"componentType":5123,"count":285,"normalized":true,"type":"VEC4"},{"bufferView":75,"componentType":5126,"count":285,"max":[0.16209638118743896,0.3999999165534973,0.4001116454601288],"min":[-0.16213145852088928,-0.40000006556510925,-0.3998885750770569],"type":"VEC3"},{"bufferView":76,"componentType":5126,"count":285,"type":"VEC3"},{"bufferView":77,"componentType":5126,"count":285,"type":"VEC2"},{"bufferView":78,"componentType":5123,"count":1014,"type":"SCALAR"},{"bufferView":79,"componentType":5123,"count":50,"normalized":true,"type":"VEC4"},{"bufferView":80,"componentType":5126,"count":50,"max":[-0.04467449337244034,0.2748536467552185,0.2911488711833954],"min":[-0.13611432909965515,-0.27894407510757446,-0.2910604178905487],"type":"VEC3"},{"bufferView":81,"componentType":5126,"count":50,"type":"VEC3"},{"bufferView":82,"componentType":5126,"count":50,"type":"VEC2"},{"bufferView":83,"componentType":5123,"count":285,"normalized":true,"type":"VEC4"},{"bufferView":84,"componentType":5126,"count":285,"max":[0.16213113069534302,0.3999999165534973,0.3998884856700897],"min":[-0.1620960682630539,-0.40000006556510925,-0.4001115560531616],"type":"VEC3"},{"bufferView":85,"componentType":5126,"count":285,"type":"VEC3"},{"bufferView":86,"componentType":5126,"count":285,"type":"VEC2"},{"bufferView":87,"componentType":5123,"count":50,"normalized":true,"type":"VEC4"},{"bufferView":88,"componentType":5126,"count":50,"max":[0.1361139863729477,0.2748536467552185,0.29106059670448303],"min":[0.04467451199889183,-0.27894407510757446,-0.29114869236946106],"type":"VEC3"},{"bufferView":89,"componentType":5126,"count":50,"type":"VEC3"},{"bufferView":90,"componentType":5126,"count":50,"type":"VEC2"},{"bufferView":91,"componentType":5123,"count":285,"normalized":true,"type":"VEC4"},{"bufferView":92,"componentType":5126,"count":285,"max":[0.16209638118743896,0.3999999165534973,0.4001116454601288],"min":[-0.16213145852088928,-0.40000006556510925,-0.3998885750770569],"type":"VEC3"},{"bufferView":93,"componentType":5126,"count":285,"type":"VEC3"},{"bufferView":94,"componentType":5126,"count":285,"type":"VEC2"},{"bufferView":95,"componentType":5123,"count":50,"normalized":true,"type":"VEC4"},{"bufferView":96,"componentType":5126,"count":50,"max":[-0.04467449337244034,0.2748536467552185,0.2911488711833954],"min":[-0.13611432909965515,-0.27894407510757446,-0.2910604178905487],"type":"VEC3"},{"bufferView":97,"componentType":5126,"count":50,"type":"VEC3"},{"bufferView":98,"componentType":5126,"count":50,"type":"VEC2"},{"bufferView":99,"componentType":5123,"count":678,"normalized":true,"type":"VEC4"},{"bufferView":100,"componentType":5126,"count":678,"max":[0.9819860458374023,1.339692234992981,2.1829726696014404],"min":[-0.9819860458374023,0.1449698507785797,-2.021433115005493],"type":"VEC3"},{"bufferView":101,"componentType":5126,"count":678,"type":"VEC3"},{"bufferView":102,"componentType":5126,"count":678,"type":"VEC2"},{"bufferView":103,"componentType":5123,"count":1752,"type":"SCALAR"},{"bufferView":104,"componentType":5123,"count":660,"normalized":true,"type":"VEC4"},{"bufferView":105,"componentType":5126,"count":660,"max":[1.155460000038147,1.3631563186645508,2.3083841800689697],"min":[-1.155460000038147,0.14665880799293518,-2.0233535766601562],"type":"VEC3"},{"bufferView":106,"componentType":5126,"count":660,"type":"VEC3"},{"bufferView":107,"componentType":5126,"count":660,"type":"VEC2"},{"bufferView":108,"componentType":5123,"count":2148,"type":"SCALAR"},{"bufferView":109,"componentType":5123,"count":94,"normalized":true,"type":"VEC4"},{"bufferView":110,"componentType":5126,"count":94,"max":[1.1280598640441895,1.2962937355041504,1.0471384525299072],"min":[-1.1280598640441895,0.9204443693161011,-1.154408574104309],"type":"VEC3"},{"bufferView":111,"componentType":5126,"count":94,"type":"VEC3"},{"bufferView":112,"componentType":5126,"count":94,"type":"VEC2"},{"bufferView":113,"componentType":5123,"count":264,"type":"SCALAR"},{"bufferView":114,"componentType":5123,"count":18,"normalized":true,"type":"VEC4"},{"bufferView":115,"componentType":5126,"count":18,"max":[0.899112343788147,0.7666485905647278,1.9124884605407715],"min":[-0.8991217017173767,0.6083522439002991,1.5094648599624634],"type":"VEC3"},{"bufferView":116,"componentType":5126,"count":18,"type":"VEC3"},{"bufferView":117,"componentType":5126,"count":18,"type":"VEC2"},{"bufferView":118,"componentType":5123,"count":42,"type":"SCALAR"},{"bufferView":119,"componentType":5123,"count":80,"normalized":true,"type":"VEC4"},{"bufferView":120,"componentType":5126,"count":80,"max":[0.7961827516555786,0.816625714302063,-1.827426552772522],"min":[-0.7961827516555786,0.6303499937057495,-1.942193865776062],"type":"VEC3"},{"bufferView":121,"componentType":5126,"count":80,"type":"VEC3"},{"bufferView":122,"componentType":5126,"count":80,"type":"VEC2"},{"bufferView":123,"componentType":5123,"count":204,"type":"SCALAR"},{"bufferView":124,"componentType":5123,"count":22,"normalized":true,"type":"VEC4"},{"bufferView":125,"componentType":5126,"count":22,"max":[0.9286785125732422,0.7909276485443115,2.0378799438476562],"min":[-0.9286878705024719,0.5868249535560608,1.5182329416275024],"type":"VEC3"},{"bufferView":126,"componentType":5126,"count":22,"type":"VEC3"},{"bufferView":127,"componentType":5126,"count":22,"type":"VEC2"},{"bufferView":128,"componentType":5123,"count":66,"type":"SCALAR"},{"bufferView":129,"componentType":5123,"count":72,"type":"SCALAR"},{"bufferView":130,"componentType":5123,"count":6,"type":"SCALAR"},{"bufferView":131,"componentType":5126,"count":48,"max":[7.5,0.09999997913837433,7.5],"min":[-7.5,-0.10000001639127731,-7.5],"type":"VEC3"},{"bufferView":132,"componentType":5126,"count":48,"type":"VEC3"},{"bufferView":133,"componentType":5126,"count":48,"type":"VEC2"},{"bufferView":134,"componentType":5126,"count":4,"max":[3.750000476837158,-0.10000000894069672,7.5],"min":[-3.750000476837158,-0.10000000894069672,-7.5],"type":"VEC3"},{"bufferView":135,"componentType":5126,"count":4,"type":"VEC3"},{"bufferView":136,"componentType":5126,"count":4,"type":"VEC2"},{"bufferView":137,"componentType":5126,"count":186,"max":[7.499999523162842,0.100006103515625,7.499999523162842],"min":[-7.499999523162842,-0.09999857097864151,-7.499999523162842],"type":"VEC3"},{"bufferView":138,"componentType":5126,"count":186,"type":"VEC3"},{"bufferView":139,"componentType":5126,"count":186,"type":"VEC2"},{"bufferView":140,"componentType":5123,"count":474,"type":"SCALAR"},{"bufferView":141,"componentType":5126,"count":4,"max":[7.500012397766113,-0.10000228881835938,7.500000953674316],"min":[-7.500101566314697,-0.10000229626893997,-7.500003337860107],"type":"VEC3"},{"bufferView":142,"componentType":5126,"count":4,"type":"VEC3"},{"bufferView":143,"componentType":5126,"count":4,"type":"VEC2"},{"bufferView":144,"componentType":5123,"count":6,"type":"SCALAR"},{"bufferView":145,"componentType":5123,"count":6,"type":"SCALAR"},{"bufferView":146,"componentType":5126,"count":82,"max":[-1.7728652954101562,0.10000000149011612,7.500003814697266],"min":[-7.5,-0.10000000149011612,-7.499988555908203],"type":"VEC3"},{"bufferView":147,"componentType":5126,"count":82,"type":"VEC3"},{"bufferView":148,"componentType":5126,"count":82,"type":"VEC2"},{"bufferView":149,"componentType":5123,"count":126,"type":"SCALAR"},{"bufferView":150,"componentType":5126,"count":8,"max":[-1.8790836334228516,0,7.5000104904174805],"min":[-7.5,-9.5367431640625e-7,-7.499988555908203],"type":"VEC3"},{"bufferView":151,"componentType":5126,"count":8,"type":"VEC3"},{"bufferView":152,"componentType":5126,"count":8,"type":"VEC2"},{"bufferView":153,"componentType":5123,"count":18,"type":"SCALAR"},{"bufferView":154,"componentType":5126,"count":4,"max":[7.5,0,7.500003814697266],"min":[-1.8790836334228516,-9.5367431640625e-7,-7.499988555908203],"type":"VEC3"},{"bufferView":155,"componentType":5126,"count":4,"type":"VEC3"},{"bufferView":156,"componentType":5126,"count":4,"type":"VEC2"},{"bufferView":157,"componentType":5126,"count":8,"max":[-5.606972694396973,0,7.5000104904174805],"min":[-7.5,-9.5367431640625e-7,-7.499988555908203],"type":"VEC3"},{"bufferView":158,"componentType":5126,"count":8,"type":"VEC3"},{"bufferView":159,"componentType":5126,"count":8,"type":"VEC2"},{"bufferView":160,"componentType":5123,"count":12,"type":"SCALAR"},{"bufferView":161,"componentType":5126,"count":40,"max":[-1.776357650756836,0.10000000149011612,7.499995231628418],"min":[-5.706169128417969,-0.10000000149011612,-7.500004768371582],"type":"VEC3"},{"bufferView":162,"componentType":5126,"count":40,"type":"VEC3"},{"bufferView":163,"componentType":5126,"count":40,"type":"VEC2"},{"bufferView":164,"componentType":5123,"count":60,"type":"SCALAR"},{"bufferView":165,"componentType":5126,"count":4,"max":[-1.8790836334228516,-9.5367431640625e-7,7.499995231628418],"min":[-5.606972694396973,-9.5367431640625e-7,-7.500004768371582],"type":"VEC3"},{"bufferView":166,"componentType":5126,"count":4,"type":"VEC3"},{"bufferView":167,"componentType":5126,"count":4,"type":"VEC2"},{"bufferView":168,"componentType":5123,"count":6,"type":"SCALAR"},{"bufferView":169,"componentType":5126,"count":4,"max":[7.5,0,7.499995231628418],"min":[-1.8790836334228516,-9.5367431640625e-7,-7.500004768371582],"type":"VEC3"},{"bufferView":170,"componentType":5126,"count":4,"type":"VEC3"},{"bufferView":171,"componentType":5126,"count":4,"type":"VEC2"},{"bufferView":172,"componentType":5123,"count":6,"type":"SCALAR"},{"bufferView":173,"componentType":5126,"count":4,"max":[-5.606972694396973,0,7.499995231628418],"min":[-7.5,-9.5367431640625e-7,-7.500004768371582],"type":"VEC3"},{"bufferView":174,"componentType":5126,"count":4,"type":"VEC3"},{"bufferView":175,"componentType":5126,"count":4,"type":"VEC2"},{"bufferView":176,"componentType":5126,"count":106,"max":[0.22128364443778992,8.304719924926758,3.0710415840148926],"min":[-0.2213037759065628,0,-0.11709251999855042],"type":"VEC3"},{"bufferView":177,"componentType":5126,"count":106,"type":"VEC3"},{"bufferView":178,"componentType":5126,"count":106,"type":"VEC2"},{"bufferView":179,"componentType":5123,"count":336,"type":"SCALAR"},{"bufferView":180,"componentType":5126,"count":10,"max":[0.13364164531230927,7.941127300262451,3.0237202644348145],"min":[-0.13366179168224335,7.70126485824585,2.2360119819641113],"type":"VEC3"},{"bufferView":181,"componentType":5126,"count":10,"type":"VEC3"},{"bufferView":182,"componentType":5126,"count":10,"type":"VEC2"},{"bufferView":183,"componentType":5123,"count":24,"type":"SCALAR"},{"bufferView":184,"componentType":5126,"count":415,"max":[2.3013758659362793,2.4992032051086426,1.7613555192947388],"min":[-2.3621609210968018,-1.1920928955078125e-7,-0.22344821691513062],"type":"VEC3"},{"bufferView":185,"componentType":5126,"count":415,"type":"VEC3"},{"bufferView":186,"componentType":5126,"count":415,"type":"VEC2"},{"bufferView":187,"componentType":5123,"count":900,"type":"SCALAR"},{"bufferView":188,"componentType":5126,"count":20,"max":[2.167264938354492,2.456160306930542,1.691227912902832],"min":[-2.167264938354492,0.6507833003997803,-0.17511561512947083],"type":"VEC3"},{"bufferView":189,"componentType":5126,"count":20,"type":"VEC3"},{"bufferView":190,"componentType":5126,"count":20,"type":"VEC2"},{"bufferView":191,"componentType":5123,"count":30,"type":"SCALAR"},{"bufferView":192,"componentType":5126,"count":118,"max":[0.6283481121063232,1.2132635116577148,0.517784595489502],"min":[-0.5177860856056213,-6.827591647606823e-8,-0.6442232131958008],"type":"VEC3"},{"bufferView":193,"componentType":5126,"count":118,"type":"VEC3"},{"bufferView":194,"componentType":5126,"count":118,"type":"VEC2"},{"bufferView":195,"componentType":5123,"count":324,"type":"SCALAR"},{"bufferView":196,"componentType":5126,"count":92,"max":[0.5701413154602051,1.2098585367202759,0.5699145793914795],"min":[-0.5696879029273987,-6.827591647606823e-8,-0.5699145793914795],"type":"VEC3"},{"bufferView":197,"componentType":5126,"count":92,"type":"VEC3"},{"bufferView":198,"componentType":5126,"count":92,"type":"VEC2"},{"bufferView":199,"componentType":5123,"count":228,"type":"SCALAR"},{"bufferView":200,"componentType":5123,"count":132,"type":"SCALAR"},{"bufferView":201,"componentType":5126,"count":76,"max":[1.0424615144729614,1.639740228652954,0.5986649990081787],"min":[-1.0424615144729614,-0.00527788233011961,-0.5966669321060181],"type":"VEC3"},{"bufferView":202,"componentType":5126,"count":76,"type":"VEC3"},{"bufferView":203,"componentType":5126,"count":76,"type":"VEC2"},{"bufferView":204,"componentType":5126,"count":566,"max":[1.3794394731521606,7.102696895599365,1.3794403076171875],"min":[-1.3794411420822144,0,-1.3794403076171875],"type":"VEC3"},{"bufferView":205,"componentType":5126,"count":566,"type":"VEC3"},{"bufferView":206,"componentType":5126,"count":566,"type":"VEC2"},{"bufferView":207,"componentType":5123,"count":1632,"type":"SCALAR"},{"bufferView":208,"componentType":5126,"count":120,"max":[1.2470276355743408,6.861074924468994,1.2470283508300781],"min":[-1.2470276355743408,5.480563163757324,-1.2470283508300781],"type":"VEC3"},{"bufferView":209,"componentType":5126,"count":120,"type":"VEC3"},{"bufferView":210,"componentType":5126,"count":120,"type":"VEC2"},{"bufferView":211,"componentType":5123,"count":360,"type":"SCALAR"},{"bufferView":212,"componentType":5126,"count":20,"max":[0.9925661087036133,1,0.49380436539649963],"min":[-0.9925661087036133,0,-0.49380436539649963],"type":"VEC3"},{"bufferView":213,"componentType":5126,"count":20,"type":"VEC3"},{"bufferView":214,"componentType":5126,"count":20,"type":"VEC2"},{"bufferView":215,"componentType":5123,"count":90,"type":"SCALAR"}],"bufferViews":[{"buffer":0,"byteLength":960,"byteOffset":0,"target":34962},{"buffer":0,"byteLength":1440,"byteOffset":960,"target":34962},{"buffer":0,"byteLength":1440,"byteOffset":2400,"target":34962},{"buffer":0,"byteLength":960,"byteOffset":3840,"target":34962},{"buffer":0,"byteLength":1188,"byteOffset":4800,"target":34963},{"buffer":0,"byteLength":272,"byteOffset":5988,"target":34962},{"buffer":0,"byteLength":408,"byteOffset":6260,"target":34962},{"buffer":0,"byteLength":408,"byteOffset":6668,"target":34962},{"buffer":0,"byteLength":272,"byteOffset":7076,"target":34962},{"buffer":0,"byteLength":192,"byteOffset":7348,"target":34963},{"buffer":0,"byteLength":960,"byteOffset":7540,"target":34962},{"buffer":0,"byteLength":1440,"byteOffset":8500,"target":34962},{"buffer":0,"byteLength":1440,"byteOffset":9940,"target":34962},{"buffer":0,"byteLength":960,"byteOffset":11380,"target":34962},{"buffer":0,"byteLength":272,"byteOffset":12340,"target":34962},{"buffer":0,"byteLength":408,"byteOffset":12612,"target":34962},{"buffer":0,"byteLength":408,"byteOffset":13020,"target":34962},{"buffer":0,"byteLength":272,"byteOffset":13428,"target":34962},{"buffer":0,"byteLength":960,"byteOffset":13700,"target":34962},{"buffer":0,"byteLength":1440,"byteOffset":14660,"target":34962},{"buffer":0,"byteLength":1440,"byteOffset":16100,"target":34962},{"buffer":0,"byteLength":960,"byteOffset":17540,"target":34962},{"buffer":0,"byteLength":272,"byteOffset":18500,"target":34962},{"buffer":0,"byteLength":408,"byteOffset":18772,"target":34962},{"buffer":0,"byteLength":408,"byteOffset":19180,"target":34962},{"buffer":0,"byteLength":272,"byteOffset":19588,"target":34962},{"buffer":0,"byteLength":960,"byteOffset":19860,"target":34962},{"buffer":0,"byteLength":1440,"byteOffset":20820,"target":34962},{"buffer":0,"byteLength":1440,"byteOffset":22260,"target":34962},{"buffer":0,"byteLength":960,"byteOffset":23700,"target":34962},{"buffer":0,"byteLength":272,"byteOffset":24660,"target":34962},{"buffer":0,"byteLength":408,"byteOffset":24932,"target":34962},{"buffer":0,"byteLength":408,"byteOffset":25340,"target":34962},{"buffer":0,"byteLength":272,"byteOffset":25748,"target":34962},{"buffer":0,"byteLength":12192,"byteOffset":26020,"target":34962},{"buffer":0,"byteLength":18288,"byteOffset":38212,"target":34962},{"buffer":0,"byteLength":18288,"byteOffset":56500,"target":34962},{"buffer":0,"byteLength":12192,"byteOffset":74788,"target":34962},{"buffer":0,"byteLength":10470,"byteOffset":86980,"target":34963},{"buffer":0,"byteLength":1056,"byteOffset":97452,"target":34962},{"buffer":0,"byteLength":1584,"byteOffset":98508,"target":34962},{"buffer":0,"byteLength":1584,"byteOffset":100092,"target":34962},{"buffer":0,"byteLength":1056,"byteOffset":101676,"target":34962},{"buffer":0,"byteLength":744,"byteOffset":102732,"target":34963},{"buffer":0,"byteLength":840,"byteOffset":103476,"target":34962},{"buffer":0,"byteLength":1260,"byteOffset":104316,"target":34962},{"buffer":0,"byteLength":1260,"byteOffset":105576,"target":34962},{"buffer":0,"byteLength":840,"byteOffset":106836,"target":34962},{"buffer":0,"byteLength":522,"byteOffset":107676,"target":34963},{"buffer":0,"byteLength":480,"byteOffset":108200,"target":34962},{"buffer":0,"byteLength":720,"byteOffset":108680,"target":34962},{"buffer":0,"byteLength":720,"byteOffset":109400,"target":34962},{"buffer":0,"byteLength":480,"byteOffset":110120,"target":34962},{"buffer":0,"byteLength":576,"byteOffset":110600,"target":34963},{"buffer":0,"byteLength":768,"byteOffset":111176,"target":34962},{"buffer":0,"byteLength":1152,"byteOffset":111944,"target":34962},{"buffer":0,"byteLength":1152,"byteOffset":113096,"target":34962},{"buffer":0,"byteLength":768,"byteOffset":114248,"target":34962},{"buffer":0,"byteLength":816,"byteOffset":115016,"target":34963},{"buffer":0,"byteLength":992,"byteOffset":115832,"target":34962},{"buffer":0,"byteLength":1488,"byteOffset":116824,"target":34962},{"buffer":0,"byteLength":1488,"byteOffset":118312,"target":34962},{"buffer":0,"byteLength":992,"byteOffset":119800,"target":34962},{"buffer":0,"byteLength":540,"byteOffset":120792,"target":34963},{"buffer":0,"byteLength":2280,"byteOffset":121332,"target":34962},{"buffer":0,"byteLength":3420,"byteOffset":123612,"target":34962},{"buffer":0,"byteLength":3420,"byteOffset":127032,"target":34962},{"buffer":0,"byteLength":2280,"byteOffset":130452,"target":34962},{"buffer":0,"byteLength":2028,"byteOffset":132732,"target":34963},{"buffer":0,"byteLength":400,"byteOffset":134760,"target":34962},{"buffer":0,"byteLength":600,"byteOffset":135160,"target":34962},{"buffer":0,"byteLength":600,"byteOffset":135760,"target":34962},{"buffer":0,"byteLength":400,"byteOffset":136360,"target":34962},{"buffer":0,"byteLength":240,"byteOffset":136760,"target":34963},{"buffer":0,"byteLength":2280,"byteOffset":137000,"target":34962},{"buffer":0,"byteLength":3420,"byteOffset":139280,"target":34962},{"buffer":0,"byteLength":3420,"byteOffset":142700,"target":34962},{"buffer":0,"byteLength":2280,"byteOffset":146120,"target":34962},{"buffer":0,"byteLength":2028,"byteOffset":148400,"target":34963},{"buffer":0,"byteLength":400,"byteOffset":150428,"target":34962},{"buffer":0,"byteLength":600,"byteOffset":150828,"target":34962},{"buffer":0,"byteLength":600,"byteOffset":151428,"target":34962},{"buffer":0,"byteLength":400,"byteOffset":152028,"target":34962},{"buffer":0,"byteLength":2280,"byteOffset":152428,"target":34962},{"buffer":0,"byteLength":3420,"byteOffset":154708,"target":34962},{"buffer":0,"byteLength":3420,"byteOffset":158128,"target":34962},{"buffer":0,"byteLength":2280,"byteOffset":161548,"target":34962},{"buffer":0,"byteLength":400,"byteOffset":163828,"target":34962},{"buffer":0,"byteLength":600,"byteOffset":164228,"target":34962},{"buffer":0,"byteLength":600,"byteOffset":164828,"target":34962},{"buffer":0,"byteLength":400,"byteOffset":165428,"target":34962},{"buffer":0,"byteLength":2280,"byteOffset":165828,"target":34962},{"buffer":0,"byteLength":3420,"byteOffset":168108,"target":34962},{"buffer":0,"byteLength":3420,"byteOffset":171528,"target":34962},{"buffer":0,"byteLength":2280,"byteOffset":174948,"target":34962},{"buffer":0,"byteLength":400,"byteOffset":177228,"target":34962},{"buffer":0,"byteLength":600,"byteOffset":177628,"target":34962},{"buffer":0,"byteLength":600,"byteOffset":178228,"target":34962},{"buffer":0,"byteLength":400,"byteOffset":178828,"target":34962},{"buffer":0,"byteLength":5424,"byteOffset":179228,"target":34962},{"buffer":0,"byteLength":8136,"byteOffset":184652,"target":34962},{"buffer":0,"byteLength":8136,"byteOffset":192788,"target":34962},{"buffer":0,"byteLength":5424,"byteOffset":200924,"target":34962},{"buffer":0,"byteLength":3504,"byteOffset":206348,"target":34963},{"buffer":0,"byteLength":5280,"byteOffset":209852,"target":34962},{"buffer":0,"byteLength":7920,"byteOffset":215132,"target":34962},{"buffer":0,"byteLength":7920,"byteOffset":223052,"target":34962},{"buffer":0,"byteLength":5280,"byteOffset":230972,"target":34962},{"buffer":0,"byteLength":4296,"byteOffset":236252,"target":34963},{"buffer":0,"byteLength":752,"byteOffset":240548,"target":34962},{"buffer":0,"byteLength":1128,"byteOffset":241300,"target":34962},{"buffer":0,"byteLength":1128,"byteOffset":242428,"target":34962},{"buffer":0,"byteLength":752,"byteOffset":243556,"target":34962},{"buffer":0,"byteLength":528,"byteOffset":244308,"target":34963},{"buffer":0,"byteLength":144,"byteOffset":244836,"target":34962},{"buffer":0,"byteLength":216,"byteOffset":244980,"target":34962},{"buffer":0,"byteLength":216,"byteOffset":245196,"target":34962},{"buffer":0,"byteLength":144,"byteOffset":245412,"target":34962},{"buffer":0,"byteLength":84,"byteOffset":245556,"target":34963},{"buffer":0,"byteLength":640,"byteOffset":245640,"target":34962},{"buffer":0,"byteLength":960,"byteOffset":246280,"target":34962},{"buffer":0,"byteLength":960,"byteOffset":247240,"target":34962},{"buffer":0,"byteLength":640,"byteOffset":248200,"target":34962},{"buffer":0,"byteLength":408,"byteOffset":248840,"target":34963},{"buffer":0,"byteLength":176,"byteOffset":249248,"target":34962},{"buffer":0,"byteLength":264,"byteOffset":249424,"target":34962},{"buffer":0,"byteLength":264,"byteOffset":249688,"target":34962},{"buffer":0,"byteLength":176,"byteOffset":249952,"target":34962},{"buffer":0,"byteLength":132,"byteOffset":250128,"target":34963},{"buffer":0,"byteLength":144,"byteOffset":250260,"target":34963},{"buffer":0,"byteLength":12,"byteOffset":250404,"target":34963},{"buffer":0,"byteLength":576,"byteOffset":250416,"target":34962},{"buffer":0,"byteLength":576,"byteOffset":250992,"target":34962},{"buffer":0,"byteLength":384,"byteOffset":251568,"target":34962},{"buffer":0,"byteLength":48,"byteOffset":251952,"target":34962},{"buffer":0,"byteLength":48,"byteOffset":252000,"target":34962},{"buffer":0,"byteLength":32,"byteOffset":252048,"target":34962},{"buffer":0,"byteLength":2232,"byteOffset":252080,"target":34962},{"buffer":0,"byteLength":2232,"byteOffset":254312,"target":34962},{"buffer":0,"byteLength":1488,"byteOffset":256544,"target":34962},{"buffer":0,"byteLength":948,"byteOffset":258032,"target":34963},{"buffer":0,"byteLength":48,"byteOffset":258980,"target":34962},{"buffer":0,"byteLength":48,"byteOffset":259028,"target":34962},{"buffer":0,"byteLength":32,"byteOffset":259076,"target":34962},{"buffer":0,"byteLength":12,"byteOffset":259108,"target":34963},{"buffer":0,"byteLength":12,"byteOffset":259120,"target":34963},{"buffer":0,"byteLength":984,"byteOffset":259132,"target":34962},{"buffer":0,"byteLength":984,"byteOffset":260116,"target":34962},{"buffer":0,"byteLength":656,"byteOffset":261100,"target":34962},{"buffer":0,"byteLength":252,"byteOffset":261756,"target":34963},{"buffer":0,"byteLength":96,"byteOffset":262008,"target":34962},{"buffer":0,"byteLength":96,"byteOffset":262104,"target":34962},{"buffer":0,"byteLength":64,"byteOffset":262200,"target":34962},{"buffer":0,"byteLength":36,"byteOffset":262264,"target":34963},{"buffer":0,"byteLength":48,"byteOffset":262300,"target":34962},{"buffer":0,"byteLength":48,"byteOffset":262348,"target":34962},{"buffer":0,"byteLength":32,"byteOffset":262396,"target":34962},{"buffer":0,"byteLength":96,"byteOffset":262428,"target":34962},{"buffer":0,"byteLength":96,"byteOffset":262524,"target":34962},{"buffer":0,"byteLength":64,"byteOffset":262620,"target":34962},{"buffer":0,"byteLength":24,"byteOffset":262684,"target":34963},{"buffer":0,"byteLength":480,"byteOffset":262708,"target":34962},{"buffer":0,"byteLength":480,"byteOffset":263188,"target":34962},{"buffer":0,"byteLength":320,"byteOffset":263668,"target":34962},{"buffer":0,"byteLength":120,"byteOffset":263988,"target":34963},{"buffer":0,"byteLength":48,"byteOffset":264108,"target":34962},{"buffer":0,"byteLength":48,"byteOffset":264156,"target":34962},{"buffer":0,"byteLength":32,"byteOffset":264204,"target":34962},{"buffer":0,"byteLength":12,"byteOffset":264236,"target":34963},{"buffer":0,"byteLength":48,"byteOffset":264248,"target":34962},{"buffer":0,"byteLength":48,"byteOffset":264296,"target":34962},{"buffer":0,"byteLength":32,"byteOffset":264344,"target":34962},{"buffer":0,"byteLength":12,"byteOffset":264376,"target":34963},{"buffer":0,"byteLength":48,"byteOffset":264388,"target":34962},{"buffer":0,"byteLength":48,"byteOffset":264436,"target":34962},{"buffer":0,"byteLength":32,"byteOffset":264484,"target":34962},{"buffer":0,"byteLength":1272,"byteOffset":264516,"target":34962},{"buffer":0,"byteLength":1272,"byteOffset":265788,"target":34962},{"buffer":0,"byteLength":848,"byteOffset":267060,"target":34962},{"buffer":0,"byteLength":672,"byteOffset":267908,"target":34963},{"buffer":0,"byteLength":120,"byteOffset":268580,"target":34962},{"buffer":0,"byteLength":120,"byteOffset":268700,"target":34962},{"buffer":0,"byteLength":80,"byteOffset":268820,"target":34962},{"buffer":0,"byteLength":48,"byteOffset":268900,"target":34963},{"buffer":0,"byteLength":4980,"byteOffset":268948,"target":34962},{"buffer":0,"byteLength":4980,"byteOffset":273928,"target":34962},{"buffer":0,"byteLength":3320,"byteOffset":278908,"target":34962},{"buffer":0,"byteLength":1800,"byteOffset":282228,"target":34963},{"buffer":0,"byteLength":240,"byteOffset":284028,"target":34962},{"buffer":0,"byteLength":240,"byteOffset":284268,"target":34962},{"buffer":0,"byteLength":160,"byteOffset":284508,"target":34962},{"buffer":0,"byteLength":60,"byteOffset":284668,"target":34963},{"buffer":0,"byteLength":1416,"byteOffset":284728,"target":34962},{"buffer":0,"byteLength":1416,"byteOffset":286144,"target":34962},{"buffer":0,"byteLength":944,"byteOffset":287560,"target":34962},{"buffer":0,"byteLength":648,"byteOffset":288504,"target":34963},{"buffer":0,"byteLength":1104,"byteOffset":289152,"target":34962},{"buffer":0,"byteLength":1104,"byteOffset":290256,"target":34962},{"buffer":0,"byteLength":736,"byteOffset":291360,"target":34962},{"buffer":0,"byteLength":456,"byteOffset":292096,"target":34963},{"buffer":0,"byteLength":264,"byteOffset":292552,"target":34963},{"buffer":0,"byteLength":912,"byteOffset":292816,"target":34962},{"buffer":0,"byteLength":912,"byteOffset":293728,"target":34962},{"buffer":0,"byteLength":608,"byteOffset":294640,"target":34962},{"buffer":0,"byteLength":6792,"byteOffset":295248,"target":34962},{"buffer":0,"byteLength":6792,"byteOffset":302040,"target":34962},{"buffer":0,"byteLength":4528,"byteOffset":308832,"target":34962},{"buffer":0,"byteLength":3264,"byteOffset":313360,"target":34963},{"buffer":0,"byteLength":1440,"byteOffset":316624,"target":34962},{"buffer":0,"byteLength":1440,"byteOffset":318064,"target":34962},{"buffer":0,"byteLength":960,"byteOffset":319504,"target":34962},{"buffer":0,"byteLength":720,"byteOffset":320464,"target":34963},{"buffer":0,"byteLength":240,"byteOffset":321184,"target":34962},{"buffer":0,"byteLength":240,"byteOffset":321424,"target":34962},{"buffer":0,"byteLength":160,"byteOffset":321664,"target":34962},{"buffer":0,"byteLength":180,"byteOffset":321824,"target":34963}],"buffers":[{"uri":"south-west.bin","byteLength":322004}]}