{"asset":{"version":"2.0","generator":"Jarvis Cartoon City sectorizer v1"},"extensionsUsed":["KHR_materials_specular","KHR_materials_ior","KHR_materials_emissive_strength"],"scenes":[{"name":"Cartoon City Free — south-central-east","nodes":[0,6,11,16,17,18,19,20,21,22,23,24,25,26,27,28,29,30,32]}],"scene":0,"nodes":[{"mesh":10,"name":"Car_13.002","rotation":[0,1,0,7.549790126404332e-8],"translation":[54.53307342529297,-0.09999997168779373,-6.331631660461426],"children":[1,2,3,4,5]},{"mesh":5,"name":"Car_13_Spoiler.002","translation":[-0.000006673344159935368,0,0.0000029890579753555357]},{"mesh":6,"name":"Car_13_Wheel_Front_Left.002","translation":[0.8458186984062195,0.40000006556510925,1.2239484786987305]},{"mesh":7,"name":"Car_13_Wheel_Front_Right.002","translation":[-0.8458316922187805,0.40000006556510925,1.2239487171173096]},{"mesh":8,"name":"Car_13_Wheel_Rear_Left.002","translation":[0.8458183407783508,0.40000006556510925,-1.2239503860473633]},{"mesh":9,"name":"Car_13_Wheel_Rear_Right.002","translation":[-0.8458320498466492,0.40000006556510925,-1.2239501476287842]},{"mesh":4,"name":"Car_06.004","translation":[50.610862731933594,-0.09999997168779373,-19.958616256713867],"children":[7,8,9,10]},{"mesh":0,"name":"Car_06_Wheel_Front_Left.004","translation":[0.8459243774414062,0.40000006556510925,1.1005916595458984]},{"mesh":1,"name":"Car_06_Wheel_Front_Right.004","translation":[-0.8457260131835938,0.40000006556510925,1.1005916595458984]},{"mesh":2,"name":"Car_06_Wheel_Rear_Left.004","translation":[0.8459243774414062,0.40000006556510925,-1.100595474243164]},{"mesh":3,"name":"Car_06_Wheel_Rear_Right.004","translation":[-0.8457260131835938,0.40000006556510925,-1.100595474243164]},{"mesh":15,"name":"Futuristic_Car_1.002","rotation":[0,1,0,7.549790126404332e-8],"translation":[54.588226318359375,0,-36.21934509277344],"children":[12,13,14,15]},{"mesh":11,"name":"Futuristic_Car_1_Wheel_Front_Left.002","translation":[1.0317096710205078,0.40000003576278687,1.4104466438293457]},{"mesh":12,"name":"Futuristic_Car_1_Wheel_Front_Right.002","translation":[-1.0315227508544922,0.40000003576278687,1.4104468822479248]},{"mesh":13,"name":"Futuristic_Car_1_Wheel_Rear_Left.002","translation":[1.0317091941833496,0.40000003576278687,-1.4104304313659668]},{"mesh":14,"name":"Futuristic_Car_1_Wheel_Rear_Right.002","translation":[-1.0315232276916504,0.40000003576278687,-1.4104301929473877]},{"mesh":16,"name":"Eco_Building_Grid.005","rotation":[0,0.7071066498756409,0,0.70710688829422],"translation":[33.943817138671875,-0.000003814697265625,-6.79998779296875]},{"mesh":17,"name":"road_009.243","translation":[52.5,0,-7.5]},{"mesh":17,"name":"road_009.244","translation":[52.5,0,-22.5]},{"mesh":17,"name":"road_009.245","translation":[52.5,0,-37.5]},{"mesh":20,"name":"Set_B_Tiles_05.112","translation":[22.5,0,-7.5]},{"mesh":20,"name":"Set_B_Tiles_05.113","translation":[22.5,0,-22.5]},{"mesh":19,"name":"Set_B_Tiles_09.152","translation":[37.5,0,-37.5]},{"mesh":19,"name":"Set_B_Tiles_09.153","translation":[37.5,0,-22.5]},{"mesh":19,"name":"Set_B_Tiles_09.154","translation":[37.5,0,-7.5]},{"mesh":18,"name":"Set_B_Tiles_04.053","translation":[22.5,0,-37.5]},{"mesh":21,"name":"Spotlight_01.110","rotation":[0,0.7071086168289185,0,0.7071049213409424],"translation":[46.7041015625,0,-30.311111450195312]},{"mesh":21,"name":"Spotlight_01.111","rotation":[0,-0.707105278968811,0,0.7071083784103394],"translation":[58.40911865234375,0,-1.3155059814453125]},{"mesh":22,"name":"Bus_Stop_02.050","rotation":[0,0.7071070671081543,0,0.7071065902709961],"translation":[46.170989990234375,0,-23.491973876953125]},{"mesh":23,"name":"Trash_06.055","rotation":[0,0.7071142792701721,0,0.7070993781089783],"translation":[46.843353271484375,0,-17.691650390625]},{"mesh":25,"name":"Billboard_4x1_03.002","rotation":[0,0.7071066498756409,0,0.70710688829422],"translation":[42.027099609375,47.67780303955078,-14.867950439453125],"children":[31]},{"mesh":24,"name":"Billboard_4x1_03_Line.002","translation":[-0.00003091766848228872,0,0]},{"mesh":26,"name":"Signboard_01.004","rotation":[0,-1,0,4.331257628109597e-7],"translation":[41.917388916015625,12.674236297607422,-19.48663330078125]}],"meshes":[{"name":"Mesh.097","primitives":[{"attributes":{"COLOR_0":0,"POSITION":1,"NORMAL":2,"TEXCOORD_0":3},"indices":4,"material":0}]},{"name":"Mesh.094","primitives":[{"attributes":{"COLOR_0":5,"POSITION":6,"NORMAL":7,"TEXCOORD_0":8},"indices":9,"material":0}]},{"name":"Mesh.096","primitives":[{"attributes":{"COLOR_0":10,"POSITION":11,"NORMAL":12,"TEXCOORD_0":13},"indices":4,"material":0}]},{"name":"Mesh.095","primitives":[{"attributes":{"COLOR_0":14,"POSITION":15,"NORMAL":16,"TEXCOORD_0":17},"indices":9,"material":0}]},{"name":"Cube.266","primitives":[{"attributes":{"COLOR_0":18,"POSITION":19,"NORMAL":20,"TEXCOORD_0":21},"indices":22,"material":0},{"attributes":{"COLOR_0":23,"POSITION":24,"NORMAL":25,"TEXCOORD_0":26},"indices":27,"material":5},{"attributes":{"COLOR_0":28,"POSITION":29,"NORMAL":30,"TEXCOORD_0":31},"indices":32,"material":2},{"attributes":{"COLOR_0":33,"POSITION":34,"NORMAL":35,"TEXCOORD_0":36},"indices":37,"material":6},{"attributes":{"COLOR_0":38,"POSITION":39,"NORMAL":40,"TEXCOORD_0":41},"indices":42,"material":3},{"attributes":{"COLOR_0":43,"POSITION":44,"NORMAL":45,"TEXCOORD_0":46},"indices":47,"material":4}]},{"name":"Cube.237","primitives":[{"attributes":{"COLOR_0":48,"POSITION":49,"NORMAL":50,"TEXCOORD_0":51},"indices":52,"material":0}]},{"name":"Mesh.150","primitives":[{"attributes":{"COLOR_0":53,"POSITION":54,"NORMAL":55,"TEXCOORD_0":56},"indices":57,"material":0},{"attributes":{"COLOR_0":58,"POSITION":59,"NORMAL":60,"TEXCOORD_0":61},"indices":62,"material":1}]},{"name":"Mesh.062","primitives":[{"attributes":{"COLOR_0":63,"POSITION":64,"NORMAL":65,"TEXCOORD_0":66},"indices":67,"material":0},{"attributes":{"COLOR_0":68,"POSITION":69,"NORMAL":70,"TEXCOORD_0":71},"indices":62,"material":1}]},{"name":"Mesh.151","primitives":[{"attributes":{"COLOR_0":72,"POSITION":73,"NORMAL":74,"TEXCOORD_0":75},"indices":57,"material":0},{"attributes":{"COLOR_0":76,"POSITION":77,"NORMAL":78,"TEXCOORD_0":79},"indices":62,"material":1}]},{"name":"Mesh.152","primitives":[{"attributes":{"COLOR_0":80,"POSITION":81,"NORMAL":82,"TEXCOORD_0":83},"indices":67,"material":0},{"attributes":{"COLOR_0":84,"POSITION":85,"NORMAL":86,"TEXCOORD_0":87},"indices":62,"material":1}]},{"name":"Cube.215","primitives":[{"attributes":{"COLOR_0":88,"POSITION":89,"NORMAL":90,"TEXCOORD_0":91},"indices":92,"material":0},{"attributes":{"COLOR_0":93,"POSITION":94,"NORMAL":95,"TEXCOORD_0":96},"indices":97,"material":5},{"attributes":{"COLOR_0":98,"POSITION":99,"NORMAL":100,"TEXCOORD_0":101},"indices":102,"material":2},{"attributes":{"COLOR_0":103,"POSITION":104,"NORMAL":105,"TEXCOORD_0":106},"indices":107,"material":6},{"attributes":{"COLOR_0":108,"POSITION":109,"NORMAL":110,"TEXCOORD_0":111},"indices":112,"material":3},{"attributes":{"COLOR_0":113,"POSITION":114,"NORMAL":115,"TEXCOORD_0":116},"indices":117,"material":4}]},{"name":"Mesh.176","primitives":[{"attributes":{"COLOR_0":118,"POSITION":119,"NORMAL":120,"TEXCOORD_0":121},"indices":122,"material":0},{"attributes":{"COLOR_0":123,"POSITION":124,"NORMAL":125,"TEXCOORD_0":126},"indices":127,"material":7}]},{"name":"Mesh.173","primitives":[{"attributes":{"COLOR_0":128,"POSITION":129,"NORMAL":130,"TEXCOORD_0":131},"indices":132,"material":0},{"attributes":{"COLOR_0":133,"POSITION":134,"NORMAL":135,"TEXCOORD_0":136},"indices":137,"material":7}]},{"name":"Mesh.175","primitives":[{"attributes":{"COLOR_0":138,"POSITION":139,"NORMAL":140,"TEXCOORD_0":141},"indices":122,"material":0},{"attributes":{"COLOR_0":142,"POSITION":143,"NORMAL":144,"TEXCOORD_0":145},"indices":127,"material":7}]},{"name":"Mesh.174","primitives":[{"attributes":{"COLOR_0":146,"POSITION":147,"NORMAL":148,"TEXCOORD_0":149},"indices":132,"material":0},{"attributes":{"COLOR_0":150,"POSITION":151,"NORMAL":152,"TEXCOORD_0":153},"indices":137,"material":7}]},{"name":"Plane.034","primitives":[{"attributes":{"POSITION":154,"NORMAL":155,"TEXCOORD_0":156},"indices":157,"material":0},{"attributes":{"POSITION":158,"NORMAL":159,"TEXCOORD_0":160},"indices":161,"material":5},{"attributes":{"POSITION":162,"NORMAL":163,"TEXCOORD_0":164},"indices":165,"material":2},{"attributes":{"POSITION":166,"NORMAL":167,"TEXCOORD_0":168},"indices":169,"material":3},{"attributes":{"POSITION":170,"NORMAL":171,"TEXCOORD_0":172},"indices":173,"material":6}]},{"name":"Cube.125","primitives":[{"attributes":{"POSITION":174,"NORMAL":175,"TEXCOORD_0":176},"indices":177,"material":0},{"attributes":{"POSITION":178,"NORMAL":179,"TEXCOORD_0":180},"indices":181,"material":4},{"attributes":{"POSITION":182,"NORMAL":183,"TEXCOORD_0":184},"indices":185,"material":2}]},{"name":"Cube.206","primitives":[{"attributes":{"POSITION":188,"NORMAL":189,"TEXCOORD_0":190},"indices":186,"material":0},{"attributes":{"POSITION":191,"NORMAL":192,"TEXCOORD_0":193},"indices":187,"material":8}]},{"name":"Plane.268","primitives":[{"attributes":{"POSITION":195,"NORMAL":196,"TEXCOORD_0":197},"indices":198,"material":0},{"attributes":{"POSITION":199,"NORMAL":200,"TEXCOORD_0":201},"indices":202,"material":9},{"attributes":{"POSITION":203,"NORMAL":204,"TEXCOORD_0":205},"indices":194,"material":10},{"attributes":{"POSITION":206,"NORMAL":207,"TEXCOORD_0":208},"indices":209,"material":11}]},{"name":"Plane.276","primitives":[{"attributes":{"POSITION":210,"NORMAL":211,"TEXCOORD_0":212},"indices":213,"material":10}]},{"name":"Plane.271","primitives":[{"attributes":{"POSITION":214,"NORMAL":215,"TEXCOORD_0":216},"indices":217,"material":0},{"attributes":{"POSITION":218,"NORMAL":219,"TEXCOORD_0":220},"indices":221,"material":9},{"attributes":{"POSITION":222,"NORMAL":223,"TEXCOORD_0":224},"indices":225,"material":10},{"attributes":{"POSITION":226,"NORMAL":227,"TEXCOORD_0":228},"indices":194,"material":11}]},{"name":"Cube.184","primitives":[{"attributes":{"POSITION":229,"NORMAL":230,"TEXCOORD_0":231},"indices":232,"material":0},{"attributes":{"POSITION":233,"NORMAL":234,"TEXCOORD_0":235},"indices":236,"material":7}]},{"name":"Plane.630","primitives":[{"attributes":{"POSITION":237,"NORMAL":238,"TEXCOORD_0":239},"indices":240,"material":0},{"attributes":{"POSITION":241,"NORMAL":242,"TEXCOORD_0":243},"indices":244,"material":4}]},{"name":"Cube.8680","primitives":[{"attributes":{"POSITION":245,"NORMAL":246,"TEXCOORD_0":247},"indices":248,"material":0}]},{"name":"Cube.197","primitives":[{"attributes":{"POSITION":249,"NORMAL":250,"TEXCOORD_0":251},"indices":252,"material":13}]},{"name":"Cube.198","primitives":[{"attributes":{"POSITION":253,"NORMAL":254,"TEXCOORD_0":255},"indices":256,"material":0},{"attributes":{"POSITION":257,"NORMAL":258,"TEXCOORD_0":259},"indices":252,"material":12}]},{"name":"Cube.133","primitives":[{"attributes":{"POSITION":260,"NORMAL":261,"TEXCOORD_0":262},"indices":263,"material":0},{"attributes":{"POSITION":264,"NORMAL":265,"TEXCOORD_0":266},"indices":267,"material":4},{"attributes":{"POSITION":268,"NORMAL":269,"TEXCOORD_0":270},"indices":271,"material":7}]}],"materials":[{"doubleSided":true,"name":"Color","pbrMetallicRoughness":{"baseColorTexture":{"index":0},"metallicFactor":0,"roughnessFactor":0.699999988079071}},{"doubleSided":true,"name":"Metal","pbrMetallicRoughness":{"baseColorTexture":{"index":1},"roughnessFactor":0.3316831588745117}},{"doubleSided":true,"name":"Color_Glossy","pbrMetallicRoughness":{"baseColorTexture":{"index":2},"metallicFactor":0,"roughnessFactor":0.20000000298023224}},{"doubleSided":true,"emissiveFactor":[1,1,1],"emissiveTexture":{"index":3},"name":"Car_Taillights","pbrMetallicRoughness":{"baseColorTexture":{"index":4},"metallicFactor":0,"roughnessFactor":0.5}},{"alphaMode":"BLEND","doubleSided":true,"extensions":{"KHR_materials_specular":{"specularColorFactor":[2.371357614441398,2.371357614441398,2.371357614441398]},"KHR_materials_ior":{"ior":1.4500000476837158}},"name":"Glass","pbrMetallicRoughness":{"baseColorFactor":[1,1,1,0.5],"baseColorTexture":{"index":5},"metallicFactor":0.20000000298023224,"roughnessFactor":0.05000000074505806}},{"doubleSided":true,"emissiveFactor":[0.10000000149011612,0.10000000149011612,0.10000000149011612],"emissiveTexture":{"index":6},"name":"Car_Color","pbrMetallicRoughness":{"baseColorTexture":{"index":7},"metallicFactor":0.20000000298023224,"roughnessFactor":0.10000000149011612}},{"doubleSided":true,"emissiveFactor":[1,1,1],"emissiveTexture":{"index":8},"name":"Car_Headlights","pbrMetallicRoughness":{"baseColorTexture":{"index":9},"metallicFactor":0,"roughnessFactor":0.5}},{"doubleSided":true,"emissiveFactor":[1,1,1],"emissiveTexture":{"index":10},"extensions":{"KHR_materials_emissive_strength":{"emissiveStrength":3}},"name":"Emissive","pbrMetallicRoughness":{"baseColorTexture":{"index":11},"metallicFactor":0,"roughnessFactor":0.5}},{"doubleSided":true,"emissiveFactor":[0.10000000149011612,0.10000000149011612,0.10000000149011612],"emissiveTexture":{"index":12},"extensions":{"KHR_materials_specular":{"specularColorFactor":[0.711407312601205,0.711407312601205,0.711407312601205]},"KHR_materials_ior":{"ior":1.4500000476837158}},"name":"Roads","pbrMetallicRoughness":{"baseColorTexture":{"index":13},"metallicFactor":0,"roughnessFactor":0.75}},{"doubleSided":true,"name":"Asphalt_Dark_Gray","pbrMetallicRoughness":{"baseColorFactor":[0.13853572309017181,0.13853572309017181,0.13853572309017181,1],"metallicFactor":0,"roughnessFactor":0.5}},{"doubleSided":true,"name":"Tile_1","normalTexture":{"index":14,"scale":5},"pbrMetallicRoughness":{"baseColorTexture":{"index":15},"metallicFactor":0,"metallicRoughnessTexture":{"index":16}}},{"doubleSided":true,"name":"Grass","pbrMetallicRoughness":{"baseColorFactor":[0.25015830993652344,0.44520121812820435,0.13013650476932526,1],"metallicFactor":0,"roughnessFactor":0.7598187327384949}},{"doubleSided":true,"emissiveFactor":[1,1,1],"emissiveTexture":{"index":17},"name":"Billboard","pbrMetallicRoughness":{"baseColorTexture":{"index":18},"metallicFactor":0,"roughnessFactor":0.5}},{"alphaMode":"BLEND","doubleSided":true,"emissiveFactor":[1,1,1],"emissiveTexture":{"index":19},"name":"scrolling text","pbrMetallicRoughness":{"baseColorTexture":{"index":20},"metallicFactor":0,"roughnessFactor":0.5}}],"textures":[{"sampler":0,"source":0},{"sampler":0,"source":1},{"sampler":0,"source":0},{"sampler":0,"source":1},{"sampler":0,"source":1},{"sampler":0,"source":0},{"sampler":0,"source":0},{"sampler":0,"source":0},{"sampler":0,"source":1},{"sampler":0,"source":1},{"sampler":0,"source":1},{"sampler":0,"source":1},{"sampler":0,"source":2},{"sampler":0,"source":2},{"sampler":0,"source":3},{"sampler":0,"source":4},{"sampler":0,"source":5},{"sampler":0,"source":6},{"sampler":0,"source":6},{"sampler":1,"source":7},{"sampler":1,"source":7}],"images":[{"uri":"shared/486c6d61063241d5.webp","mimeType":"image/webp"},{"uri":"shared/486c6d61063241d5.webp","mimeType":"image/webp"},{"uri":"shared/cd11a20db95ff60c.webp","mimeType":"image/webp"},{"uri":"shared/28470d0f5c64a9e9.png","mimeType":"image/png"},{"uri":"shared/d686ec6d73243cad.webp","mimeType":"image/webp"},{"uri":"shared/0dd4c9f67e03b0dc.png","mimeType":"image/png"},{"uri":"shared/6b5f60a1524e8f02.webp","mimeType":"image/webp"},{"uri":"shared/7304cfa24ac03a1d.webp","mimeType":"image/webp"}],"samplers":[{"magFilter":9729,"minFilter":9987},{"magFilter":9728,"minFilter":9984}],"accessors":[{"bufferView":0,"componentType":5123,"count":273,"normalized":true,"type":"VEC4"},{"bufferView":1,"componentType":5126,"count":273,"max":[0.16213111579418182,0.3999999165534973,0.3998884856700897],"min":[-0.1620960682630539,-0.40000006556510925,-0.4001115560531616],"type":"VEC3"},{"bufferView":2,"componentType":5126,"count":273,"type":"VEC3"},{"bufferView":3,"componentType":5126,"count":273,"type":"VEC2"},{"bufferView":4,"componentType":5123,"count":900,"type":"SCALAR"},{"bufferView":5,"componentType":5123,"count":273,"normalized":true,"type":"VEC4"},{"bufferView":6,"componentType":5126,"count":273,"max":[0.16209618747234344,0.3999999165534973,0.4001115560531616],"min":[-0.16213122010231018,-0.40000006556510925,-0.3998884856700897],"type":"VEC3"},{"bufferView":7,"componentType":5126,"count":273,"type":"VEC3"},{"bufferView":8,"componentType":5126,"count":273,"type":"VEC2"},{"bufferView":9,"componentType":5123,"count":900,"type":"SCALAR"},{"bufferView":10,"componentType":5123,"count":273,"normalized":true,"type":"VEC4"},{"bufferView":11,"componentType":5126,"count":273,"max":[0.16213111579418182,0.3999999165534973,0.3998884856700897],"min":[-0.1620960682630539,-0.40000006556510925,-0.4001115560531616],"type":"VEC3"},{"bufferView":12,"componentType":5126,"count":273,"type":"VEC3"},{"bufferView":13,"componentType":5126,"count":273,"type":"VEC2"},{"bufferView":14,"componentType":5123,"count":273,"normalized":true,"type":"VEC4"},{"bufferView":15,"componentType":5126,"count":273,"max":[0.16209618747234344,0.3999999165534973,0.4001115560531616],"min":[-0.16213122010231018,-0.40000006556510925,-0.3998884856700897],"type":"VEC3"},{"bufferView":16,"componentType":5126,"count":273,"type":"VEC3"},{"bufferView":17,"componentType":5126,"count":273,"type":"VEC2"},{"bufferView":18,"componentType":5123,"count":562,"normalized":true,"type":"VEC4"},{"bufferView":19,"componentType":5126,"count":562,"max":[0.9821081161499023,1.671571135520935,1.8693079948425293],"min":[-0.9818639755249023,0.23435990512371063,-1.7959847450256348],"type":"VEC3"},{"bufferView":20,"componentType":5126,"count":562,"type":"VEC3"},{"bufferView":21,"componentType":5126,"count":562,"type":"VEC2"},{"bufferView":22,"componentType":5123,"count":1470,"type":"SCALAR"},{"bufferView":23,"componentType":5123,"count":561,"normalized":true,"type":"VEC4"},{"bufferView":24,"componentType":5126,"count":561,"max":[1.2657324075698853,1.731117844581604,1.8522025346755981],"min":[-1.2654882669448853,0.39693567156791687,-1.8221327066421509],"type":"VEC3"},{"bufferView":25,"componentType":5126,"count":561,"type":"VEC3"},{"bufferView":26,"componentType":5126,"count":561,"type":"VEC2"},{"bufferView":27,"componentType":5123,"count":1950,"type":"SCALAR"},{"bufferView":28,"componentType":5123,"count":97,"normalized":true,"type":"VEC4"},{"bufferView":29,"componentType":5126,"count":97,"max":[1.233822226524353,1.6194183826446533,0.819335401058197],"min":[-1.233578085899353,1.026626706123352,-1.6400434970855713],"type":"VEC3"},{"bufferView":30,"componentType":5126,"count":97,"type":"VEC3"},{"bufferView":31,"componentType":5126,"count":97,"type":"VEC2"},{"bufferView":32,"componentType":5123,"count":270,"type":"SCALAR"},{"bufferView":33,"componentType":5123,"count":24,"normalized":true,"type":"VEC4"},{"bufferView":34,"componentType":5126,"count":24,"max":[0.8786246180534363,0.8859658241271973,1.682948112487793],"min":[-0.8783804774284363,0.6795313358306885,1.5460014343261719],"type":"VEC3"},{"bufferView":35,"componentType":5126,"count":24,"type":"VEC3"},{"bufferView":36,"componentType":5126,"count":24,"type":"VEC2"},{"bufferView":37,"componentType":5123,"count":60,"type":"SCALAR"},{"bufferView":38,"componentType":5123,"count":26,"normalized":true,"type":"VEC4"},{"bufferView":39,"componentType":5126,"count":26,"max":[0.8376821279525757,0.8246886730194092,-1.690671443939209],"min":[-0.8374379873275757,0.6238102912902832,-1.7328327894210815],"type":"VEC3"},{"bufferView":40,"componentType":5126,"count":26,"type":"VEC3"},{"bufferView":41,"componentType":5126,"count":26,"type":"VEC2"},{"bufferView":42,"componentType":5123,"count":72,"type":"SCALAR"},{"bufferView":43,"componentType":5123,"count":72,"normalized":true,"type":"VEC4"},{"bufferView":44,"componentType":5126,"count":72,"max":[0.901957094669342,0.9081380367279053,1.7461631298065186],"min":[-0.901712954044342,0.6566294431686401,1.5785361528396606],"type":"VEC3"},{"bufferView":45,"componentType":5126,"count":72,"type":"VEC3"},{"bufferView":46,"componentType":5126,"count":72,"type":"VEC2"},{"bufferView":47,"componentType":5123,"count":204,"type":"SCALAR"},{"bufferView":48,"componentType":5123,"count":124,"normalized":true,"type":"VEC4"},{"bufferView":49,"componentType":5126,"count":124,"max":[0.7666240930557251,1.171190619468689,-1.7706983089447021],"min":[-0.7670250535011292,0.7459808588027954,-2.233873128890991],"type":"VEC3"},{"bufferView":50,"componentType":5126,"count":124,"type":"VEC3"},{"bufferView":51,"componentType":5126,"count":124,"type":"VEC2"},{"bufferView":52,"componentType":5123,"count":270,"type":"SCALAR"},{"bufferView":53,"componentType":5123,"count":285,"normalized":true,"type":"VEC4"},{"bufferView":54,"componentType":5126,"count":285,"max":[0.16213113069534302,0.3999999165534973,0.3998884856700897],"min":[-0.1620960682630539,-0.40000006556510925,-0.4001115560531616],"type":"VEC3"},{"bufferView":55,"componentType":5126,"count":285,"type":"VEC3"},{"bufferView":56,"componentType":5126,"count":285,"type":"VEC2"},{"bufferView":57,"componentType":5123,"count":1014,"type":"SCALAR"},{"bufferView":58,"componentType":5123,"count":50,"normalized":true,"type":"VEC4"},{"bufferView":59,"componentType":5126,"count":50,"max":[0.1361139863729477,0.2748536467552185,0.29106059670448303],"min":[0.04467451199889183,-0.27894407510757446,-0.29114869236946106],"type":"VEC3"},{"bufferView":60,"componentType":5126,"count":50,"type":"VEC3"},{"bufferView":61,"componentType":5126,"count":50,"type":"VEC2"},{"bufferView":62,"componentType":5123,"count":120,"type":"SCALAR"},{"bufferView":63,"componentType":5123,"count":285,"normalized":true,"type":"VEC4"},{"bufferView":64,"componentType":5126,"count":285,"max":[0.16209638118743896,0.3999999165534973,0.4001116454601288],"min":[-0.16213145852088928,-0.40000006556510925,-0.3998885750770569],"type":"VEC3"},{"bufferView":65,"componentType":5126,"count":285,"type":"VEC3"},{"bufferView":66,"componentType":5126,"count":285,"type":"VEC2"},{"bufferView":67,"componentType":5123,"count":1014,"type":"SCALAR"},{"bufferView":68,"componentType":5123,"count":50,"normalized":true,"type":"VEC4"},{"bufferView":69,"componentType":5126,"count":50,"max":[-0.04467449337244034,0.2748536467552185,0.2911488711833954],"min":[-0.13611432909965515,-0.27894407510757446,-0.2910604178905487],"type":"VEC3"},{"bufferView":70,"componentType":5126,"count":50,"type":"VEC3"},{"bufferView":71,"componentType":5126,"count":50,"type":"VEC2"},{"bufferView":72,"componentType":5123,"count":285,"normalized":true,"type":"VEC4"},{"bufferView":73,"componentType":5126,"count":285,"max":[0.16213113069534302,0.3999999165534973,0.3998884856700897],"min":[-0.1620960682630539,-0.40000006556510925,-0.4001115560531616],"type":"VEC3"},{"bufferView":74,"componentType":5126,"count":285,"type":"VEC3"},{"bufferView":75,"componentType":5126,"count":285,"type":"VEC2"},{"bufferView":76,"componentType":5123,"count":50,"normalized":true,"type":"VEC4"},{"bufferView":77,"componentType":5126,"count":50,"max":[0.1361139863729477,0.2748536467552185,0.29106059670448303],"min":[0.04467451199889183,-0.27894407510757446,-0.29114869236946106],"type":"VEC3"},{"bufferView":78,"componentType":5126,"count":50,"type":"VEC3"},{"bufferView":79,"componentType":5126,"count":50,"type":"VEC2"},{"bufferView":80,"componentType":5123,"count":285,"normalized":true,"type":"VEC4"},{"bufferView":81,"componentType":5126,"count":285,"max":[0.16209638118743896,0.3999999165534973,0.4001116454601288],"min":[-0.16213145852088928,-0.40000006556510925,-0.3998885750770569],"type":"VEC3"},{"bufferView":82,"componentType":5126,"count":285,"type":"VEC3"},{"bufferView":83,"componentType":5126,"count":285,"type":"VEC2"},{"bufferView":84,"componentType":5123,"count":50,"normalized":true,"type":"VEC4"},{"bufferView":85,"componentType":5126,"count":50,"max":[-0.04467449337244034,0.2748536467552185,0.2911488711833954],"min":[-0.13611432909965515,-0.27894407510757446,-0.2910604178905487],"type":"VEC3"},{"bufferView":86,"componentType":5126,"count":50,"type":"VEC3"},{"bufferView":87,"componentType":5126,"count":50,"type":"VEC2"},{"bufferView":88,"componentType":5123,"count":678,"normalized":true,"type":"VEC4"},{"bufferView":89,"componentType":5126,"count":678,"max":[0.9819860458374023,1.339692234992981,2.1829726696014404],"min":[-0.9819860458374023,0.1449698507785797,-2.021433115005493],"type":"VEC3"},{"bufferView":90,"componentType":5126,"count":678,"type":"VEC3"},{"bufferView":91,"componentType":5126,"count":678,"type":"VEC2"},{"bufferView":92,"componentType":5123,"count":1752,"type":"SCALAR"},{"bufferView":93,"componentType":5123,"count":660,"normalized":true,"type":"VEC4"},{"bufferView":94,"componentType":5126,"count":660,"max":[1.155460000038147,1.3631563186645508,2.3083841800689697],"min":[-1.155460000038147,0.14665880799293518,-2.0233535766601562],"type":"VEC3"},{"bufferView":95,"componentType":5126,"count":660,"type":"VEC3"},{"bufferView":96,"componentType":5126,"count":660,"type":"VEC2"},{"bufferView":97,"componentType":5123,"count":2148,"type":"SCALAR"},{"bufferView":98,"componentType":5123,"count":94,"normalized":true,"type":"VEC4"},{"bufferView":99,"componentType":5126,"count":94,"max":[1.1280598640441895,1.2962937355041504,1.0471384525299072],"min":[-1.1280598640441895,0.9204443693161011,-1.154408574104309],"type":"VEC3"},{"bufferView":100,"componentType":5126,"count":94,"type":"VEC3"},{"bufferView":101,"componentType":5126,"count":94,"type":"VEC2"},{"bufferView":102,"componentType":5123,"count":264,"type":"SCALAR"},{"bufferView":103,"componentType":5123,"count":18,"normalized":true,"type":"VEC4"},{"bufferView":104,"componentType":5126,"count":18,"max":[0.899112343788147,0.7666485905647278,1.9124884605407715],"min":[-0.8991217017173767,0.6083522439002991,1.5094648599624634],"type":"VEC3"},{"bufferView":105,"componentType":5126,"count":18,"type":"VEC3"},{"bufferView":106,"componentType":5126,"count":18,"type":"VEC2"},{"bufferView":107,"componentType":5123,"count":42,"type":"SCALAR"},{"bufferView":108,"componentType":5123,"count":80,"normalized":true,"type":"VEC4"},{"bufferView":109,"componentType":5126,"count":80,"max":[0.7961827516555786,0.816625714302063,-1.827426552772522],"min":[-0.7961827516555786,0.6303499937057495,-1.942193865776062],"type":"VEC3"},{"bufferView":110,"componentType":5126,"count":80,"type":"VEC3"},{"bufferView":111,"componentType":5126,"count":80,"type":"VEC2"},{"bufferView":112,"componentType":5123,"count":204,"type":"SCALAR"},{"bufferView":113,"componentType":5123,"count":22,"normalized":true,"type":"VEC4"},{"bufferView":114,"componentType":5126,"count":22,"max":[0.9286785125732422,0.7909276485443115,2.0378799438476562],"min":[-0.9286878705024719,0.5868249535560608,1.5182329416275024],"type":"VEC3"},{"bufferView":115,"componentType":5126,"count":22,"type":"VEC3"},{"bufferView":116,"componentType":5126,"count":22,"type":"VEC2"},{"bufferView":117,"componentType":5123,"count":66,"type":"SCALAR"},{"bufferView":118,"componentType":5123,"count":469,"normalized":true,"type":"VEC4"},{"bufferView":119,"componentType":5126,"count":469,"max":[0.16205310821533203,0.3999999165534973,0.400002121925354],"min":[-0.15183639526367188,-0.40000003576278687,-0.3999979496002197],"type":"VEC3"},{"bufferView":120,"componentType":5126,"count":469,"type":"VEC3"},{"bufferView":121,"componentType":5126,"count":469,"type":"VEC2"},{"bufferView":122,"componentType":5123,"count":1254,"type":"SCALAR"},{"bufferView":123,"componentType":5123,"count":29,"normalized":true,"type":"VEC4"},{"bufferView":124,"componentType":5126,"count":29,"max":[0.14051616191864014,0.3499906063079834,0.3499901294708252],"min":[-0.08493578433990479,-0.34999075531959534,-0.3499915599822998],"type":"VEC3"},{"bufferView":125,"componentType":5126,"count":29,"type":"VEC3"},{"bufferView":126,"componentType":5126,"count":29,"type":"VEC2"},{"bufferView":127,"componentType":5123,"count":120,"type":"SCALAR"},{"bufferView":128,"componentType":5123,"count":469,"normalized":true,"type":"VEC4"},{"bufferView":129,"componentType":5126,"count":469,"max":[0.15183639526367188,0.3999999165534973,0.400002121925354],"min":[-0.16205310821533203,-0.40000003576278687,-0.3999979496002197],"type":"VEC3"},{"bufferView":130,"componentType":5126,"count":469,"type":"VEC3"},{"bufferView":131,"componentType":5126,"count":469,"type":"VEC2"},{"bufferView":132,"componentType":5123,"count":1254,"type":"SCALAR"},{"bufferView":133,"componentType":5123,"count":29,"normalized":true,"type":"VEC4"},{"bufferView":134,"componentType":5126,"count":29,"max":[0.08493578433990479,0.3499906063079834,0.3499901294708252],"min":[-0.14051616191864014,-0.34999075531959534,-0.3499915599822998],"type":"VEC3"},{"bufferView":135,"componentType":5126,"count":29,"type":"VEC3"},{"bufferView":136,"componentType":5126,"count":29,"type":"VEC2"},{"bufferView":137,"componentType":5123,"count":120,"type":"SCALAR"},{"bufferView":138,"componentType":5123,"count":469,"normalized":true,"type":"VEC4"},{"bufferView":139,"componentType":5126,"count":469,"max":[0.1620950698852539,0.3999999165534973,0.39999866485595703],"min":[-0.15179443359375,-0.40000003576278687,-0.40000152587890625],"type":"VEC3"},{"bufferView":140,"componentType":5126,"count":469,"type":"VEC3"},{"bufferView":141,"componentType":5126,"count":469,"type":"VEC2"},{"bufferView":142,"componentType":5123,"count":29,"normalized":true,"type":"VEC4"},{"bufferView":143,"componentType":5126,"count":29,"max":[0.140558123588562,0.3499906063079834,0.3499866724014282],"min":[-0.08489382266998291,-0.34999075531959534,-0.34999513626098633],"type":"VEC3"},{"bufferView":144,"componentType":5126,"count":29,"type":"VEC3"},{"bufferView":145,"componentType":5126,"count":29,"type":"VEC2"},{"bufferView":146,"componentType":5123,"count":469,"normalized":true,"type":"VEC4"},{"bufferView":147,"componentType":5126,"count":469,"max":[0.15179443359375,0.3999999165534973,0.39999866485595703],"min":[-0.1620950698852539,-0.40000003576278687,-0.40000152587890625],"type":"VEC3"},{"bufferView":148,"componentType":5126,"count":469,"type":"VEC3"},{"bufferView":149,"componentType":5126,"count":469,"type":"VEC2"},{"bufferView":150,"componentType":5123,"count":29,"normalized":true,"type":"VEC4"},{"bufferView":151,"componentType":5126,"count":29,"max":[0.08489382266998291,0.3499906063079834,0.3499866724014282],"min":[-0.140558123588562,-0.34999075531959534,-0.34999513626098633],"type":"VEC3"},{"bufferView":152,"componentType":5126,"count":29,"type":"VEC3"},{"bufferView":153,"componentType":5126,"count":29,"type":"VEC2"},{"bufferView":154,"componentType":5126,"count":423,"max":[1.159838318824768,0.9393682479858398,2.1145858764648438],"min":[-1.159838318824768,0.0979103147983551,-2.4136924743652344],"type":"VEC3"},{"bufferView":155,"componentType":5126,"count":423,"type":"VEC3"},{"bufferView":156,"componentType":5126,"count":423,"type":"VEC2"},{"bufferView":157,"componentType":5123,"count":1056,"type":"SCALAR"},{"bufferView":158,"componentType":5126,"count":981,"max":[1.159838318824768,1.6010316610336304,2.1568636894226074],"min":[-1.159838318824768,0.0979103147983551,-2.466376543045044],"type":"VEC3"},{"bufferView":159,"componentType":5126,"count":981,"type":"VEC3"},{"bufferView":160,"componentType":5126,"count":981,"type":"VEC2"},{"bufferView":161,"componentType":5123,"count":2640,"type":"SCALAR"},{"bufferView":162,"componentType":5126,"count":117,"max":[0.878553569316864,1.6627556085586548,0.8064371943473816],"min":[-0.878553569316864,1.1895794868469238,-1.7644941806793213],"type":"VEC3"},{"bufferView":163,"componentType":5126,"count":117,"type":"VEC3"},{"bufferView":164,"componentType":5126,"count":117,"type":"VEC2"},{"bufferView":165,"componentType":5123,"count":510,"type":"SCALAR"},{"bufferView":166,"componentType":5126,"count":36,"max":[0.9339809417724609,0.9156706929206848,-2.2200303077697754],"min":[-0.9339809417724609,0.8091177940368652,-2.3525173664093018],"type":"VEC3"},{"bufferView":167,"componentType":5126,"count":36,"type":"VEC3"},{"bufferView":168,"componentType":5126,"count":36,"type":"VEC2"},{"bufferView":169,"componentType":5123,"count":96,"type":"SCALAR"},{"bufferView":170,"componentType":5126,"count":16,"max":[0.9986385107040405,0.552859902381897,2.0164148807525635],"min":[-0.9986385107040405,0.42792966961860657,1.8628937005996704],"type":"VEC3"},{"bufferView":171,"componentType":5126,"count":16,"type":"VEC3"},{"bufferView":172,"componentType":5126,"count":16,"type":"VEC2"},{"bufferView":173,"componentType":5123,"count":36,"type":"SCALAR"},{"bufferView":174,"componentType":5126,"count":4542,"max":[15.427741050720215,51.736019134521484,8.569120407104492],"min":[-15.427741050720215,-0.00106048583984375,-9.912347793579102],"type":"VEC3"},{"bufferView":175,"componentType":5126,"count":4542,"type":"VEC3"},{"bufferView":176,"componentType":5126,"count":4542,"type":"VEC2"},{"bufferView":177,"componentType":5123,"count":15336,"type":"SCALAR"},{"bufferView":178,"componentType":5126,"count":736,"max":[14.65336799621582,46.23139190673828,7.310318946838379],"min":[-14.653411865234375,0.0000019073486328125,-9.772276878356934],"type":"VEC3"},{"bufferView":179,"componentType":5126,"count":736,"type":"VEC3"},{"bufferView":180,"componentType":5126,"count":736,"type":"VEC2"},{"bufferView":181,"componentType":5123,"count":1608,"type":"SCALAR"},{"bufferView":182,"componentType":5126,"count":188,"max":[12.169596672058105,50.19580078125,6.3417158126831055],"min":[-12.169559478759766,50.19580078125,-2.483518123626709],"type":"VEC3"},{"bufferView":183,"componentType":5126,"count":188,"type":"VEC3"},{"bufferView":184,"componentType":5126,"count":188,"type":"VEC2"},{"bufferView":185,"componentType":5123,"count":294,"type":"SCALAR"},{"bufferView":186,"componentType":5123,"count":72,"type":"SCALAR"},{"bufferView":187,"componentType":5123,"count":6,"type":"SCALAR"},{"bufferView":188,"componentType":5126,"count":48,"max":[7.5,0.09999997913837433,7.5],"min":[-7.5,-0.10000001639127731,-7.5],"type":"VEC3"},{"bufferView":189,"componentType":5126,"count":48,"type":"VEC3"},{"bufferView":190,"componentType":5126,"count":48,"type":"VEC2"},{"bufferView":191,"componentType":5126,"count":4,"max":[3.750000476837158,-0.10000000894069672,7.5],"min":[-3.750000476837158,-0.10000000894069672,-7.5],"type":"VEC3"},{"bufferView":192,"componentType":5126,"count":4,"type":"VEC3"},{"bufferView":193,"componentType":5126,"count":4,"type":"VEC2"},{"bufferView":194,"componentType":5123,"count":6,"type":"SCALAR"},{"bufferView":195,"componentType":5126,"count":82,"max":[-1.7728652954101562,0.10000000149011612,7.500003814697266],"min":[-7.5,-0.10000000149011612,-7.499988555908203],"type":"VEC3"},{"bufferView":196,"componentType":5126,"count":82,"type":"VEC3"},{"bufferView":197,"componentType":5126,"count":82,"type":"VEC2"},{"bufferView":198,"componentType":5123,"count":126,"type":"SCALAR"},{"bufferView":199,"componentType":5126,"count":8,"max":[-1.8790836334228516,0,7.5000104904174805],"min":[-7.5,-9.5367431640625e-7,-7.499988555908203],"type":"VEC3"},{"bufferView":200,"componentType":5126,"count":8,"type":"VEC3"},{"bufferView":201,"componentType":5126,"count":8,"type":"VEC2"},{"bufferView":202,"componentType":5123,"count":18,"type":"SCALAR"},{"bufferView":203,"componentType":5126,"count":4,"max":[7.5,0,7.500003814697266],"min":[-1.8790836334228516,-9.5367431640625e-7,-7.499988555908203],"type":"VEC3"},{"bufferView":204,"componentType":5126,"count":4,"type":"VEC3"},{"bufferView":205,"componentType":5126,"count":4,"type":"VEC2"},{"bufferView":206,"componentType":5126,"count":8,"max":[-5.606972694396973,0,7.5000104904174805],"min":[-7.5,-9.5367431640625e-7,-7.499988555908203],"type":"VEC3"},{"bufferView":207,"componentType":5126,"count":8,"type":"VEC3"},{"bufferView":208,"componentType":5126,"count":8,"type":"VEC2"},{"bufferView":209,"componentType":5123,"count":12,"type":"SCALAR"},{"bufferView":210,"componentType":5126,"count":4,"max":[7.49993896484375,0,7.5],"min":[-7.500061511993408,0,-7.5],"type":"VEC3"},{"bufferView":211,"componentType":5126,"count":4,"type":"VEC3"},{"bufferView":212,"componentType":5126,"count":4,"type":"VEC2"},{"bufferView":213,"componentType":5123,"count":6,"type":"SCALAR"},{"bufferView":214,"componentType":5126,"count":40,"max":[-1.776357650756836,0.10000000149011612,7.499995231628418],"min":[-5.706169128417969,-0.10000000149011612,-7.500004768371582],"type":"VEC3"},{"bufferView":215,"componentType":5126,"count":40,"type":"VEC3"},{"bufferView":216,"componentType":5126,"count":40,"type":"VEC2"},{"bufferView":217,"componentType":5123,"count":60,"type":"SCALAR"},{"bufferView":218,"componentType":5126,"count":4,"max":[-1.8790836334228516,-9.5367431640625e-7,7.499995231628418],"min":[-5.606972694396973,-9.5367431640625e-7,-7.500004768371582],"type":"VEC3"},{"bufferView":219,"componentType":5126,"count":4,"type":"VEC3"},{"bufferView":220,"componentType":5126,"count":4,"type":"VEC2"},{"bufferView":221,"componentType":5123,"count":6,"type":"SCALAR"},{"bufferView":222,"componentType":5126,"count":4,"max":[7.5,0,7.499995231628418],"min":[-1.8790836334228516,-9.5367431640625e-7,-7.500004768371582],"type":"VEC3"},{"bufferView":223,"componentType":5126,"count":4,"type":"VEC3"},{"bufferView":224,"componentType":5126,"count":4,"type":"VEC2"},{"bufferView":225,"componentType":5123,"count":6,"type":"SCALAR"},{"bufferView":226,"componentType":5126,"count":4,"max":[-5.606972694396973,0,7.499995231628418],"min":[-7.5,-9.5367431640625e-7,-7.500004768371582],"type":"VEC3"},{"bufferView":227,"componentType":5126,"count":4,"type":"VEC3"},{"bufferView":228,"componentType":5126,"count":4,"type":"VEC2"},{"bufferView":229,"componentType":5126,"count":106,"max":[0.22128364443778992,8.304719924926758,3.0710415840148926],"min":[-0.2213037759065628,0,-0.11709251999855042],"type":"VEC3"},{"bufferView":230,"componentType":5126,"count":106,"type":"VEC3"},{"bufferView":231,"componentType":5126,"count":106,"type":"VEC2"},{"bufferView":232,"componentType":5123,"count":336,"type":"SCALAR"},{"bufferView":233,"componentType":5126,"count":10,"max":[0.13364164531230927,7.941127300262451,3.0237202644348145],"min":[-0.13366179168224335,7.70126485824585,2.2360119819641113],"type":"VEC3"},{"bufferView":234,"componentType":5126,"count":10,"type":"VEC3"},{"bufferView":235,"componentType":5126,"count":10,"type":"VEC2"},{"bufferView":236,"componentType":5123,"count":24,"type":"SCALAR"},{"bufferView":237,"componentType":5126,"count":415,"max":[2.3013758659362793,2.4992032051086426,1.7613555192947388],"min":[-2.3621609210968018,-1.1920928955078125e-7,-0.22344821691513062],"type":"VEC3"},{"bufferView":238,"componentType":5126,"count":415,"type":"VEC3"},{"bufferView":239,"componentType":5126,"count":415,"type":"VEC2"},{"bufferView":240,"componentType":5123,"count":900,"type":"SCALAR"},{"bufferView":241,"componentType":5126,"count":20,"max":[2.167264938354492,2.456160306930542,1.691227912902832],"min":[-2.167264938354492,0.6507833003997803,-0.17511561512947083],"type":"VEC3"},{"bufferView":242,"componentType":5126,"count":20,"type":"VEC3"},{"bufferView":243,"componentType":5126,"count":20,"type":"VEC2"},{"bufferView":244,"componentType":5123,"count":30,"type":"SCALAR"},{"bufferView":245,"componentType":5126,"count":480,"max":[1.0815818309783936,1.2417985200881958,0.2961703836917877],"min":[-1.0815824270248413,0,-0.29613420367240906],"type":"VEC3"},{"bufferView":246,"componentType":5126,"count":480,"type":"VEC3"},{"bufferView":247,"componentType":5126,"count":480,"type":"VEC2"},{"bufferView":248,"componentType":5123,"count":1068,"type":"SCALAR"},{"bufferView":249,"componentType":5126,"count":4,"max":[4.590828895568848,2.5213122367858887,0.7872918844223022],"min":[-4.590854644775391,0.22693733870983124,0.7872906923294067],"type":"VEC3"},{"bufferView":250,"componentType":5126,"count":4,"type":"VEC3"},{"bufferView":251,"componentType":5126,"count":4,"type":"VEC2"},{"bufferView":252,"componentType":5123,"count":6,"type":"SCALAR"},{"bufferView":253,"componentType":5126,"count":28,"max":[4.810030937194824,2.7482519149780273,0.7596911787986755],"min":[-4.810057163238525,-0.0000021678442863048986,-6.462703936449543e-7],"type":"VEC3"},{"bufferView":254,"componentType":5126,"count":28,"type":"VEC3"},{"bufferView":255,"componentType":5126,"count":28,"type":"VEC2"},{"bufferView":256,"componentType":5123,"count":54,"type":"SCALAR"},{"bufferView":257,"componentType":5126,"count":4,"max":[4.590828895568848,2.5213122367858887,0.7596911191940308],"min":[-4.590854644775391,0.22693733870983124,0.7596899271011353],"type":"VEC3"},{"bufferView":258,"componentType":5126,"count":4,"type":"VEC3"},{"bufferView":259,"componentType":5126,"count":4,"type":"VEC2"},{"bufferView":260,"componentType":5126,"count":44,"max":[-0.00010672211647033691,0.24592013657093048,0.2765626907348633],"min":[-3.17425274848938,-0.22714094817638397,-0.2765626907348633],"type":"VEC3"},{"bufferView":261,"componentType":5126,"count":44,"type":"VEC3"},{"bufferView":262,"componentType":5126,"count":44,"type":"VEC2"},{"bufferView":263,"componentType":5123,"count":84,"type":"SCALAR"},{"bufferView":264,"componentType":5126,"count":20,"max":[-0.9264307022094727,0.00938683282583952,0.14326703548431396],"min":[-2.954479217529297,-5.419268608093262,-0.14326703548431396],"type":"VEC3"},{"bufferView":265,"componentType":5126,"count":20,"type":"VEC3"},{"bufferView":266,"componentType":5126,"count":20,"type":"VEC2"},{"bufferView":267,"componentType":5123,"count":30,"type":"SCALAR"},{"bufferView":268,"componentType":5126,"count":108,"max":[-1.182250738143921,-0.8722233772277832,0.003811849281191826],"min":[-2.718139886856079,-4.06688117980957,-0.02740534208714962],"type":"VEC3"},{"bufferView":269,"componentType":5126,"count":108,"type":"VEC3"},{"bufferView":270,"componentType":5126,"count":108,"type":"VEC2"},{"bufferView":271,"componentType":5123,"count":324,"type":"SCALAR"}],"bufferViews":[{"buffer":0,"byteLength":2184,"byteOffset":0,"target":34962},{"buffer":0,"byteLength":3276,"byteOffset":2184,"target":34962},{"buffer":0,"byteLength":3276,"byteOffset":5460,"target":34962},{"buffer":0,"byteLength":2184,"byteOffset":8736,"target":34962},{"buffer":0,"byteLength":1800,"byteOffset":10920,"target":34963},{"buffer":0,"byteLength":2184,"byteOffset":12720,"target":34962},{"buffer":0,"byteLength":3276,"byteOffset":14904,"target":34962},{"buffer":0,"byteLength":3276,"byteOffset":18180,"target":34962},{"buffer":0,"byteLength":2184,"byteOffset":21456,"target":34962},{"buffer":0,"byteLength":1800,"byteOffset":23640,"target":34963},{"buffer":0,"byteLength":2184,"byteOffset":25440,"target":34962},{"buffer":0,"byteLength":3276,"byteOffset":27624,"target":34962},{"buffer":0,"byteLength":3276,"byteOffset":30900,"target":34962},{"buffer":0,"byteLength":2184,"byteOffset":34176,"target":34962},{"buffer":0,"byteLength":2184,"byteOffset":36360,"target":34962},{"buffer":0,"byteLength":3276,"byteOffset":38544,"target":34962},{"buffer":0,"byteLength":3276,"byteOffset":41820,"target":34962},{"buffer":0,"byteLength":2184,"byteOffset":45096,"target":34962},{"buffer":0,"byteLength":4496,"byteOffset":47280,"target":34962},{"buffer":0,"byteLength":6744,"byteOffset":51776,"target":34962},{"buffer":0,"byteLength":6744,"byteOffset":58520,"target":34962},{"buffer":0,"byteLength":4496,"byteOffset":65264,"target":34962},{"buffer":0,"byteLength":2940,"byteOffset":69760,"target":34963},{"buffer":0,"byteLength":4488,"byteOffset":72700,"target":34962},{"buffer":0,"byteLength":6732,"byteOffset":77188,"target":34962},{"buffer":0,"byteLength":6732,"byteOffset":83920,"target":34962},{"buffer":0,"byteLength":4488,"byteOffset":90652,"target":34962},{"buffer":0,"byteLength":3900,"byteOffset":95140,"target":34963},{"buffer":0,"byteLength":776,"byteOffset":99040,"target":34962},{"buffer":0,"byteLength":1164,"byteOffset":99816,"target":34962},{"buffer":0,"byteLength":1164,"byteOffset":100980,"target":34962},{"buffer":0,"byteLength":776,"byteOffset":102144,"target":34962},{"buffer":0,"byteLength":540,"byteOffset":102920,"target":34963},{"buffer":0,"byteLength":192,"byteOffset":103460,"target":34962},{"buffer":0,"byteLength":288,"byteOffset":103652,"target":34962},{"buffer":0,"byteLength":288,"byteOffset":103940,"target":34962},{"buffer":0,"byteLength":192,"byteOffset":104228,"target":34962},{"buffer":0,"byteLength":120,"byteOffset":104420,"target":34963},{"buffer":0,"byteLength":208,"byteOffset":104540,"target":34962},{"buffer":0,"byteLength":312,"byteOffset":104748,"target":34962},{"buffer":0,"byteLength":312,"byteOffset":105060,"target":34962},{"buffer":0,"byteLength":208,"byteOffset":105372,"target":34962},{"buffer":0,"byteLength":144,"byteOffset":105580,"target":34963},{"buffer":0,"byteLength":576,"byteOffset":105724,"target":34962},{"buffer":0,"byteLength":864,"byteOffset":106300,"target":34962},{"buffer":0,"byteLength":864,"byteOffset":107164,"target":34962},{"buffer":0,"byteLength":576,"byteOffset":108028,"target":34962},{"buffer":0,"byteLength":408,"byteOffset":108604,"target":34963},{"buffer":0,"byteLength":992,"byteOffset":109012,"target":34962},{"buffer":0,"byteLength":1488,"byteOffset":110004,"target":34962},{"buffer":0,"byteLength":1488,"byteOffset":111492,"target":34962},{"buffer":0,"byteLength":992,"byteOffset":112980,"target":34962},{"buffer":0,"byteLength":540,"byteOffset":113972,"target":34963},{"buffer":0,"byteLength":2280,"byteOffset":114512,"target":34962},{"buffer":0,"byteLength":3420,"byteOffset":116792,"target":34962},{"buffer":0,"byteLength":3420,"byteOffset":120212,"target":34962},{"buffer":0,"byteLength":2280,"byteOffset":123632,"target":34962},{"buffer":0,"byteLength":2028,"byteOffset":125912,"target":34963},{"buffer":0,"byteLength":400,"byteOffset":127940,"target":34962},{"buffer":0,"byteLength":600,"byteOffset":128340,"target":34962},{"buffer":0,"byteLength":600,"byteOffset":128940,"target":34962},{"buffer":0,"byteLength":400,"byteOffset":129540,"target":34962},{"buffer":0,"byteLength":240,"byteOffset":129940,"target":34963},{"buffer":0,"byteLength":2280,"byteOffset":130180,"target":34962},{"buffer":0,"byteLength":3420,"byteOffset":132460,"target":34962},{"buffer":0,"byteLength":3420,"byteOffset":135880,"target":34962},{"buffer":0,"byteLength":2280,"byteOffset":139300,"target":34962},{"buffer":0,"byteLength":2028,"byteOffset":141580,"target":34963},{"buffer":0,"byteLength":400,"byteOffset":143608,"target":34962},{"buffer":0,"byteLength":600,"byteOffset":144008,"target":34962},{"buffer":0,"byteLength":600,"byteOffset":144608,"target":34962},{"buffer":0,"byteLength":400,"byteOffset":145208,"target":34962},{"buffer":0,"byteLength":2280,"byteOffset":145608,"target":34962},{"buffer":0,"byteLength":3420,"byteOffset":147888,"target":34962},{"buffer":0,"byteLength":3420,"byteOffset":151308,"target":34962},{"buffer":0,"byteLength":2280,"byteOffset":154728,"target":34962},{"buffer":0,"byteLength":400,"byteOffset":157008,"target":34962},{"buffer":0,"byteLength":600,"byteOffset":157408,"target":34962},{"buffer":0,"byteLength":600,"byteOffset":158008,"target":34962},{"buffer":0,"byteLength":400,"byteOffset":158608,"target":34962},{"buffer":0,"byteLength":2280,"byteOffset":159008,"target":34962},{"buffer":0,"byteLength":3420,"byteOffset":161288,"target":34962},{"buffer":0,"byteLength":3420,"byteOffset":164708,"target":34962},{"buffer":0,"byteLength":2280,"byteOffset":168128,"target":34962},{"buffer":0,"byteLength":400,"byteOffset":170408,"target":34962},{"buffer":0,"byteLength":600,"byteOffset":170808,"target":34962},{"buffer":0,"byteLength":600,"byteOffset":171408,"target":34962},{"buffer":0,"byteLength":400,"byteOffset":172008,"target":34962},{"buffer":0,"byteLength":5424,"byteOffset":172408,"target":34962},{"buffer":0,"byteLength":8136,"byteOffset":177832,"target":34962},{"buffer":0,"byteLength":8136,"byteOffset":185968,"target":34962},{"buffer":0,"byteLength":5424,"byteOffset":194104,"target":34962},{"buffer":0,"byteLength":3504,"byteOffset":199528,"target":34963},{"buffer":0,"byteLength":5280,"byteOffset":203032,"target":34962},{"buffer":0,"byteLength":7920,"byteOffset":208312,"target":34962},{"buffer":0,"byteLength":7920,"byteOffset":216232,"target":34962},{"buffer":0,"byteLength":5280,"byteOffset":224152,"target":34962},{"buffer":0,"byteLength":4296,"byteOffset":229432,"target":34963},{"buffer":0,"byteLength":752,"byteOffset":233728,"target":34962},{"buffer":0,"byteLength":1128,"byteOffset":234480,"target":34962},{"buffer":0,"byteLength":1128,"byteOffset":235608,"target":34962},{"buffer":0,"byteLength":752,"byteOffset":236736,"target":34962},{"buffer":0,"byteLength":528,"byteOffset":237488,"target":34963},{"buffer":0,"byteLength":144,"byteOffset":238016,"target":34962},{"buffer":0,"byteLength":216,"byteOffset":238160,"target":34962},{"buffer":0,"byteLength":216,"byteOffset":238376,"target":34962},{"buffer":0,"byteLength":144,"byteOffset":238592,"target":34962},{"buffer":0,"byteLength":84,"byteOffset":238736,"target":34963},{"buffer":0,"byteLength":640,"byteOffset":238820,"target":34962},{"buffer":0,"byteLength":960,"byteOffset":239460,"target":34962},{"buffer":0,"byteLength":960,"byteOffset":240420,"target":34962},{"buffer":0,"byteLength":640,"byteOffset":241380,"target":34962},{"buffer":0,"byteLength":408,"byteOffset":242020,"target":34963},{"buffer":0,"byteLength":176,"byteOffset":242428,"target":34962},{"buffer":0,"byteLength":264,"byteOffset":242604,"target":34962},{"buffer":0,"byteLength":264,"byteOffset":242868,"target":34962},{"buffer":0,"byteLength":176,"byteOffset":243132,"target":34962},{"buffer":0,"byteLength":132,"byteOffset":243308,"target":34963},{"buffer":0,"byteLength":3752,"byteOffset":243440,"target":34962},{"buffer":0,"byteLength":5628,"byteOffset":247192,"target":34962},{"buffer":0,"byteLength":5628,"byteOffset":252820,"target":34962},{"buffer":0,"byteLength":3752,"byteOffset":258448,"target":34962},{"buffer":0,"byteLength":2508,"byteOffset":262200,"target":34963},{"buffer":0,"byteLength":232,"byteOffset":264708,"target":34962},{"buffer":0,"byteLength":348,"byteOffset":264940,"target":34962},{"buffer":0,"byteLength":348,"byteOffset":265288,"target":34962},{"buffer":0,"byteLength":232,"byteOffset":265636,"target":34962},{"buffer":0,"byteLength":240,"byteOffset":265868,"target":34963},{"buffer":0,"byteLength":3752,"byteOffset":266108,"target":34962},{"buffer":0,"byteLength":5628,"byteOffset":269860,"target":34962},{"buffer":0,"byteLength":5628,"byteOffset":275488,"target":34962},{"buffer":0,"byteLength":3752,"byteOffset":281116,"target":34962},{"buffer":0,"byteLength":2508,"byteOffset":284868,"target":34963},{"buffer":0,"byteLength":232,"byteOffset":287376,"target":34962},{"buffer":0,"byteLength":348,"byteOffset":287608,"target":34962},{"buffer":0,"byteLength":348,"byteOffset":287956,"target":34962},{"buffer":0,"byteLength":232,"byteOffset":288304,"target":34962},{"buffer":0,"byteLength":240,"byteOffset":288536,"target":34963},{"buffer":0,"byteLength":3752,"byteOffset":288776,"target":34962},{"buffer":0,"byteLength":5628,"byteOffset":292528,"target":34962},{"buffer":0,"byteLength":5628,"byteOffset":298156,"target":34962},{"buffer":0,"byteLength":3752,"byteOffset":303784,"target":34962},{"buffer":0,"byteLength":232,"byteOffset":307536,"target":34962},{"buffer":0,"byteLength":348,"byteOffset":307768,"target":34962},{"buffer":0,"byteLength":348,"byteOffset":308116,"target":34962},{"buffer":0,"byteLength":232,"byteOffset":308464,"target":34962},{"buffer":0,"byteLength":3752,"byteOffset":308696,"target":34962},{"buffer":0,"byteLength":5628,"byteOffset":312448,"target":34962},{"buffer":0,"byteLength":5628,"byteOffset":318076,"target":34962},{"buffer":0,"byteLength":3752,"byteOffset":323704,"target":34962},{"buffer":0,"byteLength":232,"byteOffset":327456,"target":34962},{"buffer":0,"byteLength":348,"byteOffset":327688,"target":34962},{"buffer":0,"byteLength":348,"byteOffset":328036,"target":34962},{"buffer":0,"byteLength":232,"byteOffset":328384,"target":34962},{"buffer":0,"byteLength":5076,"byteOffset":328616,"target":34962},{"buffer":0,"byteLength":5076,"byteOffset":333692,"target":34962},{"buffer":0,"byteLength":3384,"byteOffset":338768,"target":34962},{"buffer":0,"byteLength":2112,"byteOffset":342152,"target":34963},{"buffer":0,"byteLength":11772,"byteOffset":344264,"target":34962},{"buffer":0,"byteLength":11772,"byteOffset":356036,"target":34962},{"buffer":0,"byteLength":7848,"byteOffset":367808,"target":34962},{"buffer":0,"byteLength":5280,"byteOffset":375656,"target":34963},{"buffer":0,"byteLength":1404,"byteOffset":380936,"target":34962},{"buffer":0,"byteLength":1404,"byteOffset":382340,"target":34962},{"buffer":0,"byteLength":936,"byteOffset":383744,"target":34962},{"buffer":0,"byteLength":1020,"byteOffset":384680,"target":34963},{"buffer":0,"byteLength":432,"byteOffset":385700,"target":34962},{"buffer":0,"byteLength":432,"byteOffset":386132,"target":34962},{"buffer":0,"byteLength":288,"byteOffset":386564,"target":34962},{"buffer":0,"byteLength":192,"byteOffset":386852,"target":34963},{"buffer":0,"byteLength":192,"byteOffset":387044,"target":34962},{"buffer":0,"byteLength":192,"byteOffset":387236,"target":34962},{"buffer":0,"byteLength":128,"byteOffset":387428,"target":34962},{"buffer":0,"byteLength":72,"byteOffset":387556,"target":34963},{"buffer":0,"byteLength":54504,"byteOffset":387628,"target":34962},{"buffer":0,"byteLength":54504,"byteOffset":442132,"target":34962},{"buffer":0,"byteLength":36336,"byteOffset":496636,"target":34962},{"buffer":0,"byteLength":30672,"byteOffset":532972,"target":34963},{"buffer":0,"byteLength":8832,"byteOffset":563644,"target":34962},{"buffer":0,"byteLength":8832,"byteOffset":572476,"target":34962},{"buffer":0,"byteLength":5888,"byteOffset":581308,"target":34962},{"buffer":0,"byteLength":3216,"byteOffset":587196,"target":34963},{"buffer":0,"byteLength":2256,"byteOffset":590412,"target":34962},{"buffer":0,"byteLength":2256,"byteOffset":592668,"target":34962},{"buffer":0,"byteLength":1504,"byteOffset":594924,"target":34962},{"buffer":0,"byteLength":588,"byteOffset":596428,"target":34963},{"buffer":0,"byteLength":144,"byteOffset":597016,"target":34963},{"buffer":0,"byteLength":12,"byteOffset":597160,"target":34963},{"buffer":0,"byteLength":576,"byteOffset":597172,"target":34962},{"buffer":0,"byteLength":576,"byteOffset":597748,"target":34962},{"buffer":0,"byteLength":384,"byteOffset":598324,"target":34962},{"buffer":0,"byteLength":48,"byteOffset":598708,"target":34962},{"buffer":0,"byteLength":48,"byteOffset":598756,"target":34962},{"buffer":0,"byteLength":32,"byteOffset":598804,"target":34962},{"buffer":0,"byteLength":12,"byteOffset":598836,"target":34963},{"buffer":0,"byteLength":984,"byteOffset":598848,"target":34962},{"buffer":0,"byteLength":984,"byteOffset":599832,"target":34962},{"buffer":0,"byteLength":656,"byteOffset":600816,"target":34962},{"buffer":0,"byteLength":252,"byteOffset":601472,"target":34963},{"buffer":0,"byteLength":96,"byteOffset":601724,"target":34962},{"buffer":0,"byteLength":96,"byteOffset":601820,"target":34962},{"buffer":0,"byteLength":64,"byteOffset":601916,"target":34962},{"buffer":0,"byteLength":36,"byteOffset":601980,"target":34963},{"buffer":0,"byteLength":48,"byteOffset":602016,"target":34962},{"buffer":0,"byteLength":48,"byteOffset":602064,"target":34962},{"buffer":0,"byteLength":32,"byteOffset":602112,"target":34962},{"buffer":0,"byteLength":96,"byteOffset":602144,"target":34962},{"buffer":0,"byteLength":96,"byteOffset":602240,"target":34962},{"buffer":0,"byteLength":64,"byteOffset":602336,"target":34962},{"buffer":0,"byteLength":24,"byteOffset":602400,"target":34963},{"buffer":0,"byteLength":48,"byteOffset":602424,"target":34962},{"buffer":0,"byteLength":48,"byteOffset":602472,"target":34962},{"buffer":0,"byteLength":32,"byteOffset":602520,"target":34962},{"buffer":0,"byteLength":12,"byteOffset":602552,"target":34963},{"buffer":0,"byteLength":480,"byteOffset":602564,"target":34962},{"buffer":0,"byteLength":480,"byteOffset":603044,"target":34962},{"buffer":0,"byteLength":320,"byteOffset":603524,"target":34962},{"buffer":0,"byteLength":120,"byteOffset":603844,"target":34963},{"buffer":0,"byteLength":48,"byteOffset":603964,"target":34962},{"buffer":0,"byteLength":48,"byteOffset":604012,"target":34962},{"buffer":0,"byteLength":32,"byteOffset":604060,"target":34962},{"buffer":0,"byteLength":12,"byteOffset":604092,"target":34963},{"buffer":0,"byteLength":48,"byteOffset":604104,"target":34962},{"buffer":0,"byteLength":48,"byteOffset":604152,"target":34962},{"buffer":0,"byteLength":32,"byteOffset":604200,"target":34962},{"buffer":0,"byteLength":12,"byteOffset":604232,"target":34963},{"buffer":0,"byteLength":48,"byteOffset":604244,"target":34962},{"buffer":0,"byteLength":48,"byteOffset":604292,"target":34962},{"buffer":0,"byteLength":32,"byteOffset":604340,"target":34962},{"buffer":0,"byteLength":1272,"byteOffset":604372,"target":34962},{"buffer":0,"byteLength":1272,"byteOffset":605644,"target":34962},{"buffer":0,"byteLength":848,"byteOffset":606916,"target":34962},{"buffer":0,"byteLength":672,"byteOffset":607764,"target":34963},{"buffer":0,"byteLength":120,"byteOffset":608436,"target":34962},{"buffer":0,"byteLength":120,"byteOffset":608556,"target":34962},{"buffer":0,"byteLength":80,"byteOffset":608676,"target":34962},{"buffer":0,"byteLength":48,"byteOffset":608756,"target":34963},{"buffer":0,"byteLength":4980,"byteOffset":608804,"target":34962},{"buffer":0,"byteLength":4980,"byteOffset":613784,"target":34962},{"buffer":0,"byteLength":3320,"byteOffset":618764,"target":34962},{"buffer":0,"byteLength":1800,"byteOffset":622084,"target":34963},{"buffer":0,"byteLength":240,"byteOffset":623884,"target":34962},{"buffer":0,"byteLength":240,"byteOffset":624124,"target":34962},{"buffer":0,"byteLength":160,"byteOffset":624364,"target":34962},{"buffer":0,"byteLength":60,"byteOffset":624524,"target":34963},{"buffer":0,"byteLength":5760,"byteOffset":624584,"target":34962},{"buffer":0,"byteLength":5760,"byteOffset":630344,"target":34962},{"buffer":0,"byteLength":3840,"byteOffset":636104,"target":34962},{"buffer":0,"byteLength":2136,"byteOffset":639944,"target":34963},{"buffer":0,"byteLength":48,"byteOffset":642080,"target":34962},{"buffer":0,"byteLength":48,"byteOffset":642128,"target":34962},{"buffer":0,"byteLength":32,"byteOffset":642176,"target":34962},{"buffer":0,"byteLength":12,"byteOffset":642208,"target":34963},{"buffer":0,"byteLength":336,"byteOffset":642220,"target":34962},{"buffer":0,"byteLength":336,"byteOffset":642556,"target":34962},{"buffer":0,"byteLength":224,"byteOffset":642892,"target":34962},{"buffer":0,"byteLength":108,"byteOffset":643116,"target":34963},{"buffer":0,"byteLength":48,"byteOffset":643224,"target":34962},{"buffer":0,"byteLength":48,"byteOffset":643272,"target":34962},{"buffer":0,"byteLength":32,"byteOffset":643320,"target":34962},{"buffer":0,"byteLength":528,"byteOffset":643352,"target":34962},{"buffer":0,"byteLength":528,"byteOffset":643880,"target":34962},{"buffer":0,"byteLength":352,"byteOffset":644408,"target":34962},{"buffer":0,"byteLength":168,"byteOffset":644760,"target":34963},{"buffer":0,"byteLength":240,"byteOffset":644928,"target":34962},{"buffer":0,"byteLength":240,"byteOffset":645168,"target":34962},{"buffer":0,"byteLength":160,"byteOffset":645408,"target":34962},{"buffer":0,"byteLength":60,"byteOffset":645568,"target":34963},{"buffer":0,"byteLength":1296,"byteOffset":645628,"target":34962},{"buffer":0,"byteLength":1296,"byteOffset":646924,"target":34962},{"buffer":0,"byteLength":864,"byteOffset":648220,"target":34962},{"buffer":0,"byteLength":648,"byteOffset":649084,"target":34963}],"buffers":[{"uri":"south-central-east.bin","byteLength":649732}]}