{"asset":{"version":"2.0","generator":"Jarvis Cartoon City sectorizer v1"},"extensionsUsed":["KHR_materials_specular","KHR_materials_ior","KHR_materials_emissive_strength"],"scenes":[{"name":"Cartoon City Free — south-center","nodes":[0,5,6,7,8,9,10,11,12,13,14,15,16,17,18,19,20,21,22,23,24,25,26,27,28,29]}],"scene":0,"nodes":[{"mesh":4,"name":"Car_19.003","translation":[5.84391975402832,-0.10000000149011612,-47.87596130371094],"children":[1,2,3,4]},{"mesh":0,"name":"Car_19_Wheel_Front_Left.003","translation":[0.7394542694091797,0.4000002145767212,1.1063232421875]},{"mesh":1,"name":"Car_19_Wheel_Front_Right.003","translation":[-0.7385730743408203,0.4000002145767212,1.1063232421875]},{"mesh":2,"name":"Car_19_Wheel_Rear_Left.003","translation":[0.7394542694091797,0.4000002145767212,-1.1063232421875]},{"mesh":3,"name":"Car_19_Wheel_Rear_Right.003","translation":[-0.7385730743408203,0.4000002145767212,-1.1063232421875]},{"mesh":6,"name":"road_022.106","rotation":[0,0.7071066498756409,0,0.70710688829422],"translation":[-7.5,0,-67.5]},{"mesh":7,"name":"road_019.012","rotation":[0,0.7071066498756409,0,0.70710688829422],"translation":[7.5,0,-67.5]},{"mesh":5,"name":"road_020.003","rotation":[0,-1,0,2.821299744937278e-7],"translation":[7.5,0,-52.5]},{"mesh":8,"name":"Set_B_Tiles_01.021","rotation":[0,1,0,1.6292068494294654e-7],"translation":[-7.5,0,-52.5]},{"mesh":11,"name":"Spotlight_01.097","rotation":[0,-0.7071055769920349,0,0.7071080803871155],"translation":[14.39666748046875,0,-53.556640625]},{"mesh":11,"name":"Spotlight_01.107","translation":[-8.177734375,0,-73.50202941894531]},{"mesh":12,"name":"Spotlight_02.112","translation":[-8.46270751953125,0.0000152587890625,-50.47467041015625]},{"mesh":9,"name":"traffic_light_002.397","translation":[14.448974609375,0,-55.12364196777344]},{"mesh":9,"name":"traffic_light_002.410","rotation":[0,0.7071074843406677,0,0.7071060538291931],"translation":[19.8514404296875,0,-71.69236755371094]},{"mesh":9,"name":"traffic_light_002.520","rotation":[0,-0.7071062922477722,0,0.7071073651313782],"translation":[-4.843597412109375,0,-62.93603515625]},{"mesh":10,"name":"traffic_light_001.103","translation":[-0.0594482421875,0,-71.43421936035156]},{"mesh":11,"name":"Spotlight_01.113","rotation":[0,0.00008657776925247163,0,1],"translation":[12.422271728515625,0,-71.93510437011719]},{"mesh":13,"name":"traffic_light_003.395","rotation":[0,0.7071074843406677,0,0.7071060538291931],"translation":[0.615875244140625,0,-55.12364196777344]},{"mesh":13,"name":"traffic_light_003.515","rotation":[0,-1,0,3.1391647326017846e-7],"translation":[19.8514404296875,0,-62.9930419921875]},{"mesh":13,"name":"traffic_light_003.516","translation":[-4.843597412109375,0,-71.63539123535156]},{"mesh":14,"name":"Palm_03.066","translation":[16.5191650390625,0.15000015497207642,-58.75727844238281]},{"mesh":15,"name":"Bush_10.193","rotation":[0,-0.7071058750152588,0,0.7071077823638916],"translation":[15.88397216796875,0,-43.99908447265625]},{"mesh":15,"name":"Bush_10.194","rotation":[0,-0.7071058750152588,0,0.7071077823638916],"translation":[15.884033203125,0,-52.499908447265625]},{"mesh":15,"name":"Bush_10.196","rotation":[0,-0.7071058750152588,0,0.7071077823638916],"translation":[15.884002685546875,0,-48.287933349609375]},{"mesh":15,"name":"Bush_10.270","translation":[-5.61163330078125,0,-58.97602844238281]},{"mesh":15,"name":"Bush_10.271","translation":[-14.1124267578125,0,-58.97608947753906]},{"mesh":15,"name":"Bush_10.272","translation":[-9.90045166015625,0,-58.97605895996094]},{"mesh":15,"name":"Bush_10.276","rotation":[0,0.707108199596405,0,0.7071054577827454],"translation":[-0.936126708984375,0,-52.34815979003906]},{"mesh":15,"name":"Bush_10.277","rotation":[0,0.707108199596405,0,0.7071054577827454],"translation":[-0.936187744140625,0,-43.84736633300781]},{"mesh":15,"name":"Bush_10.278","rotation":[0,0.707108199596405,0,0.7071054577827454],"translation":[-0.9361572265625,0,-48.05934143066406]}],"meshes":[{"name":"Mesh.074","primitives":[{"attributes":{"COLOR_0":2,"POSITION":3,"NORMAL":4,"TEXCOORD_0":5},"indices":0,"material":0},{"attributes":{"COLOR_0":6,"POSITION":7,"NORMAL":8,"TEXCOORD_0":9},"indices":1,"material":1}]},{"name":"Mesh.068","primitives":[{"attributes":{"COLOR_0":10,"POSITION":11,"NORMAL":12,"TEXCOORD_0":13},"indices":14,"material":0},{"attributes":{"COLOR_0":15,"POSITION":16,"NORMAL":17,"TEXCOORD_0":18},"indices":19,"material":1}]},{"name":"Mesh.073","primitives":[{"attributes":{"COLOR_0":20,"POSITION":21,"NORMAL":22,"TEXCOORD_0":23},"indices":0,"material":0},{"attributes":{"COLOR_0":24,"POSITION":25,"NORMAL":26,"TEXCOORD_0":27},"indices":1,"material":1}]},{"name":"Mesh.069","primitives":[{"attributes":{"COLOR_0":28,"POSITION":29,"NORMAL":30,"TEXCOORD_0":31},"indices":14,"material":0},{"attributes":{"COLOR_0":32,"POSITION":33,"NORMAL":34,"TEXCOORD_0":35},"indices":19,"material":1}]},{"name":"beetle.004_baseGradient.007_0.001","primitives":[{"attributes":{"COLOR_0":36,"POSITION":37,"NORMAL":38,"TEXCOORD_0":39},"indices":40,"material":0},{"attributes":{"COLOR_0":41,"POSITION":42,"NORMAL":43,"TEXCOORD_0":44},"indices":45,"material":5},{"attributes":{"COLOR_0":46,"POSITION":47,"NORMAL":48,"TEXCOORD_0":49},"indices":50,"material":2},{"attributes":{"COLOR_0":51,"POSITION":52,"NORMAL":53,"TEXCOORD_0":54},"indices":55,"material":1},{"attributes":{"COLOR_0":56,"POSITION":57,"NORMAL":58,"TEXCOORD_0":59},"indices":60,"material":3},{"attributes":{"COLOR_0":61,"POSITION":62,"NORMAL":63,"TEXCOORD_0":64},"indices":65,"material":6},{"attributes":{"COLOR_0":66,"POSITION":67,"NORMAL":68,"TEXCOORD_0":69},"indices":70,"material":4}]},{"name":"Cube.190","primitives":[{"attributes":{"POSITION":72,"NORMAL":73,"TEXCOORD_0":74},"indices":75,"material":0},{"attributes":{"POSITION":76,"NORMAL":77,"TEXCOORD_0":78},"indices":71,"material":8}]},{"name":"Cube.188","primitives":[{"attributes":{"POSITION":79,"NORMAL":80,"TEXCOORD_0":81},"indices":75,"material":0},{"attributes":{"POSITION":82,"NORMAL":83,"TEXCOORD_0":84},"indices":71,"material":8}]},{"name":"Cube.191","primitives":[{"attributes":{"POSITION":85,"NORMAL":86,"TEXCOORD_0":87},"indices":88,"material":0},{"attributes":{"POSITION":89,"NORMAL":90,"TEXCOORD_0":91},"indices":92,"material":8}]},{"name":"Plane.272","primitives":[{"attributes":{"POSITION":93,"NORMAL":94,"TEXCOORD_0":95},"indices":96,"material":0},{"attributes":{"POSITION":97,"NORMAL":98,"TEXCOORD_0":99},"indices":100,"material":9},{"attributes":{"POSITION":101,"NORMAL":102,"TEXCOORD_0":103},"indices":104,"material":10},{"attributes":{"POSITION":105,"NORMAL":106,"TEXCOORD_0":107},"indices":108,"material":11}]},{"name":"Cube.111","primitives":[{"attributes":{"POSITION":109,"NORMAL":110,"TEXCOORD_0":111},"indices":112,"material":0},{"attributes":{"POSITION":113,"NORMAL":114,"TEXCOORD_0":115},"indices":116,"material":7},{"attributes":{"POSITION":117,"NORMAL":118,"TEXCOORD_0":119},"indices":120,"material":12}]},{"name":"Cube.124","primitives":[{"attributes":{"POSITION":121,"NORMAL":122,"TEXCOORD_0":123},"indices":124,"material":0},{"attributes":{"POSITION":125,"NORMAL":126,"TEXCOORD_0":127},"indices":128,"material":7}]},{"name":"Cube.184","primitives":[{"attributes":{"POSITION":129,"NORMAL":130,"TEXCOORD_0":131},"indices":132,"material":0},{"attributes":{"POSITION":133,"NORMAL":134,"TEXCOORD_0":135},"indices":136,"material":7}]},{"name":"home_living.002","primitives":[{"attributes":{"POSITION":137,"NORMAL":138,"TEXCOORD_0":139},"indices":140,"material":0},{"attributes":{"POSITION":141,"NORMAL":142,"TEXCOORD_0":143},"indices":144,"material":7}]},{"name":"Cube.107","primitives":[{"attributes":{"POSITION":145,"NORMAL":146,"TEXCOORD_0":147},"indices":148,"material":0},{"attributes":{"POSITION":149,"NORMAL":150,"TEXCOORD_0":151},"indices":152,"material":7},{"attributes":{"POSITION":153,"NORMAL":154,"TEXCOORD_0":155},"indices":120,"material":12}]},{"name":"Cylinder.086","primitives":[{"attributes":{"POSITION":156,"NORMAL":157,"TEXCOORD_0":158},"indices":159,"material":0}]},{"name":"Cube.083","primitives":[{"attributes":{"POSITION":160,"NORMAL":161,"TEXCOORD_0":162},"indices":163,"material":0}]}],"materials":[{"doubleSided":true,"name":"Color","pbrMetallicRoughness":{"baseColorTexture":{"index":0},"metallicFactor":0,"roughnessFactor":0.699999988079071}},{"doubleSided":true,"name":"Metal","pbrMetallicRoughness":{"baseColorTexture":{"index":1},"roughnessFactor":0.3316831588745117}},{"doubleSided":true,"name":"Color_Glossy","pbrMetallicRoughness":{"baseColorTexture":{"index":2},"metallicFactor":0,"roughnessFactor":0.20000000298023224}},{"doubleSided":true,"emissiveFactor":[1,1,1],"emissiveTexture":{"index":3},"name":"Car_Taillights","pbrMetallicRoughness":{"baseColorTexture":{"index":4},"metallicFactor":0,"roughnessFactor":0.5}},{"alphaMode":"BLEND","doubleSided":true,"extensions":{"KHR_materials_specular":{"specularColorFactor":[2.371357614441398,2.371357614441398,2.371357614441398]},"KHR_materials_ior":{"ior":1.4500000476837158}},"name":"Glass","pbrMetallicRoughness":{"baseColorFactor":[1,1,1,0.5],"baseColorTexture":{"index":5},"metallicFactor":0.20000000298023224,"roughnessFactor":0.05000000074505806}},{"doubleSided":true,"emissiveFactor":[0.10000000149011612,0.10000000149011612,0.10000000149011612],"emissiveTexture":{"index":6},"name":"Car_Color","pbrMetallicRoughness":{"baseColorTexture":{"index":7},"metallicFactor":0.20000000298023224,"roughnessFactor":0.10000000149011612}},{"doubleSided":true,"emissiveFactor":[1,1,1],"emissiveTexture":{"index":8},"name":"Car_Headlights","pbrMetallicRoughness":{"baseColorTexture":{"index":9},"metallicFactor":0,"roughnessFactor":0.5}},{"doubleSided":true,"emissiveFactor":[1,1,1],"emissiveTexture":{"index":10},"extensions":{"KHR_materials_emissive_strength":{"emissiveStrength":3}},"name":"Emissive","pbrMetallicRoughness":{"baseColorTexture":{"index":11},"metallicFactor":0,"roughnessFactor":0.5}},{"doubleSided":true,"emissiveFactor":[0.10000000149011612,0.10000000149011612,0.10000000149011612],"emissiveTexture":{"index":12},"extensions":{"KHR_materials_specular":{"specularColorFactor":[0.711407312601205,0.711407312601205,0.711407312601205]},"KHR_materials_ior":{"ior":1.4500000476837158}},"name":"Roads","pbrMetallicRoughness":{"baseColorTexture":{"index":13},"metallicFactor":0,"roughnessFactor":0.75}},{"doubleSided":true,"name":"Asphalt_Dark_Gray","pbrMetallicRoughness":{"baseColorFactor":[0.13853572309017181,0.13853572309017181,0.13853572309017181,1],"metallicFactor":0,"roughnessFactor":0.5}},{"doubleSided":true,"name":"Tile_1","normalTexture":{"index":14,"scale":5},"pbrMetallicRoughness":{"baseColorTexture":{"index":15},"metallicFactor":0,"metallicRoughnessTexture":{"index":16}}},{"doubleSided":true,"name":"Grass","pbrMetallicRoughness":{"baseColorFactor":[0.25015830993652344,0.44520121812820435,0.13013650476932526,1],"metallicFactor":0,"roughnessFactor":0.7598187327384949}},{"doubleSided":true,"name":"Road_Signs","pbrMetallicRoughness":{"baseColorTexture":{"index":17},"metallicFactor":0,"roughnessFactor":0.5}}],"textures":[{"sampler":0,"source":0},{"sampler":0,"source":1},{"sampler":0,"source":0},{"sampler":0,"source":1},{"sampler":0,"source":1},{"sampler":0,"source":0},{"sampler":0,"source":0},{"sampler":0,"source":0},{"sampler":0,"source":1},{"sampler":0,"source":1},{"sampler":0,"source":1},{"sampler":0,"source":1},{"sampler":0,"source":2},{"sampler":0,"source":2},{"sampler":0,"source":3},{"sampler":0,"source":4},{"sampler":0,"source":5},{"sampler":0,"source":6}],"images":[{"uri":"shared/486c6d61063241d5.webp","mimeType":"image/webp"},{"uri":"shared/486c6d61063241d5.webp","mimeType":"image/webp"},{"uri":"shared/cd11a20db95ff60c.webp","mimeType":"image/webp"},{"uri":"shared/28470d0f5c64a9e9.png","mimeType":"image/png"},{"uri":"shared/d686ec6d73243cad.webp","mimeType":"image/webp"},{"uri":"shared/0dd4c9f67e03b0dc.png","mimeType":"image/png"},{"uri":"shared/2cccaa2f16cfd5f2.webp","mimeType":"image/webp"}],"samplers":[{"magFilter":9729,"minFilter":9987}],"accessors":[{"bufferView":0,"componentType":5123,"count":594,"type":"SCALAR"},{"bufferView":1,"componentType":5123,"count":96,"type":"SCALAR"},{"bufferView":2,"componentType":5123,"count":120,"normalized":true,"type":"VEC4"},{"bufferView":3,"componentType":5126,"count":120,"max":[0.16160275042057037,0.3999999463558197,0.39999446272850037],"min":[-0.16258098185062408,-0.4000001847743988,-0.40000566840171814],"type":"VEC3"},{"bufferView":4,"componentType":5126,"count":120,"type":"VEC3"},{"bufferView":5,"componentType":5126,"count":120,"type":"VEC2"},{"bufferView":6,"componentType":5123,"count":34,"normalized":true,"type":"VEC4"},{"bufferView":7,"componentType":5126,"count":34,"max":[0.16126562654972076,0.25954538583755493,0.2595387101173401],"min":[0.03194141760468483,-0.25954556465148926,-0.2595522999763489],"type":"VEC3"},{"bufferView":8,"componentType":5126,"count":34,"type":"VEC3"},{"bufferView":9,"componentType":5126,"count":34,"type":"VEC2"},{"bufferView":10,"componentType":5123,"count":120,"normalized":true,"type":"VEC4"},{"bufferView":11,"componentType":5126,"count":120,"max":[0.16184855997562408,0.3999999463558197,0.39999446272850037],"min":[-0.16233517229557037,-0.4000001847743988,-0.40000566840171814],"type":"VEC3"},{"bufferView":12,"componentType":5126,"count":120,"type":"VEC3"},{"bufferView":13,"componentType":5126,"count":120,"type":"VEC2"},{"bufferView":14,"componentType":5123,"count":594,"type":"SCALAR"},{"bufferView":15,"componentType":5123,"count":34,"normalized":true,"type":"VEC4"},{"bufferView":16,"componentType":5126,"count":34,"max":[-0.03267383947968483,0.25954538583755493,0.2595387101173401],"min":[-0.16199804842472076,-0.25954556465148926,-0.2595522999763489],"type":"VEC3"},{"bufferView":17,"componentType":5126,"count":34,"type":"VEC3"},{"bufferView":18,"componentType":5126,"count":34,"type":"VEC2"},{"bufferView":19,"componentType":5123,"count":96,"type":"SCALAR"},{"bufferView":20,"componentType":5123,"count":120,"normalized":true,"type":"VEC4"},{"bufferView":21,"componentType":5126,"count":120,"max":[0.16160275042057037,0.3999999463558197,0.39999446272850037],"min":[-0.16258098185062408,-0.4000001847743988,-0.40000566840171814],"type":"VEC3"},{"bufferView":22,"componentType":5126,"count":120,"type":"VEC3"},{"bufferView":23,"componentType":5126,"count":120,"type":"VEC2"},{"bufferView":24,"componentType":5123,"count":34,"normalized":true,"type":"VEC4"},{"bufferView":25,"componentType":5126,"count":34,"max":[0.16126562654972076,0.25954538583755493,0.2595387101173401],"min":[0.03194141760468483,-0.25954556465148926,-0.2595522999763489],"type":"VEC3"},{"bufferView":26,"componentType":5126,"count":34,"type":"VEC3"},{"bufferView":27,"componentType":5126,"count":34,"type":"VEC2"},{"bufferView":28,"componentType":5123,"count":120,"normalized":true,"type":"VEC4"},{"bufferView":29,"componentType":5126,"count":120,"max":[0.16184855997562408,0.3999999463558197,0.39999446272850037],"min":[-0.16233517229557037,-0.4000001847743988,-0.40000566840171814],"type":"VEC3"},{"bufferView":30,"componentType":5126,"count":120,"type":"VEC3"},{"bufferView":31,"componentType":5126,"count":120,"type":"VEC2"},{"bufferView":32,"componentType":5123,"count":34,"normalized":true,"type":"VEC4"},{"bufferView":33,"componentType":5126,"count":34,"max":[-0.03267383947968483,0.25954538583755493,0.2595387101173401],"min":[-0.16199804842472076,-0.25954556465148926,-0.2595522999763489],"type":"VEC3"},{"bufferView":34,"componentType":5126,"count":34,"type":"VEC3"},{"bufferView":35,"componentType":5126,"count":34,"type":"VEC2"},{"bufferView":36,"componentType":5123,"count":348,"normalized":true,"type":"VEC4"},{"bufferView":37,"componentType":5126,"count":348,"max":[0.890807032585144,1.4882900714874268,1.5474961996078491],"min":[-0.8905633687973022,0.26076531410217285,-1.5428946018218994],"type":"VEC3"},{"bufferView":38,"componentType":5126,"count":348,"type":"VEC3"},{"bufferView":39,"componentType":5126,"count":348,"type":"VEC2"},{"bufferView":40,"componentType":5123,"count":918,"type":"SCALAR"},{"bufferView":41,"componentType":5123,"count":547,"normalized":true,"type":"VEC4"},{"bufferView":42,"componentType":5126,"count":547,"max":[0.890807032585144,1.6471302509307861,1.7249062061309814],"min":[-0.8905634880065918,0.19979190826416016,-1.9050875902175903],"type":"VEC3"},{"bufferView":43,"componentType":5126,"count":547,"type":"VEC3"},{"bufferView":44,"componentType":5126,"count":547,"type":"VEC2"},{"bufferView":45,"componentType":5123,"count":2100,"type":"SCALAR"},{"bufferView":46,"componentType":5123,"count":85,"normalized":true,"type":"VEC4"},{"bufferView":47,"componentType":5126,"count":85,"max":[0.7060546875,1.4570825099945068,0.5437366962432861],"min":[-0.705810546875,1.0568881034851074,-1.357279658317566],"type":"VEC3"},{"bufferView":48,"componentType":5126,"count":85,"type":"VEC3"},{"bufferView":49,"componentType":5126,"count":85,"type":"VEC2"},{"bufferView":50,"componentType":5123,"count":240,"type":"SCALAR"},{"bufferView":51,"componentType":5123,"count":516,"normalized":true,"type":"VEC4"},{"bufferView":52,"componentType":5126,"count":516,"max":[0.8514214158058167,1.2386927604675293,1.7686084508895874],"min":[-0.8515722751617432,0.2570513188838959,-1.8987914323806763],"type":"VEC3"},{"bufferView":53,"componentType":5126,"count":516,"type":"VEC3"},{"bufferView":54,"componentType":5126,"count":516,"type":"VEC2"},{"bufferView":55,"componentType":5123,"count":2280,"type":"SCALAR"},{"bufferView":56,"componentType":5123,"count":72,"normalized":true,"type":"VEC4"},{"bufferView":57,"componentType":5126,"count":72,"max":[0.7107113599777222,0.6922472715377808,-1.7011644840240479],"min":[-0.7104676961898804,0.49643173813819885,-1.761592984199524],"type":"VEC3"},{"bufferView":58,"componentType":5126,"count":72,"type":"VEC3"},{"bufferView":59,"componentType":5126,"count":72,"type":"VEC2"},{"bufferView":60,"componentType":5123,"count":408,"type":"SCALAR"},{"bufferView":61,"componentType":5123,"count":24,"normalized":true,"type":"VEC4"},{"bufferView":62,"componentType":5126,"count":24,"max":[0.6814594864845276,0.8091983795166016,1.5876168012619019],"min":[-0.6812148690223694,0.5367419123649597,1.5300167798995972],"type":"VEC3"},{"bufferView":63,"componentType":5126,"count":24,"type":"VEC3"},{"bufferView":64,"componentType":5126,"count":24,"type":"VEC2"},{"bufferView":65,"componentType":5123,"count":60,"type":"SCALAR"},{"bufferView":66,"componentType":5123,"count":38,"normalized":true,"type":"VEC4"},{"bufferView":67,"componentType":5126,"count":38,"max":[0.707402229309082,0.8360848426818848,1.6608446836471558],"min":[-0.7071576118469238,0.5093737244606018,1.5742207765579224],"type":"VEC3"},{"bufferView":68,"componentType":5126,"count":38,"type":"VEC3"},{"bufferView":69,"componentType":5126,"count":38,"type":"VEC2"},{"bufferView":70,"componentType":5123,"count":144,"type":"SCALAR"},{"bufferView":71,"componentType":5123,"count":6,"type":"SCALAR"},{"bufferView":72,"componentType":5126,"count":48,"max":[7.500000953674316,0.09999997913837433,7.499996662139893],"min":[-7.500000953674316,-0.10000001639127731,-7.499996662139893],"type":"VEC3"},{"bufferView":73,"componentType":5126,"count":48,"type":"VEC3"},{"bufferView":74,"componentType":5126,"count":48,"type":"VEC2"},{"bufferView":75,"componentType":5123,"count":72,"type":"SCALAR"},{"bufferView":76,"componentType":5126,"count":4,"max":[7.499879837036133,-0.10000000894069672,7.499996662139893],"min":[-7.500123977661133,-0.10000000894069672,-7.499996662139893],"type":"VEC3"},{"bufferView":77,"componentType":5126,"count":4,"type":"VEC3"},{"bufferView":78,"componentType":5126,"count":4,"type":"VEC2"},{"bufferView":79,"componentType":5126,"count":48,"max":[7.500000953674316,0.09999997913837433,7.500000953674316],"min":[-7.500000953674316,-0.10000001639127731,-7.500000953674316],"type":"VEC3"},{"bufferView":80,"componentType":5126,"count":48,"type":"VEC3"},{"bufferView":81,"componentType":5126,"count":48,"type":"VEC2"},{"bufferView":82,"componentType":5126,"count":4,"max":[3.7500016689300537,-0.10000000894069672,7.500000476837158],"min":[-3.7500016689300537,-0.10000000894069672,-7.500000476837158],"type":"VEC3"},{"bufferView":83,"componentType":5126,"count":4,"type":"VEC3"},{"bufferView":84,"componentType":5126,"count":4,"type":"VEC2"},{"bufferView":85,"componentType":5126,"count":136,"max":[7.500000476837158,0.10000002384185791,7.5],"min":[-7.500001430511475,-0.10000002384185791,-7.5],"type":"VEC3"},{"bufferView":86,"componentType":5126,"count":136,"type":"VEC3"},{"bufferView":87,"componentType":5126,"count":136,"type":"VEC2"},{"bufferView":88,"componentType":5123,"count":258,"type":"SCALAR"},{"bufferView":89,"componentType":5126,"count":4,"max":[7.500000953674316,-0.10000000894069672,7.499995231628418],"min":[-7.500096321105957,-0.10000000894069672,-7.499995231628418],"type":"VEC3"},{"bufferView":90,"componentType":5126,"count":4,"type":"VEC3"},{"bufferView":91,"componentType":5126,"count":4,"type":"VEC2"},{"bufferView":92,"componentType":5123,"count":6,"type":"SCALAR"},{"bufferView":93,"componentType":5126,"count":160,"max":[7.5,0.10000000149011612,5.705989837646484],"min":[-5.705223083496094,-0.10000000149011612,-7.499998569488525],"type":"VEC3"},{"bufferView":94,"componentType":5126,"count":160,"type":"VEC3"},{"bufferView":95,"componentType":5126,"count":160,"type":"VEC2"},{"bufferView":96,"componentType":5123,"count":276,"type":"SCALAR"},{"bufferView":97,"componentType":5126,"count":10,"max":[7.5,0,5.606975078582764],"min":[-5.604776382446289,-9.5367431640625e-7,-7.499980926513672],"type":"VEC3"},{"bufferView":98,"componentType":5126,"count":10,"type":"VEC3"},{"bufferView":99,"componentType":5126,"count":10,"type":"VEC2"},{"bufferView":100,"componentType":5123,"count":24,"type":"SCALAR"},{"bufferView":101,"componentType":5126,"count":6,"max":[7.5,0,1.8790885210037231],"min":[-1.8768863677978516,-9.5367431640625e-7,-7.49998140335083],"type":"VEC3"},{"bufferView":102,"componentType":5126,"count":6,"type":"VEC3"},{"bufferView":103,"componentType":5126,"count":6,"type":"VEC2"},{"bufferView":104,"componentType":5123,"count":12,"type":"SCALAR"},{"bufferView":105,"componentType":5126,"count":8,"max":[7.5,0,7.500000476837158],"min":[-7.5,-9.5367431640625e-7,-7.499974727630615],"type":"VEC3"},{"bufferView":106,"componentType":5126,"count":8,"type":"VEC3"},{"bufferView":107,"componentType":5126,"count":8,"type":"VEC2"},{"bufferView":108,"componentType":5123,"count":18,"type":"SCALAR"},{"bufferView":109,"componentType":5126,"count":250,"max":[0.8402214050292969,5.875692367553711,0.2000018209218979],"min":[-3.8944287300109863,0,-0.534691333770752],"type":"VEC3"},{"bufferView":110,"componentType":5126,"count":250,"type":"VEC3"},{"bufferView":111,"componentType":5126,"count":250,"type":"VEC2"},{"bufferView":112,"componentType":5123,"count":690,"type":"SCALAR"},{"bufferView":113,"componentType":5126,"count":104,"max":[0.05109861120581627,5.80059814453125,0.20468004047870636],"min":[-3.8028550148010254,2.0637972354888916,-0.44432735443115234],"type":"VEC3"},{"bufferView":114,"componentType":5126,"count":104,"type":"VEC3"},{"bufferView":115,"componentType":5126,"count":104,"type":"VEC2"},{"bufferView":116,"componentType":5123,"count":234,"type":"SCALAR"},{"bufferView":117,"componentType":5126,"count":8,"max":[0.8402214050292969,3.674964427947998,0.05142209678888321],"min":[0.14022113382816315,2.9749643802642822,0.05142199248075485],"type":"VEC3"},{"bufferView":118,"componentType":5126,"count":8,"type":"VEC3"},{"bufferView":119,"componentType":5126,"count":8,"type":"VEC2"},{"bufferView":120,"componentType":5123,"count":18,"type":"SCALAR"},{"bufferView":121,"componentType":5126,"count":79,"max":[3.8942618370056152,5.875692367553711,0.20000438392162323],"min":[-0.09761166572570801,0,-0.1999952495098114],"type":"VEC3"},{"bufferView":122,"componentType":5126,"count":79,"type":"VEC3"},{"bufferView":123,"componentType":5126,"count":79,"type":"VEC2"},{"bufferView":124,"componentType":5123,"count":312,"type":"SCALAR"},{"bufferView":125,"componentType":5126,"count":24,"max":[3.8026881217956543,5.80059814453125,0.2025989294052124],"min":[3.5812008380889893,4.953180313110352,0.20259889960289001],"type":"VEC3"},{"bufferView":126,"componentType":5126,"count":24,"type":"VEC3"},{"bufferView":127,"componentType":5126,"count":24,"type":"VEC2"},{"bufferView":128,"componentType":5123,"count":54,"type":"SCALAR"},{"bufferView":129,"componentType":5126,"count":106,"max":[0.22128364443778992,8.304719924926758,3.0710415840148926],"min":[-0.2213037759065628,0,-0.11709251999855042],"type":"VEC3"},{"bufferView":130,"componentType":5126,"count":106,"type":"VEC3"},{"bufferView":131,"componentType":5126,"count":106,"type":"VEC2"},{"bufferView":132,"componentType":5123,"count":336,"type":"SCALAR"},{"bufferView":133,"componentType":5126,"count":10,"max":[0.13364164531230927,7.941127300262451,3.0237202644348145],"min":[-0.13366179168224335,7.70126485824585,2.2360119819641113],"type":"VEC3"},{"bufferView":134,"componentType":5126,"count":10,"type":"VEC3"},{"bufferView":135,"componentType":5126,"count":10,"type":"VEC2"},{"bufferView":136,"componentType":5123,"count":24,"type":"SCALAR"},{"bufferView":137,"componentType":5126,"count":566,"max":[1.3794394731521606,7.102696895599365,1.3794403076171875],"min":[-1.3794411420822144,0,-1.3794403076171875],"type":"VEC3"},{"bufferView":138,"componentType":5126,"count":566,"type":"VEC3"},{"bufferView":139,"componentType":5126,"count":566,"type":"VEC2"},{"bufferView":140,"componentType":5123,"count":1632,"type":"SCALAR"},{"bufferView":141,"componentType":5126,"count":120,"max":[1.2470276355743408,6.861074924468994,1.2470283508300781],"min":[-1.2470276355743408,5.480563163757324,-1.2470283508300781],"type":"VEC3"},{"bufferView":142,"componentType":5126,"count":120,"type":"VEC3"},{"bufferView":143,"componentType":5126,"count":120,"type":"VEC2"},{"bufferView":144,"componentType":5123,"count":360,"type":"SCALAR"},{"bufferView":145,"componentType":5126,"count":130,"max":[0.5346779823303223,3.6833977699279785,0.09750127792358398],"min":[-0.35001420974731445,0,-0.09750032424926758],"type":"VEC3"},{"bufferView":146,"componentType":5126,"count":130,"type":"VEC3"},{"bufferView":147,"componentType":5126,"count":130,"type":"VEC2"},{"bufferView":148,"componentType":5123,"count":270,"type":"SCALAR"},{"bufferView":149,"componentType":5126,"count":32,"max":[0.44431400299072266,2.5615642070770264,0.051464855670928955],"min":[0.22252750396728516,2.0637972354888916,-0.059887468814849854],"type":"VEC3"},{"bufferView":150,"componentType":5126,"count":32,"type":"VEC3"},{"bufferView":151,"componentType":5126,"count":32,"type":"VEC2"},{"bufferView":152,"componentType":5123,"count":72,"type":"SCALAR"},{"bufferView":153,"componentType":5126,"count":8,"max":[0.34998607635498047,3.6833977699279785,0.04463052749633789],"min":[-0.35001420974731445,2.983397960662842,0.04463052749633789],"type":"VEC3"},{"bufferView":154,"componentType":5126,"count":8,"type":"VEC3"},{"bufferView":155,"componentType":5126,"count":8,"type":"VEC2"},{"bufferView":156,"componentType":5126,"count":1662,"max":[3.8045547008514404,22.508602142333984,3.6199774742126465],"min":[-3.976882219314575,-0.16390419006347656,-4.198368549346924],"type":"VEC3"},{"bufferView":157,"componentType":5126,"count":1662,"type":"VEC3"},{"bufferView":158,"componentType":5126,"count":1662,"type":"VEC2"},{"bufferView":159,"componentType":5123,"count":3630,"type":"SCALAR"},{"bufferView":160,"componentType":5126,"count":20,"max":[0.9925661087036133,1,0.49380436539649963],"min":[-0.9925661087036133,0,-0.49380436539649963],"type":"VEC3"},{"bufferView":161,"componentType":5126,"count":20,"type":"VEC3"},{"bufferView":162,"componentType":5126,"count":20,"type":"VEC2"},{"bufferView":163,"componentType":5123,"count":90,"type":"SCALAR"}],"bufferViews":[{"buffer":0,"byteLength":1188,"byteOffset":0,"target":34963},{"buffer":0,"byteLength":192,"byteOffset":1188,"target":34963},{"buffer":0,"byteLength":960,"byteOffset":1380,"target":34962},{"buffer":0,"byteLength":1440,"byteOffset":2340,"target":34962},{"buffer":0,"byteLength":1440,"byteOffset":3780,"target":34962},{"buffer":0,"byteLength":960,"byteOffset":5220,"target":34962},{"buffer":0,"byteLength":272,"byteOffset":6180,"target":34962},{"buffer":0,"byteLength":408,"byteOffset":6452,"target":34962},{"buffer":0,"byteLength":408,"byteOffset":6860,"target":34962},{"buffer":0,"byteLength":272,"byteOffset":7268,"target":34962},{"buffer":0,"byteLength":960,"byteOffset":7540,"target":34962},{"buffer":0,"byteLength":1440,"byteOffset":8500,"target":34962},{"buffer":0,"byteLength":1440,"byteOffset":9940,"target":34962},{"buffer":0,"byteLength":960,"byteOffset":11380,"target":34962},{"buffer":0,"byteLength":1188,"byteOffset":12340,"target":34963},{"buffer":0,"byteLength":272,"byteOffset":13528,"target":34962},{"buffer":0,"byteLength":408,"byteOffset":13800,"target":34962},{"buffer":0,"byteLength":408,"byteOffset":14208,"target":34962},{"buffer":0,"byteLength":272,"byteOffset":14616,"target":34962},{"buffer":0,"byteLength":192,"byteOffset":14888,"target":34963},{"buffer":0,"byteLength":960,"byteOffset":15080,"target":34962},{"buffer":0,"byteLength":1440,"byteOffset":16040,"target":34962},{"buffer":0,"byteLength":1440,"byteOffset":17480,"target":34962},{"buffer":0,"byteLength":960,"byteOffset":18920,"target":34962},{"buffer":0,"byteLength":272,"byteOffset":19880,"target":34962},{"buffer":0,"byteLength":408,"byteOffset":20152,"target":34962},{"buffer":0,"byteLength":408,"byteOffset":20560,"target":34962},{"buffer":0,"byteLength":272,"byteOffset":20968,"target":34962},{"buffer":0,"byteLength":960,"byteOffset":21240,"target":34962},{"buffer":0,"byteLength":1440,"byteOffset":22200,"target":34962},{"buffer":0,"byteLength":1440,"byteOffset":23640,"target":34962},{"buffer":0,"byteLength":960,"byteOffset":25080,"target":34962},{"buffer":0,"byteLength":272,"byteOffset":26040,"target":34962},{"buffer":0,"byteLength":408,"byteOffset":26312,"target":34962},{"buffer":0,"byteLength":408,"byteOffset":26720,"target":34962},{"buffer":0,"byteLength":272,"byteOffset":27128,"target":34962},{"buffer":0,"byteLength":2784,"byteOffset":27400,"target":34962},{"buffer":0,"byteLength":4176,"byteOffset":30184,"target":34962},{"buffer":0,"byteLength":4176,"byteOffset":34360,"target":34962},{"buffer":0,"byteLength":2784,"byteOffset":38536,"target":34962},{"buffer":0,"byteLength":1836,"byteOffset":41320,"target":34963},{"buffer":0,"byteLength":4376,"byteOffset":43156,"target":34962},{"buffer":0,"byteLength":6564,"byteOffset":47532,"target":34962},{"buffer":0,"byteLength":6564,"byteOffset":54096,"target":34962},{"buffer":0,"byteLength":4376,"byteOffset":60660,"target":34962},{"buffer":0,"byteLength":4200,"byteOffset":65036,"target":34963},{"buffer":0,"byteLength":680,"byteOffset":69236,"target":34962},{"buffer":0,"byteLength":1020,"byteOffset":69916,"target":34962},{"buffer":0,"byteLength":1020,"byteOffset":70936,"target":34962},{"buffer":0,"byteLength":680,"byteOffset":71956,"target":34962},{"buffer":0,"byteLength":480,"byteOffset":72636,"target":34963},{"buffer":0,"byteLength":4128,"byteOffset":73116,"target":34962},{"buffer":0,"byteLength":6192,"byteOffset":77244,"target":34962},{"buffer":0,"byteLength":6192,"byteOffset":83436,"target":34962},{"buffer":0,"byteLength":4128,"byteOffset":89628,"target":34962},{"buffer":0,"byteLength":4560,"byteOffset":93756,"target":34963},{"buffer":0,"byteLength":576,"byteOffset":98316,"target":34962},{"buffer":0,"byteLength":864,"byteOffset":98892,"target":34962},{"buffer":0,"byteLength":864,"byteOffset":99756,"target":34962},{"buffer":0,"byteLength":576,"byteOffset":100620,"target":34962},{"buffer":0,"byteLength":816,"byteOffset":101196,"target":34963},{"buffer":0,"byteLength":192,"byteOffset":102012,"target":34962},{"buffer":0,"byteLength":288,"byteOffset":102204,"target":34962},{"buffer":0,"byteLength":288,"byteOffset":102492,"target":34962},{"buffer":0,"byteLength":192,"byteOffset":102780,"target":34962},{"buffer":0,"byteLength":120,"byteOffset":102972,"target":34963},{"buffer":0,"byteLength":304,"byteOffset":103092,"target":34962},{"buffer":0,"byteLength":456,"byteOffset":103396,"target":34962},{"buffer":0,"byteLength":456,"byteOffset":103852,"target":34962},{"buffer":0,"byteLength":304,"byteOffset":104308,"target":34962},{"buffer":0,"byteLength":288,"byteOffset":104612,"target":34963},{"buffer":0,"byteLength":12,"byteOffset":104900,"target":34963},{"buffer":0,"byteLength":576,"byteOffset":104912,"target":34962},{"buffer":0,"byteLength":576,"byteOffset":105488,"target":34962},{"buffer":0,"byteLength":384,"byteOffset":106064,"target":34962},{"buffer":0,"byteLength":144,"byteOffset":106448,"target":34963},{"buffer":0,"byteLength":48,"byteOffset":106592,"target":34962},{"buffer":0,"byteLength":48,"byteOffset":106640,"target":34962},{"buffer":0,"byteLength":32,"byteOffset":106688,"target":34962},{"buffer":0,"byteLength":576,"byteOffset":106720,"target":34962},{"buffer":0,"byteLength":576,"byteOffset":107296,"target":34962},{"buffer":0,"byteLength":384,"byteOffset":107872,"target":34962},{"buffer":0,"byteLength":48,"byteOffset":108256,"target":34962},{"buffer":0,"byteLength":48,"byteOffset":108304,"target":34962},{"buffer":0,"byteLength":32,"byteOffset":108352,"target":34962},{"buffer":0,"byteLength":1632,"byteOffset":108384,"target":34962},{"buffer":0,"byteLength":1632,"byteOffset":110016,"target":34962},{"buffer":0,"byteLength":1088,"byteOffset":111648,"target":34962},{"buffer":0,"byteLength":516,"byteOffset":112736,"target":34963},{"buffer":0,"byteLength":48,"byteOffset":113252,"target":34962},{"buffer":0,"byteLength":48,"byteOffset":113300,"target":34962},{"buffer":0,"byteLength":32,"byteOffset":113348,"target":34962},{"buffer":0,"byteLength":12,"byteOffset":113380,"target":34963},{"buffer":0,"byteLength":1920,"byteOffset":113392,"target":34962},{"buffer":0,"byteLength":1920,"byteOffset":115312,"target":34962},{"buffer":0,"byteLength":1280,"byteOffset":117232,"target":34962},{"buffer":0,"byteLength":552,"byteOffset":118512,"target":34963},{"buffer":0,"byteLength":120,"byteOffset":119064,"target":34962},{"buffer":0,"byteLength":120,"byteOffset":119184,"target":34962},{"buffer":0,"byteLength":80,"byteOffset":119304,"target":34962},{"buffer":0,"byteLength":48,"byteOffset":119384,"target":34963},{"buffer":0,"byteLength":72,"byteOffset":119432,"target":34962},{"buffer":0,"byteLength":72,"byteOffset":119504,"target":34962},{"buffer":0,"byteLength":48,"byteOffset":119576,"target":34962},{"buffer":0,"byteLength":24,"byteOffset":119624,"target":34963},{"buffer":0,"byteLength":96,"byteOffset":119648,"target":34962},{"buffer":0,"byteLength":96,"byteOffset":119744,"target":34962},{"buffer":0,"byteLength":64,"byteOffset":119840,"target":34962},{"buffer":0,"byteLength":36,"byteOffset":119904,"target":34963},{"buffer":0,"byteLength":3000,"byteOffset":119940,"target":34962},{"buffer":0,"byteLength":3000,"byteOffset":122940,"target":34962},{"buffer":0,"byteLength":2000,"byteOffset":125940,"target":34962},{"buffer":0,"byteLength":1380,"byteOffset":127940,"target":34963},{"buffer":0,"byteLength":1248,"byteOffset":129320,"target":34962},{"buffer":0,"byteLength":1248,"byteOffset":130568,"target":34962},{"buffer":0,"byteLength":832,"byteOffset":131816,"target":34962},{"buffer":0,"byteLength":468,"byteOffset":132648,"target":34963},{"buffer":0,"byteLength":96,"byteOffset":133116,"target":34962},{"buffer":0,"byteLength":96,"byteOffset":133212,"target":34962},{"buffer":0,"byteLength":64,"byteOffset":133308,"target":34962},{"buffer":0,"byteLength":36,"byteOffset":133372,"target":34963},{"buffer":0,"byteLength":948,"byteOffset":133408,"target":34962},{"buffer":0,"byteLength":948,"byteOffset":134356,"target":34962},{"buffer":0,"byteLength":632,"byteOffset":135304,"target":34962},{"buffer":0,"byteLength":624,"byteOffset":135936,"target":34963},{"buffer":0,"byteLength":288,"byteOffset":136560,"target":34962},{"buffer":0,"byteLength":288,"byteOffset":136848,"target":34962},{"buffer":0,"byteLength":192,"byteOffset":137136,"target":34962},{"buffer":0,"byteLength":108,"byteOffset":137328,"target":34963},{"buffer":0,"byteLength":1272,"byteOffset":137436,"target":34962},{"buffer":0,"byteLength":1272,"byteOffset":138708,"target":34962},{"buffer":0,"byteLength":848,"byteOffset":139980,"target":34962},{"buffer":0,"byteLength":672,"byteOffset":140828,"target":34963},{"buffer":0,"byteLength":120,"byteOffset":141500,"target":34962},{"buffer":0,"byteLength":120,"byteOffset":141620,"target":34962},{"buffer":0,"byteLength":80,"byteOffset":141740,"target":34962},{"buffer":0,"byteLength":48,"byteOffset":141820,"target":34963},{"buffer":0,"byteLength":6792,"byteOffset":141868,"target":34962},{"buffer":0,"byteLength":6792,"byteOffset":148660,"target":34962},{"buffer":0,"byteLength":4528,"byteOffset":155452,"target":34962},{"buffer":0,"byteLength":3264,"byteOffset":159980,"target":34963},{"buffer":0,"byteLength":1440,"byteOffset":163244,"target":34962},{"buffer":0,"byteLength":1440,"byteOffset":164684,"target":34962},{"buffer":0,"byteLength":960,"byteOffset":166124,"target":34962},{"buffer":0,"byteLength":720,"byteOffset":167084,"target":34963},{"buffer":0,"byteLength":1560,"byteOffset":167804,"target":34962},{"buffer":0,"byteLength":1560,"byteOffset":169364,"target":34962},{"buffer":0,"byteLength":1040,"byteOffset":170924,"target":34962},{"buffer":0,"byteLength":540,"byteOffset":171964,"target":34963},{"buffer":0,"byteLength":384,"byteOffset":172504,"target":34962},{"buffer":0,"byteLength":384,"byteOffset":172888,"target":34962},{"buffer":0,"byteLength":256,"byteOffset":173272,"target":34962},{"buffer":0,"byteLength":144,"byteOffset":173528,"target":34963},{"buffer":0,"byteLength":96,"byteOffset":173672,"target":34962},{"buffer":0,"byteLength":96,"byteOffset":173768,"target":34962},{"buffer":0,"byteLength":64,"byteOffset":173864,"target":34962},{"buffer":0,"byteLength":19944,"byteOffset":173928,"target":34962},{"buffer":0,"byteLength":19944,"byteOffset":193872,"target":34962},{"buffer":0,"byteLength":13296,"byteOffset":213816,"target":34962},{"buffer":0,"byteLength":7260,"byteOffset":227112,"target":34963},{"buffer":0,"byteLength":240,"byteOffset":234372,"target":34962},{"buffer":0,"byteLength":240,"byteOffset":234612,"target":34962},{"buffer":0,"byteLength":160,"byteOffset":234852,"target":34962},{"buffer":0,"byteLength":180,"byteOffset":235012,"target":34963}],"buffers":[{"uri":"south-center.bin","byteLength":235192}]}