{"asset":{"version":"2.0","generator":"Jarvis Cartoon City sectorizer v1"},"extensionsUsed":["KHR_materials_specular","KHR_materials_ior","KHR_materials_emissive_strength"],"scenes":[{"name":"Cartoon City Free — south-central-center","nodes":[0,5,11,16,21,22,23,24,25,26,27,28,29,30,31,32,33,34,35,36,37,38,39]}],"scene":0,"nodes":[{"mesh":9,"name":"Car_06.001","translation":[5.8597412109375,-0.09999997168779373,-2.720987319946289],"children":[1,2,3,4]},{"mesh":5,"name":"Car_06_Wheel_Front_Left.001","translation":[0.845947265625,0.40000006556510925,1.100595474243164]},{"mesh":6,"name":"Car_06_Wheel_Front_Right.001","translation":[-0.845703125,0.40000006556510925,1.100595474243164]},{"mesh":7,"name":"Car_06_Wheel_Rear_Left.001","translation":[0.845947265625,0.40000006556510925,-1.1005916595458984]},{"mesh":8,"name":"Car_06_Wheel_Rear_Right.001","translation":[-0.845703125,0.40000006556510925,-1.1005916595458984]},{"mesh":15,"name":"Car_13.001","translation":[5.86711311340332,-0.09999997168779373,-19.12510108947754],"children":[6,7,8,9,10]},{"mesh":10,"name":"Car_13_Spoiler.001","translation":[-0.0000476837158203125,0,0]},{"mesh":11,"name":"Car_13_Wheel_Front_Left.001","translation":[0.8457775115966797,0.40000006556510925,1.223947525024414]},{"mesh":12,"name":"Car_13_Wheel_Front_Right.001","translation":[-0.8458728790283203,0.40000006556510925,1.223947525024414]},{"mesh":13,"name":"Car_13_Wheel_Rear_Left.001","translation":[0.8457775115966797,0.40000006556510925,-1.2239513397216797]},{"mesh":14,"name":"Car_13_Wheel_Rear_Right.001","translation":[-0.8458728790283203,0.40000006556510925,-1.2239513397216797]},{"mesh":4,"name":"Van.003","rotation":[0,1,0,7.549790126404332e-8],"translation":[12.234015464782715,-0.09999964386224747,-32.461219787597656],"children":[12,13,14,15]},{"mesh":0,"name":"Van_Wheel_Front_Left.003","translation":[0.9228585958480835,0.39999985694885254,1.40146803855896]},{"mesh":1,"name":"Van_Wheel_Front_Right.003","translation":[-0.9228445291519165,0.39999985694885254,1.4014683961868286]},{"mesh":2,"name":"Van_Wheel_Rear_Left.003","translation":[0.9228581786155701,0.39999985694885254,-1.4014723300933838]},{"mesh":3,"name":"Van_Wheel_Rear_Right.003","translation":[-0.9228449463844299,0.39999985694885254,-1.4014719724655151]},{"mesh":20,"name":"Car_16.001","translation":[2.7779700756073,0,-12.678821563720703],"children":[17,18,19,20]},{"mesh":16,"name":"Car_16_Wheel_Front_Left.001","translation":[0.8458092212677002,0.40000006556510925,1.2239494323730469]},{"mesh":17,"name":"Car_16_Wheel_Front_Right.001","translation":[-0.8458411693572998,0.40000006556510925,1.2239494323730469]},{"mesh":18,"name":"Car_16_Wheel_Rear_Left.001","translation":[0.8458092212677002,0.40000006556510925,-1.2239494323730469]},{"mesh":19,"name":"Car_16_Wheel_Rear_Right.001","translation":[-0.8458411693572998,0.40000006556510925,-1.2239494323730469]},{"mesh":21,"name":"road_001.283","rotation":[0,1,0,7.549790126404332e-8],"translation":[7.5,0,-7.5]},{"mesh":21,"name":"road_001.284","rotation":[0,1,0,7.549790126404332e-8],"translation":[7.5,0,-22.5]},{"mesh":21,"name":"road_001.285","rotation":[0,1,0,7.549790126404332e-8],"translation":[7.5,0,-37.5]},{"mesh":22,"name":"Set_B_Tiles_04.029","rotation":[0,1,0,1.6292068494294654e-7],"translation":[-7.5,0,-37.5]},{"mesh":23,"name":"Set_B_Tiles_06.004","translation":[-7.5,0,-7.5]},{"mesh":23,"name":"Set_B_Tiles_06.007","rotation":[0,0.7071066498756409,0,0.70710688829422],"translation":[-7.5,0,-22.5]},{"mesh":24,"name":"Spotlight_01.095","rotation":[0,-0.7071055769920349,0,0.7071080803871155],"translation":[14.39666748046875,0,-4.24346923828125]},{"mesh":24,"name":"Spotlight_01.098","rotation":[0,0.7071077823638916,0,0.7071058750152588],"translation":[0.54754638671875,0,-31.58306884765625]},{"mesh":25,"name":"Fountain_03.003","translation":[-12.56341552734375,0,-15.27447509765625]},{"mesh":26,"name":"Bush_10.198","rotation":[0,-0.7071058750152588,0,0.7071077823638916],"translation":[15.88397216796875,0,-23.612564086914062]},{"mesh":26,"name":"Bush_10.199","rotation":[0,-0.7071058750152588,0,0.7071077823638916],"translation":[15.884033203125,0,-32.11338806152344]},{"mesh":26,"name":"Bush_10.200","rotation":[0,-0.7071058750152588,0,0.7071077823638916],"translation":[15.884002685546875,0,-27.901412963867188]},{"mesh":26,"name":"Bush_10.201","rotation":[0,-0.7071058750152588,0,0.7071077823638916],"translation":[15.88397216796875,0,-8.871551513671875]},{"mesh":26,"name":"Bush_10.202","rotation":[0,-0.7071058750152588,0,0.7071077823638916],"translation":[15.884033203125,0,-17.37237548828125]},{"mesh":26,"name":"Bush_10.203","rotation":[0,-0.7071058750152588,0,0.7071077823638916],"translation":[15.884002685546875,0,-13.160400390625]},{"mesh":26,"name":"Bush_10.205","rotation":[0,-0.7071058750152588,0,0.7071077823638916],"translation":[15.884033203125,0,-2.6313629150390625]},{"mesh":27,"name":"Bush_06.031","rotation":[0,0.7071066498756409,0,0.70710688829422],"translation":[-0.925201416015625,0.000003814697265625,-30.289596557617188]},{"mesh":27,"name":"Bush_06.032","rotation":[0,0.7071066498756409,0,0.70710688829422],"translation":[-0.925201416015625,0.000003814697265625,-33.16575622558594]},{"mesh":28,"name":"Bush_07.026","translation":[-0.8388671875,0,-0.1903839111328125]}],"meshes":[{"name":"Mesh.139","primitives":[{"attributes":{"COLOR_0":0,"POSITION":1,"NORMAL":2,"TEXCOORD_0":3},"indices":4,"material":0},{"attributes":{"COLOR_0":5,"POSITION":6,"NORMAL":7,"TEXCOORD_0":8},"indices":9,"material":1}]},{"name":"Mesh.138","primitives":[{"attributes":{"COLOR_0":10,"POSITION":11,"NORMAL":12,"TEXCOORD_0":13},"indices":4,"material":0},{"attributes":{"COLOR_0":14,"POSITION":15,"NORMAL":16,"TEXCOORD_0":17},"indices":9,"material":1}]},{"name":"Mesh.141","primitives":[{"attributes":{"COLOR_0":18,"POSITION":19,"NORMAL":20,"TEXCOORD_0":21},"indices":4,"material":0},{"attributes":{"COLOR_0":22,"POSITION":23,"NORMAL":24,"TEXCOORD_0":25},"indices":9,"material":1}]},{"name":"Mesh.140","primitives":[{"attributes":{"COLOR_0":26,"POSITION":27,"NORMAL":28,"TEXCOORD_0":29},"indices":4,"material":0},{"attributes":{"COLOR_0":30,"POSITION":31,"NORMAL":32,"TEXCOORD_0":33},"indices":9,"material":1}]},{"name":"Mesh.142","primitives":[{"attributes":{"COLOR_0":34,"POSITION":35,"NORMAL":36,"TEXCOORD_0":37},"indices":38,"material":0},{"attributes":{"COLOR_0":39,"POSITION":40,"NORMAL":41,"TEXCOORD_0":42},"indices":43,"material":1},{"attributes":{"COLOR_0":44,"POSITION":45,"NORMAL":46,"TEXCOORD_0":47},"indices":48,"material":2},{"attributes":{"COLOR_0":49,"POSITION":50,"NORMAL":51,"TEXCOORD_0":52},"indices":53,"material":3},{"attributes":{"COLOR_0":54,"POSITION":55,"NORMAL":56,"TEXCOORD_0":57},"indices":58,"material":4}]},{"name":"Mesh.097","primitives":[{"attributes":{"COLOR_0":59,"POSITION":60,"NORMAL":61,"TEXCOORD_0":62},"indices":63,"material":0}]},{"name":"Mesh.094","primitives":[{"attributes":{"COLOR_0":64,"POSITION":65,"NORMAL":66,"TEXCOORD_0":67},"indices":68,"material":0}]},{"name":"Mesh.096","primitives":[{"attributes":{"COLOR_0":69,"POSITION":70,"NORMAL":71,"TEXCOORD_0":72},"indices":63,"material":0}]},{"name":"Mesh.095","primitives":[{"attributes":{"COLOR_0":73,"POSITION":74,"NORMAL":75,"TEXCOORD_0":76},"indices":68,"material":0}]},{"name":"Cube.266","primitives":[{"attributes":{"COLOR_0":77,"POSITION":78,"NORMAL":79,"TEXCOORD_0":80},"indices":81,"material":0},{"attributes":{"COLOR_0":82,"POSITION":83,"NORMAL":84,"TEXCOORD_0":85},"indices":86,"material":5},{"attributes":{"COLOR_0":87,"POSITION":88,"NORMAL":89,"TEXCOORD_0":90},"indices":91,"material":2},{"attributes":{"COLOR_0":92,"POSITION":93,"NORMAL":94,"TEXCOORD_0":95},"indices":96,"material":6},{"attributes":{"COLOR_0":97,"POSITION":98,"NORMAL":99,"TEXCOORD_0":100},"indices":101,"material":3},{"attributes":{"COLOR_0":102,"POSITION":103,"NORMAL":104,"TEXCOORD_0":105},"indices":106,"material":4}]},{"name":"Cube.237","primitives":[{"attributes":{"COLOR_0":107,"POSITION":108,"NORMAL":109,"TEXCOORD_0":110},"indices":111,"material":0}]},{"name":"Mesh.150","primitives":[{"attributes":{"COLOR_0":112,"POSITION":113,"NORMAL":114,"TEXCOORD_0":115},"indices":116,"material":0},{"attributes":{"COLOR_0":117,"POSITION":118,"NORMAL":119,"TEXCOORD_0":120},"indices":121,"material":1}]},{"name":"Mesh.062","primitives":[{"attributes":{"COLOR_0":122,"POSITION":123,"NORMAL":124,"TEXCOORD_0":125},"indices":126,"material":0},{"attributes":{"COLOR_0":127,"POSITION":128,"NORMAL":129,"TEXCOORD_0":130},"indices":121,"material":1}]},{"name":"Mesh.151","primitives":[{"attributes":{"COLOR_0":131,"POSITION":132,"NORMAL":133,"TEXCOORD_0":134},"indices":116,"material":0},{"attributes":{"COLOR_0":135,"POSITION":136,"NORMAL":137,"TEXCOORD_0":138},"indices":121,"material":1}]},{"name":"Mesh.152","primitives":[{"attributes":{"COLOR_0":139,"POSITION":140,"NORMAL":141,"TEXCOORD_0":142},"indices":126,"material":0},{"attributes":{"COLOR_0":143,"POSITION":144,"NORMAL":145,"TEXCOORD_0":146},"indices":121,"material":1}]},{"name":"Cube.215","primitives":[{"attributes":{"COLOR_0":147,"POSITION":148,"NORMAL":149,"TEXCOORD_0":150},"indices":151,"material":0},{"attributes":{"COLOR_0":152,"POSITION":153,"NORMAL":154,"TEXCOORD_0":155},"indices":156,"material":5},{"attributes":{"COLOR_0":157,"POSITION":158,"NORMAL":159,"TEXCOORD_0":160},"indices":161,"material":2},{"attributes":{"COLOR_0":162,"POSITION":163,"NORMAL":164,"TEXCOORD_0":165},"indices":166,"material":6},{"attributes":{"COLOR_0":167,"POSITION":168,"NORMAL":169,"TEXCOORD_0":170},"indices":171,"material":3},{"attributes":{"COLOR_0":172,"POSITION":173,"NORMAL":174,"TEXCOORD_0":175},"indices":176,"material":4}]},{"name":"Mesh.136","primitives":[{"attributes":{"COLOR_0":177,"POSITION":178,"NORMAL":179,"TEXCOORD_0":180},"indices":116,"material":0},{"attributes":{"COLOR_0":181,"POSITION":182,"NORMAL":183,"TEXCOORD_0":184},"indices":185,"material":1}]},{"name":"Mesh.133","primitives":[{"attributes":{"COLOR_0":186,"POSITION":187,"NORMAL":188,"TEXCOORD_0":189},"indices":126,"material":0},{"attributes":{"COLOR_0":190,"POSITION":191,"NORMAL":192,"TEXCOORD_0":193},"indices":185,"material":1}]},{"name":"Mesh.135","primitives":[{"attributes":{"COLOR_0":194,"POSITION":195,"NORMAL":196,"TEXCOORD_0":197},"indices":116,"material":0},{"attributes":{"COLOR_0":198,"POSITION":199,"NORMAL":200,"TEXCOORD_0":201},"indices":185,"material":1}]},{"name":"Mesh.134","primitives":[{"attributes":{"COLOR_0":202,"POSITION":203,"NORMAL":204,"TEXCOORD_0":205},"indices":126,"material":0},{"attributes":{"COLOR_0":206,"POSITION":207,"NORMAL":208,"TEXCOORD_0":209},"indices":185,"material":1}]},{"name":"Plane.019","primitives":[{"attributes":{"COLOR_0":210,"POSITION":211,"NORMAL":212,"TEXCOORD_0":213},"indices":214,"material":0},{"attributes":{"COLOR_0":215,"POSITION":216,"NORMAL":217,"TEXCOORD_0":218},"indices":219,"material":5},{"attributes":{"COLOR_0":220,"POSITION":221,"NORMAL":222,"TEXCOORD_0":223},"indices":224,"material":2},{"attributes":{"COLOR_0":225,"POSITION":226,"NORMAL":227,"TEXCOORD_0":228},"indices":229,"material":6},{"attributes":{"COLOR_0":230,"POSITION":231,"NORMAL":232,"TEXCOORD_0":233},"indices":234,"material":3},{"attributes":{"COLOR_0":235,"POSITION":236,"NORMAL":237,"TEXCOORD_0":238},"indices":239,"material":4}]},{"name":"Cube.223","primitives":[{"attributes":{"POSITION":240,"NORMAL":241,"TEXCOORD_0":242},"indices":243,"material":0},{"attributes":{"POSITION":244,"NORMAL":245,"TEXCOORD_0":246},"indices":247,"material":8}]},{"name":"Plane.268","primitives":[{"attributes":{"POSITION":249,"NORMAL":250,"TEXCOORD_0":251},"indices":252,"material":0},{"attributes":{"POSITION":253,"NORMAL":254,"TEXCOORD_0":255},"indices":256,"material":9},{"attributes":{"POSITION":257,"NORMAL":258,"TEXCOORD_0":259},"indices":248,"material":10},{"attributes":{"POSITION":260,"NORMAL":261,"TEXCOORD_0":262},"indices":263,"material":11}]},{"name":"Plane.274","primitives":[{"attributes":{"POSITION":264,"NORMAL":265,"TEXCOORD_0":266},"indices":267,"material":0},{"attributes":{"POSITION":268,"NORMAL":269,"TEXCOORD_0":270},"indices":271,"material":9},{"attributes":{"POSITION":272,"NORMAL":273,"TEXCOORD_0":274},"indices":275,"material":10},{"attributes":{"POSITION":276,"NORMAL":277,"TEXCOORD_0":278},"indices":279,"material":11}]},{"name":"Cube.184","primitives":[{"attributes":{"POSITION":280,"NORMAL":281,"TEXCOORD_0":282},"indices":283,"material":0},{"attributes":{"POSITION":284,"NORMAL":285,"TEXCOORD_0":286},"indices":287,"material":7}]},{"name":"Cylinder.013","primitives":[{"attributes":{"POSITION":288,"NORMAL":289,"TEXCOORD_0":290},"indices":291,"material":0},{"attributes":{"POSITION":292,"NORMAL":293,"TEXCOORD_0":294},"indices":295,"material":2}]},{"name":"Cube.083","primitives":[{"attributes":{"POSITION":296,"NORMAL":297,"TEXCOORD_0":298},"indices":299,"material":0}]},{"name":"Cube.022","primitives":[{"attributes":{"POSITION":300,"NORMAL":301,"TEXCOORD_0":302},"indices":303,"material":0}]},{"name":"Cube.041","primitives":[{"attributes":{"POSITION":304,"NORMAL":305,"TEXCOORD_0":306},"indices":303,"material":0}]}],"materials":[{"doubleSided":true,"name":"Color","pbrMetallicRoughness":{"baseColorTexture":{"index":0},"metallicFactor":0,"roughnessFactor":0.699999988079071}},{"doubleSided":true,"name":"Metal","pbrMetallicRoughness":{"baseColorTexture":{"index":1},"roughnessFactor":0.3316831588745117}},{"doubleSided":true,"name":"Color_Glossy","pbrMetallicRoughness":{"baseColorTexture":{"index":2},"metallicFactor":0,"roughnessFactor":0.20000000298023224}},{"doubleSided":true,"emissiveFactor":[1,1,1],"emissiveTexture":{"index":3},"name":"Car_Taillights","pbrMetallicRoughness":{"baseColorTexture":{"index":4},"metallicFactor":0,"roughnessFactor":0.5}},{"alphaMode":"BLEND","doubleSided":true,"extensions":{"KHR_materials_specular":{"specularColorFactor":[2.371357614441398,2.371357614441398,2.371357614441398]},"KHR_materials_ior":{"ior":1.4500000476837158}},"name":"Glass","pbrMetallicRoughness":{"baseColorFactor":[1,1,1,0.5],"baseColorTexture":{"index":5},"metallicFactor":0.20000000298023224,"roughnessFactor":0.05000000074505806}},{"doubleSided":true,"emissiveFactor":[0.10000000149011612,0.10000000149011612,0.10000000149011612],"emissiveTexture":{"index":6},"name":"Car_Color","pbrMetallicRoughness":{"baseColorTexture":{"index":7},"metallicFactor":0.20000000298023224,"roughnessFactor":0.10000000149011612}},{"doubleSided":true,"emissiveFactor":[1,1,1],"emissiveTexture":{"index":8},"name":"Car_Headlights","pbrMetallicRoughness":{"baseColorTexture":{"index":9},"metallicFactor":0,"roughnessFactor":0.5}},{"doubleSided":true,"emissiveFactor":[1,1,1],"emissiveTexture":{"index":10},"extensions":{"KHR_materials_emissive_strength":{"emissiveStrength":3}},"name":"Emissive","pbrMetallicRoughness":{"baseColorTexture":{"index":11},"metallicFactor":0,"roughnessFactor":0.5}},{"doubleSided":true,"emissiveFactor":[0.10000000149011612,0.10000000149011612,0.10000000149011612],"emissiveTexture":{"index":12},"extensions":{"KHR_materials_specular":{"specularColorFactor":[0.711407312601205,0.711407312601205,0.711407312601205]},"KHR_materials_ior":{"ior":1.4500000476837158}},"name":"Roads","pbrMetallicRoughness":{"baseColorTexture":{"index":13},"metallicFactor":0,"roughnessFactor":0.75}},{"doubleSided":true,"name":"Asphalt_Dark_Gray","pbrMetallicRoughness":{"baseColorFactor":[0.13853572309017181,0.13853572309017181,0.13853572309017181,1],"metallicFactor":0,"roughnessFactor":0.5}},{"doubleSided":true,"name":"Tile_1","normalTexture":{"index":14,"scale":5},"pbrMetallicRoughness":{"baseColorTexture":{"index":15},"metallicFactor":0,"metallicRoughnessTexture":{"index":16}}},{"doubleSided":true,"name":"Grass","pbrMetallicRoughness":{"baseColorFactor":[0.25015830993652344,0.44520121812820435,0.13013650476932526,1],"metallicFactor":0,"roughnessFactor":0.7598187327384949}}],"textures":[{"sampler":0,"source":0},{"sampler":0,"source":1},{"sampler":0,"source":0},{"sampler":0,"source":1},{"sampler":0,"source":1},{"sampler":0,"source":0},{"sampler":0,"source":0},{"sampler":0,"source":0},{"sampler":0,"source":1},{"sampler":0,"source":1},{"sampler":0,"source":1},{"sampler":0,"source":1},{"sampler":0,"source":2},{"sampler":0,"source":2},{"sampler":0,"source":3},{"sampler":0,"source":4},{"sampler":0,"source":5}],"images":[{"uri":"shared/486c6d61063241d5.webp","mimeType":"image/webp"},{"uri":"shared/486c6d61063241d5.webp","mimeType":"image/webp"},{"uri":"shared/cd11a20db95ff60c.webp","mimeType":"image/webp"},{"uri":"shared/28470d0f5c64a9e9.png","mimeType":"image/png"},{"uri":"shared/d686ec6d73243cad.webp","mimeType":"image/webp"},{"uri":"shared/0dd4c9f67e03b0dc.png","mimeType":"image/png"}],"samplers":[{"magFilter":9729,"minFilter":9987}],"accessors":[{"bufferView":0,"componentType":5123,"count":120,"normalized":true,"type":"VEC4"},{"bufferView":1,"componentType":5126,"count":120,"max":[0.1618468463420868,0.3999999165534973,0.3999944031238556],"min":[-0.1623368263244629,-0.4000000059604645,-0.40000560879707336],"type":"VEC3"},{"bufferView":2,"componentType":5126,"count":120,"type":"VEC3"},{"bufferView":3,"componentType":5126,"count":120,"type":"VEC2"},{"bufferView":4,"componentType":5123,"count":594,"type":"SCALAR"},{"bufferView":5,"componentType":5123,"count":34,"normalized":true,"type":"VEC4"},{"bufferView":6,"componentType":5126,"count":34,"max":[0.16150975227355957,0.25954538583755493,0.2595387101173401],"min":[0.03218558430671692,-0.2595454156398773,-0.2595521807670593],"type":"VEC3"},{"bufferView":7,"componentType":5126,"count":34,"type":"VEC3"},{"bufferView":8,"componentType":5126,"count":34,"type":"VEC2"},{"bufferView":9,"componentType":5123,"count":96,"type":"SCALAR"},{"bufferView":10,"componentType":5123,"count":120,"normalized":true,"type":"VEC4"},{"bufferView":11,"componentType":5126,"count":120,"max":[0.16233696043491364,0.3999999165534973,0.40000560879707336],"min":[-0.16184698045253754,-0.4000000059604645,-0.3999944031238556],"type":"VEC3"},{"bufferView":12,"componentType":5126,"count":120,"type":"VEC3"},{"bufferView":13,"componentType":5126,"count":120,"type":"VEC2"},{"bufferView":14,"componentType":5123,"count":34,"normalized":true,"type":"VEC4"},{"bufferView":15,"componentType":5126,"count":34,"max":[-0.03218558430671692,0.25954538583755493,0.2595522999763489],"min":[-0.16150975227355957,-0.2595454156398773,-0.25953859090805054],"type":"VEC3"},{"bufferView":16,"componentType":5126,"count":34,"type":"VEC3"},{"bufferView":17,"componentType":5126,"count":34,"type":"VEC2"},{"bufferView":18,"componentType":5123,"count":120,"normalized":true,"type":"VEC4"},{"bufferView":19,"componentType":5126,"count":120,"max":[0.1618468463420868,0.3999999165534973,0.3999944031238556],"min":[-0.1623368263244629,-0.4000000059604645,-0.40000560879707336],"type":"VEC3"},{"bufferView":20,"componentType":5126,"count":120,"type":"VEC3"},{"bufferView":21,"componentType":5126,"count":120,"type":"VEC2"},{"bufferView":22,"componentType":5123,"count":34,"normalized":true,"type":"VEC4"},{"bufferView":23,"componentType":5126,"count":34,"max":[0.16150975227355957,0.25954538583755493,0.2595387101173401],"min":[0.03218558430671692,-0.2595454156398773,-0.2595521807670593],"type":"VEC3"},{"bufferView":24,"componentType":5126,"count":34,"type":"VEC3"},{"bufferView":25,"componentType":5126,"count":34,"type":"VEC2"},{"bufferView":26,"componentType":5123,"count":120,"normalized":true,"type":"VEC4"},{"bufferView":27,"componentType":5126,"count":120,"max":[0.16233696043491364,0.3999999165534973,0.40000560879707336],"min":[-0.16184698045253754,-0.4000000059604645,-0.3999944031238556],"type":"VEC3"},{"bufferView":28,"componentType":5126,"count":120,"type":"VEC3"},{"bufferView":29,"componentType":5126,"count":120,"type":"VEC2"},{"bufferView":30,"componentType":5123,"count":34,"normalized":true,"type":"VEC4"},{"bufferView":31,"componentType":5126,"count":34,"max":[-0.03218558430671692,0.25954538583755493,0.2595522999763489],"min":[-0.16150975227355957,-0.2595454156398773,-0.25953859090805054],"type":"VEC3"},{"bufferView":32,"componentType":5126,"count":34,"type":"VEC3"},{"bufferView":33,"componentType":5126,"count":34,"type":"VEC2"},{"bufferView":34,"componentType":5123,"count":1524,"normalized":true,"type":"VEC4"},{"bufferView":35,"componentType":5126,"count":1524,"max":[1.1476143598556519,2.9508824348449707,2.242865562438965],"min":[-1.1473641395568848,0.2360285520553589,-2.785670757293701],"type":"VEC3"},{"bufferView":36,"componentType":5126,"count":1524,"type":"VEC3"},{"bufferView":37,"componentType":5126,"count":1524,"type":"VEC2"},{"bufferView":38,"componentType":5123,"count":5235,"type":"SCALAR"},{"bufferView":39,"componentType":5123,"count":132,"normalized":true,"type":"VEC4"},{"bufferView":40,"componentType":5126,"count":132,"max":[0.9670319557189941,1.0786514282226562,2.2174072265625],"min":[-0.9667816758155823,0.5249274373054504,-2.762026309967041],"type":"VEC3"},{"bufferView":41,"componentType":5126,"count":132,"type":"VEC3"},{"bufferView":42,"componentType":5126,"count":132,"type":"VEC2"},{"bufferView":43,"componentType":5123,"count":372,"type":"SCALAR"},{"bufferView":44,"componentType":5123,"count":105,"normalized":true,"type":"VEC4"},{"bufferView":45,"componentType":5126,"count":105,"max":[1.0450634956359863,2.4341421127319336,1.4451169967651367],"min":[-1.0448132753372192,1.2491238117218018,-2.6542718410491943],"type":"VEC3"},{"bufferView":46,"componentType":5126,"count":105,"type":"VEC3"},{"bufferView":47,"componentType":5126,"count":105,"type":"VEC2"},{"bufferView":48,"componentType":5123,"count":261,"type":"SCALAR"},{"bufferView":49,"componentType":5123,"count":60,"normalized":true,"type":"VEC4"},{"bufferView":50,"componentType":5126,"count":60,"max":[0.9583225250244141,1.0662018060684204,-2.7283101081848145],"min":[-0.9580722451210022,0.7614828944206238,-2.8064112663269043],"type":"VEC3"},{"bufferView":51,"componentType":5126,"count":60,"type":"VEC3"},{"bufferView":52,"componentType":5126,"count":60,"type":"VEC2"},{"bufferView":53,"componentType":5123,"count":288,"type":"SCALAR"},{"bufferView":54,"componentType":5123,"count":96,"normalized":true,"type":"VEC4"},{"bufferView":55,"componentType":5126,"count":96,"max":[0.8955180644989014,0.9167686104774475,2.2615208625793457],"min":[-0.8896902799606323,0.5387100577354431,2.194962978363037],"type":"VEC3"},{"bufferView":56,"componentType":5126,"count":96,"type":"VEC3"},{"bufferView":57,"componentType":5126,"count":96,"type":"VEC2"},{"bufferView":58,"componentType":5123,"count":408,"type":"SCALAR"},{"bufferView":59,"componentType":5123,"count":273,"normalized":true,"type":"VEC4"},{"bufferView":60,"componentType":5126,"count":273,"max":[0.16213111579418182,0.3999999165534973,0.3998884856700897],"min":[-0.1620960682630539,-0.40000006556510925,-0.4001115560531616],"type":"VEC3"},{"bufferView":61,"componentType":5126,"count":273,"type":"VEC3"},{"bufferView":62,"componentType":5126,"count":273,"type":"VEC2"},{"bufferView":63,"componentType":5123,"count":900,"type":"SCALAR"},{"bufferView":64,"componentType":5123,"count":273,"normalized":true,"type":"VEC4"},{"bufferView":65,"componentType":5126,"count":273,"max":[0.16209618747234344,0.3999999165534973,0.4001115560531616],"min":[-0.16213122010231018,-0.40000006556510925,-0.3998884856700897],"type":"VEC3"},{"bufferView":66,"componentType":5126,"count":273,"type":"VEC3"},{"bufferView":67,"componentType":5126,"count":273,"type":"VEC2"},{"bufferView":68,"componentType":5123,"count":900,"type":"SCALAR"},{"bufferView":69,"componentType":5123,"count":273,"normalized":true,"type":"VEC4"},{"bufferView":70,"componentType":5126,"count":273,"max":[0.16213111579418182,0.3999999165534973,0.3998884856700897],"min":[-0.1620960682630539,-0.40000006556510925,-0.4001115560531616],"type":"VEC3"},{"bufferView":71,"componentType":5126,"count":273,"type":"VEC3"},{"bufferView":72,"componentType":5126,"count":273,"type":"VEC2"},{"bufferView":73,"componentType":5123,"count":273,"normalized":true,"type":"VEC4"},{"bufferView":74,"componentType":5126,"count":273,"max":[0.16209618747234344,0.3999999165534973,0.4001115560531616],"min":[-0.16213122010231018,-0.40000006556510925,-0.3998884856700897],"type":"VEC3"},{"bufferView":75,"componentType":5126,"count":273,"type":"VEC3"},{"bufferView":76,"componentType":5126,"count":273,"type":"VEC2"},{"bufferView":77,"componentType":5123,"count":562,"normalized":true,"type":"VEC4"},{"bufferView":78,"componentType":5126,"count":562,"max":[0.9821081161499023,1.671571135520935,1.8693079948425293],"min":[-0.9818639755249023,0.23435990512371063,-1.7959847450256348],"type":"VEC3"},{"bufferView":79,"componentType":5126,"count":562,"type":"VEC3"},{"bufferView":80,"componentType":5126,"count":562,"type":"VEC2"},{"bufferView":81,"componentType":5123,"count":1470,"type":"SCALAR"},{"bufferView":82,"componentType":5123,"count":561,"normalized":true,"type":"VEC4"},{"bufferView":83,"componentType":5126,"count":561,"max":[1.2657324075698853,1.731117844581604,1.8522025346755981],"min":[-1.2654882669448853,0.39693567156791687,-1.8221327066421509],"type":"VEC3"},{"bufferView":84,"componentType":5126,"count":561,"type":"VEC3"},{"bufferView":85,"componentType":5126,"count":561,"type":"VEC2"},{"bufferView":86,"componentType":5123,"count":1950,"type":"SCALAR"},{"bufferView":87,"componentType":5123,"count":97,"normalized":true,"type":"VEC4"},{"bufferView":88,"componentType":5126,"count":97,"max":[1.233822226524353,1.6194183826446533,0.819335401058197],"min":[-1.233578085899353,1.026626706123352,-1.6400434970855713],"type":"VEC3"},{"bufferView":89,"componentType":5126,"count":97,"type":"VEC3"},{"bufferView":90,"componentType":5126,"count":97,"type":"VEC2"},{"bufferView":91,"componentType":5123,"count":270,"type":"SCALAR"},{"bufferView":92,"componentType":5123,"count":24,"normalized":true,"type":"VEC4"},{"bufferView":93,"componentType":5126,"count":24,"max":[0.8786246180534363,0.8859658241271973,1.682948112487793],"min":[-0.8783804774284363,0.6795313358306885,1.5460014343261719],"type":"VEC3"},{"bufferView":94,"componentType":5126,"count":24,"type":"VEC3"},{"bufferView":95,"componentType":5126,"count":24,"type":"VEC2"},{"bufferView":96,"componentType":5123,"count":60,"type":"SCALAR"},{"bufferView":97,"componentType":5123,"count":26,"normalized":true,"type":"VEC4"},{"bufferView":98,"componentType":5126,"count":26,"max":[0.8376821279525757,0.8246886730194092,-1.690671443939209],"min":[-0.8374379873275757,0.6238102912902832,-1.7328327894210815],"type":"VEC3"},{"bufferView":99,"componentType":5126,"count":26,"type":"VEC3"},{"bufferView":100,"componentType":5126,"count":26,"type":"VEC2"},{"bufferView":101,"componentType":5123,"count":72,"type":"SCALAR"},{"bufferView":102,"componentType":5123,"count":72,"normalized":true,"type":"VEC4"},{"bufferView":103,"componentType":5126,"count":72,"max":[0.901957094669342,0.9081380367279053,1.7461631298065186],"min":[-0.901712954044342,0.6566294431686401,1.5785361528396606],"type":"VEC3"},{"bufferView":104,"componentType":5126,"count":72,"type":"VEC3"},{"bufferView":105,"componentType":5126,"count":72,"type":"VEC2"},{"bufferView":106,"componentType":5123,"count":204,"type":"SCALAR"},{"bufferView":107,"componentType":5123,"count":124,"normalized":true,"type":"VEC4"},{"bufferView":108,"componentType":5126,"count":124,"max":[0.7666240930557251,1.171190619468689,-1.7706983089447021],"min":[-0.7670250535011292,0.7459808588027954,-2.233873128890991],"type":"VEC3"},{"bufferView":109,"componentType":5126,"count":124,"type":"VEC3"},{"bufferView":110,"componentType":5126,"count":124,"type":"VEC2"},{"bufferView":111,"componentType":5123,"count":270,"type":"SCALAR"},{"bufferView":112,"componentType":5123,"count":285,"normalized":true,"type":"VEC4"},{"bufferView":113,"componentType":5126,"count":285,"max":[0.16213113069534302,0.3999999165534973,0.3998884856700897],"min":[-0.1620960682630539,-0.40000006556510925,-0.4001115560531616],"type":"VEC3"},{"bufferView":114,"componentType":5126,"count":285,"type":"VEC3"},{"bufferView":115,"componentType":5126,"count":285,"type":"VEC2"},{"bufferView":116,"componentType":5123,"count":1014,"type":"SCALAR"},{"bufferView":117,"componentType":5123,"count":50,"normalized":true,"type":"VEC4"},{"bufferView":118,"componentType":5126,"count":50,"max":[0.1361139863729477,0.2748536467552185,0.29106059670448303],"min":[0.04467451199889183,-0.27894407510757446,-0.29114869236946106],"type":"VEC3"},{"bufferView":119,"componentType":5126,"count":50,"type":"VEC3"},{"bufferView":120,"componentType":5126,"count":50,"type":"VEC2"},{"bufferView":121,"componentType":5123,"count":120,"type":"SCALAR"},{"bufferView":122,"componentType":5123,"count":285,"normalized":true,"type":"VEC4"},{"bufferView":123,"componentType":5126,"count":285,"max":[0.16209638118743896,0.3999999165534973,0.4001116454601288],"min":[-0.16213145852088928,-0.40000006556510925,-0.3998885750770569],"type":"VEC3"},{"bufferView":124,"componentType":5126,"count":285,"type":"VEC3"},{"bufferView":125,"componentType":5126,"count":285,"type":"VEC2"},{"bufferView":126,"componentType":5123,"count":1014,"type":"SCALAR"},{"bufferView":127,"componentType":5123,"count":50,"normalized":true,"type":"VEC4"},{"bufferView":128,"componentType":5126,"count":50,"max":[-0.04467449337244034,0.2748536467552185,0.2911488711833954],"min":[-0.13611432909965515,-0.27894407510757446,-0.2910604178905487],"type":"VEC3"},{"bufferView":129,"componentType":5126,"count":50,"type":"VEC3"},{"bufferView":130,"componentType":5126,"count":50,"type":"VEC2"},{"bufferView":131,"componentType":5123,"count":285,"normalized":true,"type":"VEC4"},{"bufferView":132,"componentType":5126,"count":285,"max":[0.16213113069534302,0.3999999165534973,0.3998884856700897],"min":[-0.1620960682630539,-0.40000006556510925,-0.4001115560531616],"type":"VEC3"},{"bufferView":133,"componentType":5126,"count":285,"type":"VEC3"},{"bufferView":134,"componentType":5126,"count":285,"type":"VEC2"},{"bufferView":135,"componentType":5123,"count":50,"normalized":true,"type":"VEC4"},{"bufferView":136,"componentType":5126,"count":50,"max":[0.1361139863729477,0.2748536467552185,0.29106059670448303],"min":[0.04467451199889183,-0.27894407510757446,-0.29114869236946106],"type":"VEC3"},{"bufferView":137,"componentType":5126,"count":50,"type":"VEC3"},{"bufferView":138,"componentType":5126,"count":50,"type":"VEC2"},{"bufferView":139,"componentType":5123,"count":285,"normalized":true,"type":"VEC4"},{"bufferView":140,"componentType":5126,"count":285,"max":[0.16209638118743896,0.3999999165534973,0.4001116454601288],"min":[-0.16213145852088928,-0.40000006556510925,-0.3998885750770569],"type":"VEC3"},{"bufferView":141,"componentType":5126,"count":285,"type":"VEC3"},{"bufferView":142,"componentType":5126,"count":285,"type":"VEC2"},{"bufferView":143,"componentType":5123,"count":50,"normalized":true,"type":"VEC4"},{"bufferView":144,"componentType":5126,"count":50,"max":[-0.04467449337244034,0.2748536467552185,0.2911488711833954],"min":[-0.13611432909965515,-0.27894407510757446,-0.2910604178905487],"type":"VEC3"},{"bufferView":145,"componentType":5126,"count":50,"type":"VEC3"},{"bufferView":146,"componentType":5126,"count":50,"type":"VEC2"},{"bufferView":147,"componentType":5123,"count":678,"normalized":true,"type":"VEC4"},{"bufferView":148,"componentType":5126,"count":678,"max":[0.9819860458374023,1.339692234992981,2.1829726696014404],"min":[-0.9819860458374023,0.1449698507785797,-2.021433115005493],"type":"VEC3"},{"bufferView":149,"componentType":5126,"count":678,"type":"VEC3"},{"bufferView":150,"componentType":5126,"count":678,"type":"VEC2"},{"bufferView":151,"componentType":5123,"count":1752,"type":"SCALAR"},{"bufferView":152,"componentType":5123,"count":660,"normalized":true,"type":"VEC4"},{"bufferView":153,"componentType":5126,"count":660,"max":[1.155460000038147,1.3631563186645508,2.3083841800689697],"min":[-1.155460000038147,0.14665880799293518,-2.0233535766601562],"type":"VEC3"},{"bufferView":154,"componentType":5126,"count":660,"type":"VEC3"},{"bufferView":155,"componentType":5126,"count":660,"type":"VEC2"},{"bufferView":156,"componentType":5123,"count":2148,"type":"SCALAR"},{"bufferView":157,"componentType":5123,"count":94,"normalized":true,"type":"VEC4"},{"bufferView":158,"componentType":5126,"count":94,"max":[1.1280598640441895,1.2962937355041504,1.0471384525299072],"min":[-1.1280598640441895,0.9204443693161011,-1.154408574104309],"type":"VEC3"},{"bufferView":159,"componentType":5126,"count":94,"type":"VEC3"},{"bufferView":160,"componentType":5126,"count":94,"type":"VEC2"},{"bufferView":161,"componentType":5123,"count":264,"type":"SCALAR"},{"bufferView":162,"componentType":5123,"count":18,"normalized":true,"type":"VEC4"},{"bufferView":163,"componentType":5126,"count":18,"max":[0.899112343788147,0.7666485905647278,1.9124884605407715],"min":[-0.8991217017173767,0.6083522439002991,1.5094648599624634],"type":"VEC3"},{"bufferView":164,"componentType":5126,"count":18,"type":"VEC3"},{"bufferView":165,"componentType":5126,"count":18,"type":"VEC2"},{"bufferView":166,"componentType":5123,"count":42,"type":"SCALAR"},{"bufferView":167,"componentType":5123,"count":80,"normalized":true,"type":"VEC4"},{"bufferView":168,"componentType":5126,"count":80,"max":[0.7961827516555786,0.816625714302063,-1.827426552772522],"min":[-0.7961827516555786,0.6303499937057495,-1.942193865776062],"type":"VEC3"},{"bufferView":169,"componentType":5126,"count":80,"type":"VEC3"},{"bufferView":170,"componentType":5126,"count":80,"type":"VEC2"},{"bufferView":171,"componentType":5123,"count":204,"type":"SCALAR"},{"bufferView":172,"componentType":5123,"count":22,"normalized":true,"type":"VEC4"},{"bufferView":173,"componentType":5126,"count":22,"max":[0.9286785125732422,0.7909276485443115,2.0378799438476562],"min":[-0.9286878705024719,0.5868249535560608,1.5182329416275024],"type":"VEC3"},{"bufferView":174,"componentType":5126,"count":22,"type":"VEC3"},{"bufferView":175,"componentType":5126,"count":22,"type":"VEC2"},{"bufferView":176,"componentType":5123,"count":66,"type":"SCALAR"},{"bufferView":177,"componentType":5123,"count":285,"normalized":true,"type":"VEC4"},{"bufferView":178,"componentType":5126,"count":285,"max":[0.16213113069534302,0.3999999165534973,0.3998884856700897],"min":[-0.1620960682630539,-0.40000006556510925,-0.4001115560531616],"type":"VEC3"},{"bufferView":179,"componentType":5126,"count":285,"type":"VEC3"},{"bufferView":180,"componentType":5126,"count":285,"type":"VEC2"},{"bufferView":181,"componentType":5123,"count":54,"normalized":true,"type":"VEC4"},{"bufferView":182,"componentType":5126,"count":54,"max":[0.1361139863729477,0.2748536467552185,0.29106059670448303],"min":[0.04467451199889183,-0.27894407510757446,-0.29114869236946106],"type":"VEC3"},{"bufferView":183,"componentType":5126,"count":54,"type":"VEC3"},{"bufferView":184,"componentType":5126,"count":54,"type":"VEC2"},{"bufferView":185,"componentType":5123,"count":120,"type":"SCALAR"},{"bufferView":186,"componentType":5123,"count":285,"normalized":true,"type":"VEC4"},{"bufferView":187,"componentType":5126,"count":285,"max":[0.16209617257118225,0.3999999165534973,0.4001115560531616],"min":[-0.16213126480579376,-0.40000006556510925,-0.3998884856700897],"type":"VEC3"},{"bufferView":188,"componentType":5126,"count":285,"type":"VEC3"},{"bufferView":189,"componentType":5126,"count":285,"type":"VEC2"},{"bufferView":190,"componentType":5123,"count":54,"normalized":true,"type":"VEC4"},{"bufferView":191,"componentType":5126,"count":54,"max":[-0.044674504548311234,0.2748536467552185,0.2911487817764282],"min":[-0.13611413538455963,-0.27894407510757446,-0.29106050729751587],"type":"VEC3"},{"bufferView":192,"componentType":5126,"count":54,"type":"VEC3"},{"bufferView":193,"componentType":5126,"count":54,"type":"VEC2"},{"bufferView":194,"componentType":5123,"count":285,"normalized":true,"type":"VEC4"},{"bufferView":195,"componentType":5126,"count":285,"max":[0.16213113069534302,0.3999999165534973,0.3998884856700897],"min":[-0.1620960682630539,-0.40000006556510925,-0.4001115560531616],"type":"VEC3"},{"bufferView":196,"componentType":5126,"count":285,"type":"VEC3"},{"bufferView":197,"componentType":5126,"count":285,"type":"VEC2"},{"bufferView":198,"componentType":5123,"count":54,"normalized":true,"type":"VEC4"},{"bufferView":199,"componentType":5126,"count":54,"max":[0.1361139863729477,0.2748536467552185,0.29106059670448303],"min":[0.04467451199889183,-0.27894407510757446,-0.29114869236946106],"type":"VEC3"},{"bufferView":200,"componentType":5126,"count":54,"type":"VEC3"},{"bufferView":201,"componentType":5126,"count":54,"type":"VEC2"},{"bufferView":202,"componentType":5123,"count":285,"normalized":true,"type":"VEC4"},{"bufferView":203,"componentType":5126,"count":285,"max":[0.16209617257118225,0.3999999165534973,0.4001115560531616],"min":[-0.16213126480579376,-0.40000006556510925,-0.3998884856700897],"type":"VEC3"},{"bufferView":204,"componentType":5126,"count":285,"type":"VEC3"},{"bufferView":205,"componentType":5126,"count":285,"type":"VEC2"},{"bufferView":206,"componentType":5123,"count":54,"normalized":true,"type":"VEC4"},{"bufferView":207,"componentType":5126,"count":54,"max":[-0.044674504548311234,0.2748536467552185,0.2911487817764282],"min":[-0.13611413538455963,-0.27894407510757446,-0.29106050729751587],"type":"VEC3"},{"bufferView":208,"componentType":5126,"count":54,"type":"VEC3"},{"bufferView":209,"componentType":5126,"count":54,"type":"VEC2"},{"bufferView":210,"componentType":5123,"count":457,"normalized":true,"type":"VEC4"},{"bufferView":211,"componentType":5126,"count":457,"max":[1.0036572217941284,1.4339401721954346,2.003713607788086],"min":[-1.0033501386642456,0.152602419257164,-1.9192681312561035],"type":"VEC3"},{"bufferView":212,"componentType":5126,"count":457,"type":"VEC3"},{"bufferView":213,"componentType":5126,"count":457,"type":"VEC2"},{"bufferView":214,"componentType":5123,"count":1248,"type":"SCALAR"},{"bufferView":215,"componentType":5123,"count":906,"normalized":true,"type":"VEC4"},{"bufferView":216,"componentType":5126,"count":906,"max":[1.0876888036727905,1.4782252311706543,2.109272003173828],"min":[-1.0879329442977905,0.152602419257164,-2.0220673084259033],"type":"VEC3"},{"bufferView":217,"componentType":5126,"count":906,"type":"VEC3"},{"bufferView":218,"componentType":5126,"count":906,"type":"VEC2"},{"bufferView":219,"componentType":5123,"count":2886,"type":"SCALAR"},{"bufferView":220,"componentType":5123,"count":70,"normalized":true,"type":"VEC4"},{"bufferView":221,"componentType":5126,"count":70,"max":[1.0586886405944824,1.3958861827850342,0.9936060905456543],"min":[-1.0589327812194824,0.9292917251586914,-0.7287842631340027],"type":"VEC3"},{"bufferView":222,"componentType":5126,"count":70,"type":"VEC3"},{"bufferView":223,"componentType":5126,"count":70,"type":"VEC2"},{"bufferView":224,"componentType":5123,"count":174,"type":"SCALAR"},{"bufferView":225,"componentType":5123,"count":24,"normalized":true,"type":"VEC4"},{"bufferView":226,"componentType":5126,"count":24,"max":[0.8564546704292297,0.789059579372406,1.8919814825057983],"min":[-0.8561476469039917,0.5867435932159424,1.604676604270935],"type":"VEC3"},{"bufferView":227,"componentType":5126,"count":24,"type":"VEC3"},{"bufferView":228,"componentType":5126,"count":24,"type":"VEC2"},{"bufferView":229,"componentType":5123,"count":60,"type":"SCALAR"},{"bufferView":230,"componentType":5123,"count":40,"normalized":true,"type":"VEC4"},{"bufferView":231,"componentType":5126,"count":40,"max":[0.8895073533058167,1.0314717292785645,-1.5483675003051758],"min":[-0.8892002701759338,0.8576816320419312,-1.8893619775772095],"type":"VEC3"},{"bufferView":232,"componentType":5126,"count":40,"type":"VEC3"},{"bufferView":233,"componentType":5126,"count":40,"type":"VEC2"},{"bufferView":234,"componentType":5123,"count":60,"type":"SCALAR"},{"bufferView":235,"componentType":5123,"count":33,"normalized":true,"type":"VEC4"},{"bufferView":236,"componentType":5126,"count":33,"max":[0.902402400970459,0.8276004791259766,2.003713607788086],"min":[-0.902095377445221,0.5534816980361938,1.6144428253173828],"type":"VEC3"},{"bufferView":237,"componentType":5126,"count":33,"type":"VEC3"},{"bufferView":238,"componentType":5126,"count":33,"type":"VEC2"},{"bufferView":239,"componentType":5123,"count":108,"type":"SCALAR"},{"bufferView":240,"componentType":5126,"count":48,"max":[7.5,0.09999997913837433,7.5],"min":[-7.5,-0.10000001639127731,-7.5],"type":"VEC3"},{"bufferView":241,"componentType":5126,"count":48,"type":"VEC3"},{"bufferView":242,"componentType":5126,"count":48,"type":"VEC2"},{"bufferView":243,"componentType":5123,"count":72,"type":"SCALAR"},{"bufferView":244,"componentType":5126,"count":4,"max":[7.500366687774658,-0.10000000894069672,7.5],"min":[-7.499390125274658,-0.10000000894069672,-7.5],"type":"VEC3"},{"bufferView":245,"componentType":5126,"count":4,"type":"VEC3"},{"bufferView":246,"componentType":5126,"count":4,"type":"VEC2"},{"bufferView":247,"componentType":5123,"count":6,"type":"SCALAR"},{"bufferView":248,"componentType":5123,"count":6,"type":"SCALAR"},{"bufferView":249,"componentType":5126,"count":82,"max":[-1.7728652954101562,0.10000000149011612,7.500003814697266],"min":[-7.5,-0.10000000149011612,-7.499988555908203],"type":"VEC3"},{"bufferView":250,"componentType":5126,"count":82,"type":"VEC3"},{"bufferView":251,"componentType":5126,"count":82,"type":"VEC2"},{"bufferView":252,"componentType":5123,"count":126,"type":"SCALAR"},{"bufferView":253,"componentType":5126,"count":8,"max":[-1.8790836334228516,0,7.5000104904174805],"min":[-7.5,-9.5367431640625e-7,-7.499988555908203],"type":"VEC3"},{"bufferView":254,"componentType":5126,"count":8,"type":"VEC3"},{"bufferView":255,"componentType":5126,"count":8,"type":"VEC2"},{"bufferView":256,"componentType":5123,"count":18,"type":"SCALAR"},{"bufferView":257,"componentType":5126,"count":4,"max":[7.5,0,7.500003814697266],"min":[-1.8790836334228516,-9.5367431640625e-7,-7.499988555908203],"type":"VEC3"},{"bufferView":258,"componentType":5126,"count":4,"type":"VEC3"},{"bufferView":259,"componentType":5126,"count":4,"type":"VEC2"},{"bufferView":260,"componentType":5126,"count":8,"max":[-5.606972694396973,0,7.5000104904174805],"min":[-7.5,-9.5367431640625e-7,-7.499988555908203],"type":"VEC3"},{"bufferView":261,"componentType":5126,"count":8,"type":"VEC3"},{"bufferView":262,"componentType":5126,"count":8,"type":"VEC2"},{"bufferView":263,"componentType":5123,"count":12,"type":"SCALAR"},{"bufferView":264,"componentType":5126,"count":160,"max":[7.499998569488525,0.10000000149011612,7.5],"min":[1.7770425081253052,-0.10000000149011612,1.7706679105758667],"type":"VEC3"},{"bufferView":265,"componentType":5126,"count":160,"type":"VEC3"},{"bufferView":266,"componentType":5126,"count":160,"type":"VEC2"},{"bufferView":267,"componentType":5123,"count":276,"type":"SCALAR"},{"bufferView":268,"componentType":5126,"count":10,"max":[7.499980926513672,0,7.5],"min":[1.8760571479797363,-9.5367431640625e-7,1.8711148500442505],"type":"VEC3"},{"bufferView":269,"componentType":5126,"count":10,"type":"VEC3"},{"bufferView":270,"componentType":5126,"count":10,"type":"VEC2"},{"bufferView":271,"componentType":5123,"count":24,"type":"SCALAR"},{"bufferView":272,"componentType":5126,"count":8,"max":[7.499974727630615,0,7.5],"min":[-7.500000476837158,-9.5367431640625e-7,-7.5],"type":"VEC3"},{"bufferView":273,"componentType":5126,"count":8,"type":"VEC3"},{"bufferView":274,"componentType":5126,"count":8,"type":"VEC2"},{"bufferView":275,"componentType":5123,"count":18,"type":"SCALAR"},{"bufferView":276,"componentType":5126,"count":6,"max":[7.49998140335083,0,7.5],"min":[5.603943824768066,-9.5367431640625e-7,5.599004745483398],"type":"VEC3"},{"bufferView":277,"componentType":5126,"count":6,"type":"VEC3"},{"bufferView":278,"componentType":5126,"count":6,"type":"VEC2"},{"bufferView":279,"componentType":5123,"count":12,"type":"SCALAR"},{"bufferView":280,"componentType":5126,"count":106,"max":[0.22128364443778992,8.304719924926758,3.0710415840148926],"min":[-0.2213037759065628,0,-0.11709251999855042],"type":"VEC3"},{"bufferView":281,"componentType":5126,"count":106,"type":"VEC3"},{"bufferView":282,"componentType":5126,"count":106,"type":"VEC2"},{"bufferView":283,"componentType":5123,"count":336,"type":"SCALAR"},{"bufferView":284,"componentType":5126,"count":10,"max":[0.13364164531230927,7.941127300262451,3.0237202644348145],"min":[-0.13366179168224335,7.70126485824585,2.2360119819641113],"type":"VEC3"},{"bufferView":285,"componentType":5126,"count":10,"type":"VEC3"},{"bufferView":286,"componentType":5126,"count":10,"type":"VEC2"},{"bufferView":287,"componentType":5123,"count":24,"type":"SCALAR"},{"bufferView":288,"componentType":5126,"count":900,"max":[2.9428482055664062,4.208548545837402,3.024319648742676],"min":[-2.94284725189209,-0.026309873908758163,-3.0243191719055176],"type":"VEC3"},{"bufferView":289,"componentType":5126,"count":900,"type":"VEC3"},{"bufferView":290,"componentType":5126,"count":900,"type":"VEC2"},{"bufferView":291,"componentType":5123,"count":2304,"type":"SCALAR"},{"bufferView":292,"componentType":5126,"count":47,"max":[2.5089735984802246,3.02961802482605,2.508979320526123],"min":[-2.5089845657348633,0.5343243479728699,-2.508978843688965],"type":"VEC3"},{"bufferView":293,"componentType":5126,"count":47,"type":"VEC3"},{"bufferView":294,"componentType":5126,"count":47,"type":"VEC2"},{"bufferView":295,"componentType":5123,"count":132,"type":"SCALAR"},{"bufferView":296,"componentType":5126,"count":20,"max":[0.9925661087036133,1,0.49380436539649963],"min":[-0.9925661087036133,0,-0.49380436539649963],"type":"VEC3"},{"bufferView":297,"componentType":5126,"count":20,"type":"VEC3"},{"bufferView":298,"componentType":5126,"count":20,"type":"VEC2"},{"bufferView":299,"componentType":5123,"count":90,"type":"SCALAR"},{"bufferView":300,"componentType":5126,"count":457,"max":[0.7749559879302979,1.9806106090545654,0.8062148690223694],"min":[-0.8049391508102417,-3.166496753692627e-8,-0.8004156351089478],"type":"VEC3"},{"bufferView":301,"componentType":5126,"count":457,"type":"VEC3"},{"bufferView":302,"componentType":5126,"count":457,"type":"VEC2"},{"bufferView":303,"componentType":5123,"count":678,"type":"SCALAR"},{"bufferView":304,"componentType":5126,"count":457,"max":[0.7749559879302979,1.9806106090545654,0.8062148690223694],"min":[-0.8049391508102417,-3.166496753692627e-8,-0.8004156351089478],"type":"VEC3"},{"bufferView":305,"componentType":5126,"count":457,"type":"VEC3"},{"bufferView":306,"componentType":5126,"count":457,"type":"VEC2"}],"bufferViews":[{"buffer":0,"byteLength":960,"byteOffset":0,"target":34962},{"buffer":0,"byteLength":1440,"byteOffset":960,"target":34962},{"buffer":0,"byteLength":1440,"byteOffset":2400,"target":34962},{"buffer":0,"byteLength":960,"byteOffset":3840,"target":34962},{"buffer":0,"byteLength":1188,"byteOffset":4800,"target":34963},{"buffer":0,"byteLength":272,"byteOffset":5988,"target":34962},{"buffer":0,"byteLength":408,"byteOffset":6260,"target":34962},{"buffer":0,"byteLength":408,"byteOffset":6668,"target":34962},{"buffer":0,"byteLength":272,"byteOffset":7076,"target":34962},{"buffer":0,"byteLength":192,"byteOffset":7348,"target":34963},{"buffer":0,"byteLength":960,"byteOffset":7540,"target":34962},{"buffer":0,"byteLength":1440,"byteOffset":8500,"target":34962},{"buffer":0,"byteLength":1440,"byteOffset":9940,"target":34962},{"buffer":0,"byteLength":960,"byteOffset":11380,"target":34962},{"buffer":0,"byteLength":272,"byteOffset":12340,"target":34962},{"buffer":0,"byteLength":408,"byteOffset":12612,"target":34962},{"buffer":0,"byteLength":408,"byteOffset":13020,"target":34962},{"buffer":0,"byteLength":272,"byteOffset":13428,"target":34962},{"buffer":0,"byteLength":960,"byteOffset":13700,"target":34962},{"buffer":0,"byteLength":1440,"byteOffset":14660,"target":34962},{"buffer":0,"byteLength":1440,"byteOffset":16100,"target":34962},{"buffer":0,"byteLength":960,"byteOffset":17540,"target":34962},{"buffer":0,"byteLength":272,"byteOffset":18500,"target":34962},{"buffer":0,"byteLength":408,"byteOffset":18772,"target":34962},{"buffer":0,"byteLength":408,"byteOffset":19180,"target":34962},{"buffer":0,"byteLength":272,"byteOffset":19588,"target":34962},{"buffer":0,"byteLength":960,"byteOffset":19860,"target":34962},{"buffer":0,"byteLength":1440,"byteOffset":20820,"target":34962},{"buffer":0,"byteLength":1440,"byteOffset":22260,"target":34962},{"buffer":0,"byteLength":960,"byteOffset":23700,"target":34962},{"buffer":0,"byteLength":272,"byteOffset":24660,"target":34962},{"buffer":0,"byteLength":408,"byteOffset":24932,"target":34962},{"buffer":0,"byteLength":408,"byteOffset":25340,"target":34962},{"buffer":0,"byteLength":272,"byteOffset":25748,"target":34962},{"buffer":0,"byteLength":12192,"byteOffset":26020,"target":34962},{"buffer":0,"byteLength":18288,"byteOffset":38212,"target":34962},{"buffer":0,"byteLength":18288,"byteOffset":56500,"target":34962},{"buffer":0,"byteLength":12192,"byteOffset":74788,"target":34962},{"buffer":0,"byteLength":10470,"byteOffset":86980,"target":34963},{"buffer":0,"byteLength":1056,"byteOffset":97452,"target":34962},{"buffer":0,"byteLength":1584,"byteOffset":98508,"target":34962},{"buffer":0,"byteLength":1584,"byteOffset":100092,"target":34962},{"buffer":0,"byteLength":1056,"byteOffset":101676,"target":34962},{"buffer":0,"byteLength":744,"byteOffset":102732,"target":34963},{"buffer":0,"byteLength":840,"byteOffset":103476,"target":34962},{"buffer":0,"byteLength":1260,"byteOffset":104316,"target":34962},{"buffer":0,"byteLength":1260,"byteOffset":105576,"target":34962},{"buffer":0,"byteLength":840,"byteOffset":106836,"target":34962},{"buffer":0,"byteLength":522,"byteOffset":107676,"target":34963},{"buffer":0,"byteLength":480,"byteOffset":108200,"target":34962},{"buffer":0,"byteLength":720,"byteOffset":108680,"target":34962},{"buffer":0,"byteLength":720,"byteOffset":109400,"target":34962},{"buffer":0,"byteLength":480,"byteOffset":110120,"target":34962},{"buffer":0,"byteLength":576,"byteOffset":110600,"target":34963},{"buffer":0,"byteLength":768,"byteOffset":111176,"target":34962},{"buffer":0,"byteLength":1152,"byteOffset":111944,"target":34962},{"buffer":0,"byteLength":1152,"byteOffset":113096,"target":34962},{"buffer":0,"byteLength":768,"byteOffset":114248,"target":34962},{"buffer":0,"byteLength":816,"byteOffset":115016,"target":34963},{"buffer":0,"byteLength":2184,"byteOffset":115832,"target":34962},{"buffer":0,"byteLength":3276,"byteOffset":118016,"target":34962},{"buffer":0,"byteLength":3276,"byteOffset":121292,"target":34962},{"buffer":0,"byteLength":2184,"byteOffset":124568,"target":34962},{"buffer":0,"byteLength":1800,"byteOffset":126752,"target":34963},{"buffer":0,"byteLength":2184,"byteOffset":128552,"target":34962},{"buffer":0,"byteLength":3276,"byteOffset":130736,"target":34962},{"buffer":0,"byteLength":3276,"byteOffset":134012,"target":34962},{"buffer":0,"byteLength":2184,"byteOffset":137288,"target":34962},{"buffer":0,"byteLength":1800,"byteOffset":139472,"target":34963},{"buffer":0,"byteLength":2184,"byteOffset":141272,"target":34962},{"buffer":0,"byteLength":3276,"byteOffset":143456,"target":34962},{"buffer":0,"byteLength":3276,"byteOffset":146732,"target":34962},{"buffer":0,"byteLength":2184,"byteOffset":150008,"target":34962},{"buffer":0,"byteLength":2184,"byteOffset":152192,"target":34962},{"buffer":0,"byteLength":3276,"byteOffset":154376,"target":34962},{"buffer":0,"byteLength":3276,"byteOffset":157652,"target":34962},{"buffer":0,"byteLength":2184,"byteOffset":160928,"target":34962},{"buffer":0,"byteLength":4496,"byteOffset":163112,"target":34962},{"buffer":0,"byteLength":6744,"byteOffset":167608,"target":34962},{"buffer":0,"byteLength":6744,"byteOffset":174352,"target":34962},{"buffer":0,"byteLength":4496,"byteOffset":181096,"target":34962},{"buffer":0,"byteLength":2940,"byteOffset":185592,"target":34963},{"buffer":0,"byteLength":4488,"byteOffset":188532,"target":34962},{"buffer":0,"byteLength":6732,"byteOffset":193020,"target":34962},{"buffer":0,"byteLength":6732,"byteOffset":199752,"target":34962},{"buffer":0,"byteLength":4488,"byteOffset":206484,"target":34962},{"buffer":0,"byteLength":3900,"byteOffset":210972,"target":34963},{"buffer":0,"byteLength":776,"byteOffset":214872,"target":34962},{"buffer":0,"byteLength":1164,"byteOffset":215648,"target":34962},{"buffer":0,"byteLength":1164,"byteOffset":216812,"target":34962},{"buffer":0,"byteLength":776,"byteOffset":217976,"target":34962},{"buffer":0,"byteLength":540,"byteOffset":218752,"target":34963},{"buffer":0,"byteLength":192,"byteOffset":219292,"target":34962},{"buffer":0,"byteLength":288,"byteOffset":219484,"target":34962},{"buffer":0,"byteLength":288,"byteOffset":219772,"target":34962},{"buffer":0,"byteLength":192,"byteOffset":220060,"target":34962},{"buffer":0,"byteLength":120,"byteOffset":220252,"target":34963},{"buffer":0,"byteLength":208,"byteOffset":220372,"target":34962},{"buffer":0,"byteLength":312,"byteOffset":220580,"target":34962},{"buffer":0,"byteLength":312,"byteOffset":220892,"target":34962},{"buffer":0,"byteLength":208,"byteOffset":221204,"target":34962},{"buffer":0,"byteLength":144,"byteOffset":221412,"target":34963},{"buffer":0,"byteLength":576,"byteOffset":221556,"target":34962},{"buffer":0,"byteLength":864,"byteOffset":222132,"target":34962},{"buffer":0,"byteLength":864,"byteOffset":222996,"target":34962},{"buffer":0,"byteLength":576,"byteOffset":223860,"target":34962},{"buffer":0,"byteLength":408,"byteOffset":224436,"target":34963},{"buffer":0,"byteLength":992,"byteOffset":224844,"target":34962},{"buffer":0,"byteLength":1488,"byteOffset":225836,"target":34962},{"buffer":0,"byteLength":1488,"byteOffset":227324,"target":34962},{"buffer":0,"byteLength":992,"byteOffset":228812,"target":34962},{"buffer":0,"byteLength":540,"byteOffset":229804,"target":34963},{"buffer":0,"byteLength":2280,"byteOffset":230344,"target":34962},{"buffer":0,"byteLength":3420,"byteOffset":232624,"target":34962},{"buffer":0,"byteLength":3420,"byteOffset":236044,"target":34962},{"buffer":0,"byteLength":2280,"byteOffset":239464,"target":34962},{"buffer":0,"byteLength":2028,"byteOffset":241744,"target":34963},{"buffer":0,"byteLength":400,"byteOffset":243772,"target":34962},{"buffer":0,"byteLength":600,"byteOffset":244172,"target":34962},{"buffer":0,"byteLength":600,"byteOffset":244772,"target":34962},{"buffer":0,"byteLength":400,"byteOffset":245372,"target":34962},{"buffer":0,"byteLength":240,"byteOffset":245772,"target":34963},{"buffer":0,"byteLength":2280,"byteOffset":246012,"target":34962},{"buffer":0,"byteLength":3420,"byteOffset":248292,"target":34962},{"buffer":0,"byteLength":3420,"byteOffset":251712,"target":34962},{"buffer":0,"byteLength":2280,"byteOffset":255132,"target":34962},{"buffer":0,"byteLength":2028,"byteOffset":257412,"target":34963},{"buffer":0,"byteLength":400,"byteOffset":259440,"target":34962},{"buffer":0,"byteLength":600,"byteOffset":259840,"target":34962},{"buffer":0,"byteLength":600,"byteOffset":260440,"target":34962},{"buffer":0,"byteLength":400,"byteOffset":261040,"target":34962},{"buffer":0,"byteLength":2280,"byteOffset":261440,"target":34962},{"buffer":0,"byteLength":3420,"byteOffset":263720,"target":34962},{"buffer":0,"byteLength":3420,"byteOffset":267140,"target":34962},{"buffer":0,"byteLength":2280,"byteOffset":270560,"target":34962},{"buffer":0,"byteLength":400,"byteOffset":272840,"target":34962},{"buffer":0,"byteLength":600,"byteOffset":273240,"target":34962},{"buffer":0,"byteLength":600,"byteOffset":273840,"target":34962},{"buffer":0,"byteLength":400,"byteOffset":274440,"target":34962},{"buffer":0,"byteLength":2280,"byteOffset":274840,"target":34962},{"buffer":0,"byteLength":3420,"byteOffset":277120,"target":34962},{"buffer":0,"byteLength":3420,"byteOffset":280540,"target":34962},{"buffer":0,"byteLength":2280,"byteOffset":283960,"target":34962},{"buffer":0,"byteLength":400,"byteOffset":286240,"target":34962},{"buffer":0,"byteLength":600,"byteOffset":286640,"target":34962},{"buffer":0,"byteLength":600,"byteOffset":287240,"target":34962},{"buffer":0,"byteLength":400,"byteOffset":287840,"target":34962},{"buffer":0,"byteLength":5424,"byteOffset":288240,"target":34962},{"buffer":0,"byteLength":8136,"byteOffset":293664,"target":34962},{"buffer":0,"byteLength":8136,"byteOffset":301800,"target":34962},{"buffer":0,"byteLength":5424,"byteOffset":309936,"target":34962},{"buffer":0,"byteLength":3504,"byteOffset":315360,"target":34963},{"buffer":0,"byteLength":5280,"byteOffset":318864,"target":34962},{"buffer":0,"byteLength":7920,"byteOffset":324144,"target":34962},{"buffer":0,"byteLength":7920,"byteOffset":332064,"target":34962},{"buffer":0,"byteLength":5280,"byteOffset":339984,"target":34962},{"buffer":0,"byteLength":4296,"byteOffset":345264,"target":34963},{"buffer":0,"byteLength":752,"byteOffset":349560,"target":34962},{"buffer":0,"byteLength":1128,"byteOffset":350312,"target":34962},{"buffer":0,"byteLength":1128,"byteOffset":351440,"target":34962},{"buffer":0,"byteLength":752,"byteOffset":352568,"target":34962},{"buffer":0,"byteLength":528,"byteOffset":353320,"target":34963},{"buffer":0,"byteLength":144,"byteOffset":353848,"target":34962},{"buffer":0,"byteLength":216,"byteOffset":353992,"target":34962},{"buffer":0,"byteLength":216,"byteOffset":354208,"target":34962},{"buffer":0,"byteLength":144,"byteOffset":354424,"target":34962},{"buffer":0,"byteLength":84,"byteOffset":354568,"target":34963},{"buffer":0,"byteLength":640,"byteOffset":354652,"target":34962},{"buffer":0,"byteLength":960,"byteOffset":355292,"target":34962},{"buffer":0,"byteLength":960,"byteOffset":356252,"target":34962},{"buffer":0,"byteLength":640,"byteOffset":357212,"target":34962},{"buffer":0,"byteLength":408,"byteOffset":357852,"target":34963},{"buffer":0,"byteLength":176,"byteOffset":358260,"target":34962},{"buffer":0,"byteLength":264,"byteOffset":358436,"target":34962},{"buffer":0,"byteLength":264,"byteOffset":358700,"target":34962},{"buffer":0,"byteLength":176,"byteOffset":358964,"target":34962},{"buffer":0,"byteLength":132,"byteOffset":359140,"target":34963},{"buffer":0,"byteLength":2280,"byteOffset":359272,"target":34962},{"buffer":0,"byteLength":3420,"byteOffset":361552,"target":34962},{"buffer":0,"byteLength":3420,"byteOffset":364972,"target":34962},{"buffer":0,"byteLength":2280,"byteOffset":368392,"target":34962},{"buffer":0,"byteLength":432,"byteOffset":370672,"target":34962},{"buffer":0,"byteLength":648,"byteOffset":371104,"target":34962},{"buffer":0,"byteLength":648,"byteOffset":371752,"target":34962},{"buffer":0,"byteLength":432,"byteOffset":372400,"target":34962},{"buffer":0,"byteLength":240,"byteOffset":372832,"target":34963},{"buffer":0,"byteLength":2280,"byteOffset":373072,"target":34962},{"buffer":0,"byteLength":3420,"byteOffset":375352,"target":34962},{"buffer":0,"byteLength":3420,"byteOffset":378772,"target":34962},{"buffer":0,"byteLength":2280,"byteOffset":382192,"target":34962},{"buffer":0,"byteLength":432,"byteOffset":384472,"target":34962},{"buffer":0,"byteLength":648,"byteOffset":384904,"target":34962},{"buffer":0,"byteLength":648,"byteOffset":385552,"target":34962},{"buffer":0,"byteLength":432,"byteOffset":386200,"target":34962},{"buffer":0,"byteLength":2280,"byteOffset":386632,"target":34962},{"buffer":0,"byteLength":3420,"byteOffset":388912,"target":34962},{"buffer":0,"byteLength":3420,"byteOffset":392332,"target":34962},{"buffer":0,"byteLength":2280,"byteOffset":395752,"target":34962},{"buffer":0,"byteLength":432,"byteOffset":398032,"target":34962},{"buffer":0,"byteLength":648,"byteOffset":398464,"target":34962},{"buffer":0,"byteLength":648,"byteOffset":399112,"target":34962},{"buffer":0,"byteLength":432,"byteOffset":399760,"target":34962},{"buffer":0,"byteLength":2280,"byteOffset":400192,"target":34962},{"buffer":0,"byteLength":3420,"byteOffset":402472,"target":34962},{"buffer":0,"byteLength":3420,"byteOffset":405892,"target":34962},{"buffer":0,"byteLength":2280,"byteOffset":409312,"target":34962},{"buffer":0,"byteLength":432,"byteOffset":411592,"target":34962},{"buffer":0,"byteLength":648,"byteOffset":412024,"target":34962},{"buffer":0,"byteLength":648,"byteOffset":412672,"target":34962},{"buffer":0,"byteLength":432,"byteOffset":413320,"target":34962},{"buffer":0,"byteLength":3656,"byteOffset":413752,"target":34962},{"buffer":0,"byteLength":5484,"byteOffset":417408,"target":34962},{"buffer":0,"byteLength":5484,"byteOffset":422892,"target":34962},{"buffer":0,"byteLength":3656,"byteOffset":428376,"target":34962},{"buffer":0,"byteLength":2496,"byteOffset":432032,"target":34963},{"buffer":0,"byteLength":7248,"byteOffset":434528,"target":34962},{"buffer":0,"byteLength":10872,"byteOffset":441776,"target":34962},{"buffer":0,"byteLength":10872,"byteOffset":452648,"target":34962},{"buffer":0,"byteLength":7248,"byteOffset":463520,"target":34962},{"buffer":0,"byteLength":5772,"byteOffset":470768,"target":34963},{"buffer":0,"byteLength":560,"byteOffset":476540,"target":34962},{"buffer":0,"byteLength":840,"byteOffset":477100,"target":34962},{"buffer":0,"byteLength":840,"byteOffset":477940,"target":34962},{"buffer":0,"byteLength":560,"byteOffset":478780,"target":34962},{"buffer":0,"byteLength":348,"byteOffset":479340,"target":34963},{"buffer":0,"byteLength":192,"byteOffset":479688,"target":34962},{"buffer":0,"byteLength":288,"byteOffset":479880,"target":34962},{"buffer":0,"byteLength":288,"byteOffset":480168,"target":34962},{"buffer":0,"byteLength":192,"byteOffset":480456,"target":34962},{"buffer":0,"byteLength":120,"byteOffset":480648,"target":34963},{"buffer":0,"byteLength":320,"byteOffset":480768,"target":34962},{"buffer":0,"byteLength":480,"byteOffset":481088,"target":34962},{"buffer":0,"byteLength":480,"byteOffset":481568,"target":34962},{"buffer":0,"byteLength":320,"byteOffset":482048,"target":34962},{"buffer":0,"byteLength":120,"byteOffset":482368,"target":34963},{"buffer":0,"byteLength":264,"byteOffset":482488,"target":34962},{"buffer":0,"byteLength":396,"byteOffset":482752,"target":34962},{"buffer":0,"byteLength":396,"byteOffset":483148,"target":34962},{"buffer":0,"byteLength":264,"byteOffset":483544,"target":34962},{"buffer":0,"byteLength":216,"byteOffset":483808,"target":34963},{"buffer":0,"byteLength":576,"byteOffset":484024,"target":34962},{"buffer":0,"byteLength":576,"byteOffset":484600,"target":34962},{"buffer":0,"byteLength":384,"byteOffset":485176,"target":34962},{"buffer":0,"byteLength":144,"byteOffset":485560,"target":34963},{"buffer":0,"byteLength":48,"byteOffset":485704,"target":34962},{"buffer":0,"byteLength":48,"byteOffset":485752,"target":34962},{"buffer":0,"byteLength":32,"byteOffset":485800,"target":34962},{"buffer":0,"byteLength":12,"byteOffset":485832,"target":34963},{"buffer":0,"byteLength":12,"byteOffset":485844,"target":34963},{"buffer":0,"byteLength":984,"byteOffset":485856,"target":34962},{"buffer":0,"byteLength":984,"byteOffset":486840,"target":34962},{"buffer":0,"byteLength":656,"byteOffset":487824,"target":34962},{"buffer":0,"byteLength":252,"byteOffset":488480,"target":34963},{"buffer":0,"byteLength":96,"byteOffset":488732,"target":34962},{"buffer":0,"byteLength":96,"byteOffset":488828,"target":34962},{"buffer":0,"byteLength":64,"byteOffset":488924,"target":34962},{"buffer":0,"byteLength":36,"byteOffset":488988,"target":34963},{"buffer":0,"byteLength":48,"byteOffset":489024,"target":34962},{"buffer":0,"byteLength":48,"byteOffset":489072,"target":34962},{"buffer":0,"byteLength":32,"byteOffset":489120,"target":34962},{"buffer":0,"byteLength":96,"byteOffset":489152,"target":34962},{"buffer":0,"byteLength":96,"byteOffset":489248,"target":34962},{"buffer":0,"byteLength":64,"byteOffset":489344,"target":34962},{"buffer":0,"byteLength":24,"byteOffset":489408,"target":34963},{"buffer":0,"byteLength":1920,"byteOffset":489432,"target":34962},{"buffer":0,"byteLength":1920,"byteOffset":491352,"target":34962},{"buffer":0,"byteLength":1280,"byteOffset":493272,"target":34962},{"buffer":0,"byteLength":552,"byteOffset":494552,"target":34963},{"buffer":0,"byteLength":120,"byteOffset":495104,"target":34962},{"buffer":0,"byteLength":120,"byteOffset":495224,"target":34962},{"buffer":0,"byteLength":80,"byteOffset":495344,"target":34962},{"buffer":0,"byteLength":48,"byteOffset":495424,"target":34963},{"buffer":0,"byteLength":96,"byteOffset":495472,"target":34962},{"buffer":0,"byteLength":96,"byteOffset":495568,"target":34962},{"buffer":0,"byteLength":64,"byteOffset":495664,"target":34962},{"buffer":0,"byteLength":36,"byteOffset":495728,"target":34963},{"buffer":0,"byteLength":72,"byteOffset":495764,"target":34962},{"buffer":0,"byteLength":72,"byteOffset":495836,"target":34962},{"buffer":0,"byteLength":48,"byteOffset":495908,"target":34962},{"buffer":0,"byteLength":24,"byteOffset":495956,"target":34963},{"buffer":0,"byteLength":1272,"byteOffset":495980,"target":34962},{"buffer":0,"byteLength":1272,"byteOffset":497252,"target":34962},{"buffer":0,"byteLength":848,"byteOffset":498524,"target":34962},{"buffer":0,"byteLength":672,"byteOffset":499372,"target":34963},{"buffer":0,"byteLength":120,"byteOffset":500044,"target":34962},{"buffer":0,"byteLength":120,"byteOffset":500164,"target":34962},{"buffer":0,"byteLength":80,"byteOffset":500284,"target":34962},{"buffer":0,"byteLength":48,"byteOffset":500364,"target":34963},{"buffer":0,"byteLength":10800,"byteOffset":500412,"target":34962},{"buffer":0,"byteLength":10800,"byteOffset":511212,"target":34962},{"buffer":0,"byteLength":7200,"byteOffset":522012,"target":34962},{"buffer":0,"byteLength":4608,"byteOffset":529212,"target":34963},{"buffer":0,"byteLength":564,"byteOffset":533820,"target":34962},{"buffer":0,"byteLength":564,"byteOffset":534384,"target":34962},{"buffer":0,"byteLength":376,"byteOffset":534948,"target":34962},{"buffer":0,"byteLength":264,"byteOffset":535324,"target":34963},{"buffer":0,"byteLength":240,"byteOffset":535588,"target":34962},{"buffer":0,"byteLength":240,"byteOffset":535828,"target":34962},{"buffer":0,"byteLength":160,"byteOffset":536068,"target":34962},{"buffer":0,"byteLength":180,"byteOffset":536228,"target":34963},{"buffer":0,"byteLength":5484,"byteOffset":536408,"target":34962},{"buffer":0,"byteLength":5484,"byteOffset":541892,"target":34962},{"buffer":0,"byteLength":3656,"byteOffset":547376,"target":34962},{"buffer":0,"byteLength":1356,"byteOffset":551032,"target":34963},{"buffer":0,"byteLength":5484,"byteOffset":552388,"target":34962},{"buffer":0,"byteLength":5484,"byteOffset":557872,"target":34962},{"buffer":0,"byteLength":3656,"byteOffset":563356,"target":34962}],"buffers":[{"uri":"south-central-center.bin","byteLength":567012}]}